<?xml version="1.0" encoding="utf-8" standalone="no"?>
<!DOCTYPE svg PUBLIC "-//W3C//DTD SVG 1.1//EN"
  "http://www.w3.org/Graphics/SVG/1.1/DTD/svg11.dtd">
<svg xmlns:xlink="http://www.w3.org/1999/xlink" width="460.8pt" height="345.6pt" viewBox="0 0 460.8 345.6" xmlns="http://www.w3.org/2000/svg" version="1.1">
 <metadata>
  <rdf:RDF xmlns:dc="http://purl.org/dc/elements/1.1/" xmlns:cc="http://creativecommons.org/ns#" xmlns:rdf="http://www.w3.org/1999/02/22-rdf-syntax-ns#">
   <cc:Work>
    <dc:type rdf:resource="http://purl.org/dc/dcmitype/StillImage"/>
    <dc:date>2024-10-20T18:54:32.889691</dc:date>
    <dc:format>image/svg+xml</dc:format>
    <dc:creator>
     <cc:Agent>
      <dc:title>Matplotlib v3.9.2, https://matplotlib.org/</dc:title>
     </cc:Agent>
    </dc:creator>
   </cc:Work>
  </rdf:RDF>
 </metadata>
 <defs>
  <style type="text/css">*{stroke-linejoin: round; stroke-linecap: butt}</style>
 </defs>
 <g id="figure_1">
  <g id="patch_1">
   <path d="M 0 345.6 
L 460.8 345.6 
L 460.8 0 
L 0 0 
z
" style="fill: #ffffff"/>
  </g>
  <g id="axes_1">
   <g id="patch_2">
    <path d="M 57.6 307.584 
L 414.72 307.584 
L 414.72 41.472 
L 57.6 41.472 
z
" style="fill: #ffffff"/>
   </g>
   <g id="matplotlib.axis_1">
    <g id="xtick_1">
     <g id="line2d_1">
      <defs>
       <path id="m13b2efa178" d="M 0 0 
L 0 3.5 
" style="stroke: #000000; stroke-width: 0.8"/>
      </defs>
      <g>
       <use xlink:href="#m13b2efa178" x="73.832727" y="307.584" style="stroke: #000000; stroke-width: 0.8"/>
      </g>
     </g>
     <g id="text_1">
      <!-- 0.0 -->
      <g transform="translate(65.881165 322.182437) scale(0.1 -0.1)">
       <defs>
        <path id="DejaVuSans-30" d="M 2034 4250 
Q 1547 4250 1301 3770 
Q 1056 3291 1056 2328 
Q 1056 1369 1301 889 
Q 1547 409 2034 409 
Q 2525 409 2770 889 
Q 3016 1369 3016 2328 
Q 3016 3291 2770 3770 
Q 2525 4250 2034 4250 
z
M 2034 4750 
Q 2819 4750 3233 4129 
Q 3647 3509 3647 2328 
Q 3647 1150 3233 529 
Q 2819 -91 2034 -91 
Q 1250 -91 836 529 
Q 422 1150 422 2328 
Q 422 3509 836 4129 
Q 1250 4750 2034 4750 
z
" transform="scale(0.015625)"/>
        <path id="DejaVuSans-2e" d="M 684 794 
L 1344 794 
L 1344 0 
L 684 0 
L 684 794 
z
" transform="scale(0.015625)"/>
       </defs>
       <use xlink:href="#DejaVuSans-30"/>
       <use xlink:href="#DejaVuSans-2e" x="63.623047"/>
       <use xlink:href="#DejaVuSans-30" x="95.410156"/>
      </g>
     </g>
    </g>
    <g id="xtick_2">
     <g id="line2d_2">
      <g>
       <use xlink:href="#m13b2efa178" x="138.998232" y="307.584" style="stroke: #000000; stroke-width: 0.8"/>
      </g>
     </g>
     <g id="text_2">
      <!-- 0.2 -->
      <g transform="translate(131.04667 322.182437) scale(0.1 -0.1)">
       <defs>
        <path id="DejaVuSans-32" d="M 1228 531 
L 3431 531 
L 3431 0 
L 469 0 
L 469 531 
Q 828 903 1448 1529 
Q 2069 2156 2228 2338 
Q 2531 2678 2651 2914 
Q 2772 3150 2772 3378 
Q 2772 3750 2511 3984 
Q 2250 4219 1831 4219 
Q 1534 4219 1204 4116 
Q 875 4013 500 3803 
L 500 4441 
Q 881 4594 1212 4672 
Q 1544 4750 1819 4750 
Q 2544 4750 2975 4387 
Q 3406 4025 3406 3419 
Q 3406 3131 3298 2873 
Q 3191 2616 2906 2266 
Q 2828 2175 2409 1742 
Q 1991 1309 1228 531 
z
" transform="scale(0.015625)"/>
       </defs>
       <use xlink:href="#DejaVuSans-30"/>
       <use xlink:href="#DejaVuSans-2e" x="63.623047"/>
       <use xlink:href="#DejaVuSans-32" x="95.410156"/>
      </g>
     </g>
    </g>
    <g id="xtick_3">
     <g id="line2d_3">
      <g>
       <use xlink:href="#m13b2efa178" x="204.163737" y="307.584" style="stroke: #000000; stroke-width: 0.8"/>
      </g>
     </g>
     <g id="text_3">
      <!-- 0.4 -->
      <g transform="translate(196.212175 322.182437) scale(0.1 -0.1)">
       <defs>
        <path id="DejaVuSans-34" d="M 2419 4116 
L 825 1625 
L 2419 1625 
L 2419 4116 
z
M 2253 4666 
L 3047 4666 
L 3047 1625 
L 3713 1625 
L 3713 1100 
L 3047 1100 
L 3047 0 
L 2419 0 
L 2419 1100 
L 313 1100 
L 313 1709 
L 2253 4666 
z
" transform="scale(0.015625)"/>
       </defs>
       <use xlink:href="#DejaVuSans-30"/>
       <use xlink:href="#DejaVuSans-2e" x="63.623047"/>
       <use xlink:href="#DejaVuSans-34" x="95.410156"/>
      </g>
     </g>
    </g>
    <g id="xtick_4">
     <g id="line2d_4">
      <g>
       <use xlink:href="#m13b2efa178" x="269.329242" y="307.584" style="stroke: #000000; stroke-width: 0.8"/>
      </g>
     </g>
     <g id="text_4">
      <!-- 0.6 -->
      <g transform="translate(261.377679 322.182437) scale(0.1 -0.1)">
       <defs>
        <path id="DejaVuSans-36" d="M 2113 2584 
Q 1688 2584 1439 2293 
Q 1191 2003 1191 1497 
Q 1191 994 1439 701 
Q 1688 409 2113 409 
Q 2538 409 2786 701 
Q 3034 994 3034 1497 
Q 3034 2003 2786 2293 
Q 2538 2584 2113 2584 
z
M 3366 4563 
L 3366 3988 
Q 3128 4100 2886 4159 
Q 2644 4219 2406 4219 
Q 1781 4219 1451 3797 
Q 1122 3375 1075 2522 
Q 1259 2794 1537 2939 
Q 1816 3084 2150 3084 
Q 2853 3084 3261 2657 
Q 3669 2231 3669 1497 
Q 3669 778 3244 343 
Q 2819 -91 2113 -91 
Q 1303 -91 875 529 
Q 447 1150 447 2328 
Q 447 3434 972 4092 
Q 1497 4750 2381 4750 
Q 2619 4750 2861 4703 
Q 3103 4656 3366 4563 
z
" transform="scale(0.015625)"/>
       </defs>
       <use xlink:href="#DejaVuSans-30"/>
       <use xlink:href="#DejaVuSans-2e" x="63.623047"/>
       <use xlink:href="#DejaVuSans-36" x="95.410156"/>
      </g>
     </g>
    </g>
    <g id="xtick_5">
     <g id="line2d_5">
      <g>
       <use xlink:href="#m13b2efa178" x="334.494747" y="307.584" style="stroke: #000000; stroke-width: 0.8"/>
      </g>
     </g>
     <g id="text_5">
      <!-- 0.8 -->
      <g transform="translate(326.543184 322.182437) scale(0.1 -0.1)">
       <defs>
        <path id="DejaVuSans-38" d="M 2034 2216 
Q 1584 2216 1326 1975 
Q 1069 1734 1069 1313 
Q 1069 891 1326 650 
Q 1584 409 2034 409 
Q 2484 409 2743 651 
Q 3003 894 3003 1313 
Q 3003 1734 2745 1975 
Q 2488 2216 2034 2216 
z
M 1403 2484 
Q 997 2584 770 2862 
Q 544 3141 544 3541 
Q 544 4100 942 4425 
Q 1341 4750 2034 4750 
Q 2731 4750 3128 4425 
Q 3525 4100 3525 3541 
Q 3525 3141 3298 2862 
Q 3072 2584 2669 2484 
Q 3125 2378 3379 2068 
Q 3634 1759 3634 1313 
Q 3634 634 3220 271 
Q 2806 -91 2034 -91 
Q 1263 -91 848 271 
Q 434 634 434 1313 
Q 434 1759 690 2068 
Q 947 2378 1403 2484 
z
M 1172 3481 
Q 1172 3119 1398 2916 
Q 1625 2713 2034 2713 
Q 2441 2713 2670 2916 
Q 2900 3119 2900 3481 
Q 2900 3844 2670 4047 
Q 2441 4250 2034 4250 
Q 1625 4250 1398 4047 
Q 1172 3844 1172 3481 
z
" transform="scale(0.015625)"/>
       </defs>
       <use xlink:href="#DejaVuSans-30"/>
       <use xlink:href="#DejaVuSans-2e" x="63.623047"/>
       <use xlink:href="#DejaVuSans-38" x="95.410156"/>
      </g>
     </g>
    </g>
    <g id="xtick_6">
     <g id="line2d_6">
      <g>
       <use xlink:href="#m13b2efa178" x="399.660252" y="307.584" style="stroke: #000000; stroke-width: 0.8"/>
      </g>
     </g>
     <g id="text_6">
      <!-- 1.0 -->
      <g transform="translate(391.708689 322.182437) scale(0.1 -0.1)">
       <defs>
        <path id="DejaVuSans-31" d="M 794 531 
L 1825 531 
L 1825 4091 
L 703 3866 
L 703 4441 
L 1819 4666 
L 2450 4666 
L 2450 531 
L 3481 531 
L 3481 0 
L 794 0 
L 794 531 
z
" transform="scale(0.015625)"/>
       </defs>
       <use xlink:href="#DejaVuSans-31"/>
       <use xlink:href="#DejaVuSans-2e" x="63.623047"/>
       <use xlink:href="#DejaVuSans-30" x="95.410156"/>
      </g>
     </g>
    </g>
    <g id="text_7">
     <!-- FPR (fraction hits correct) -->
     <g transform="translate(172.292031 335.860562) scale(0.1 -0.1)">
      <defs>
       <path id="DejaVuSans-46" d="M 628 4666 
L 3309 4666 
L 3309 4134 
L 1259 4134 
L 1259 2759 
L 3109 2759 
L 3109 2228 
L 1259 2228 
L 1259 0 
L 628 0 
L 628 4666 
z
" transform="scale(0.015625)"/>
       <path id="DejaVuSans-50" d="M 1259 4147 
L 1259 2394 
L 2053 2394 
Q 2494 2394 2734 2622 
Q 2975 2850 2975 3272 
Q 2975 3691 2734 3919 
Q 2494 4147 2053 4147 
L 1259 4147 
z
M 628 4666 
L 2053 4666 
Q 2838 4666 3239 4311 
Q 3641 3956 3641 3272 
Q 3641 2581 3239 2228 
Q 2838 1875 2053 1875 
L 1259 1875 
L 1259 0 
L 628 0 
L 628 4666 
z
" transform="scale(0.015625)"/>
       <path id="DejaVuSans-52" d="M 2841 2188 
Q 3044 2119 3236 1894 
Q 3428 1669 3622 1275 
L 4263 0 
L 3584 0 
L 2988 1197 
Q 2756 1666 2539 1819 
Q 2322 1972 1947 1972 
L 1259 1972 
L 1259 0 
L 628 0 
L 628 4666 
L 2053 4666 
Q 2853 4666 3247 4331 
Q 3641 3997 3641 3322 
Q 3641 2881 3436 2590 
Q 3231 2300 2841 2188 
z
M 1259 4147 
L 1259 2491 
L 2053 2491 
Q 2509 2491 2742 2702 
Q 2975 2913 2975 3322 
Q 2975 3731 2742 3939 
Q 2509 4147 2053 4147 
L 1259 4147 
z
" transform="scale(0.015625)"/>
       <path id="DejaVuSans-20" transform="scale(0.015625)"/>
       <path id="DejaVuSans-28" d="M 1984 4856 
Q 1566 4138 1362 3434 
Q 1159 2731 1159 2009 
Q 1159 1288 1364 580 
Q 1569 -128 1984 -844 
L 1484 -844 
Q 1016 -109 783 600 
Q 550 1309 550 2009 
Q 550 2706 781 3412 
Q 1013 4119 1484 4856 
L 1984 4856 
z
" transform="scale(0.015625)"/>
       <path id="DejaVuSans-66" d="M 2375 4863 
L 2375 4384 
L 1825 4384 
Q 1516 4384 1395 4259 
Q 1275 4134 1275 3809 
L 1275 3500 
L 2222 3500 
L 2222 3053 
L 1275 3053 
L 1275 0 
L 697 0 
L 697 3053 
L 147 3053 
L 147 3500 
L 697 3500 
L 697 3744 
Q 697 4328 969 4595 
Q 1241 4863 1831 4863 
L 2375 4863 
z
" transform="scale(0.015625)"/>
       <path id="DejaVuSans-72" d="M 2631 2963 
Q 2534 3019 2420 3045 
Q 2306 3072 2169 3072 
Q 1681 3072 1420 2755 
Q 1159 2438 1159 1844 
L 1159 0 
L 581 0 
L 581 3500 
L 1159 3500 
L 1159 2956 
Q 1341 3275 1631 3429 
Q 1922 3584 2338 3584 
Q 2397 3584 2469 3576 
Q 2541 3569 2628 3553 
L 2631 2963 
z
" transform="scale(0.015625)"/>
       <path id="DejaVuSans-61" d="M 2194 1759 
Q 1497 1759 1228 1600 
Q 959 1441 959 1056 
Q 959 750 1161 570 
Q 1363 391 1709 391 
Q 2188 391 2477 730 
Q 2766 1069 2766 1631 
L 2766 1759 
L 2194 1759 
z
M 3341 1997 
L 3341 0 
L 2766 0 
L 2766 531 
Q 2569 213 2275 61 
Q 1981 -91 1556 -91 
Q 1019 -91 701 211 
Q 384 513 384 1019 
Q 384 1609 779 1909 
Q 1175 2209 1959 2209 
L 2766 2209 
L 2766 2266 
Q 2766 2663 2505 2880 
Q 2244 3097 1772 3097 
Q 1472 3097 1187 3025 
Q 903 2953 641 2809 
L 641 3341 
Q 956 3463 1253 3523 
Q 1550 3584 1831 3584 
Q 2591 3584 2966 3190 
Q 3341 2797 3341 1997 
z
" transform="scale(0.015625)"/>
       <path id="DejaVuSans-63" d="M 3122 3366 
L 3122 2828 
Q 2878 2963 2633 3030 
Q 2388 3097 2138 3097 
Q 1578 3097 1268 2742 
Q 959 2388 959 1747 
Q 959 1106 1268 751 
Q 1578 397 2138 397 
Q 2388 397 2633 464 
Q 2878 531 3122 666 
L 3122 134 
Q 2881 22 2623 -34 
Q 2366 -91 2075 -91 
Q 1284 -91 818 406 
Q 353 903 353 1747 
Q 353 2603 823 3093 
Q 1294 3584 2113 3584 
Q 2378 3584 2631 3529 
Q 2884 3475 3122 3366 
z
" transform="scale(0.015625)"/>
       <path id="DejaVuSans-74" d="M 1172 4494 
L 1172 3500 
L 2356 3500 
L 2356 3053 
L 1172 3053 
L 1172 1153 
Q 1172 725 1289 603 
Q 1406 481 1766 481 
L 2356 481 
L 2356 0 
L 1766 0 
Q 1100 0 847 248 
Q 594 497 594 1153 
L 594 3053 
L 172 3053 
L 172 3500 
L 594 3500 
L 594 4494 
L 1172 4494 
z
" transform="scale(0.015625)"/>
       <path id="DejaVuSans-69" d="M 603 3500 
L 1178 3500 
L 1178 0 
L 603 0 
L 603 3500 
z
M 603 4863 
L 1178 4863 
L 1178 4134 
L 603 4134 
L 603 4863 
z
" transform="scale(0.015625)"/>
       <path id="DejaVuSans-6f" d="M 1959 3097 
Q 1497 3097 1228 2736 
Q 959 2375 959 1747 
Q 959 1119 1226 758 
Q 1494 397 1959 397 
Q 2419 397 2687 759 
Q 2956 1122 2956 1747 
Q 2956 2369 2687 2733 
Q 2419 3097 1959 3097 
z
M 1959 3584 
Q 2709 3584 3137 3096 
Q 3566 2609 3566 1747 
Q 3566 888 3137 398 
Q 2709 -91 1959 -91 
Q 1206 -91 779 398 
Q 353 888 353 1747 
Q 353 2609 779 3096 
Q 1206 3584 1959 3584 
z
" transform="scale(0.015625)"/>
       <path id="DejaVuSans-6e" d="M 3513 2113 
L 3513 0 
L 2938 0 
L 2938 2094 
Q 2938 2591 2744 2837 
Q 2550 3084 2163 3084 
Q 1697 3084 1428 2787 
Q 1159 2491 1159 1978 
L 1159 0 
L 581 0 
L 581 3500 
L 1159 3500 
L 1159 2956 
Q 1366 3272 1645 3428 
Q 1925 3584 2291 3584 
Q 2894 3584 3203 3211 
Q 3513 2838 3513 2113 
z
" transform="scale(0.015625)"/>
       <path id="DejaVuSans-68" d="M 3513 2113 
L 3513 0 
L 2938 0 
L 2938 2094 
Q 2938 2591 2744 2837 
Q 2550 3084 2163 3084 
Q 1697 3084 1428 2787 
Q 1159 2491 1159 1978 
L 1159 0 
L 581 0 
L 581 4863 
L 1159 4863 
L 1159 2956 
Q 1366 3272 1645 3428 
Q 1925 3584 2291 3584 
Q 2894 3584 3203 3211 
Q 3513 2838 3513 2113 
z
" transform="scale(0.015625)"/>
       <path id="DejaVuSans-73" d="M 2834 3397 
L 2834 2853 
Q 2591 2978 2328 3040 
Q 2066 3103 1784 3103 
Q 1356 3103 1142 2972 
Q 928 2841 928 2578 
Q 928 2378 1081 2264 
Q 1234 2150 1697 2047 
L 1894 2003 
Q 2506 1872 2764 1633 
Q 3022 1394 3022 966 
Q 3022 478 2636 193 
Q 2250 -91 1575 -91 
Q 1294 -91 989 -36 
Q 684 19 347 128 
L 347 722 
Q 666 556 975 473 
Q 1284 391 1588 391 
Q 1994 391 2212 530 
Q 2431 669 2431 922 
Q 2431 1156 2273 1281 
Q 2116 1406 1581 1522 
L 1381 1569 
Q 847 1681 609 1914 
Q 372 2147 372 2553 
Q 372 3047 722 3315 
Q 1072 3584 1716 3584 
Q 2034 3584 2315 3537 
Q 2597 3491 2834 3397 
z
" transform="scale(0.015625)"/>
       <path id="DejaVuSans-65" d="M 3597 1894 
L 3597 1613 
L 953 1613 
Q 991 1019 1311 708 
Q 1631 397 2203 397 
Q 2534 397 2845 478 
Q 3156 559 3463 722 
L 3463 178 
Q 3153 47 2828 -22 
Q 2503 -91 2169 -91 
Q 1331 -91 842 396 
Q 353 884 353 1716 
Q 353 2575 817 3079 
Q 1281 3584 2069 3584 
Q 2775 3584 3186 3129 
Q 3597 2675 3597 1894 
z
M 3022 2063 
Q 3016 2534 2758 2815 
Q 2500 3097 2075 3097 
Q 1594 3097 1305 2825 
Q 1016 2553 972 2059 
L 3022 2063 
z
" transform="scale(0.015625)"/>
       <path id="DejaVuSans-29" d="M 513 4856 
L 1013 4856 
Q 1481 4119 1714 3412 
Q 1947 2706 1947 2009 
Q 1947 1309 1714 600 
Q 1481 -109 1013 -844 
L 513 -844 
Q 928 -128 1133 580 
Q 1338 1288 1338 2009 
Q 1338 2731 1133 3434 
Q 928 4138 513 4856 
z
" transform="scale(0.015625)"/>
      </defs>
      <use xlink:href="#DejaVuSans-46"/>
      <use xlink:href="#DejaVuSans-50" x="57.519531"/>
      <use xlink:href="#DejaVuSans-52" x="117.822266"/>
      <use xlink:href="#DejaVuSans-20" x="187.304688"/>
      <use xlink:href="#DejaVuSans-28" x="219.091797"/>
      <use xlink:href="#DejaVuSans-66" x="258.105469"/>
      <use xlink:href="#DejaVuSans-72" x="293.310547"/>
      <use xlink:href="#DejaVuSans-61" x="334.423828"/>
      <use xlink:href="#DejaVuSans-63" x="395.703125"/>
      <use xlink:href="#DejaVuSans-74" x="450.683594"/>
      <use xlink:href="#DejaVuSans-69" x="489.892578"/>
      <use xlink:href="#DejaVuSans-6f" x="517.675781"/>
      <use xlink:href="#DejaVuSans-6e" x="578.857422"/>
      <use xlink:href="#DejaVuSans-20" x="642.236328"/>
      <use xlink:href="#DejaVuSans-68" x="674.023438"/>
      <use xlink:href="#DejaVuSans-69" x="737.402344"/>
      <use xlink:href="#DejaVuSans-74" x="765.185547"/>
      <use xlink:href="#DejaVuSans-73" x="804.394531"/>
      <use xlink:href="#DejaVuSans-20" x="856.494141"/>
      <use xlink:href="#DejaVuSans-63" x="888.28125"/>
      <use xlink:href="#DejaVuSans-6f" x="943.261719"/>
      <use xlink:href="#DejaVuSans-72" x="1004.443359"/>
      <use xlink:href="#DejaVuSans-72" x="1043.806641"/>
      <use xlink:href="#DejaVuSans-65" x="1082.669922"/>
      <use xlink:href="#DejaVuSans-63" x="1144.193359"/>
      <use xlink:href="#DejaVuSans-74" x="1199.173828"/>
      <use xlink:href="#DejaVuSans-29" x="1238.382812"/>
     </g>
    </g>
   </g>
   <g id="matplotlib.axis_2">
    <g id="ytick_1">
     <g id="line2d_7">
      <defs>
       <path id="m7c506c92d0" d="M 0 0 
L -3.5 0 
" style="stroke: #000000; stroke-width: 0.8"/>
      </defs>
      <g>
       <use xlink:href="#m7c506c92d0" x="57.6" y="297.931636" style="stroke: #000000; stroke-width: 0.8"/>
      </g>
     </g>
     <g id="text_8">
      <!-- 0.0 -->
      <g transform="translate(34.696875 301.730855) scale(0.1 -0.1)">
       <use xlink:href="#DejaVuSans-30"/>
       <use xlink:href="#DejaVuSans-2e" x="63.623047"/>
       <use xlink:href="#DejaVuSans-30" x="95.410156"/>
      </g>
     </g>
    </g>
    <g id="ytick_2">
     <g id="line2d_8">
      <g>
       <use xlink:href="#m7c506c92d0" x="57.6" y="249.058909" style="stroke: #000000; stroke-width: 0.8"/>
      </g>
     </g>
     <g id="text_9">
      <!-- 0.2 -->
      <g transform="translate(34.696875 252.858128) scale(0.1 -0.1)">
       <use xlink:href="#DejaVuSans-30"/>
       <use xlink:href="#DejaVuSans-2e" x="63.623047"/>
       <use xlink:href="#DejaVuSans-32" x="95.410156"/>
      </g>
     </g>
    </g>
    <g id="ytick_3">
     <g id="line2d_9">
      <g>
       <use xlink:href="#m7c506c92d0" x="57.6" y="200.186182" style="stroke: #000000; stroke-width: 0.8"/>
      </g>
     </g>
     <g id="text_10">
      <!-- 0.4 -->
      <g transform="translate(34.696875 203.985401) scale(0.1 -0.1)">
       <use xlink:href="#DejaVuSans-30"/>
       <use xlink:href="#DejaVuSans-2e" x="63.623047"/>
       <use xlink:href="#DejaVuSans-34" x="95.410156"/>
      </g>
     </g>
    </g>
    <g id="ytick_4">
     <g id="line2d_10">
      <g>
       <use xlink:href="#m7c506c92d0" x="57.6" y="151.313455" style="stroke: #000000; stroke-width: 0.8"/>
      </g>
     </g>
     <g id="text_11">
      <!-- 0.6 -->
      <g transform="translate(34.696875 155.112673) scale(0.1 -0.1)">
       <use xlink:href="#DejaVuSans-30"/>
       <use xlink:href="#DejaVuSans-2e" x="63.623047"/>
       <use xlink:href="#DejaVuSans-36" x="95.410156"/>
      </g>
     </g>
    </g>
    <g id="ytick_5">
     <g id="line2d_11">
      <g>
       <use xlink:href="#m7c506c92d0" x="57.6" y="102.440727" style="stroke: #000000; stroke-width: 0.8"/>
      </g>
     </g>
     <g id="text_12">
      <!-- 0.8 -->
      <g transform="translate(34.696875 106.239946) scale(0.1 -0.1)">
       <use xlink:href="#DejaVuSans-30"/>
       <use xlink:href="#DejaVuSans-2e" x="63.623047"/>
       <use xlink:href="#DejaVuSans-38" x="95.410156"/>
      </g>
     </g>
    </g>
    <g id="ytick_6">
     <g id="line2d_12">
      <g>
       <use xlink:href="#m7c506c92d0" x="57.6" y="53.568" style="stroke: #000000; stroke-width: 0.8"/>
      </g>
     </g>
     <g id="text_13">
      <!-- 1.0 -->
      <g transform="translate(34.696875 57.367219) scale(0.1 -0.1)">
       <use xlink:href="#DejaVuSans-31"/>
       <use xlink:href="#DejaVuSans-2e" x="63.623047"/>
       <use xlink:href="#DejaVuSans-30" x="95.410156"/>
      </g>
     </g>
    </g>
    <g id="text_14">
     <!-- TPR (fraction homologs found) -->
     <g transform="translate(28.617187 250.662375) rotate(-90) scale(0.1 -0.1)">
      <defs>
       <path id="DejaVuSans-54" d="M -19 4666 
L 3928 4666 
L 3928 4134 
L 2272 4134 
L 2272 0 
L 1638 0 
L 1638 4134 
L -19 4134 
L -19 4666 
z
" transform="scale(0.015625)"/>
       <path id="DejaVuSans-6d" d="M 3328 2828 
Q 3544 3216 3844 3400 
Q 4144 3584 4550 3584 
Q 5097 3584 5394 3201 
Q 5691 2819 5691 2113 
L 5691 0 
L 5113 0 
L 5113 2094 
Q 5113 2597 4934 2840 
Q 4756 3084 4391 3084 
Q 3944 3084 3684 2787 
Q 3425 2491 3425 1978 
L 3425 0 
L 2847 0 
L 2847 2094 
Q 2847 2600 2669 2842 
Q 2491 3084 2119 3084 
Q 1678 3084 1418 2786 
Q 1159 2488 1159 1978 
L 1159 0 
L 581 0 
L 581 3500 
L 1159 3500 
L 1159 2956 
Q 1356 3278 1631 3431 
Q 1906 3584 2284 3584 
Q 2666 3584 2933 3390 
Q 3200 3197 3328 2828 
z
" transform="scale(0.015625)"/>
       <path id="DejaVuSans-6c" d="M 603 4863 
L 1178 4863 
L 1178 0 
L 603 0 
L 603 4863 
z
" transform="scale(0.015625)"/>
       <path id="DejaVuSans-67" d="M 2906 1791 
Q 2906 2416 2648 2759 
Q 2391 3103 1925 3103 
Q 1463 3103 1205 2759 
Q 947 2416 947 1791 
Q 947 1169 1205 825 
Q 1463 481 1925 481 
Q 2391 481 2648 825 
Q 2906 1169 2906 1791 
z
M 3481 434 
Q 3481 -459 3084 -895 
Q 2688 -1331 1869 -1331 
Q 1566 -1331 1297 -1286 
Q 1028 -1241 775 -1147 
L 775 -588 
Q 1028 -725 1275 -790 
Q 1522 -856 1778 -856 
Q 2344 -856 2625 -561 
Q 2906 -266 2906 331 
L 2906 616 
Q 2728 306 2450 153 
Q 2172 0 1784 0 
Q 1141 0 747 490 
Q 353 981 353 1791 
Q 353 2603 747 3093 
Q 1141 3584 1784 3584 
Q 2172 3584 2450 3431 
Q 2728 3278 2906 2969 
L 2906 3500 
L 3481 3500 
L 3481 434 
z
" transform="scale(0.015625)"/>
       <path id="DejaVuSans-75" d="M 544 1381 
L 544 3500 
L 1119 3500 
L 1119 1403 
Q 1119 906 1312 657 
Q 1506 409 1894 409 
Q 2359 409 2629 706 
Q 2900 1003 2900 1516 
L 2900 3500 
L 3475 3500 
L 3475 0 
L 2900 0 
L 2900 538 
Q 2691 219 2414 64 
Q 2138 -91 1772 -91 
Q 1169 -91 856 284 
Q 544 659 544 1381 
z
M 1991 3584 
L 1991 3584 
z
" transform="scale(0.015625)"/>
       <path id="DejaVuSans-64" d="M 2906 2969 
L 2906 4863 
L 3481 4863 
L 3481 0 
L 2906 0 
L 2906 525 
Q 2725 213 2448 61 
Q 2172 -91 1784 -91 
Q 1150 -91 751 415 
Q 353 922 353 1747 
Q 353 2572 751 3078 
Q 1150 3584 1784 3584 
Q 2172 3584 2448 3432 
Q 2725 3281 2906 2969 
z
M 947 1747 
Q 947 1113 1208 752 
Q 1469 391 1925 391 
Q 2381 391 2643 752 
Q 2906 1113 2906 1747 
Q 2906 2381 2643 2742 
Q 2381 3103 1925 3103 
Q 1469 3103 1208 2742 
Q 947 2381 947 1747 
z
" transform="scale(0.015625)"/>
      </defs>
      <use xlink:href="#DejaVuSans-54"/>
      <use xlink:href="#DejaVuSans-50" x="61.083984"/>
      <use xlink:href="#DejaVuSans-52" x="121.386719"/>
      <use xlink:href="#DejaVuSans-20" x="190.869141"/>
      <use xlink:href="#DejaVuSans-28" x="222.65625"/>
      <use xlink:href="#DejaVuSans-66" x="261.669922"/>
      <use xlink:href="#DejaVuSans-72" x="296.875"/>
      <use xlink:href="#DejaVuSans-61" x="337.988281"/>
      <use xlink:href="#DejaVuSans-63" x="399.267578"/>
      <use xlink:href="#DejaVuSans-74" x="454.248047"/>
      <use xlink:href="#DejaVuSans-69" x="493.457031"/>
      <use xlink:href="#DejaVuSans-6f" x="521.240234"/>
      <use xlink:href="#DejaVuSans-6e" x="582.421875"/>
      <use xlink:href="#DejaVuSans-20" x="645.800781"/>
      <use xlink:href="#DejaVuSans-68" x="677.587891"/>
      <use xlink:href="#DejaVuSans-6f" x="740.966797"/>
      <use xlink:href="#DejaVuSans-6d" x="802.148438"/>
      <use xlink:href="#DejaVuSans-6f" x="899.560547"/>
      <use xlink:href="#DejaVuSans-6c" x="960.742188"/>
      <use xlink:href="#DejaVuSans-6f" x="988.525391"/>
      <use xlink:href="#DejaVuSans-67" x="1049.707031"/>
      <use xlink:href="#DejaVuSans-73" x="1113.183594"/>
      <use xlink:href="#DejaVuSans-20" x="1165.283203"/>
      <use xlink:href="#DejaVuSans-66" x="1197.070312"/>
      <use xlink:href="#DejaVuSans-6f" x="1232.275391"/>
      <use xlink:href="#DejaVuSans-75" x="1293.457031"/>
      <use xlink:href="#DejaVuSans-6e" x="1356.835938"/>
      <use xlink:href="#DejaVuSans-64" x="1420.214844"/>
      <use xlink:href="#DejaVuSans-29" x="1483.691406"/>
     </g>
    </g>
   </g>
   <g id="line2d_13">
    <path d="M 74.832692 295.488 
L 75.614026 293.044364 
L 77.025185 290.600727 
L 78.198816 288.157091 
L 79.436961 285.713455 
L 81.08239 283.269818 
L 83.350149 280.826182 
L 85.207366 278.382545 
L 87.025484 275.938909 
L 89.166171 273.495273 
L 91.437188 271.051636 
L 94.066617 268.608 
L 97.774534 266.164364 
L 101.80502 263.720727 
L 105.464063 261.277091 
L 109.250179 258.833455 
L 113.420772 256.389818 
L 117.330702 253.946182 
L 121.664208 251.502545 
L 126.030297 249.058909 
L 130.33122 246.615273 
L 134.501812 244.171636 
L 138.672405 241.728 
L 142.810414 239.284364 
L 146.78551 236.840727 
L 150.043785 234.397091 
L 153.334643 231.953455 
L 156.49517 229.509818 
L 159.427618 227.066182 
L 162.197152 224.622545 
L 164.54311 222.178909 
L 166.954234 219.735273 
L 169.006947 217.291636 
L 171.157409 214.848 
L 173.014626 212.404364 
L 175.165087 209.960727 
L 176.826808 207.517091 
L 178.781773 205.073455 
L 180.899652 202.629818 
L 182.952365 200.186182 
L 185.200575 197.742545 
L 187.122958 195.298909 
L 189.631829 192.855273 
L 192.433946 190.411636 
L 195.236063 187.968 
L 198.103345 185.524364 
L 201.00321 183.080727 
L 204.55473 180.637091 
L 207.878171 178.193455 
L 211.331943 175.749818 
L 214.753132 173.306182 
L 218.728227 170.862545 
L 222.833654 168.418909 
L 227.036829 165.975273 
L 231.859077 163.531636 
L 236.225166 161.088 
L 240.819334 158.644364 
L 245.51125 156.200727 
L 250.496411 153.757091 
L 255.318658 151.313455 
L 260.206071 148.869818 
L 265.028319 146.426182 
L 270.437056 143.982545 
L 275.552548 141.538909 
L 280.66804 139.095273 
L 285.620618 136.651636 
L 290.801276 134.208 
L 295.623523 131.764364 
L 300.706433 129.320727 
L 305.919673 126.877091 
L 310.74192 124.433455 
L 315.499002 121.989818 
L 320.09317 119.546182 
L 324.654756 117.102545 
L 329.118593 114.658909 
L 333.321768 112.215273 
L 337.687857 109.771636 
L 341.565204 107.328 
L 345.377386 104.884364 
L 348.994072 102.440727 
L 352.610757 99.997091 
L 356.292608 97.553455 
L 359.550884 95.109818 
L 362.972073 92.666182 
L 366.360679 90.222545 
L 369.423458 87.778909 
L 372.160409 85.335273 
" clip-path="url(#p15e5fca7fa)" style="fill: none; stroke: #87ceeb; stroke-width: 2; stroke-linecap: square"/>
   </g>
   <g id="line2d_14">
    <path d="M 73.832727 295.488 
L 73.868536 293.044364 
L 74.047513 290.600727 
L 74.315604 288.157091 
L 74.761336 285.713455 
L 75.460562 283.269818 
L 76.522759 280.826182 
L 77.768724 278.382545 
L 79.111133 275.938909 
L 80.603423 273.495273 
L 82.121779 271.051636 
L 83.675977 268.608 
L 85.419154 266.164364 
L 87.201431 263.720727 
L 89.058647 261.277091 
L 91.228659 258.833455 
L 93.22924 256.389818 
L 95.405768 253.946182 
L 97.797342 251.502545 
L 100.140042 249.058909 
L 102.671721 246.615273 
L 105.249017 244.171636 
L 107.849121 241.728 
L 110.9119 239.284364 
L 114.072427 236.840727 
L 117.493616 234.397091 
L 120.882222 231.953455 
L 124.564073 229.509818 
L 128.734665 227.066182 
L 133.165919 224.622545 
L 137.760088 222.178909 
L 142.6475 219.735273 
L 147.795575 217.291636 
L 153.139147 214.848 
L 158.873711 212.404364 
L 164.54311 209.960727 
L 170.668668 207.517091 
L 176.989722 205.073455 
L 183.441107 202.629818 
L 189.925074 200.186182 
L 197.125863 197.742545 
L 204.228903 195.298909 
L 211.29936 192.855273 
L 218.174321 190.411636 
L 225.309943 187.968 
L 232.282652 185.524364 
L 239.287944 183.080727 
L 245.934826 180.637091 
L 252.646873 178.193455 
L 259.391502 175.749818 
L 265.810305 173.306182 
L 271.968445 170.862545 
L 278.126585 168.418909 
L 283.926315 165.975273 
L 289.758628 163.531636 
L 295.297696 161.088 
L 300.67385 158.644364 
L 305.789342 156.200727 
L 310.807086 153.757091 
L 315.759664 151.313455 
L 320.32125 148.869818 
L 324.557007 146.426182 
L 328.760182 143.982545 
L 332.800444 141.538909 
L 336.742957 139.095273 
L 340.457391 136.651636 
L 344.074076 134.208 
L 347.4301 131.764364 
L 350.818706 129.320727 
L 354.011816 126.877091 
L 356.976846 124.433455 
L 359.876711 121.989818 
L 362.58108 119.546182 
L 365.285448 117.102545 
L 367.826903 114.658909 
L 370.303192 112.215273 
L 372.616567 109.771636 
L 374.799612 107.328 
L 376.950073 104.884364 
L 379.03537 102.440727 
L 381.022917 99.997091 
L 382.977883 97.553455 
L 384.802517 95.109818 
L 386.529403 92.666182 
L 388.223706 90.222545 
L 389.820261 87.778909 
L 391.35165 85.335273 
L 392.687543 82.891636 
L 393.990853 80.448 
L 395.163832 78.004364 
L 396.20648 75.560727 
L 396.988466 73.117091 
L 397.314294 70.673455 
" clip-path="url(#p15e5fca7fa)" style="fill: none; stroke-dasharray: 3,4.95; stroke-dashoffset: 0; stroke: #ffa500; stroke-width: 3"/>
   </g>
   <g id="line2d_15">
    <path d="M 73.832727 295.488 
L 73.975961 293.044364 
L 74.071363 290.600727 
L 74.476237 288.157091 
L 75.174159 285.713455 
L 75.89717 283.269818 
L 76.472256 280.826182 
L 77.094261 278.382545 
L 78.136909 275.938909 
L 78.925411 273.495273 
L 80.082099 271.051636 
L 81.163847 268.608 
L 82.08268 266.164364 
L 83.366441 263.720727 
L 84.871764 261.277091 
L 86.37057 258.833455 
L 87.963867 256.389818 
L 89.625587 253.946182 
L 91.613135 251.502545 
L 93.77663 249.058909 
L 96.357184 246.615273 
L 98.846506 244.171636 
L 101.994 241.728 
L 105.464063 239.284364 
L 109.119848 236.840727 
L 113.257858 234.397091 
L 117.461033 231.953455 
L 121.56646 229.509818 
L 125.769635 227.066182 
L 130.722213 224.622545 
L 135.609626 222.178909 
L 141.213859 219.735273 
L 146.524848 217.291636 
L 152.259412 214.848 
L 157.700732 212.404364 
L 163.695959 209.960727 
L 169.104695 207.517091 
L 174.546015 205.073455 
L 179.824421 202.629818 
L 185.102827 200.186182 
L 190.446398 197.742545 
L 195.692221 195.298909 
L 200.709965 192.855273 
L 205.662544 190.411636 
L 210.582539 187.968 
L 215.241873 185.524364 
L 219.901207 183.080727 
L 224.234713 180.637091 
L 228.503053 178.193455 
L 232.478149 175.749818 
L 236.322914 173.306182 
L 240.29801 170.862545 
L 244.338271 168.418909 
L 248.052705 165.975273 
L 251.734556 163.531636 
L 255.546738 161.088 
L 259.326337 158.644364 
L 263.138519 156.200727 
L 266.657456 153.757091 
L 270.437056 151.313455 
L 273.988576 148.869818 
L 277.83334 146.426182 
L 281.580357 143.982545 
L 285.197042 141.538909 
L 288.878893 139.095273 
L 292.658493 136.651636 
L 296.503258 134.208 
L 300.282857 131.764364 
L 304.192787 129.320727 
L 308.037552 126.877091 
L 311.751986 124.433455 
L 315.531585 121.989818 
L 319.343767 119.546182 
L 323.090784 117.102545 
L 326.870383 114.658909 
L 330.74773 112.215273 
L 334.364416 109.771636 
L 338.372094 107.328 
L 342.216859 104.884364 
L 346.257121 102.440727 
L 350.03672 99.997091 
L 353.848902 97.553455 
L 357.726249 95.109818 
L 361.4081 92.666182 
L 365.024786 90.222545 
L 368.608889 87.778909 
L 372.095243 85.335273 
L 375.614181 82.891636 
L 378.839873 80.448 
L 382.0004 78.004364 
L 384.835099 75.560727 
L 387.343971 73.117091 
L 389.592181 70.673455 
L 391.547146 68.229818 
L 393.274032 65.786182 
L 394.805422 63.342545 
L 396.108732 60.898909 
L 397.118797 58.455273 
L 397.8682 56.011636 
L 398.487273 53.568 
" clip-path="url(#p15e5fca7fa)" style="fill: none; stroke: #ff00ff; stroke-width: 2; stroke-linecap: square"/>
   </g>
   <g id="line2d_16">
    <path d="M 73.832727 295.488 
L 73.832727 293.044364 
L 73.832727 290.600727 
L 73.832727 288.157091 
L 73.832727 285.713455 
L 73.880494 283.269818 
L 73.955499 280.826182 
L 73.993849 278.382545 
L 74.055463 275.938909 
L 74.190486 273.495273 
L 74.327008 271.051636 
L 74.464507 268.608 
L 74.61341 266.164364 
L 74.781863 263.720727 
L 74.975079 261.277091 
L 75.303839 258.833455 
L 75.585028 256.389818 
L 75.983841 253.946182 
L 76.228211 251.502545 
L 76.603239 249.058909 
L 77.028444 246.615273 
L 77.51132 244.171636 
L 78.244432 241.728 
L 79.042709 239.284364 
L 80.029967 236.840727 
L 81.42125 234.397091 
L 83.050388 231.953455 
L 85.031419 229.509818 
L 87.289404 227.066182 
L 90.026355 224.622545 
L 93.502935 222.178909 
L 97.647461 219.735273 
L 103.479774 217.291636 
L 109.804086 214.848 
L 117.200371 212.404364 
L 127.398772 209.960727 
L 140.04088 207.517091 
L 155.354774 205.073455 
L 170.049595 202.629818 
" clip-path="url(#p15e5fca7fa)" style="fill: none; stroke-dasharray: 3,4.95; stroke-dashoffset: 0; stroke: #000000; stroke-width: 3"/>
   </g>
   <g id="line2d_17">
    <path d="M 73.832727 295.488 
L 73.832727 293.044364 
L 73.832727 290.600727 
L 73.832727 288.157091 
L 73.832727 285.713455 
L 73.880494 283.269818 
L 73.955499 280.826182 
L 73.993849 278.382545 
L 74.055463 275.938909 
L 74.190486 273.495273 
L 74.327008 271.051636 
L 74.440721 268.608 
L 74.569423 266.164364 
L 74.731034 263.720727 
L 74.90861 261.277091 
L 75.179372 258.833455 
L 75.493144 256.389818 
L 75.842431 253.946182 
L 76.206055 251.502545 
L 76.448145 249.058909 
L 76.871395 246.615273 
L 77.299532 244.171636 
L 77.765465 241.728 
L 78.488803 239.284364 
L 79.244722 236.840727 
L 80.082099 234.397091 
L 81.13778 231.953455 
L 82.44109 229.509818 
L 83.949672 227.066182 
L 85.650492 224.622545 
L 87.576132 222.178909 
L 89.654912 219.735273 
L 92.127943 217.291636 
L 95.008258 214.848 
L 98.110136 212.404364 
L 101.537842 209.960727 
L 105.552037 207.517091 
L 110.227662 205.073455 
L 115.343154 202.629818 
L 120.588977 200.186182 
L 126.649369 197.742545 
L 133.003006 195.298909 
L 140.98578 192.855273 
L 149.359547 190.411636 
L 158.547884 187.968 
L 168.355292 185.524364 
L 178.846938 183.080727 
L 189.762161 180.637091 
L 201.94811 178.193455 
L 205.955788 175.749818 
" clip-path="url(#p15e5fca7fa)" style="fill: none; stroke: #000000; stroke-width: 2; stroke-linecap: square"/>
   </g>
   <g id="line2d_18">
    <path d="M 73.832727 295.488 
L 73.832727 293.044364 
L 73.832727 290.600727 
L 73.868536 288.157091 
L 73.918681 285.713455 
L 74.023662 283.269818 
L 74.098635 280.826182 
L 74.119065 278.382545 
L 74.182666 275.938909 
L 74.319188 273.495273 
L 74.463204 271.051636 
L 74.607219 268.608 
L 74.733966 266.164364 
L 74.898835 263.720727 
L 75.079343 261.277091 
L 75.383666 258.833455 
L 75.70982 256.389818 
L 76.054545 253.946182 
L 76.473559 251.502545 
L 76.729986 249.058909 
L 77.149651 246.615273 
L 77.579744 244.171636 
L 78.052194 241.728 
L 78.658233 239.284364 
L 79.521676 236.840727 
L 80.225463 234.397091 
L 81.303952 231.953455 
L 82.46064 229.509818 
L 83.809566 227.066182 
L 85.249724 224.622545 
L 86.940769 222.178909 
L 88.938091 219.735273 
L 90.945189 217.291636 
L 93.300922 214.848 
L 95.633847 212.404364 
L 98.738983 209.960727 
L 101.811537 207.517091 
L 105.128461 205.073455 
L 108.924352 202.629818 
L 113.225275 200.186182 
L 117.917191 197.742545 
L 123.097849 195.298909 
L 128.180758 192.855273 
L 133.622078 190.411636 
L 139.68247 187.968 
L 146.166438 185.524364 
L 153.204312 183.080727 
L 160.600597 180.637091 
L 168.224961 178.193455 
L 176.175153 175.749818 
L 184.320841 173.306182 
L 192.564277 170.862545 
L 201.198707 168.418909 
L 209.767971 165.975273 
L 218.304652 163.531636 
L 227.492988 161.088 
L 236.550993 158.644364 
L 245.185422 156.200727 
L 254.015348 153.757091 
L 262.812692 151.313455 
L 271.447121 148.869818 
L 279.820888 146.426182 
L 287.901411 143.982545 
L 296.210013 141.538909 
L 304.095039 139.095273 
L 311.914899 136.651636 
L 319.017939 134.208 
L 325.8929 131.764364 
L 332.572365 129.320727 
L 338.828253 126.877091 
L 344.790897 124.433455 
L 349.971554 121.989818 
L 354.89155 119.546182 
L 359.518301 117.102545 
L 363.525979 114.658909 
L 367.175248 112.215273 
L 370.498688 109.771636 
L 373.626633 107.328 
L 376.396167 104.884364 
L 378.742125 102.440727 
L 380.827421 99.997091 
L 382.814969 97.553455 
L 384.574437 95.109818 
L 386.105827 92.666182 
L 387.506885 90.222545 
L 388.74503 87.778909 
L 389.852843 85.335273 
L 390.862909 82.891636 
L 391.742643 80.448 
L 392.589795 78.004364 
L 393.339198 75.560727 
L 393.990853 73.117091 
L 394.609925 70.673455 
L 395.196415 68.229818 
L 395.717739 65.786182 
L 396.20648 63.342545 
L 396.662639 60.898909 
L 397.216545 58.455273 
L 397.737869 56.011636 
" clip-path="url(#p15e5fca7fa)" style="fill: none; stroke-dasharray: 7.4,3.2; stroke-dashoffset: 0; stroke: #808080; stroke-width: 2"/>
   </g>
   <g id="patch_3">
    <path d="M 57.6 307.584 
L 57.6 41.472 
" style="fill: none; stroke: #000000; stroke-width: 0.8; stroke-linejoin: miter; stroke-linecap: square"/>
   </g>
   <g id="patch_4">
    <path d="M 414.72 307.584 
L 414.72 41.472 
" style="fill: none; stroke: #000000; stroke-width: 0.8; stroke-linejoin: miter; stroke-linecap: square"/>
   </g>
   <g id="patch_5">
    <path d="M 57.6 307.584 
L 414.72 307.584 
" style="fill: none; stroke: #000000; stroke-width: 0.8; stroke-linejoin: miter; stroke-linecap: square"/>
   </g>
   <g id="patch_6">
    <path d="M 57.6 41.472 
L 414.72 41.472 
" style="fill: none; stroke: #000000; stroke-width: 0.8; stroke-linejoin: miter; stroke-linecap: square"/>
   </g>
   <g id="text_15">
    <!-- ROC superfamily -->
    <g transform="translate(185.757187 35.472) scale(0.12 -0.12)">
     <defs>
      <path id="DejaVuSans-4f" d="M 2522 4238 
Q 1834 4238 1429 3725 
Q 1025 3213 1025 2328 
Q 1025 1447 1429 934 
Q 1834 422 2522 422 
Q 3209 422 3611 934 
Q 4013 1447 4013 2328 
Q 4013 3213 3611 3725 
Q 3209 4238 2522 4238 
z
M 2522 4750 
Q 3503 4750 4090 4092 
Q 4678 3434 4678 2328 
Q 4678 1225 4090 567 
Q 3503 -91 2522 -91 
Q 1538 -91 948 565 
Q 359 1222 359 2328 
Q 359 3434 948 4092 
Q 1538 4750 2522 4750 
z
" transform="scale(0.015625)"/>
      <path id="DejaVuSans-43" d="M 4122 4306 
L 4122 3641 
Q 3803 3938 3442 4084 
Q 3081 4231 2675 4231 
Q 1875 4231 1450 3742 
Q 1025 3253 1025 2328 
Q 1025 1406 1450 917 
Q 1875 428 2675 428 
Q 3081 428 3442 575 
Q 3803 722 4122 1019 
L 4122 359 
Q 3791 134 3420 21 
Q 3050 -91 2638 -91 
Q 1578 -91 968 557 
Q 359 1206 359 2328 
Q 359 3453 968 4101 
Q 1578 4750 2638 4750 
Q 3056 4750 3426 4639 
Q 3797 4528 4122 4306 
z
" transform="scale(0.015625)"/>
      <path id="DejaVuSans-70" d="M 1159 525 
L 1159 -1331 
L 581 -1331 
L 581 3500 
L 1159 3500 
L 1159 2969 
Q 1341 3281 1617 3432 
Q 1894 3584 2278 3584 
Q 2916 3584 3314 3078 
Q 3713 2572 3713 1747 
Q 3713 922 3314 415 
Q 2916 -91 2278 -91 
Q 1894 -91 1617 61 
Q 1341 213 1159 525 
z
M 3116 1747 
Q 3116 2381 2855 2742 
Q 2594 3103 2138 3103 
Q 1681 3103 1420 2742 
Q 1159 2381 1159 1747 
Q 1159 1113 1420 752 
Q 1681 391 2138 391 
Q 2594 391 2855 752 
Q 3116 1113 3116 1747 
z
" transform="scale(0.015625)"/>
      <path id="DejaVuSans-79" d="M 2059 -325 
Q 1816 -950 1584 -1140 
Q 1353 -1331 966 -1331 
L 506 -1331 
L 506 -850 
L 844 -850 
Q 1081 -850 1212 -737 
Q 1344 -625 1503 -206 
L 1606 56 
L 191 3500 
L 800 3500 
L 1894 763 
L 2988 3500 
L 3597 3500 
L 2059 -325 
z
" transform="scale(0.015625)"/>
     </defs>
     <use xlink:href="#DejaVuSans-52"/>
     <use xlink:href="#DejaVuSans-4f" x="69.482422"/>
     <use xlink:href="#DejaVuSans-43" x="148.193359"/>
     <use xlink:href="#DejaVuSans-20" x="218.017578"/>
     <use xlink:href="#DejaVuSans-73" x="249.804688"/>
     <use xlink:href="#DejaVuSans-75" x="301.904297"/>
     <use xlink:href="#DejaVuSans-70" x="365.283203"/>
     <use xlink:href="#DejaVuSans-65" x="428.759766"/>
     <use xlink:href="#DejaVuSans-72" x="490.283203"/>
     <use xlink:href="#DejaVuSans-66" x="531.396484"/>
     <use xlink:href="#DejaVuSans-61" x="566.601562"/>
     <use xlink:href="#DejaVuSans-6d" x="627.880859"/>
     <use xlink:href="#DejaVuSans-69" x="725.292969"/>
     <use xlink:href="#DejaVuSans-6c" x="753.076172"/>
     <use xlink:href="#DejaVuSans-79" x="780.859375"/>
    </g>
   </g>
   <g id="legend_1">
    <g id="patch_7">
     <path d="M 64.6 137.54075 
L 210.098438 137.54075 
Q 212.098438 137.54075 212.098438 135.54075 
L 212.098438 48.472 
Q 212.098438 46.472 210.098438 46.472 
L 64.6 46.472 
Q 62.6 46.472 62.6 48.472 
L 62.6 135.54075 
Q 62.6 137.54075 64.6 137.54075 
z
" style="fill: #ffffff; opacity: 0.8; stroke: #cccccc; stroke-linejoin: miter"/>
    </g>
    <g id="line2d_19">
     <path d="M 66.6 54.570438 
L 76.6 54.570438 
L 86.6 54.570438 
" style="fill: none; stroke: #87ceeb; stroke-width: 2; stroke-linecap: square"/>
    </g>
    <g id="text_16">
     <!-- DALI -->
     <g transform="translate(94.6 58.070438) scale(0.1 -0.1)">
      <defs>
       <path id="DejaVuSans-44" d="M 1259 4147 
L 1259 519 
L 2022 519 
Q 2988 519 3436 956 
Q 3884 1394 3884 2338 
Q 3884 3275 3436 3711 
Q 2988 4147 2022 4147 
L 1259 4147 
z
M 628 4666 
L 1925 4666 
Q 3281 4666 3915 4102 
Q 4550 3538 4550 2338 
Q 4550 1131 3912 565 
Q 3275 0 1925 0 
L 628 0 
L 628 4666 
z
" transform="scale(0.015625)"/>
       <path id="DejaVuSans-41" d="M 2188 4044 
L 1331 1722 
L 3047 1722 
L 2188 4044 
z
M 1831 4666 
L 2547 4666 
L 4325 0 
L 3669 0 
L 3244 1197 
L 1141 1197 
L 716 0 
L 50 0 
L 1831 4666 
z
" transform="scale(0.015625)"/>
       <path id="DejaVuSans-4c" d="M 628 4666 
L 1259 4666 
L 1259 531 
L 3531 531 
L 3531 0 
L 628 0 
L 628 4666 
z
" transform="scale(0.015625)"/>
       <path id="DejaVuSans-49" d="M 628 4666 
L 1259 4666 
L 1259 0 
L 628 0 
L 628 4666 
z
" transform="scale(0.015625)"/>
      </defs>
      <use xlink:href="#DejaVuSans-44"/>
      <use xlink:href="#DejaVuSans-41" x="75.251953"/>
      <use xlink:href="#DejaVuSans-4c" x="143.660156"/>
      <use xlink:href="#DejaVuSans-49" x="199.373047"/>
     </g>
    </g>
    <g id="line2d_20">
     <path d="M 66.6 69.248563 
L 76.6 69.248563 
L 86.6 69.248563 
" style="fill: none; stroke-dasharray: 3,4.95; stroke-dashoffset: 0; stroke: #ffa500; stroke-width: 3"/>
    </g>
    <g id="text_17">
     <!-- Foldseek -->
     <g transform="translate(94.6 72.748563) scale(0.1 -0.1)">
      <defs>
       <path id="DejaVuSans-6b" d="M 581 4863 
L 1159 4863 
L 1159 1991 
L 2875 3500 
L 3609 3500 
L 1753 1863 
L 3688 0 
L 2938 0 
L 1159 1709 
L 1159 0 
L 581 0 
L 581 4863 
z
" transform="scale(0.015625)"/>
      </defs>
      <use xlink:href="#DejaVuSans-46"/>
      <use xlink:href="#DejaVuSans-6f" x="53.894531"/>
      <use xlink:href="#DejaVuSans-6c" x="115.076172"/>
      <use xlink:href="#DejaVuSans-64" x="142.859375"/>
      <use xlink:href="#DejaVuSans-73" x="206.335938"/>
      <use xlink:href="#DejaVuSans-65" x="258.435547"/>
      <use xlink:href="#DejaVuSans-65" x="319.958984"/>
      <use xlink:href="#DejaVuSans-6b" x="381.482422"/>
     </g>
    </g>
    <g id="line2d_21">
     <path d="M 66.6 83.926688 
L 76.6 83.926688 
L 86.6 83.926688 
" style="fill: none; stroke: #ff00ff; stroke-width: 2; stroke-linecap: square"/>
    </g>
    <g id="text_18">
     <!-- TM-align -->
     <g transform="translate(94.6 87.426688) scale(0.1 -0.1)">
      <defs>
       <path id="DejaVuSans-4d" d="M 628 4666 
L 1569 4666 
L 2759 1491 
L 3956 4666 
L 4897 4666 
L 4897 0 
L 4281 0 
L 4281 4097 
L 3078 897 
L 2444 897 
L 1241 4097 
L 1241 0 
L 628 0 
L 628 4666 
z
" transform="scale(0.015625)"/>
       <path id="DejaVuSans-2d" d="M 313 2009 
L 1997 2009 
L 1997 1497 
L 313 1497 
L 313 2009 
z
" transform="scale(0.015625)"/>
      </defs>
      <use xlink:href="#DejaVuSans-54"/>
      <use xlink:href="#DejaVuSans-4d" x="61.083984"/>
      <use xlink:href="#DejaVuSans-2d" x="147.363281"/>
      <use xlink:href="#DejaVuSans-61" x="183.447266"/>
      <use xlink:href="#DejaVuSans-6c" x="244.726562"/>
      <use xlink:href="#DejaVuSans-69" x="272.509766"/>
      <use xlink:href="#DejaVuSans-67" x="300.292969"/>
      <use xlink:href="#DejaVuSans-6e" x="363.769531"/>
     </g>
    </g>
    <g id="line2d_22">
     <path d="M 66.6 98.604813 
L 76.6 98.604813 
L 86.6 98.604813 
" style="fill: none; stroke-dasharray: 3,4.95; stroke-dashoffset: 0; stroke: #000000; stroke-width: 3"/>
    </g>
    <g id="text_19">
     <!-- Reseek (fast) -->
     <g transform="translate(94.6 102.104813) scale(0.1 -0.1)">
      <use xlink:href="#DejaVuSans-52"/>
      <use xlink:href="#DejaVuSans-65" x="64.982422"/>
      <use xlink:href="#DejaVuSans-73" x="126.505859"/>
      <use xlink:href="#DejaVuSans-65" x="178.605469"/>
      <use xlink:href="#DejaVuSans-65" x="240.128906"/>
      <use xlink:href="#DejaVuSans-6b" x="301.652344"/>
      <use xlink:href="#DejaVuSans-20" x="359.5625"/>
      <use xlink:href="#DejaVuSans-28" x="391.349609"/>
      <use xlink:href="#DejaVuSans-66" x="430.363281"/>
      <use xlink:href="#DejaVuSans-61" x="465.568359"/>
      <use xlink:href="#DejaVuSans-73" x="526.847656"/>
      <use xlink:href="#DejaVuSans-74" x="578.947266"/>
      <use xlink:href="#DejaVuSans-29" x="618.15625"/>
     </g>
    </g>
    <g id="line2d_23">
     <path d="M 66.6 113.282938 
L 76.6 113.282938 
L 86.6 113.282938 
" style="fill: none; stroke: #000000; stroke-width: 2; stroke-linecap: square"/>
    </g>
    <g id="text_20">
     <!-- Reseek (sensitive) -->
     <g transform="translate(94.6 116.782938) scale(0.1 -0.1)">
      <defs>
       <path id="DejaVuSans-76" d="M 191 3500 
L 800 3500 
L 1894 563 
L 2988 3500 
L 3597 3500 
L 2284 0 
L 1503 0 
L 191 3500 
z
" transform="scale(0.015625)"/>
      </defs>
      <use xlink:href="#DejaVuSans-52"/>
      <use xlink:href="#DejaVuSans-65" x="64.982422"/>
      <use xlink:href="#DejaVuSans-73" x="126.505859"/>
      <use xlink:href="#DejaVuSans-65" x="178.605469"/>
      <use xlink:href="#DejaVuSans-65" x="240.128906"/>
      <use xlink:href="#DejaVuSans-6b" x="301.652344"/>
      <use xlink:href="#DejaVuSans-20" x="359.5625"/>
      <use xlink:href="#DejaVuSans-28" x="391.349609"/>
      <use xlink:href="#DejaVuSans-73" x="430.363281"/>
      <use xlink:href="#DejaVuSans-65" x="482.462891"/>
      <use xlink:href="#DejaVuSans-6e" x="543.986328"/>
      <use xlink:href="#DejaVuSans-73" x="607.365234"/>
      <use xlink:href="#DejaVuSans-69" x="659.464844"/>
      <use xlink:href="#DejaVuSans-74" x="687.248047"/>
      <use xlink:href="#DejaVuSans-69" x="726.457031"/>
      <use xlink:href="#DejaVuSans-76" x="754.240234"/>
      <use xlink:href="#DejaVuSans-65" x="813.419922"/>
      <use xlink:href="#DejaVuSans-29" x="874.943359"/>
     </g>
    </g>
    <g id="line2d_24">
     <path d="M 66.6 127.961063 
L 76.6 127.961063 
L 86.6 127.961063 
" style="fill: none; stroke-dasharray: 7.4,3.2; stroke-dashoffset: 0; stroke: #808080; stroke-width: 2"/>
    </g>
    <g id="text_21">
     <!-- Reseek (verysensitive) -->
     <g transform="translate(94.6 131.461063) scale(0.1 -0.1)">
      <use xlink:href="#DejaVuSans-52"/>
      <use xlink:href="#DejaVuSans-65" x="64.982422"/>
      <use xlink:href="#DejaVuSans-73" x="126.505859"/>
      <use xlink:href="#DejaVuSans-65" x="178.605469"/>
      <use xlink:href="#DejaVuSans-65" x="240.128906"/>
      <use xlink:href="#DejaVuSans-6b" x="301.652344"/>
      <use xlink:href="#DejaVuSans-20" x="359.5625"/>
      <use xlink:href="#DejaVuSans-28" x="391.349609"/>
      <use xlink:href="#DejaVuSans-76" x="430.363281"/>
      <use xlink:href="#DejaVuSans-65" x="489.542969"/>
      <use xlink:href="#DejaVuSans-72" x="551.066406"/>
      <use xlink:href="#DejaVuSans-79" x="592.179688"/>
      <use xlink:href="#DejaVuSans-73" x="651.359375"/>
      <use xlink:href="#DejaVuSans-65" x="703.458984"/>
      <use xlink:href="#DejaVuSans-6e" x="764.982422"/>
      <use xlink:href="#DejaVuSans-73" x="828.361328"/>
      <use xlink:href="#DejaVuSans-69" x="880.460938"/>
      <use xlink:href="#DejaVuSans-74" x="908.244141"/>
      <use xlink:href="#DejaVuSans-69" x="947.453125"/>
      <use xlink:href="#DejaVuSans-76" x="975.236328"/>
      <use xlink:href="#DejaVuSans-65" x="1034.416016"/>
      <use xlink:href="#DejaVuSans-29" x="1095.939453"/>
     </g>
    </g>
   </g>
  </g>
 </g>
 <defs>
  <clipPath id="p15e5fca7fa">
   <rect x="57.6" y="41.472" width="357.12" height="266.112"/>
  </clipPath>
 </defs>
</svg>
