<?xml version="1.0" encoding="utf-8" standalone="no"?>
<!DOCTYPE svg PUBLIC "-//W3C//DTD SVG 1.1//EN"
  "http://www.w3.org/Graphics/SVG/1.1/DTD/svg11.dtd">
<svg xmlns:xlink="http://www.w3.org/1999/xlink" width="460.8pt" height="345.6pt" viewBox="0 0 460.8 345.6" xmlns="http://www.w3.org/2000/svg" version="1.1">
 <metadata>
  <rdf:RDF xmlns:dc="http://purl.org/dc/elements/1.1/" xmlns:cc="http://creativecommons.org/ns#" xmlns:rdf="http://www.w3.org/1999/02/22-rdf-syntax-ns#">
   <cc:Work>
    <dc:type rdf:resource="http://purl.org/dc/dcmitype/StillImage"/>
    <dc:date>2024-10-24T20:45:33.722373</dc:date>
    <dc:format>image/svg+xml</dc:format>
    <dc:creator>
     <cc:Agent>
      <dc:title>Matplotlib v3.9.2, https://matplotlib.org/</dc:title>
     </cc:Agent>
    </dc:creator>
   </cc:Work>
  </rdf:RDF>
 </metadata>
 <defs>
  <style type="text/css">*{stroke-linejoin: round; stroke-linecap: butt}</style>
 </defs>
 <g id="figure_1">
  <g id="patch_1">
   <path d="M 0 345.6 
L 460.8 345.6 
L 460.8 0 
L 0 0 
z
" style="fill: #ffffff"/>
  </g>
  <g id="axes_1">
   <g id="patch_2">
    <path d="M 57.6 307.584 
L 414.72 307.584 
L 414.72 41.472 
L 57.6 41.472 
z
" style="fill: #ffffff"/>
   </g>
   <g id="matplotlib.axis_1">
    <g id="xtick_1">
     <g id="line2d_1">
      <defs>
       <path id="mf9cacfe2b6" d="M 0 0 
L 0 3.5 
" style="stroke: #000000; stroke-width: 0.8"/>
      </defs>
      <g>
       <use xlink:href="#mf9cacfe2b6" x="70.529056" y="307.584" style="stroke: #000000; stroke-width: 0.8"/>
      </g>
     </g>
     <g id="text_1">
      <!-- 0.0 -->
      <g transform="translate(62.577493 322.182437) scale(0.1 -0.1)">
       <defs>
        <path id="DejaVuSans-30" d="M 2034 4250 
Q 1547 4250 1301 3770 
Q 1056 3291 1056 2328 
Q 1056 1369 1301 889 
Q 1547 409 2034 409 
Q 2525 409 2770 889 
Q 3016 1369 3016 2328 
Q 3016 3291 2770 3770 
Q 2525 4250 2034 4250 
z
M 2034 4750 
Q 2819 4750 3233 4129 
Q 3647 3509 3647 2328 
Q 3647 1150 3233 529 
Q 2819 -91 2034 -91 
Q 1250 -91 836 529 
Q 422 1150 422 2328 
Q 422 3509 836 4129 
Q 1250 4750 2034 4750 
z
" transform="scale(0.015625)"/>
        <path id="DejaVuSans-2e" d="M 684 794 
L 1344 794 
L 1344 0 
L 684 0 
L 684 794 
z
" transform="scale(0.015625)"/>
       </defs>
       <use xlink:href="#DejaVuSans-30"/>
       <use xlink:href="#DejaVuSans-2e" x="63.623047"/>
       <use xlink:href="#DejaVuSans-30" x="95.410156"/>
      </g>
     </g>
    </g>
    <g id="xtick_2">
     <g id="line2d_2">
      <g>
       <use xlink:href="#mf9cacfe2b6" x="139.355544" y="307.584" style="stroke: #000000; stroke-width: 0.8"/>
      </g>
     </g>
     <g id="text_2">
      <!-- 0.2 -->
      <g transform="translate(131.403982 322.182437) scale(0.1 -0.1)">
       <defs>
        <path id="DejaVuSans-32" d="M 1228 531 
L 3431 531 
L 3431 0 
L 469 0 
L 469 531 
Q 828 903 1448 1529 
Q 2069 2156 2228 2338 
Q 2531 2678 2651 2914 
Q 2772 3150 2772 3378 
Q 2772 3750 2511 3984 
Q 2250 4219 1831 4219 
Q 1534 4219 1204 4116 
Q 875 4013 500 3803 
L 500 4441 
Q 881 4594 1212 4672 
Q 1544 4750 1819 4750 
Q 2544 4750 2975 4387 
Q 3406 4025 3406 3419 
Q 3406 3131 3298 2873 
Q 3191 2616 2906 2266 
Q 2828 2175 2409 1742 
Q 1991 1309 1228 531 
z
" transform="scale(0.015625)"/>
       </defs>
       <use xlink:href="#DejaVuSans-30"/>
       <use xlink:href="#DejaVuSans-2e" x="63.623047"/>
       <use xlink:href="#DejaVuSans-32" x="95.410156"/>
      </g>
     </g>
    </g>
    <g id="xtick_3">
     <g id="line2d_3">
      <g>
       <use xlink:href="#mf9cacfe2b6" x="208.182032" y="307.584" style="stroke: #000000; stroke-width: 0.8"/>
      </g>
     </g>
     <g id="text_3">
      <!-- 0.4 -->
      <g transform="translate(200.23047 322.182437) scale(0.1 -0.1)">
       <defs>
        <path id="DejaVuSans-34" d="M 2419 4116 
L 825 1625 
L 2419 1625 
L 2419 4116 
z
M 2253 4666 
L 3047 4666 
L 3047 1625 
L 3713 1625 
L 3713 1100 
L 3047 1100 
L 3047 0 
L 2419 0 
L 2419 1100 
L 313 1100 
L 313 1709 
L 2253 4666 
z
" transform="scale(0.015625)"/>
       </defs>
       <use xlink:href="#DejaVuSans-30"/>
       <use xlink:href="#DejaVuSans-2e" x="63.623047"/>
       <use xlink:href="#DejaVuSans-34" x="95.410156"/>
      </g>
     </g>
    </g>
    <g id="xtick_4">
     <g id="line2d_4">
      <g>
       <use xlink:href="#mf9cacfe2b6" x="277.008521" y="307.584" style="stroke: #000000; stroke-width: 0.8"/>
      </g>
     </g>
     <g id="text_4">
      <!-- 0.6 -->
      <g transform="translate(269.056958 322.182437) scale(0.1 -0.1)">
       <defs>
        <path id="DejaVuSans-36" d="M 2113 2584 
Q 1688 2584 1439 2293 
Q 1191 2003 1191 1497 
Q 1191 994 1439 701 
Q 1688 409 2113 409 
Q 2538 409 2786 701 
Q 3034 994 3034 1497 
Q 3034 2003 2786 2293 
Q 2538 2584 2113 2584 
z
M 3366 4563 
L 3366 3988 
Q 3128 4100 2886 4159 
Q 2644 4219 2406 4219 
Q 1781 4219 1451 3797 
Q 1122 3375 1075 2522 
Q 1259 2794 1537 2939 
Q 1816 3084 2150 3084 
Q 2853 3084 3261 2657 
Q 3669 2231 3669 1497 
Q 3669 778 3244 343 
Q 2819 -91 2113 -91 
Q 1303 -91 875 529 
Q 447 1150 447 2328 
Q 447 3434 972 4092 
Q 1497 4750 2381 4750 
Q 2619 4750 2861 4703 
Q 3103 4656 3366 4563 
z
" transform="scale(0.015625)"/>
       </defs>
       <use xlink:href="#DejaVuSans-30"/>
       <use xlink:href="#DejaVuSans-2e" x="63.623047"/>
       <use xlink:href="#DejaVuSans-36" x="95.410156"/>
      </g>
     </g>
    </g>
    <g id="xtick_5">
     <g id="line2d_5">
      <g>
       <use xlink:href="#mf9cacfe2b6" x="345.835009" y="307.584" style="stroke: #000000; stroke-width: 0.8"/>
      </g>
     </g>
     <g id="text_5">
      <!-- 0.8 -->
      <g transform="translate(337.883447 322.182437) scale(0.1 -0.1)">
       <defs>
        <path id="DejaVuSans-38" d="M 2034 2216 
Q 1584 2216 1326 1975 
Q 1069 1734 1069 1313 
Q 1069 891 1326 650 
Q 1584 409 2034 409 
Q 2484 409 2743 651 
Q 3003 894 3003 1313 
Q 3003 1734 2745 1975 
Q 2488 2216 2034 2216 
z
M 1403 2484 
Q 997 2584 770 2862 
Q 544 3141 544 3541 
Q 544 4100 942 4425 
Q 1341 4750 2034 4750 
Q 2731 4750 3128 4425 
Q 3525 4100 3525 3541 
Q 3525 3141 3298 2862 
Q 3072 2584 2669 2484 
Q 3125 2378 3379 2068 
Q 3634 1759 3634 1313 
Q 3634 634 3220 271 
Q 2806 -91 2034 -91 
Q 1263 -91 848 271 
Q 434 634 434 1313 
Q 434 1759 690 2068 
Q 947 2378 1403 2484 
z
M 1172 3481 
Q 1172 3119 1398 2916 
Q 1625 2713 2034 2713 
Q 2441 2713 2670 2916 
Q 2900 3119 2900 3481 
Q 2900 3844 2670 4047 
Q 2441 4250 2034 4250 
Q 1625 4250 1398 4047 
Q 1172 3844 1172 3481 
z
" transform="scale(0.015625)"/>
       </defs>
       <use xlink:href="#DejaVuSans-30"/>
       <use xlink:href="#DejaVuSans-2e" x="63.623047"/>
       <use xlink:href="#DejaVuSans-38" x="95.410156"/>
      </g>
     </g>
    </g>
    <g id="xtick_6">
     <g id="line2d_6">
      <g>
       <use xlink:href="#mf9cacfe2b6" x="414.661497" y="307.584" style="stroke: #000000; stroke-width: 0.8"/>
      </g>
     </g>
     <g id="text_6">
      <!-- 1.0 -->
      <g transform="translate(406.709935 322.182437) scale(0.1 -0.1)">
       <defs>
        <path id="DejaVuSans-31" d="M 794 531 
L 1825 531 
L 1825 4091 
L 703 3866 
L 703 4441 
L 1819 4666 
L 2450 4666 
L 2450 531 
L 3481 531 
L 3481 0 
L 794 0 
L 794 531 
z
" transform="scale(0.015625)"/>
       </defs>
       <use xlink:href="#DejaVuSans-31"/>
       <use xlink:href="#DejaVuSans-2e" x="63.623047"/>
       <use xlink:href="#DejaVuSans-30" x="95.410156"/>
      </g>
     </g>
    </g>
    <g id="text_7">
     <!-- Category coverage -->
     <g transform="translate(188.515469 335.860562) scale(0.1 -0.1)">
      <defs>
       <path id="DejaVuSans-43" d="M 4122 4306 
L 4122 3641 
Q 3803 3938 3442 4084 
Q 3081 4231 2675 4231 
Q 1875 4231 1450 3742 
Q 1025 3253 1025 2328 
Q 1025 1406 1450 917 
Q 1875 428 2675 428 
Q 3081 428 3442 575 
Q 3803 722 4122 1019 
L 4122 359 
Q 3791 134 3420 21 
Q 3050 -91 2638 -91 
Q 1578 -91 968 557 
Q 359 1206 359 2328 
Q 359 3453 968 4101 
Q 1578 4750 2638 4750 
Q 3056 4750 3426 4639 
Q 3797 4528 4122 4306 
z
" transform="scale(0.015625)"/>
       <path id="DejaVuSans-61" d="M 2194 1759 
Q 1497 1759 1228 1600 
Q 959 1441 959 1056 
Q 959 750 1161 570 
Q 1363 391 1709 391 
Q 2188 391 2477 730 
Q 2766 1069 2766 1631 
L 2766 1759 
L 2194 1759 
z
M 3341 1997 
L 3341 0 
L 2766 0 
L 2766 531 
Q 2569 213 2275 61 
Q 1981 -91 1556 -91 
Q 1019 -91 701 211 
Q 384 513 384 1019 
Q 384 1609 779 1909 
Q 1175 2209 1959 2209 
L 2766 2209 
L 2766 2266 
Q 2766 2663 2505 2880 
Q 2244 3097 1772 3097 
Q 1472 3097 1187 3025 
Q 903 2953 641 2809 
L 641 3341 
Q 956 3463 1253 3523 
Q 1550 3584 1831 3584 
Q 2591 3584 2966 3190 
Q 3341 2797 3341 1997 
z
" transform="scale(0.015625)"/>
       <path id="DejaVuSans-74" d="M 1172 4494 
L 1172 3500 
L 2356 3500 
L 2356 3053 
L 1172 3053 
L 1172 1153 
Q 1172 725 1289 603 
Q 1406 481 1766 481 
L 2356 481 
L 2356 0 
L 1766 0 
Q 1100 0 847 248 
Q 594 497 594 1153 
L 594 3053 
L 172 3053 
L 172 3500 
L 594 3500 
L 594 4494 
L 1172 4494 
z
" transform="scale(0.015625)"/>
       <path id="DejaVuSans-65" d="M 3597 1894 
L 3597 1613 
L 953 1613 
Q 991 1019 1311 708 
Q 1631 397 2203 397 
Q 2534 397 2845 478 
Q 3156 559 3463 722 
L 3463 178 
Q 3153 47 2828 -22 
Q 2503 -91 2169 -91 
Q 1331 -91 842 396 
Q 353 884 353 1716 
Q 353 2575 817 3079 
Q 1281 3584 2069 3584 
Q 2775 3584 3186 3129 
Q 3597 2675 3597 1894 
z
M 3022 2063 
Q 3016 2534 2758 2815 
Q 2500 3097 2075 3097 
Q 1594 3097 1305 2825 
Q 1016 2553 972 2059 
L 3022 2063 
z
" transform="scale(0.015625)"/>
       <path id="DejaVuSans-67" d="M 2906 1791 
Q 2906 2416 2648 2759 
Q 2391 3103 1925 3103 
Q 1463 3103 1205 2759 
Q 947 2416 947 1791 
Q 947 1169 1205 825 
Q 1463 481 1925 481 
Q 2391 481 2648 825 
Q 2906 1169 2906 1791 
z
M 3481 434 
Q 3481 -459 3084 -895 
Q 2688 -1331 1869 -1331 
Q 1566 -1331 1297 -1286 
Q 1028 -1241 775 -1147 
L 775 -588 
Q 1028 -725 1275 -790 
Q 1522 -856 1778 -856 
Q 2344 -856 2625 -561 
Q 2906 -266 2906 331 
L 2906 616 
Q 2728 306 2450 153 
Q 2172 0 1784 0 
Q 1141 0 747 490 
Q 353 981 353 1791 
Q 353 2603 747 3093 
Q 1141 3584 1784 3584 
Q 2172 3584 2450 3431 
Q 2728 3278 2906 2969 
L 2906 3500 
L 3481 3500 
L 3481 434 
z
" transform="scale(0.015625)"/>
       <path id="DejaVuSans-6f" d="M 1959 3097 
Q 1497 3097 1228 2736 
Q 959 2375 959 1747 
Q 959 1119 1226 758 
Q 1494 397 1959 397 
Q 2419 397 2687 759 
Q 2956 1122 2956 1747 
Q 2956 2369 2687 2733 
Q 2419 3097 1959 3097 
z
M 1959 3584 
Q 2709 3584 3137 3096 
Q 3566 2609 3566 1747 
Q 3566 888 3137 398 
Q 2709 -91 1959 -91 
Q 1206 -91 779 398 
Q 353 888 353 1747 
Q 353 2609 779 3096 
Q 1206 3584 1959 3584 
z
" transform="scale(0.015625)"/>
       <path id="DejaVuSans-72" d="M 2631 2963 
Q 2534 3019 2420 3045 
Q 2306 3072 2169 3072 
Q 1681 3072 1420 2755 
Q 1159 2438 1159 1844 
L 1159 0 
L 581 0 
L 581 3500 
L 1159 3500 
L 1159 2956 
Q 1341 3275 1631 3429 
Q 1922 3584 2338 3584 
Q 2397 3584 2469 3576 
Q 2541 3569 2628 3553 
L 2631 2963 
z
" transform="scale(0.015625)"/>
       <path id="DejaVuSans-79" d="M 2059 -325 
Q 1816 -950 1584 -1140 
Q 1353 -1331 966 -1331 
L 506 -1331 
L 506 -850 
L 844 -850 
Q 1081 -850 1212 -737 
Q 1344 -625 1503 -206 
L 1606 56 
L 191 3500 
L 800 3500 
L 1894 763 
L 2988 3500 
L 3597 3500 
L 2059 -325 
z
" transform="scale(0.015625)"/>
       <path id="DejaVuSans-20" transform="scale(0.015625)"/>
       <path id="DejaVuSans-63" d="M 3122 3366 
L 3122 2828 
Q 2878 2963 2633 3030 
Q 2388 3097 2138 3097 
Q 1578 3097 1268 2742 
Q 959 2388 959 1747 
Q 959 1106 1268 751 
Q 1578 397 2138 397 
Q 2388 397 2633 464 
Q 2878 531 3122 666 
L 3122 134 
Q 2881 22 2623 -34 
Q 2366 -91 2075 -91 
Q 1284 -91 818 406 
Q 353 903 353 1747 
Q 353 2603 823 3093 
Q 1294 3584 2113 3584 
Q 2378 3584 2631 3529 
Q 2884 3475 3122 3366 
z
" transform="scale(0.015625)"/>
       <path id="DejaVuSans-76" d="M 191 3500 
L 800 3500 
L 1894 563 
L 2988 3500 
L 3597 3500 
L 2284 0 
L 1503 0 
L 191 3500 
z
" transform="scale(0.015625)"/>
      </defs>
      <use xlink:href="#DejaVuSans-43"/>
      <use xlink:href="#DejaVuSans-61" x="69.824219"/>
      <use xlink:href="#DejaVuSans-74" x="131.103516"/>
      <use xlink:href="#DejaVuSans-65" x="170.3125"/>
      <use xlink:href="#DejaVuSans-67" x="231.835938"/>
      <use xlink:href="#DejaVuSans-6f" x="295.3125"/>
      <use xlink:href="#DejaVuSans-72" x="356.494141"/>
      <use xlink:href="#DejaVuSans-79" x="397.607422"/>
      <use xlink:href="#DejaVuSans-20" x="456.787109"/>
      <use xlink:href="#DejaVuSans-63" x="488.574219"/>
      <use xlink:href="#DejaVuSans-6f" x="543.554688"/>
      <use xlink:href="#DejaVuSans-76" x="604.736328"/>
      <use xlink:href="#DejaVuSans-65" x="663.916016"/>
      <use xlink:href="#DejaVuSans-72" x="725.439453"/>
      <use xlink:href="#DejaVuSans-61" x="766.552734"/>
      <use xlink:href="#DejaVuSans-67" x="827.832031"/>
      <use xlink:href="#DejaVuSans-65" x="891.308594"/>
     </g>
    </g>
   </g>
   <g id="matplotlib.axis_2">
    <g id="ytick_1">
     <g id="line2d_7">
      <defs>
       <path id="md98e4f2302" d="M 0 0 
L -3.5 0 
" style="stroke: #000000; stroke-width: 0.8"/>
      </defs>
      <g>
       <use xlink:href="#md98e4f2302" x="57.6" y="295.488" style="stroke: #000000; stroke-width: 0.8"/>
      </g>
     </g>
     <g id="text_8">
      <!-- $\mathdefault{10^{-4}}$ -->
      <g transform="translate(27.1 299.287219) scale(0.1 -0.1)">
       <defs>
        <path id="DejaVuSans-2212" d="M 678 2272 
L 4684 2272 
L 4684 1741 
L 678 1741 
L 678 2272 
z
" transform="scale(0.015625)"/>
       </defs>
       <use xlink:href="#DejaVuSans-31" transform="translate(0 0.684375)"/>
       <use xlink:href="#DejaVuSans-30" transform="translate(63.623047 0.684375)"/>
       <use xlink:href="#DejaVuSans-2212" transform="translate(128.203125 38.965625) scale(0.7)"/>
       <use xlink:href="#DejaVuSans-34" transform="translate(186.855469 38.965625) scale(0.7)"/>
      </g>
     </g>
    </g>
    <g id="ytick_2">
     <g id="line2d_8">
      <g>
       <use xlink:href="#md98e4f2302" x="57.6" y="233.832884" style="stroke: #000000; stroke-width: 0.8"/>
      </g>
     </g>
     <g id="text_9">
      <!-- $\mathdefault{10^{-3}}$ -->
      <g transform="translate(27.1 237.632102) scale(0.1 -0.1)">
       <defs>
        <path id="DejaVuSans-33" d="M 2597 2516 
Q 3050 2419 3304 2112 
Q 3559 1806 3559 1356 
Q 3559 666 3084 287 
Q 2609 -91 1734 -91 
Q 1441 -91 1130 -33 
Q 819 25 488 141 
L 488 750 
Q 750 597 1062 519 
Q 1375 441 1716 441 
Q 2309 441 2620 675 
Q 2931 909 2931 1356 
Q 2931 1769 2642 2001 
Q 2353 2234 1838 2234 
L 1294 2234 
L 1294 2753 
L 1863 2753 
Q 2328 2753 2575 2939 
Q 2822 3125 2822 3475 
Q 2822 3834 2567 4026 
Q 2313 4219 1838 4219 
Q 1578 4219 1281 4162 
Q 984 4106 628 3988 
L 628 4550 
Q 988 4650 1302 4700 
Q 1616 4750 1894 4750 
Q 2613 4750 3031 4423 
Q 3450 4097 3450 3541 
Q 3450 3153 3228 2886 
Q 3006 2619 2597 2516 
z
" transform="scale(0.015625)"/>
       </defs>
       <use xlink:href="#DejaVuSans-31" transform="translate(0 0.765625)"/>
       <use xlink:href="#DejaVuSans-30" transform="translate(63.623047 0.765625)"/>
       <use xlink:href="#DejaVuSans-2212" transform="translate(128.203125 39.046875) scale(0.7)"/>
       <use xlink:href="#DejaVuSans-33" transform="translate(186.855469 39.046875) scale(0.7)"/>
      </g>
     </g>
    </g>
    <g id="ytick_3">
     <g id="line2d_9">
      <g>
       <use xlink:href="#md98e4f2302" x="57.6" y="172.177767" style="stroke: #000000; stroke-width: 0.8"/>
      </g>
     </g>
     <g id="text_10">
      <!-- $\mathdefault{10^{-2}}$ -->
      <g transform="translate(27.1 175.976986) scale(0.1 -0.1)">
       <use xlink:href="#DejaVuSans-31" transform="translate(0 0.765625)"/>
       <use xlink:href="#DejaVuSans-30" transform="translate(63.623047 0.765625)"/>
       <use xlink:href="#DejaVuSans-2212" transform="translate(128.203125 39.046875) scale(0.7)"/>
       <use xlink:href="#DejaVuSans-32" transform="translate(186.855469 39.046875) scale(0.7)"/>
      </g>
     </g>
    </g>
    <g id="ytick_4">
     <g id="line2d_10">
      <g>
       <use xlink:href="#md98e4f2302" x="57.6" y="110.522651" style="stroke: #000000; stroke-width: 0.8"/>
      </g>
     </g>
     <g id="text_11">
      <!-- $\mathdefault{10^{-1}}$ -->
      <g transform="translate(27.1 114.32187) scale(0.1 -0.1)">
       <use xlink:href="#DejaVuSans-31" transform="translate(0 0.684375)"/>
       <use xlink:href="#DejaVuSans-30" transform="translate(63.623047 0.684375)"/>
       <use xlink:href="#DejaVuSans-2212" transform="translate(128.203125 38.965625) scale(0.7)"/>
       <use xlink:href="#DejaVuSans-31" transform="translate(186.855469 38.965625) scale(0.7)"/>
      </g>
     </g>
    </g>
    <g id="ytick_5">
     <g id="line2d_11">
      <g>
       <use xlink:href="#md98e4f2302" x="57.6" y="48.867535" style="stroke: #000000; stroke-width: 0.8"/>
      </g>
     </g>
     <g id="text_12">
      <!-- $\mathdefault{10^{0}}$ -->
      <g transform="translate(33 52.666754) scale(0.1 -0.1)">
       <use xlink:href="#DejaVuSans-31" transform="translate(0 0.765625)"/>
       <use xlink:href="#DejaVuSans-30" transform="translate(63.623047 0.765625)"/>
       <use xlink:href="#DejaVuSans-30" transform="translate(128.203125 39.046875) scale(0.7)"/>
      </g>
     </g>
    </g>
    <g id="ytick_6">
     <g id="line2d_12">
      <defs>
       <path id="mf25f5b2bad" d="M 0 0 
L -2 0 
" style="stroke: #000000; stroke-width: 0.6"/>
      </defs>
      <g>
       <use xlink:href="#mf25f5b2bad" x="57.6" y="305.038498" style="stroke: #000000; stroke-width: 0.6"/>
      </g>
     </g>
    </g>
    <g id="ytick_7">
     <g id="line2d_13">
      <g>
       <use xlink:href="#mf25f5b2bad" x="57.6" y="301.462998" style="stroke: #000000; stroke-width: 0.6"/>
      </g>
     </g>
    </g>
    <g id="ytick_8">
     <g id="line2d_14">
      <g>
       <use xlink:href="#mf25f5b2bad" x="57.6" y="298.309183" style="stroke: #000000; stroke-width: 0.6"/>
      </g>
     </g>
    </g>
    <g id="ytick_9">
     <g id="line2d_15">
      <g>
       <use xlink:href="#mf25f5b2bad" x="57.6" y="276.927961" style="stroke: #000000; stroke-width: 0.6"/>
      </g>
     </g>
    </g>
    <g id="ytick_10">
     <g id="line2d_16">
      <g>
       <use xlink:href="#mf25f5b2bad" x="57.6" y="266.071034" style="stroke: #000000; stroke-width: 0.6"/>
      </g>
     </g>
    </g>
    <g id="ytick_11">
     <g id="line2d_17">
      <g>
       <use xlink:href="#mf25f5b2bad" x="57.6" y="258.367921" style="stroke: #000000; stroke-width: 0.6"/>
      </g>
     </g>
    </g>
    <g id="ytick_12">
     <g id="line2d_18">
      <g>
       <use xlink:href="#mf25f5b2bad" x="57.6" y="252.392923" style="stroke: #000000; stroke-width: 0.6"/>
      </g>
     </g>
    </g>
    <g id="ytick_13">
     <g id="line2d_19">
      <g>
       <use xlink:href="#mf25f5b2bad" x="57.6" y="247.510994" style="stroke: #000000; stroke-width: 0.6"/>
      </g>
     </g>
    </g>
    <g id="ytick_14">
     <g id="line2d_20">
      <g>
       <use xlink:href="#mf25f5b2bad" x="57.6" y="243.383382" style="stroke: #000000; stroke-width: 0.6"/>
      </g>
     </g>
    </g>
    <g id="ytick_15">
     <g id="line2d_21">
      <g>
       <use xlink:href="#mf25f5b2bad" x="57.6" y="239.807882" style="stroke: #000000; stroke-width: 0.6"/>
      </g>
     </g>
    </g>
    <g id="ytick_16">
     <g id="line2d_22">
      <g>
       <use xlink:href="#mf25f5b2bad" x="57.6" y="236.654067" style="stroke: #000000; stroke-width: 0.6"/>
      </g>
     </g>
    </g>
    <g id="ytick_17">
     <g id="line2d_23">
      <g>
       <use xlink:href="#mf25f5b2bad" x="57.6" y="215.272844" style="stroke: #000000; stroke-width: 0.6"/>
      </g>
     </g>
    </g>
    <g id="ytick_18">
     <g id="line2d_24">
      <g>
       <use xlink:href="#mf25f5b2bad" x="57.6" y="204.415917" style="stroke: #000000; stroke-width: 0.6"/>
      </g>
     </g>
    </g>
    <g id="ytick_19">
     <g id="line2d_25">
      <g>
       <use xlink:href="#mf25f5b2bad" x="57.6" y="196.712805" style="stroke: #000000; stroke-width: 0.6"/>
      </g>
     </g>
    </g>
    <g id="ytick_20">
     <g id="line2d_26">
      <g>
       <use xlink:href="#mf25f5b2bad" x="57.6" y="190.737807" style="stroke: #000000; stroke-width: 0.6"/>
      </g>
     </g>
    </g>
    <g id="ytick_21">
     <g id="line2d_27">
      <g>
       <use xlink:href="#mf25f5b2bad" x="57.6" y="185.855878" style="stroke: #000000; stroke-width: 0.6"/>
      </g>
     </g>
    </g>
    <g id="ytick_22">
     <g id="line2d_28">
      <g>
       <use xlink:href="#mf25f5b2bad" x="57.6" y="181.728266" style="stroke: #000000; stroke-width: 0.6"/>
      </g>
     </g>
    </g>
    <g id="ytick_23">
     <g id="line2d_29">
      <g>
       <use xlink:href="#mf25f5b2bad" x="57.6" y="178.152766" style="stroke: #000000; stroke-width: 0.6"/>
      </g>
     </g>
    </g>
    <g id="ytick_24">
     <g id="line2d_30">
      <g>
       <use xlink:href="#mf25f5b2bad" x="57.6" y="174.998951" style="stroke: #000000; stroke-width: 0.6"/>
      </g>
     </g>
    </g>
    <g id="ytick_25">
     <g id="line2d_31">
      <g>
       <use xlink:href="#mf25f5b2bad" x="57.6" y="153.617728" style="stroke: #000000; stroke-width: 0.6"/>
      </g>
     </g>
    </g>
    <g id="ytick_26">
     <g id="line2d_32">
      <g>
       <use xlink:href="#mf25f5b2bad" x="57.6" y="142.760801" style="stroke: #000000; stroke-width: 0.6"/>
      </g>
     </g>
    </g>
    <g id="ytick_27">
     <g id="line2d_33">
      <g>
       <use xlink:href="#mf25f5b2bad" x="57.6" y="135.057689" style="stroke: #000000; stroke-width: 0.6"/>
      </g>
     </g>
    </g>
    <g id="ytick_28">
     <g id="line2d_34">
      <g>
       <use xlink:href="#mf25f5b2bad" x="57.6" y="129.082691" style="stroke: #000000; stroke-width: 0.6"/>
      </g>
     </g>
    </g>
    <g id="ytick_29">
     <g id="line2d_35">
      <g>
       <use xlink:href="#mf25f5b2bad" x="57.6" y="124.200762" style="stroke: #000000; stroke-width: 0.6"/>
      </g>
     </g>
    </g>
    <g id="ytick_30">
     <g id="line2d_36">
      <g>
       <use xlink:href="#mf25f5b2bad" x="57.6" y="120.073149" style="stroke: #000000; stroke-width: 0.6"/>
      </g>
     </g>
    </g>
    <g id="ytick_31">
     <g id="line2d_37">
      <g>
       <use xlink:href="#mf25f5b2bad" x="57.6" y="116.497649" style="stroke: #000000; stroke-width: 0.6"/>
      </g>
     </g>
    </g>
    <g id="ytick_32">
     <g id="line2d_38">
      <g>
       <use xlink:href="#mf25f5b2bad" x="57.6" y="113.343835" style="stroke: #000000; stroke-width: 0.6"/>
      </g>
     </g>
    </g>
    <g id="ytick_33">
     <g id="line2d_39">
      <g>
       <use xlink:href="#mf25f5b2bad" x="57.6" y="91.962612" style="stroke: #000000; stroke-width: 0.6"/>
      </g>
     </g>
    </g>
    <g id="ytick_34">
     <g id="line2d_40">
      <g>
       <use xlink:href="#mf25f5b2bad" x="57.6" y="81.105685" style="stroke: #000000; stroke-width: 0.6"/>
      </g>
     </g>
    </g>
    <g id="ytick_35">
     <g id="line2d_41">
      <g>
       <use xlink:href="#mf25f5b2bad" x="57.6" y="73.402572" style="stroke: #000000; stroke-width: 0.6"/>
      </g>
     </g>
    </g>
    <g id="ytick_36">
     <g id="line2d_42">
      <g>
       <use xlink:href="#mf25f5b2bad" x="57.6" y="67.427574" style="stroke: #000000; stroke-width: 0.6"/>
      </g>
     </g>
    </g>
    <g id="ytick_37">
     <g id="line2d_43">
      <g>
       <use xlink:href="#mf25f5b2bad" x="57.6" y="62.545645" style="stroke: #000000; stroke-width: 0.6"/>
      </g>
     </g>
    </g>
    <g id="ytick_38">
     <g id="line2d_44">
      <g>
       <use xlink:href="#mf25f5b2bad" x="57.6" y="58.418033" style="stroke: #000000; stroke-width: 0.6"/>
      </g>
     </g>
    </g>
    <g id="ytick_39">
     <g id="line2d_45">
      <g>
       <use xlink:href="#mf25f5b2bad" x="57.6" y="54.842533" style="stroke: #000000; stroke-width: 0.6"/>
      </g>
     </g>
    </g>
    <g id="ytick_40">
     <g id="line2d_46">
      <g>
       <use xlink:href="#mf25f5b2bad" x="57.6" y="51.688718" style="stroke: #000000; stroke-width: 0.6"/>
      </g>
     </g>
    </g>
    <g id="text_13">
     <!-- Category errors per query -->
     <g transform="translate(21.020312 239.583469) rotate(-90) scale(0.1 -0.1)">
      <defs>
       <path id="DejaVuSans-73" d="M 2834 3397 
L 2834 2853 
Q 2591 2978 2328 3040 
Q 2066 3103 1784 3103 
Q 1356 3103 1142 2972 
Q 928 2841 928 2578 
Q 928 2378 1081 2264 
Q 1234 2150 1697 2047 
L 1894 2003 
Q 2506 1872 2764 1633 
Q 3022 1394 3022 966 
Q 3022 478 2636 193 
Q 2250 -91 1575 -91 
Q 1294 -91 989 -36 
Q 684 19 347 128 
L 347 722 
Q 666 556 975 473 
Q 1284 391 1588 391 
Q 1994 391 2212 530 
Q 2431 669 2431 922 
Q 2431 1156 2273 1281 
Q 2116 1406 1581 1522 
L 1381 1569 
Q 847 1681 609 1914 
Q 372 2147 372 2553 
Q 372 3047 722 3315 
Q 1072 3584 1716 3584 
Q 2034 3584 2315 3537 
Q 2597 3491 2834 3397 
z
" transform="scale(0.015625)"/>
       <path id="DejaVuSans-70" d="M 1159 525 
L 1159 -1331 
L 581 -1331 
L 581 3500 
L 1159 3500 
L 1159 2969 
Q 1341 3281 1617 3432 
Q 1894 3584 2278 3584 
Q 2916 3584 3314 3078 
Q 3713 2572 3713 1747 
Q 3713 922 3314 415 
Q 2916 -91 2278 -91 
Q 1894 -91 1617 61 
Q 1341 213 1159 525 
z
M 3116 1747 
Q 3116 2381 2855 2742 
Q 2594 3103 2138 3103 
Q 1681 3103 1420 2742 
Q 1159 2381 1159 1747 
Q 1159 1113 1420 752 
Q 1681 391 2138 391 
Q 2594 391 2855 752 
Q 3116 1113 3116 1747 
z
" transform="scale(0.015625)"/>
       <path id="DejaVuSans-71" d="M 947 1747 
Q 947 1113 1208 752 
Q 1469 391 1925 391 
Q 2381 391 2643 752 
Q 2906 1113 2906 1747 
Q 2906 2381 2643 2742 
Q 2381 3103 1925 3103 
Q 1469 3103 1208 2742 
Q 947 2381 947 1747 
z
M 2906 525 
Q 2725 213 2448 61 
Q 2172 -91 1784 -91 
Q 1150 -91 751 415 
Q 353 922 353 1747 
Q 353 2572 751 3078 
Q 1150 3584 1784 3584 
Q 2172 3584 2448 3432 
Q 2725 3281 2906 2969 
L 2906 3500 
L 3481 3500 
L 3481 -1331 
L 2906 -1331 
L 2906 525 
z
" transform="scale(0.015625)"/>
       <path id="DejaVuSans-75" d="M 544 1381 
L 544 3500 
L 1119 3500 
L 1119 1403 
Q 1119 906 1312 657 
Q 1506 409 1894 409 
Q 2359 409 2629 706 
Q 2900 1003 2900 1516 
L 2900 3500 
L 3475 3500 
L 3475 0 
L 2900 0 
L 2900 538 
Q 2691 219 2414 64 
Q 2138 -91 1772 -91 
Q 1169 -91 856 284 
Q 544 659 544 1381 
z
M 1991 3584 
L 1991 3584 
z
" transform="scale(0.015625)"/>
      </defs>
      <use xlink:href="#DejaVuSans-43"/>
      <use xlink:href="#DejaVuSans-61" x="69.824219"/>
      <use xlink:href="#DejaVuSans-74" x="131.103516"/>
      <use xlink:href="#DejaVuSans-65" x="170.3125"/>
      <use xlink:href="#DejaVuSans-67" x="231.835938"/>
      <use xlink:href="#DejaVuSans-6f" x="295.3125"/>
      <use xlink:href="#DejaVuSans-72" x="356.494141"/>
      <use xlink:href="#DejaVuSans-79" x="397.607422"/>
      <use xlink:href="#DejaVuSans-20" x="456.787109"/>
      <use xlink:href="#DejaVuSans-65" x="488.574219"/>
      <use xlink:href="#DejaVuSans-72" x="550.097656"/>
      <use xlink:href="#DejaVuSans-72" x="589.460938"/>
      <use xlink:href="#DejaVuSans-6f" x="628.324219"/>
      <use xlink:href="#DejaVuSans-72" x="689.505859"/>
      <use xlink:href="#DejaVuSans-73" x="730.619141"/>
      <use xlink:href="#DejaVuSans-20" x="782.71875"/>
      <use xlink:href="#DejaVuSans-70" x="814.505859"/>
      <use xlink:href="#DejaVuSans-65" x="877.982422"/>
      <use xlink:href="#DejaVuSans-72" x="939.505859"/>
      <use xlink:href="#DejaVuSans-20" x="980.619141"/>
      <use xlink:href="#DejaVuSans-71" x="1012.40625"/>
      <use xlink:href="#DejaVuSans-75" x="1075.882812"/>
      <use xlink:href="#DejaVuSans-65" x="1139.261719"/>
      <use xlink:href="#DejaVuSans-72" x="1200.785156"/>
      <use xlink:href="#DejaVuSans-79" x="1241.898438"/>
     </g>
    </g>
   </g>
   <g id="line2d_47">
    <path d="M 90.347415 346.6 
L 90.351084 276.927961 
L 93.689169 276.927961 
L 96.958427 266.071034 
L 100.296512 266.071034 
L 103.600183 266.071034 
L 106.938268 266.071034 
L 110.24194 266.071034 
L 113.545611 266.071034 
L 116.883696 266.071034 
L 120.187367 266.071034 
L 123.525452 266.071034 
L 126.79471 258.367921 
L 130.063968 258.367921 
L 133.402053 258.367921 
L 136.705724 258.367921 
L 140.009396 252.392923 
L 143.278654 247.510994 
L 146.616739 247.510994 
L 149.92041 247.510994 
L 153.189668 243.383382 
L 156.49334 239.807882 
L 159.797011 239.807882 
L 163.135096 239.807882 
L 166.404354 236.654067 
L 169.708026 233.832884 
L 173.011697 233.832884 
L 176.315368 233.832884 
L 179.653453 233.832884 
L 182.957125 233.832884 
L 186.295209 233.832884 
L 189.598881 233.832884 
L 192.868139 231.280813 
L 196.17181 228.950955 
L 199.475482 228.950955 
L 202.74474 226.807693 
L 206.048411 226.807693 
L 209.352083 224.823343 
L 212.552515 219.624529 
L 215.856186 219.624529 
L 219.159857 218.094028 
L 222.463529 218.094028 
L 225.732787 215.272844 
L 229.002045 213.966416 
L 232.23689 211.530512 
L 235.540562 211.530512 
L 238.844233 210.390915 
L 242.113491 209.297846 
L 245.417163 209.297846 
L 248.755247 209.297846 
L 252.058919 209.297846 
L 255.397003 209.297846 
L 258.700675 209.297846 
L 261.969933 207.237101 
L 265.273605 207.237101 
L 268.542863 206.263303 
L 271.846534 205.323681 
L 275.046966 203.537921 
L 278.385051 203.537921 
L 281.654309 202.687803 
L 284.992393 202.687803 
L 288.261652 201.863846 
L 291.565323 201.863846 
L 294.903408 201.863846 
L 298.207079 201.863846 
L 301.510751 201.064489 
L 304.642356 198.086259 
L 307.911614 196.712805 
L 311.180872 196.051624 
L 314.484544 195.406376 
L 317.719389 194.160734 
L 320.988647 193.55899 
L 324.189079 191.830876 
L 327.423924 190.207562 
L 330.486702 187.229332 
L 333.480654 183.303807 
L 336.474607 179.88088 
L 339.468559 177.167017 
L 342.428098 174.120955 
L 345.42205 171.647523 
L 348.519242 170.117022 
L 351.650847 169.143225 
L 354.300667 165.152577 
L 357.122553 162.41391 
L 359.772373 159.260095 
L 362.28454 155.850394 
L 365.175252 154.29565 
L 368.031552 152.567536 
L 370.440479 149.643563 
L 372.505273 145.981641 
L 374.501242 142.671694 
L 376.462796 139.646685 
L 378.562004 137.145224 
L 380.42032 134.461896 
L 381.796849 131.199189 
L 383.448685 128.71042 
L 385.341413 126.775155 
L 386.993249 124.650797 
L 388.197713 122.18137 
L 389.539829 120.111429 
L 390.744293 118.012404 
L 391.914343 116.033114 
L 392.774674 113.945578 
L 393.566179 111.952536 
L 394.116791 110.335869 
" clip-path="url(#p7b9e2801ba)" style="fill: none; stroke: #87ceeb; stroke-width: 2; stroke-linecap: square"/>
   </g>
   <g id="line2d_48">
    <path d="M 140.178712 346.6 
L 140.181462 295.488 
L 143.485133 295.488 
L 146.788805 295.488 
L 150.12689 295.488 
L 153.396148 276.927961 
L 156.734232 276.927961 
L 160.003491 266.071034 
L 163.272749 258.367921 
L 166.610834 258.367921 
L 169.880092 258.367921 
L 173.218176 258.367921 
L 176.521848 258.367921 
L 179.859933 258.367921 
L 183.163604 258.367921 
L 186.467275 258.367921 
L 189.80536 258.367921 
L 193.109032 258.367921 
L 196.412703 252.392923 
L 199.716374 252.392923 
L 202.985633 247.510994 
L 206.323717 247.510994 
L 209.592976 243.383382 
L 212.896647 239.807882 
L 216.200318 239.807882 
L 219.538403 239.807882 
L 222.807661 236.654067 
L 226.076919 233.832884 
L 229.415004 233.832884 
L 232.684262 231.280813 
L 235.953521 228.950955 
L 239.222779 226.807693 
L 242.52645 224.823343 
L 245.830122 224.823343 
L 249.133793 224.823343 
L 252.471878 224.823343 
L 255.706723 221.247842 
L 259.010394 219.624529 
L 262.210826 215.272844 
L 265.445671 212.720773 
L 268.714929 211.530512 
L 272.0186 210.390915 
L 275.287859 209.297846 
L 278.59153 209.297846 
L 281.895201 208.247654 
L 285.198873 208.247654 
L 288.536958 208.247654 
L 291.771803 206.263303 
L 295.109887 206.263303 
L 298.413559 206.263303 
L 301.648404 205.323681 
L 304.952075 204.415917 
L 308.221333 203.537921 
L 311.490591 201.863846 
L 314.725436 200.288305 
L 317.960281 198.80034 
L 321.02306 194.160734 
L 324.223492 192.394612 
L 327.458337 191.278764 
L 330.658768 189.177571 
L 333.928027 188.677061 
L 337.128458 187.229332 
L 340.191237 184.127764 
L 343.288429 181.728266 
L 346.316795 178.830687 
L 349.207507 175.298132 
L 351.99498 171.386287 
L 354.6448 167.073626 
L 357.569925 164.743768 
L 360.150919 160.96618 
L 362.525433 156.738093 
L 365.278492 154.571698 
L 367.962725 152.311299 
L 370.474892 149.759229 
L 372.883819 147.112485 
L 375.327159 144.703988 
L 377.529607 141.96932 
L 379.663228 139.330734 
L 381.659196 136.714494 
L 383.758404 134.461896 
L 385.582306 131.963443 
L 387.062076 129.136297 
L 388.610672 126.726069 
L 390.296921 124.650797 
L 391.191665 121.852315 
L 392.051996 119.281669 
L 392.94674 116.936341 
L 393.738245 114.717288 
L 394.082377 112.350918 
L 394.357683 110.097619 
L 394.598576 107.994934 
L 394.632989 105.932383 
L 394.667403 104.059444 
" clip-path="url(#p7b9e2801ba)" style="fill: none; stroke-dasharray: 3,4.95; stroke-dashoffset: 0; stroke: #ffa500; stroke-width: 3"/>
   </g>
   <g id="line2d_49">
    <path d="M 146.786084 346.6 
L 146.788805 295.488 
L 150.12689 295.488 
L 153.430561 295.488 
L 156.768646 295.488 
L 160.072317 295.488 
L 163.375989 295.488 
L 166.714073 295.488 
L 169.983331 276.927961 
L 173.321416 276.927961 
L 176.625088 276.927961 
L 179.894346 266.071034 
L 183.23243 266.071034 
L 186.536102 266.071034 
L 189.874187 266.071034 
L 193.177858 266.071034 
L 196.481529 266.071034 
L 199.819614 266.071034 
L 203.123286 266.071034 
L 206.392544 258.367921 
L 209.696215 258.367921 
L 212.999887 252.392923 
L 216.303558 252.392923 
L 219.60723 252.392923 
L 222.910901 247.510994 
L 226.214572 247.510994 
L 229.518244 243.383382 
L 232.821915 243.383382 
L 236.125587 243.383382 
L 239.463671 243.383382 
L 242.767343 243.383382 
L 246.105428 243.383382 
L 249.409099 243.383382 
L 252.678357 236.654067 
L 255.947615 233.832884 
L 259.251287 233.832884 
L 262.589372 233.832884 
L 265.789803 228.950955 
L 269.059061 224.823343 
L 272.32832 222.975957 
L 275.597578 219.624529 
L 278.866836 218.094028 
L 282.204921 218.094028 
L 285.405352 213.966416 
L 288.674611 212.720773 
L 291.978282 212.720773 
L 295.178714 209.297846 
L 298.379145 205.323681 
L 301.476337 200.288305 
L 304.676769 198.80034 
L 307.773961 194.160734 
L 310.871153 190.737807 
L 314.174825 190.737807 
L 317.340843 188.677061 
L 320.438035 185.855878 
L 323.604053 184.127764 
L 326.838898 183.303807 
L 329.93609 180.973949 
L 332.964456 178.152766 
L 335.992821 175.906715 
L 338.986774 173.270837 
L 341.980726 170.871339 
L 345.077918 169.383374 
L 348.07187 167.295838 
L 350.790516 163.94441 
L 353.784469 162.228604 
L 356.571941 159.760604 
L 359.393827 157.656234 
L 362.250127 155.705263 
L 364.83112 153.087483 
L 367.618593 151.187646 
L 370.337239 149.299535 
L 372.952646 147.323325 
L 375.464812 145.090659 
L 377.873739 142.760801 
L 380.145014 140.453266 
L 382.450701 138.253374 
L 384.618735 136.011659 
L 386.752356 133.943207 
L 388.507432 131.373629 
L 389.952788 128.552446 
L 391.122838 125.715516 
L 392.568195 123.409281 
L 393.875898 121.126402 
L 394.736229 118.621394 
L 395.49332 116.264374 
L 396.422478 114.220839 
L 396.86985 111.952536 
L 397.454875 109.939955 
L 397.799008 107.92194 
L 398.005487 105.977538 
L 398.005487 105.752524 
" clip-path="url(#p7b9e2801ba)" style="fill: none; stroke: #ff00ff; stroke-width: 2; stroke-linecap: square"/>
   </g>
   <g id="line2d_50">
    <path d="M 106.96996 346.6 
L 106.972681 295.488 
L 110.310766 295.488 
L 113.511198 258.367921 
L 116.195431 213.966416 
L 118.810837 196.712805 
L 120.772392 179.176195 
L 121.632723 162.600506 
L 122.561881 152.696579 
L 122.8716 143.947006 
L 123.043666 137.000876 
L 123.250146 131.549213 
L 123.284559 126.824332 
L 123.318972 122.809463 
L 123.387799 119.318833 
L 123.491039 116.297575 
L 123.491039 113.463106 
L 123.525452 110.954539 
L 123.559865 108.660988 
L 123.594278 106.548486 
L 123.594278 104.547653 
L 123.628692 102.746005 
L 123.628692 101.020394 
L 123.663105 99.399289 
L 123.697518 97.887451 
L 123.697518 96.4406 
L 123.731931 95.082977 
L 123.731931 93.762225 
L 123.731931 92.517234 
L 123.731931 91.327567 
L 123.731931 90.188515 
L 123.766345 89.107979 
L 123.766345 88.046217 
L 123.766345 87.036092 
L 123.800758 86.073436 
L 123.800758 85.133814 
L 123.800758 84.216023 
L 123.800758 83.33835 
L 123.835171 82.497935 
L 123.835171 81.673979 
L 123.835171 80.874622 
L 123.835171 80.089843 
L 123.835171 79.335765 
L 123.835171 78.602343 
L 123.835171 77.888475 
L 123.938411 77.208575 
L 123.938411 76.53046 
L 123.938411 75.869095 
L 123.938411 75.223673 
L 123.938411 74.586445 
L 123.938411 73.970867 
L 123.938411 73.369123 
L 123.938411 72.780605 
L 123.938411 72.204745 
L 123.938411 71.634741 
L 123.938411 71.082757 
L 123.938411 70.541923 
L 123.938411 70.011796 
L 123.938411 69.491962 
L 123.938411 68.976352 
L 123.972824 68.481623 
L 123.972824 67.990399 
L 124.007237 67.513396 
L 124.007237 67.034186 
L 124.007237 66.568588 
L 124.007237 66.110947 
L 124.041651 65.66601 
L 124.041651 65.223414 
L 124.041651 64.783162 
L 124.041651 64.354806 
L 124.041651 63.933196 
L 124.041651 63.51812 
L 124.041651 63.109381 
L 124.041651 62.702299 
L 124.041651 62.305735 
L 124.041651 61.914959 
L 124.041651 61.529804 
L 124.041651 61.15011 
L 124.041651 60.771549 
L 124.041651 60.402384 
L 124.041651 60.038239 
L 124.041651 59.678981 
L 124.041651 59.324478 
L 124.041651 58.970703 
L 124.041651 58.625395 
L 124.041651 58.284484 
L 124.041651 57.947859 
L 124.041651 57.615414 
L 124.041651 57.283378 
L 124.041651 56.959032 
L 124.041651 56.638567 
L 124.041651 56.321892 
L 124.041651 56.008919 
L 124.041651 55.696106 
L 124.041651 55.390322 
L 124.041651 55.08799 
L 124.041651 54.789033 
L 124.076064 54.493378 
L 124.076064 54.200951 
L 124.076064 53.911684 
L 124.076064 53.625508 
L 124.076064 53.568 
" clip-path="url(#p7b9e2801ba)" style="fill: none; stroke: #1f77b4; stroke-width: 2; stroke-linecap: square"/>
   </g>
   <g id="line2d_51">
    <path d="M 249.647242 346.6 
L 249.649992 295.488 
L 252.884837 266.071034 
L 256.222921 266.071034 
L 259.526593 266.071034 
L 262.864677 266.071034 
L 266.168349 266.071034 
L 269.47202 266.071034 
L 272.810105 266.071034 
L 276.113776 266.071034 
L 279.451861 266.071034 
L 282.755533 266.071034 
L 286.059204 266.071034 
L 289.397289 266.071034 
L 292.70096 266.071034 
L 296.039045 266.071034 
L 299.342716 266.071034 
L 302.646388 266.071034 
L 305.915646 258.367921 
L 309.150491 247.510994 
L 312.419749 239.807882 
L 315.723421 239.807882 
L 319.061505 239.807882 
L 322.29635 233.832884 
L 325.600022 231.280813 
L 328.628387 218.094028 
L 331.828819 213.966416 
L 335.063664 211.530512 
L 338.160856 205.323681 
L 341.395701 203.537921 
L 344.424066 197.390727 
L 347.486845 192.970473 
L 350.205491 184.977882 
L 353.06179 179.88088 
L 355.81485 174.998951 
L 358.636736 171.386287 
L 360.770357 164.142024 
L 362.869565 158.286297 
L 364.486987 151.931485 
L 365.863517 145.981641 
L 367.067981 140.782827 
L 367.825072 135.598646 
L 368.719817 131.490557 
L 368.995122 127.421601 
" clip-path="url(#p7b9e2801ba)" style="fill: none; stroke-dasharray: 3,4.95; stroke-dashoffset: 0; stroke: #000000; stroke-width: 3"/>
   </g>
   <g id="line2d_52">
    <path d="M 249.647242 346.6 
L 249.649992 295.488 
L 252.884837 266.071034 
L 256.222921 266.071034 
L 259.526593 266.071034 
L 262.864677 266.071034 
L 266.168349 266.071034 
L 269.47202 266.071034 
L 272.810105 266.071034 
L 276.113776 266.071034 
L 279.451861 266.071034 
L 282.755533 266.071034 
L 286.059204 266.071034 
L 289.397289 266.071034 
L 292.70096 266.071034 
L 296.039045 266.071034 
L 299.342716 266.071034 
L 302.646388 266.071034 
L 305.950059 258.367921 
L 309.219317 258.367921 
L 312.488576 247.510994 
L 315.723421 239.807882 
L 319.061505 239.807882 
L 322.365177 239.807882 
L 325.634435 236.654067 
L 328.938106 233.832884 
L 332.104125 226.807693 
L 335.304556 219.624529 
L 338.539401 216.646298 
L 341.843073 215.272844 
L 345.043505 212.720773 
L 348.278349 209.297846 
L 351.478781 205.323681 
L 354.54156 200.288305 
L 357.535512 194.160734 
L 360.288572 186.305913 
L 363.179284 181.728266 
L 366.138823 178.152766 
L 368.891883 173.551221 
L 371.541703 168.90521 
L 374.157109 164.743768 
L 376.325143 159.095316 
L 378.493178 154.433318 
L 380.076187 148.735799 
L 381.38389 143.301758 
L 382.829247 139.018469 
L 383.827231 134.593153 
L 384.997281 131.025878 
L 385.719959 127.321127 
L 386.477051 124.022844 
L 387.130902 121.046947 
L 387.406208 118.333084 
" clip-path="url(#p7b9e2801ba)" style="fill: none; stroke: #000000; stroke-width: 2; stroke-linecap: square"/>
   </g>
   <g id="line2d_53">
    <path d="M 209.795786 346.6 
L 209.799455 276.927961 
L 213.103126 276.927961 
L 216.441211 276.927961 
L 219.744883 276.927961 
L 223.082967 276.927961 
L 226.386639 276.927961 
L 229.69031 276.927961 
L 232.993982 266.071034 
L 236.297653 266.071034 
L 239.635738 266.071034 
L 242.939409 266.071034 
L 246.277494 266.071034 
L 249.581165 266.071034 
L 252.884837 266.071034 
L 256.188508 258.367921 
L 259.49218 258.367921 
L 262.830264 258.367921 
L 266.133936 258.367921 
L 269.437607 258.367921 
L 272.775692 258.367921 
L 276.079363 258.367921 
L 279.417448 258.367921 
L 282.721119 258.367921 
L 285.990378 258.367921 
L 289.328462 258.367921 
L 292.632134 258.367921 
L 295.970218 258.367921 
L 299.27389 258.367921 
L 302.577561 258.367921 
L 305.915646 258.367921 
L 309.219317 258.367921 
L 312.522989 252.392923 
L 315.792247 247.510994 
L 319.130332 247.510994 
L 322.434003 247.510994 
L 325.703261 243.383382 
L 329.006933 239.807882 
L 332.207364 231.280813 
L 335.511036 228.950955 
L 338.745881 226.807693 
L 341.946313 219.624529 
L 345.181158 216.646298 
L 348.381589 212.720773 
L 351.616434 210.390915 
L 354.954519 210.390915 
L 358.086124 205.323681 
L 361.252143 201.863846 
L 364.349335 197.390727 
L 367.171221 189.687614 
L 370.199586 185.855878 
L 373.193538 182.113545 
L 376.187491 178.830687 
L 379.181443 176.216273 
L 381.762436 170.617531 
L 384.309016 165.777737 
L 386.511464 160.270648 
L 388.507432 154.710797 
L 390.090441 148.847601 
L 391.294905 143.210836 
L 392.533781 138.556794 
L 393.25646 133.687582 
L 394.22003 129.953547 
L 394.942709 126.336586 
L 395.734213 123.193515 
L 396.491305 120.419651 
L 396.835437 117.486327 
L 397.248396 114.905856 
L 397.626942 112.523484 
L 397.833421 110.203246 
L 398.211967 108.190562 
L 398.487273 106.250074 
L 398.487273 106.18168 
" clip-path="url(#p7b9e2801ba)" style="fill: none; stroke-dasharray: 7.4,3.2; stroke-dashoffset: 0; stroke: #808080; stroke-width: 2"/>
   </g>
   <g id="patch_3">
    <path d="M 57.6 307.584 
L 57.6 41.472 
" style="fill: none; stroke: #000000; stroke-width: 0.8; stroke-linejoin: miter; stroke-linecap: square"/>
   </g>
   <g id="patch_4">
    <path d="M 414.72 307.584 
L 414.72 41.472 
" style="fill: none; stroke: #000000; stroke-width: 0.8; stroke-linejoin: miter; stroke-linecap: square"/>
   </g>
   <g id="patch_5">
    <path d="M 57.6 307.584 
L 414.72 307.584 
" style="fill: none; stroke: #000000; stroke-width: 0.8; stroke-linejoin: miter; stroke-linecap: square"/>
   </g>
   <g id="patch_6">
    <path d="M 57.6 41.472 
L 414.72 41.472 
" style="fill: none; stroke: #000000; stroke-width: 0.8; stroke-linejoin: miter; stroke-linecap: square"/>
   </g>
   <g id="legend_1">
    <g id="patch_7">
     <path d="M 163.410781 152.497 
L 308.909219 152.497 
Q 310.909219 152.497 310.909219 150.497 
L 310.909219 48.472 
Q 310.909219 46.472 308.909219 46.472 
L 163.410781 46.472 
Q 161.410781 46.472 161.410781 48.472 
L 161.410781 150.497 
Q 161.410781 152.497 163.410781 152.497 
z
" style="fill: #ffffff; opacity: 0.8; stroke: #cccccc; stroke-linejoin: miter"/>
    </g>
    <g id="line2d_54">
     <path d="M 165.410781 54.570438 
L 175.410781 54.570438 
L 185.410781 54.570438 
" style="fill: none; stroke: #87ceeb; stroke-width: 2; stroke-linecap: square"/>
    </g>
    <g id="text_14">
     <!-- DALI -->
     <g transform="translate(193.410781 58.070438) scale(0.1 -0.1)">
      <defs>
       <path id="DejaVuSans-44" d="M 1259 4147 
L 1259 519 
L 2022 519 
Q 2988 519 3436 956 
Q 3884 1394 3884 2338 
Q 3884 3275 3436 3711 
Q 2988 4147 2022 4147 
L 1259 4147 
z
M 628 4666 
L 1925 4666 
Q 3281 4666 3915 4102 
Q 4550 3538 4550 2338 
Q 4550 1131 3912 565 
Q 3275 0 1925 0 
L 628 0 
L 628 4666 
z
" transform="scale(0.015625)"/>
       <path id="DejaVuSans-41" d="M 2188 4044 
L 1331 1722 
L 3047 1722 
L 2188 4044 
z
M 1831 4666 
L 2547 4666 
L 4325 0 
L 3669 0 
L 3244 1197 
L 1141 1197 
L 716 0 
L 50 0 
L 1831 4666 
z
" transform="scale(0.015625)"/>
       <path id="DejaVuSans-4c" d="M 628 4666 
L 1259 4666 
L 1259 531 
L 3531 531 
L 3531 0 
L 628 0 
L 628 4666 
z
" transform="scale(0.015625)"/>
       <path id="DejaVuSans-49" d="M 628 4666 
L 1259 4666 
L 1259 0 
L 628 0 
L 628 4666 
z
" transform="scale(0.015625)"/>
      </defs>
      <use xlink:href="#DejaVuSans-44"/>
      <use xlink:href="#DejaVuSans-41" x="75.251953"/>
      <use xlink:href="#DejaVuSans-4c" x="143.660156"/>
      <use xlink:href="#DejaVuSans-49" x="199.373047"/>
     </g>
    </g>
    <g id="line2d_55">
     <path d="M 165.410781 69.248563 
L 175.410781 69.248563 
L 185.410781 69.248563 
" style="fill: none; stroke-dasharray: 3,4.95; stroke-dashoffset: 0; stroke: #ffa500; stroke-width: 3"/>
    </g>
    <g id="text_15">
     <!-- Foldseek -->
     <g transform="translate(193.410781 72.748563) scale(0.1 -0.1)">
      <defs>
       <path id="DejaVuSans-46" d="M 628 4666 
L 3309 4666 
L 3309 4134 
L 1259 4134 
L 1259 2759 
L 3109 2759 
L 3109 2228 
L 1259 2228 
L 1259 0 
L 628 0 
L 628 4666 
z
" transform="scale(0.015625)"/>
       <path id="DejaVuSans-6c" d="M 603 4863 
L 1178 4863 
L 1178 0 
L 603 0 
L 603 4863 
z
" transform="scale(0.015625)"/>
       <path id="DejaVuSans-64" d="M 2906 2969 
L 2906 4863 
L 3481 4863 
L 3481 0 
L 2906 0 
L 2906 525 
Q 2725 213 2448 61 
Q 2172 -91 1784 -91 
Q 1150 -91 751 415 
Q 353 922 353 1747 
Q 353 2572 751 3078 
Q 1150 3584 1784 3584 
Q 2172 3584 2448 3432 
Q 2725 3281 2906 2969 
z
M 947 1747 
Q 947 1113 1208 752 
Q 1469 391 1925 391 
Q 2381 391 2643 752 
Q 2906 1113 2906 1747 
Q 2906 2381 2643 2742 
Q 2381 3103 1925 3103 
Q 1469 3103 1208 2742 
Q 947 2381 947 1747 
z
" transform="scale(0.015625)"/>
       <path id="DejaVuSans-6b" d="M 581 4863 
L 1159 4863 
L 1159 1991 
L 2875 3500 
L 3609 3500 
L 1753 1863 
L 3688 0 
L 2938 0 
L 1159 1709 
L 1159 0 
L 581 0 
L 581 4863 
z
" transform="scale(0.015625)"/>
      </defs>
      <use xlink:href="#DejaVuSans-46"/>
      <use xlink:href="#DejaVuSans-6f" x="53.894531"/>
      <use xlink:href="#DejaVuSans-6c" x="115.076172"/>
      <use xlink:href="#DejaVuSans-64" x="142.859375"/>
      <use xlink:href="#DejaVuSans-73" x="206.335938"/>
      <use xlink:href="#DejaVuSans-65" x="258.435547"/>
      <use xlink:href="#DejaVuSans-65" x="319.958984"/>
      <use xlink:href="#DejaVuSans-6b" x="381.482422"/>
     </g>
    </g>
    <g id="line2d_56">
     <path d="M 165.410781 83.926688 
L 175.410781 83.926688 
L 185.410781 83.926688 
" style="fill: none; stroke: #ff00ff; stroke-width: 2; stroke-linecap: square"/>
    </g>
    <g id="text_16">
     <!-- TM-align -->
     <g transform="translate(193.410781 87.426688) scale(0.1 -0.1)">
      <defs>
       <path id="DejaVuSans-54" d="M -19 4666 
L 3928 4666 
L 3928 4134 
L 2272 4134 
L 2272 0 
L 1638 0 
L 1638 4134 
L -19 4134 
L -19 4666 
z
" transform="scale(0.015625)"/>
       <path id="DejaVuSans-4d" d="M 628 4666 
L 1569 4666 
L 2759 1491 
L 3956 4666 
L 4897 4666 
L 4897 0 
L 4281 0 
L 4281 4097 
L 3078 897 
L 2444 897 
L 1241 4097 
L 1241 0 
L 628 0 
L 628 4666 
z
" transform="scale(0.015625)"/>
       <path id="DejaVuSans-2d" d="M 313 2009 
L 1997 2009 
L 1997 1497 
L 313 1497 
L 313 2009 
z
" transform="scale(0.015625)"/>
       <path id="DejaVuSans-69" d="M 603 3500 
L 1178 3500 
L 1178 0 
L 603 0 
L 603 3500 
z
M 603 4863 
L 1178 4863 
L 1178 4134 
L 603 4134 
L 603 4863 
z
" transform="scale(0.015625)"/>
       <path id="DejaVuSans-6e" d="M 3513 2113 
L 3513 0 
L 2938 0 
L 2938 2094 
Q 2938 2591 2744 2837 
Q 2550 3084 2163 3084 
Q 1697 3084 1428 2787 
Q 1159 2491 1159 1978 
L 1159 0 
L 581 0 
L 581 3500 
L 1159 3500 
L 1159 2956 
Q 1366 3272 1645 3428 
Q 1925 3584 2291 3584 
Q 2894 3584 3203 3211 
Q 3513 2838 3513 2113 
z
" transform="scale(0.015625)"/>
      </defs>
      <use xlink:href="#DejaVuSans-54"/>
      <use xlink:href="#DejaVuSans-4d" x="61.083984"/>
      <use xlink:href="#DejaVuSans-2d" x="147.363281"/>
      <use xlink:href="#DejaVuSans-61" x="183.447266"/>
      <use xlink:href="#DejaVuSans-6c" x="244.726562"/>
      <use xlink:href="#DejaVuSans-69" x="272.509766"/>
      <use xlink:href="#DejaVuSans-67" x="300.292969"/>
      <use xlink:href="#DejaVuSans-6e" x="363.769531"/>
     </g>
    </g>
    <g id="line2d_57">
     <path d="M 165.410781 98.604813 
L 175.410781 98.604813 
L 185.410781 98.604813 
" style="fill: none; stroke: #1f77b4; stroke-width: 2; stroke-linecap: square"/>
    </g>
    <g id="text_17">
     <!-- reseek_veryfast -->
     <g transform="translate(193.410781 102.104813) scale(0.1 -0.1)">
      <defs>
       <path id="DejaVuSans-5f" d="M 3263 -1063 
L 3263 -1509 
L -63 -1509 
L -63 -1063 
L 3263 -1063 
z
" transform="scale(0.015625)"/>
       <path id="DejaVuSans-66" d="M 2375 4863 
L 2375 4384 
L 1825 4384 
Q 1516 4384 1395 4259 
Q 1275 4134 1275 3809 
L 1275 3500 
L 2222 3500 
L 2222 3053 
L 1275 3053 
L 1275 0 
L 697 0 
L 697 3053 
L 147 3053 
L 147 3500 
L 697 3500 
L 697 3744 
Q 697 4328 969 4595 
Q 1241 4863 1831 4863 
L 2375 4863 
z
" transform="scale(0.015625)"/>
      </defs>
      <use xlink:href="#DejaVuSans-72"/>
      <use xlink:href="#DejaVuSans-65" x="38.863281"/>
      <use xlink:href="#DejaVuSans-73" x="100.386719"/>
      <use xlink:href="#DejaVuSans-65" x="152.486328"/>
      <use xlink:href="#DejaVuSans-65" x="214.009766"/>
      <use xlink:href="#DejaVuSans-6b" x="275.533203"/>
      <use xlink:href="#DejaVuSans-5f" x="333.443359"/>
      <use xlink:href="#DejaVuSans-76" x="383.443359"/>
      <use xlink:href="#DejaVuSans-65" x="442.623047"/>
      <use xlink:href="#DejaVuSans-72" x="504.146484"/>
      <use xlink:href="#DejaVuSans-79" x="545.259766"/>
      <use xlink:href="#DejaVuSans-66" x="604.439453"/>
      <use xlink:href="#DejaVuSans-61" x="639.644531"/>
      <use xlink:href="#DejaVuSans-73" x="700.923828"/>
      <use xlink:href="#DejaVuSans-74" x="753.023438"/>
     </g>
    </g>
    <g id="line2d_58">
     <path d="M 165.410781 113.561063 
L 175.410781 113.561063 
L 185.410781 113.561063 
" style="fill: none; stroke-dasharray: 3,4.95; stroke-dashoffset: 0; stroke: #000000; stroke-width: 3"/>
    </g>
    <g id="text_18">
     <!-- Reseek (fast) -->
     <g transform="translate(193.410781 117.061063) scale(0.1 -0.1)">
      <defs>
       <path id="DejaVuSans-52" d="M 2841 2188 
Q 3044 2119 3236 1894 
Q 3428 1669 3622 1275 
L 4263 0 
L 3584 0 
L 2988 1197 
Q 2756 1666 2539 1819 
Q 2322 1972 1947 1972 
L 1259 1972 
L 1259 0 
L 628 0 
L 628 4666 
L 2053 4666 
Q 2853 4666 3247 4331 
Q 3641 3997 3641 3322 
Q 3641 2881 3436 2590 
Q 3231 2300 2841 2188 
z
M 1259 4147 
L 1259 2491 
L 2053 2491 
Q 2509 2491 2742 2702 
Q 2975 2913 2975 3322 
Q 2975 3731 2742 3939 
Q 2509 4147 2053 4147 
L 1259 4147 
z
" transform="scale(0.015625)"/>
       <path id="DejaVuSans-28" d="M 1984 4856 
Q 1566 4138 1362 3434 
Q 1159 2731 1159 2009 
Q 1159 1288 1364 580 
Q 1569 -128 1984 -844 
L 1484 -844 
Q 1016 -109 783 600 
Q 550 1309 550 2009 
Q 550 2706 781 3412 
Q 1013 4119 1484 4856 
L 1984 4856 
z
" transform="scale(0.015625)"/>
       <path id="DejaVuSans-29" d="M 513 4856 
L 1013 4856 
Q 1481 4119 1714 3412 
Q 1947 2706 1947 2009 
Q 1947 1309 1714 600 
Q 1481 -109 1013 -844 
L 513 -844 
Q 928 -128 1133 580 
Q 1338 1288 1338 2009 
Q 1338 2731 1133 3434 
Q 928 4138 513 4856 
z
" transform="scale(0.015625)"/>
      </defs>
      <use xlink:href="#DejaVuSans-52"/>
      <use xlink:href="#DejaVuSans-65" x="64.982422"/>
      <use xlink:href="#DejaVuSans-73" x="126.505859"/>
      <use xlink:href="#DejaVuSans-65" x="178.605469"/>
      <use xlink:href="#DejaVuSans-65" x="240.128906"/>
      <use xlink:href="#DejaVuSans-6b" x="301.652344"/>
      <use xlink:href="#DejaVuSans-20" x="359.5625"/>
      <use xlink:href="#DejaVuSans-28" x="391.349609"/>
      <use xlink:href="#DejaVuSans-66" x="430.363281"/>
      <use xlink:href="#DejaVuSans-61" x="465.568359"/>
      <use xlink:href="#DejaVuSans-73" x="526.847656"/>
      <use xlink:href="#DejaVuSans-74" x="578.947266"/>
      <use xlink:href="#DejaVuSans-29" x="618.15625"/>
     </g>
    </g>
    <g id="line2d_59">
     <path d="M 165.410781 128.239188 
L 175.410781 128.239188 
L 185.410781 128.239188 
" style="fill: none; stroke: #000000; stroke-width: 2; stroke-linecap: square"/>
    </g>
    <g id="text_19">
     <!-- Reseek (sensitive) -->
     <g transform="translate(193.410781 131.739188) scale(0.1 -0.1)">
      <use xlink:href="#DejaVuSans-52"/>
      <use xlink:href="#DejaVuSans-65" x="64.982422"/>
      <use xlink:href="#DejaVuSans-73" x="126.505859"/>
      <use xlink:href="#DejaVuSans-65" x="178.605469"/>
      <use xlink:href="#DejaVuSans-65" x="240.128906"/>
      <use xlink:href="#DejaVuSans-6b" x="301.652344"/>
      <use xlink:href="#DejaVuSans-20" x="359.5625"/>
      <use xlink:href="#DejaVuSans-28" x="391.349609"/>
      <use xlink:href="#DejaVuSans-73" x="430.363281"/>
      <use xlink:href="#DejaVuSans-65" x="482.462891"/>
      <use xlink:href="#DejaVuSans-6e" x="543.986328"/>
      <use xlink:href="#DejaVuSans-73" x="607.365234"/>
      <use xlink:href="#DejaVuSans-69" x="659.464844"/>
      <use xlink:href="#DejaVuSans-74" x="687.248047"/>
      <use xlink:href="#DejaVuSans-69" x="726.457031"/>
      <use xlink:href="#DejaVuSans-76" x="754.240234"/>
      <use xlink:href="#DejaVuSans-65" x="813.419922"/>
      <use xlink:href="#DejaVuSans-29" x="874.943359"/>
     </g>
    </g>
    <g id="line2d_60">
     <path d="M 165.410781 142.917313 
L 175.410781 142.917313 
L 185.410781 142.917313 
" style="fill: none; stroke-dasharray: 7.4,3.2; stroke-dashoffset: 0; stroke: #808080; stroke-width: 2"/>
    </g>
    <g id="text_20">
     <!-- Reseek (verysensitive) -->
     <g transform="translate(193.410781 146.417313) scale(0.1 -0.1)">
      <use xlink:href="#DejaVuSans-52"/>
      <use xlink:href="#DejaVuSans-65" x="64.982422"/>
      <use xlink:href="#DejaVuSans-73" x="126.505859"/>
      <use xlink:href="#DejaVuSans-65" x="178.605469"/>
      <use xlink:href="#DejaVuSans-65" x="240.128906"/>
      <use xlink:href="#DejaVuSans-6b" x="301.652344"/>
      <use xlink:href="#DejaVuSans-20" x="359.5625"/>
      <use xlink:href="#DejaVuSans-28" x="391.349609"/>
      <use xlink:href="#DejaVuSans-76" x="430.363281"/>
      <use xlink:href="#DejaVuSans-65" x="489.542969"/>
      <use xlink:href="#DejaVuSans-72" x="551.066406"/>
      <use xlink:href="#DejaVuSans-79" x="592.179688"/>
      <use xlink:href="#DejaVuSans-73" x="651.359375"/>
      <use xlink:href="#DejaVuSans-65" x="703.458984"/>
      <use xlink:href="#DejaVuSans-6e" x="764.982422"/>
      <use xlink:href="#DejaVuSans-73" x="828.361328"/>
      <use xlink:href="#DejaVuSans-69" x="880.460938"/>
      <use xlink:href="#DejaVuSans-74" x="908.244141"/>
      <use xlink:href="#DejaVuSans-69" x="947.453125"/>
      <use xlink:href="#DejaVuSans-76" x="975.236328"/>
      <use xlink:href="#DejaVuSans-65" x="1034.416016"/>
      <use xlink:href="#DejaVuSans-29" x="1095.939453"/>
     </g>
    </g>
   </g>
  </g>
 </g>
 <defs>
  <clipPath id="p7b9e2801ba">
   <rect x="57.6" y="41.472" width="357.12" height="266.112"/>
  </clipPath>
 </defs>
</svg>
