<?xml version="1.0" encoding="utf-8" standalone="no"?>
<!DOCTYPE svg PUBLIC "-//W3C//DTD SVG 1.1//EN"
  "http://www.w3.org/Graphics/SVG/1.1/DTD/svg11.dtd">
<svg xmlns:xlink="http://www.w3.org/1999/xlink" width="460.8pt" height="345.6pt" viewBox="0 0 460.8 345.6" xmlns="http://www.w3.org/2000/svg" version="1.1">
 <metadata>
  <rdf:RDF xmlns:dc="http://purl.org/dc/elements/1.1/" xmlns:cc="http://creativecommons.org/ns#" xmlns:rdf="http://www.w3.org/1999/02/22-rdf-syntax-ns#">
   <cc:Work>
    <dc:type rdf:resource="http://purl.org/dc/dcmitype/StillImage"/>
    <dc:date>2025-01-27T16:20:40.407732</dc:date>
    <dc:format>image/svg+xml</dc:format>
    <dc:creator>
     <cc:Agent>
      <dc:title>Matplotlib v3.9.2, https://matplotlib.org/</dc:title>
     </cc:Agent>
    </dc:creator>
   </cc:Work>
  </rdf:RDF>
 </metadata>
 <defs>
  <style type="text/css">*{stroke-linejoin: round; stroke-linecap: butt}</style>
 </defs>
 <g id="figure_1">
  <g id="patch_1">
   <path d="M 0 345.6 
L 460.8 345.6 
L 460.8 0 
L 0 0 
z
" style="fill: #ffffff"/>
  </g>
  <g id="axes_1">
   <g id="patch_2">
    <path d="M 57.6 307.584 
L 414.72 307.584 
L 414.72 41.472 
L 57.6 41.472 
z
" style="fill: #ffffff"/>
   </g>
   <g id="matplotlib.axis_1">
    <g id="xtick_1">
     <g id="line2d_1">
      <defs>
       <path id="m592c2968d1" d="M 0 0 
L 0 3.5 
" style="stroke: #000000; stroke-width: 0.8"/>
      </defs>
      <g>
       <use xlink:href="#m592c2968d1" x="64.814545" y="307.584" style="stroke: #000000; stroke-width: 0.8"/>
      </g>
     </g>
     <g id="text_1">
      <!-- 0.05 -->
      <g transform="translate(53.681733 322.182437) scale(0.1 -0.1)">
       <defs>
        <path id="DejaVuSans-30" d="M 2034 4250 
Q 1547 4250 1301 3770 
Q 1056 3291 1056 2328 
Q 1056 1369 1301 889 
Q 1547 409 2034 409 
Q 2525 409 2770 889 
Q 3016 1369 3016 2328 
Q 3016 3291 2770 3770 
Q 2525 4250 2034 4250 
z
M 2034 4750 
Q 2819 4750 3233 4129 
Q 3647 3509 3647 2328 
Q 3647 1150 3233 529 
Q 2819 -91 2034 -91 
Q 1250 -91 836 529 
Q 422 1150 422 2328 
Q 422 3509 836 4129 
Q 1250 4750 2034 4750 
z
" transform="scale(0.015625)"/>
        <path id="DejaVuSans-2e" d="M 684 794 
L 1344 794 
L 1344 0 
L 684 0 
L 684 794 
z
" transform="scale(0.015625)"/>
        <path id="DejaVuSans-35" d="M 691 4666 
L 3169 4666 
L 3169 4134 
L 1269 4134 
L 1269 2991 
Q 1406 3038 1543 3061 
Q 1681 3084 1819 3084 
Q 2600 3084 3056 2656 
Q 3513 2228 3513 1497 
Q 3513 744 3044 326 
Q 2575 -91 1722 -91 
Q 1428 -91 1123 -41 
Q 819 9 494 109 
L 494 744 
Q 775 591 1075 516 
Q 1375 441 1709 441 
Q 2250 441 2565 725 
Q 2881 1009 2881 1497 
Q 2881 1984 2565 2268 
Q 2250 2553 1709 2553 
Q 1456 2553 1204 2497 
Q 953 2441 691 2322 
L 691 4666 
z
" transform="scale(0.015625)"/>
       </defs>
       <use xlink:href="#DejaVuSans-30"/>
       <use xlink:href="#DejaVuSans-2e" x="63.623047"/>
       <use xlink:href="#DejaVuSans-30" x="95.410156"/>
       <use xlink:href="#DejaVuSans-35" x="159.033203"/>
      </g>
     </g>
    </g>
    <g id="xtick_2">
     <g id="line2d_2">
      <g>
       <use xlink:href="#m592c2968d1" x="109.905455" y="307.584" style="stroke: #000000; stroke-width: 0.8"/>
      </g>
     </g>
     <g id="text_2">
      <!-- 0.10 -->
      <g transform="translate(98.772642 322.182437) scale(0.1 -0.1)">
       <defs>
        <path id="DejaVuSans-31" d="M 794 531 
L 1825 531 
L 1825 4091 
L 703 3866 
L 703 4441 
L 1819 4666 
L 2450 4666 
L 2450 531 
L 3481 531 
L 3481 0 
L 794 0 
L 794 531 
z
" transform="scale(0.015625)"/>
       </defs>
       <use xlink:href="#DejaVuSans-30"/>
       <use xlink:href="#DejaVuSans-2e" x="63.623047"/>
       <use xlink:href="#DejaVuSans-31" x="95.410156"/>
       <use xlink:href="#DejaVuSans-30" x="159.033203"/>
      </g>
     </g>
    </g>
    <g id="xtick_3">
     <g id="line2d_3">
      <g>
       <use xlink:href="#m592c2968d1" x="154.996364" y="307.584" style="stroke: #000000; stroke-width: 0.8"/>
      </g>
     </g>
     <g id="text_3">
      <!-- 0.15 -->
      <g transform="translate(143.863551 322.182437) scale(0.1 -0.1)">
       <use xlink:href="#DejaVuSans-30"/>
       <use xlink:href="#DejaVuSans-2e" x="63.623047"/>
       <use xlink:href="#DejaVuSans-31" x="95.410156"/>
       <use xlink:href="#DejaVuSans-35" x="159.033203"/>
      </g>
     </g>
    </g>
    <g id="xtick_4">
     <g id="line2d_4">
      <g>
       <use xlink:href="#m592c2968d1" x="200.087273" y="307.584" style="stroke: #000000; stroke-width: 0.8"/>
      </g>
     </g>
     <g id="text_4">
      <!-- 0.20 -->
      <g transform="translate(188.95446 322.182437) scale(0.1 -0.1)">
       <defs>
        <path id="DejaVuSans-32" d="M 1228 531 
L 3431 531 
L 3431 0 
L 469 0 
L 469 531 
Q 828 903 1448 1529 
Q 2069 2156 2228 2338 
Q 2531 2678 2651 2914 
Q 2772 3150 2772 3378 
Q 2772 3750 2511 3984 
Q 2250 4219 1831 4219 
Q 1534 4219 1204 4116 
Q 875 4013 500 3803 
L 500 4441 
Q 881 4594 1212 4672 
Q 1544 4750 1819 4750 
Q 2544 4750 2975 4387 
Q 3406 4025 3406 3419 
Q 3406 3131 3298 2873 
Q 3191 2616 2906 2266 
Q 2828 2175 2409 1742 
Q 1991 1309 1228 531 
z
" transform="scale(0.015625)"/>
       </defs>
       <use xlink:href="#DejaVuSans-30"/>
       <use xlink:href="#DejaVuSans-2e" x="63.623047"/>
       <use xlink:href="#DejaVuSans-32" x="95.410156"/>
       <use xlink:href="#DejaVuSans-30" x="159.033203"/>
      </g>
     </g>
    </g>
    <g id="xtick_5">
     <g id="line2d_5">
      <g>
       <use xlink:href="#m592c2968d1" x="245.178182" y="307.584" style="stroke: #000000; stroke-width: 0.8"/>
      </g>
     </g>
     <g id="text_5">
      <!-- 0.25 -->
      <g transform="translate(234.045369 322.182437) scale(0.1 -0.1)">
       <use xlink:href="#DejaVuSans-30"/>
       <use xlink:href="#DejaVuSans-2e" x="63.623047"/>
       <use xlink:href="#DejaVuSans-32" x="95.410156"/>
       <use xlink:href="#DejaVuSans-35" x="159.033203"/>
      </g>
     </g>
    </g>
    <g id="xtick_6">
     <g id="line2d_6">
      <g>
       <use xlink:href="#m592c2968d1" x="290.269091" y="307.584" style="stroke: #000000; stroke-width: 0.8"/>
      </g>
     </g>
     <g id="text_6">
      <!-- 0.30 -->
      <g transform="translate(279.136278 322.182437) scale(0.1 -0.1)">
       <defs>
        <path id="DejaVuSans-33" d="M 2597 2516 
Q 3050 2419 3304 2112 
Q 3559 1806 3559 1356 
Q 3559 666 3084 287 
Q 2609 -91 1734 -91 
Q 1441 -91 1130 -33 
Q 819 25 488 141 
L 488 750 
Q 750 597 1062 519 
Q 1375 441 1716 441 
Q 2309 441 2620 675 
Q 2931 909 2931 1356 
Q 2931 1769 2642 2001 
Q 2353 2234 1838 2234 
L 1294 2234 
L 1294 2753 
L 1863 2753 
Q 2328 2753 2575 2939 
Q 2822 3125 2822 3475 
Q 2822 3834 2567 4026 
Q 2313 4219 1838 4219 
Q 1578 4219 1281 4162 
Q 984 4106 628 3988 
L 628 4550 
Q 988 4650 1302 4700 
Q 1616 4750 1894 4750 
Q 2613 4750 3031 4423 
Q 3450 4097 3450 3541 
Q 3450 3153 3228 2886 
Q 3006 2619 2597 2516 
z
" transform="scale(0.015625)"/>
       </defs>
       <use xlink:href="#DejaVuSans-30"/>
       <use xlink:href="#DejaVuSans-2e" x="63.623047"/>
       <use xlink:href="#DejaVuSans-33" x="95.410156"/>
       <use xlink:href="#DejaVuSans-30" x="159.033203"/>
      </g>
     </g>
    </g>
    <g id="xtick_7">
     <g id="line2d_7">
      <g>
       <use xlink:href="#m592c2968d1" x="335.36" y="307.584" style="stroke: #000000; stroke-width: 0.8"/>
      </g>
     </g>
     <g id="text_7">
      <!-- 0.35 -->
      <g transform="translate(324.227188 322.182437) scale(0.1 -0.1)">
       <use xlink:href="#DejaVuSans-30"/>
       <use xlink:href="#DejaVuSans-2e" x="63.623047"/>
       <use xlink:href="#DejaVuSans-33" x="95.410156"/>
       <use xlink:href="#DejaVuSans-35" x="159.033203"/>
      </g>
     </g>
    </g>
    <g id="xtick_8">
     <g id="line2d_8">
      <g>
       <use xlink:href="#m592c2968d1" x="380.450909" y="307.584" style="stroke: #000000; stroke-width: 0.8"/>
      </g>
     </g>
     <g id="text_8">
      <!-- 0.40 -->
      <g transform="translate(369.318097 322.182437) scale(0.1 -0.1)">
       <defs>
        <path id="DejaVuSans-34" d="M 2419 4116 
L 825 1625 
L 2419 1625 
L 2419 4116 
z
M 2253 4666 
L 3047 4666 
L 3047 1625 
L 3713 1625 
L 3713 1100 
L 3047 1100 
L 3047 0 
L 2419 0 
L 2419 1100 
L 313 1100 
L 313 1709 
L 2253 4666 
z
" transform="scale(0.015625)"/>
       </defs>
       <use xlink:href="#DejaVuSans-30"/>
       <use xlink:href="#DejaVuSans-2e" x="63.623047"/>
       <use xlink:href="#DejaVuSans-34" x="95.410156"/>
       <use xlink:href="#DejaVuSans-30" x="159.033203"/>
      </g>
     </g>
    </g>
    <g id="text_9">
     <!-- Sensitivity (true positive rate) -->
     <g transform="translate(161.431094 335.860562) scale(0.1 -0.1)">
      <defs>
       <path id="DejaVuSans-53" d="M 3425 4513 
L 3425 3897 
Q 3066 4069 2747 4153 
Q 2428 4238 2131 4238 
Q 1616 4238 1336 4038 
Q 1056 3838 1056 3469 
Q 1056 3159 1242 3001 
Q 1428 2844 1947 2747 
L 2328 2669 
Q 3034 2534 3370 2195 
Q 3706 1856 3706 1288 
Q 3706 609 3251 259 
Q 2797 -91 1919 -91 
Q 1588 -91 1214 -16 
Q 841 59 441 206 
L 441 856 
Q 825 641 1194 531 
Q 1563 422 1919 422 
Q 2459 422 2753 634 
Q 3047 847 3047 1241 
Q 3047 1584 2836 1778 
Q 2625 1972 2144 2069 
L 1759 2144 
Q 1053 2284 737 2584 
Q 422 2884 422 3419 
Q 422 4038 858 4394 
Q 1294 4750 2059 4750 
Q 2388 4750 2728 4690 
Q 3069 4631 3425 4513 
z
" transform="scale(0.015625)"/>
       <path id="DejaVuSans-65" d="M 3597 1894 
L 3597 1613 
L 953 1613 
Q 991 1019 1311 708 
Q 1631 397 2203 397 
Q 2534 397 2845 478 
Q 3156 559 3463 722 
L 3463 178 
Q 3153 47 2828 -22 
Q 2503 -91 2169 -91 
Q 1331 -91 842 396 
Q 353 884 353 1716 
Q 353 2575 817 3079 
Q 1281 3584 2069 3584 
Q 2775 3584 3186 3129 
Q 3597 2675 3597 1894 
z
M 3022 2063 
Q 3016 2534 2758 2815 
Q 2500 3097 2075 3097 
Q 1594 3097 1305 2825 
Q 1016 2553 972 2059 
L 3022 2063 
z
" transform="scale(0.015625)"/>
       <path id="DejaVuSans-6e" d="M 3513 2113 
L 3513 0 
L 2938 0 
L 2938 2094 
Q 2938 2591 2744 2837 
Q 2550 3084 2163 3084 
Q 1697 3084 1428 2787 
Q 1159 2491 1159 1978 
L 1159 0 
L 581 0 
L 581 3500 
L 1159 3500 
L 1159 2956 
Q 1366 3272 1645 3428 
Q 1925 3584 2291 3584 
Q 2894 3584 3203 3211 
Q 3513 2838 3513 2113 
z
" transform="scale(0.015625)"/>
       <path id="DejaVuSans-73" d="M 2834 3397 
L 2834 2853 
Q 2591 2978 2328 3040 
Q 2066 3103 1784 3103 
Q 1356 3103 1142 2972 
Q 928 2841 928 2578 
Q 928 2378 1081 2264 
Q 1234 2150 1697 2047 
L 1894 2003 
Q 2506 1872 2764 1633 
Q 3022 1394 3022 966 
Q 3022 478 2636 193 
Q 2250 -91 1575 -91 
Q 1294 -91 989 -36 
Q 684 19 347 128 
L 347 722 
Q 666 556 975 473 
Q 1284 391 1588 391 
Q 1994 391 2212 530 
Q 2431 669 2431 922 
Q 2431 1156 2273 1281 
Q 2116 1406 1581 1522 
L 1381 1569 
Q 847 1681 609 1914 
Q 372 2147 372 2553 
Q 372 3047 722 3315 
Q 1072 3584 1716 3584 
Q 2034 3584 2315 3537 
Q 2597 3491 2834 3397 
z
" transform="scale(0.015625)"/>
       <path id="DejaVuSans-69" d="M 603 3500 
L 1178 3500 
L 1178 0 
L 603 0 
L 603 3500 
z
M 603 4863 
L 1178 4863 
L 1178 4134 
L 603 4134 
L 603 4863 
z
" transform="scale(0.015625)"/>
       <path id="DejaVuSans-74" d="M 1172 4494 
L 1172 3500 
L 2356 3500 
L 2356 3053 
L 1172 3053 
L 1172 1153 
Q 1172 725 1289 603 
Q 1406 481 1766 481 
L 2356 481 
L 2356 0 
L 1766 0 
Q 1100 0 847 248 
Q 594 497 594 1153 
L 594 3053 
L 172 3053 
L 172 3500 
L 594 3500 
L 594 4494 
L 1172 4494 
z
" transform="scale(0.015625)"/>
       <path id="DejaVuSans-76" d="M 191 3500 
L 800 3500 
L 1894 563 
L 2988 3500 
L 3597 3500 
L 2284 0 
L 1503 0 
L 191 3500 
z
" transform="scale(0.015625)"/>
       <path id="DejaVuSans-79" d="M 2059 -325 
Q 1816 -950 1584 -1140 
Q 1353 -1331 966 -1331 
L 506 -1331 
L 506 -850 
L 844 -850 
Q 1081 -850 1212 -737 
Q 1344 -625 1503 -206 
L 1606 56 
L 191 3500 
L 800 3500 
L 1894 763 
L 2988 3500 
L 3597 3500 
L 2059 -325 
z
" transform="scale(0.015625)"/>
       <path id="DejaVuSans-20" transform="scale(0.015625)"/>
       <path id="DejaVuSans-28" d="M 1984 4856 
Q 1566 4138 1362 3434 
Q 1159 2731 1159 2009 
Q 1159 1288 1364 580 
Q 1569 -128 1984 -844 
L 1484 -844 
Q 1016 -109 783 600 
Q 550 1309 550 2009 
Q 550 2706 781 3412 
Q 1013 4119 1484 4856 
L 1984 4856 
z
" transform="scale(0.015625)"/>
       <path id="DejaVuSans-72" d="M 2631 2963 
Q 2534 3019 2420 3045 
Q 2306 3072 2169 3072 
Q 1681 3072 1420 2755 
Q 1159 2438 1159 1844 
L 1159 0 
L 581 0 
L 581 3500 
L 1159 3500 
L 1159 2956 
Q 1341 3275 1631 3429 
Q 1922 3584 2338 3584 
Q 2397 3584 2469 3576 
Q 2541 3569 2628 3553 
L 2631 2963 
z
" transform="scale(0.015625)"/>
       <path id="DejaVuSans-75" d="M 544 1381 
L 544 3500 
L 1119 3500 
L 1119 1403 
Q 1119 906 1312 657 
Q 1506 409 1894 409 
Q 2359 409 2629 706 
Q 2900 1003 2900 1516 
L 2900 3500 
L 3475 3500 
L 3475 0 
L 2900 0 
L 2900 538 
Q 2691 219 2414 64 
Q 2138 -91 1772 -91 
Q 1169 -91 856 284 
Q 544 659 544 1381 
z
M 1991 3584 
L 1991 3584 
z
" transform="scale(0.015625)"/>
       <path id="DejaVuSans-70" d="M 1159 525 
L 1159 -1331 
L 581 -1331 
L 581 3500 
L 1159 3500 
L 1159 2969 
Q 1341 3281 1617 3432 
Q 1894 3584 2278 3584 
Q 2916 3584 3314 3078 
Q 3713 2572 3713 1747 
Q 3713 922 3314 415 
Q 2916 -91 2278 -91 
Q 1894 -91 1617 61 
Q 1341 213 1159 525 
z
M 3116 1747 
Q 3116 2381 2855 2742 
Q 2594 3103 2138 3103 
Q 1681 3103 1420 2742 
Q 1159 2381 1159 1747 
Q 1159 1113 1420 752 
Q 1681 391 2138 391 
Q 2594 391 2855 752 
Q 3116 1113 3116 1747 
z
" transform="scale(0.015625)"/>
       <path id="DejaVuSans-6f" d="M 1959 3097 
Q 1497 3097 1228 2736 
Q 959 2375 959 1747 
Q 959 1119 1226 758 
Q 1494 397 1959 397 
Q 2419 397 2687 759 
Q 2956 1122 2956 1747 
Q 2956 2369 2687 2733 
Q 2419 3097 1959 3097 
z
M 1959 3584 
Q 2709 3584 3137 3096 
Q 3566 2609 3566 1747 
Q 3566 888 3137 398 
Q 2709 -91 1959 -91 
Q 1206 -91 779 398 
Q 353 888 353 1747 
Q 353 2609 779 3096 
Q 1206 3584 1959 3584 
z
" transform="scale(0.015625)"/>
       <path id="DejaVuSans-61" d="M 2194 1759 
Q 1497 1759 1228 1600 
Q 959 1441 959 1056 
Q 959 750 1161 570 
Q 1363 391 1709 391 
Q 2188 391 2477 730 
Q 2766 1069 2766 1631 
L 2766 1759 
L 2194 1759 
z
M 3341 1997 
L 3341 0 
L 2766 0 
L 2766 531 
Q 2569 213 2275 61 
Q 1981 -91 1556 -91 
Q 1019 -91 701 211 
Q 384 513 384 1019 
Q 384 1609 779 1909 
Q 1175 2209 1959 2209 
L 2766 2209 
L 2766 2266 
Q 2766 2663 2505 2880 
Q 2244 3097 1772 3097 
Q 1472 3097 1187 3025 
Q 903 2953 641 2809 
L 641 3341 
Q 956 3463 1253 3523 
Q 1550 3584 1831 3584 
Q 2591 3584 2966 3190 
Q 3341 2797 3341 1997 
z
" transform="scale(0.015625)"/>
       <path id="DejaVuSans-29" d="M 513 4856 
L 1013 4856 
Q 1481 4119 1714 3412 
Q 1947 2706 1947 2009 
Q 1947 1309 1714 600 
Q 1481 -109 1013 -844 
L 513 -844 
Q 928 -128 1133 580 
Q 1338 1288 1338 2009 
Q 1338 2731 1133 3434 
Q 928 4138 513 4856 
z
" transform="scale(0.015625)"/>
      </defs>
      <use xlink:href="#DejaVuSans-53"/>
      <use xlink:href="#DejaVuSans-65" x="63.476562"/>
      <use xlink:href="#DejaVuSans-6e" x="125"/>
      <use xlink:href="#DejaVuSans-73" x="188.378906"/>
      <use xlink:href="#DejaVuSans-69" x="240.478516"/>
      <use xlink:href="#DejaVuSans-74" x="268.261719"/>
      <use xlink:href="#DejaVuSans-69" x="307.470703"/>
      <use xlink:href="#DejaVuSans-76" x="335.253906"/>
      <use xlink:href="#DejaVuSans-69" x="394.433594"/>
      <use xlink:href="#DejaVuSans-74" x="422.216797"/>
      <use xlink:href="#DejaVuSans-79" x="461.425781"/>
      <use xlink:href="#DejaVuSans-20" x="520.605469"/>
      <use xlink:href="#DejaVuSans-28" x="552.392578"/>
      <use xlink:href="#DejaVuSans-74" x="591.40625"/>
      <use xlink:href="#DejaVuSans-72" x="630.615234"/>
      <use xlink:href="#DejaVuSans-75" x="671.728516"/>
      <use xlink:href="#DejaVuSans-65" x="735.107422"/>
      <use xlink:href="#DejaVuSans-20" x="796.630859"/>
      <use xlink:href="#DejaVuSans-70" x="828.417969"/>
      <use xlink:href="#DejaVuSans-6f" x="891.894531"/>
      <use xlink:href="#DejaVuSans-73" x="953.076172"/>
      <use xlink:href="#DejaVuSans-69" x="1005.175781"/>
      <use xlink:href="#DejaVuSans-74" x="1032.958984"/>
      <use xlink:href="#DejaVuSans-69" x="1072.167969"/>
      <use xlink:href="#DejaVuSans-76" x="1099.951172"/>
      <use xlink:href="#DejaVuSans-65" x="1159.130859"/>
      <use xlink:href="#DejaVuSans-20" x="1220.654297"/>
      <use xlink:href="#DejaVuSans-72" x="1252.441406"/>
      <use xlink:href="#DejaVuSans-61" x="1293.554688"/>
      <use xlink:href="#DejaVuSans-74" x="1354.833984"/>
      <use xlink:href="#DejaVuSans-65" x="1394.042969"/>
      <use xlink:href="#DejaVuSans-29" x="1455.566406"/>
     </g>
    </g>
   </g>
   <g id="matplotlib.axis_2">
    <g id="ytick_1">
     <g id="line2d_9">
      <defs>
       <path id="m8043197e1d" d="M 0 0 
L -3.5 0 
" style="stroke: #000000; stroke-width: 0.8"/>
      </defs>
      <g>
       <use xlink:href="#m8043197e1d" x="57.6" y="307.584" style="stroke: #000000; stroke-width: 0.8"/>
      </g>
     </g>
     <g id="text_10">
      <!-- 0.01 -->
      <g transform="translate(28.334375 311.383219) scale(0.1 -0.1)">
       <use xlink:href="#DejaVuSans-30"/>
       <use xlink:href="#DejaVuSans-2e" x="63.623047"/>
       <use xlink:href="#DejaVuSans-30" x="95.410156"/>
       <use xlink:href="#DejaVuSans-31" x="159.033203"/>
      </g>
     </g>
    </g>
    <g id="ytick_2">
     <g id="line2d_10">
      <g>
       <use xlink:href="#m8043197e1d" x="57.6" y="218.88" style="stroke: #000000; stroke-width: 0.8"/>
      </g>
     </g>
     <g id="text_11">
      <!-- 0.10 -->
      <g transform="translate(28.334375 222.679219) scale(0.1 -0.1)">
       <use xlink:href="#DejaVuSans-30"/>
       <use xlink:href="#DejaVuSans-2e" x="63.623047"/>
       <use xlink:href="#DejaVuSans-31" x="95.410156"/>
       <use xlink:href="#DejaVuSans-30" x="159.033203"/>
      </g>
     </g>
    </g>
    <g id="ytick_3">
     <g id="line2d_11">
      <g>
       <use xlink:href="#m8043197e1d" x="57.6" y="130.176" style="stroke: #000000; stroke-width: 0.8"/>
      </g>
     </g>
     <g id="text_12">
      <!-- 1.00 -->
      <g transform="translate(28.334375 133.975219) scale(0.1 -0.1)">
       <use xlink:href="#DejaVuSans-31"/>
       <use xlink:href="#DejaVuSans-2e" x="63.623047"/>
       <use xlink:href="#DejaVuSans-30" x="95.410156"/>
       <use xlink:href="#DejaVuSans-30" x="159.033203"/>
      </g>
     </g>
    </g>
    <g id="ytick_4">
     <g id="line2d_12">
      <g>
       <use xlink:href="#m8043197e1d" x="57.6" y="41.472" style="stroke: #000000; stroke-width: 0.8"/>
      </g>
     </g>
     <g id="text_13">
      <!-- 10.00 -->
      <g transform="translate(21.971875 45.271219) scale(0.1 -0.1)">
       <use xlink:href="#DejaVuSans-31"/>
       <use xlink:href="#DejaVuSans-30" x="63.623047"/>
       <use xlink:href="#DejaVuSans-2e" x="127.246094"/>
       <use xlink:href="#DejaVuSans-30" x="159.033203"/>
       <use xlink:href="#DejaVuSans-30" x="222.65625"/>
      </g>
     </g>
    </g>
    <g id="ytick_5">
     <g id="line2d_13">
      <defs>
       <path id="ma177f46f1a" d="M 0 0 
L -2 0 
" style="stroke: #000000; stroke-width: 0.6"/>
      </defs>
      <g>
       <use xlink:href="#ma177f46f1a" x="57.6" y="280.881435" style="stroke: #000000; stroke-width: 0.6"/>
      </g>
     </g>
    </g>
    <g id="ytick_6">
     <g id="line2d_14">
      <g>
       <use xlink:href="#ma177f46f1a" x="57.6" y="265.261436" style="stroke: #000000; stroke-width: 0.6"/>
      </g>
     </g>
    </g>
    <g id="ytick_7">
     <g id="line2d_15">
      <g>
       <use xlink:href="#ma177f46f1a" x="57.6" y="254.178871" style="stroke: #000000; stroke-width: 0.6"/>
      </g>
     </g>
    </g>
    <g id="ytick_8">
     <g id="line2d_16">
      <g>
       <use xlink:href="#ma177f46f1a" x="57.6" y="245.582565" style="stroke: #000000; stroke-width: 0.6"/>
      </g>
     </g>
    </g>
    <g id="ytick_9">
     <g id="line2d_17">
      <g>
       <use xlink:href="#ma177f46f1a" x="57.6" y="238.558871" style="stroke: #000000; stroke-width: 0.6"/>
      </g>
     </g>
    </g>
    <g id="ytick_10">
     <g id="line2d_18">
      <g>
       <use xlink:href="#ma177f46f1a" x="57.6" y="232.620423" style="stroke: #000000; stroke-width: 0.6"/>
      </g>
     </g>
    </g>
    <g id="ytick_11">
     <g id="line2d_19">
      <g>
       <use xlink:href="#ma177f46f1a" x="57.6" y="227.476306" style="stroke: #000000; stroke-width: 0.6"/>
      </g>
     </g>
    </g>
    <g id="ytick_12">
     <g id="line2d_20">
      <g>
       <use xlink:href="#ma177f46f1a" x="57.6" y="222.938872" style="stroke: #000000; stroke-width: 0.6"/>
      </g>
     </g>
    </g>
    <g id="ytick_13">
     <g id="line2d_21">
      <g>
       <use xlink:href="#ma177f46f1a" x="57.6" y="192.177435" style="stroke: #000000; stroke-width: 0.6"/>
      </g>
     </g>
    </g>
    <g id="ytick_14">
     <g id="line2d_22">
      <g>
       <use xlink:href="#ma177f46f1a" x="57.6" y="176.557436" style="stroke: #000000; stroke-width: 0.6"/>
      </g>
     </g>
    </g>
    <g id="ytick_15">
     <g id="line2d_23">
      <g>
       <use xlink:href="#ma177f46f1a" x="57.6" y="165.474871" style="stroke: #000000; stroke-width: 0.6"/>
      </g>
     </g>
    </g>
    <g id="ytick_16">
     <g id="line2d_24">
      <g>
       <use xlink:href="#ma177f46f1a" x="57.6" y="156.878565" style="stroke: #000000; stroke-width: 0.6"/>
      </g>
     </g>
    </g>
    <g id="ytick_17">
     <g id="line2d_25">
      <g>
       <use xlink:href="#ma177f46f1a" x="57.6" y="149.854871" style="stroke: #000000; stroke-width: 0.6"/>
      </g>
     </g>
    </g>
    <g id="ytick_18">
     <g id="line2d_26">
      <g>
       <use xlink:href="#ma177f46f1a" x="57.6" y="143.916423" style="stroke: #000000; stroke-width: 0.6"/>
      </g>
     </g>
    </g>
    <g id="ytick_19">
     <g id="line2d_27">
      <g>
       <use xlink:href="#ma177f46f1a" x="57.6" y="138.772306" style="stroke: #000000; stroke-width: 0.6"/>
      </g>
     </g>
    </g>
    <g id="ytick_20">
     <g id="line2d_28">
      <g>
       <use xlink:href="#ma177f46f1a" x="57.6" y="134.234872" style="stroke: #000000; stroke-width: 0.6"/>
      </g>
     </g>
    </g>
    <g id="ytick_21">
     <g id="line2d_29">
      <g>
       <use xlink:href="#ma177f46f1a" x="57.6" y="103.473435" style="stroke: #000000; stroke-width: 0.6"/>
      </g>
     </g>
    </g>
    <g id="ytick_22">
     <g id="line2d_30">
      <g>
       <use xlink:href="#ma177f46f1a" x="57.6" y="87.853436" style="stroke: #000000; stroke-width: 0.6"/>
      </g>
     </g>
    </g>
    <g id="ytick_23">
     <g id="line2d_31">
      <g>
       <use xlink:href="#ma177f46f1a" x="57.6" y="76.770871" style="stroke: #000000; stroke-width: 0.6"/>
      </g>
     </g>
    </g>
    <g id="ytick_24">
     <g id="line2d_32">
      <g>
       <use xlink:href="#ma177f46f1a" x="57.6" y="68.174565" style="stroke: #000000; stroke-width: 0.6"/>
      </g>
     </g>
    </g>
    <g id="ytick_25">
     <g id="line2d_33">
      <g>
       <use xlink:href="#ma177f46f1a" x="57.6" y="61.150871" style="stroke: #000000; stroke-width: 0.6"/>
      </g>
     </g>
    </g>
    <g id="ytick_26">
     <g id="line2d_34">
      <g>
       <use xlink:href="#ma177f46f1a" x="57.6" y="55.212423" style="stroke: #000000; stroke-width: 0.6"/>
      </g>
     </g>
    </g>
    <g id="ytick_27">
     <g id="line2d_35">
      <g>
       <use xlink:href="#ma177f46f1a" x="57.6" y="50.068306" style="stroke: #000000; stroke-width: 0.6"/>
      </g>
     </g>
    </g>
    <g id="ytick_28">
     <g id="line2d_36">
      <g>
       <use xlink:href="#ma177f46f1a" x="57.6" y="45.530872" style="stroke: #000000; stroke-width: 0.6"/>
      </g>
     </g>
    </g>
    <g id="text_14">
     <!-- False positive errors per query -->
     <g transform="translate(15.892187 250.498312) rotate(-90) scale(0.1 -0.1)">
      <defs>
       <path id="DejaVuSans-46" d="M 628 4666 
L 3309 4666 
L 3309 4134 
L 1259 4134 
L 1259 2759 
L 3109 2759 
L 3109 2228 
L 1259 2228 
L 1259 0 
L 628 0 
L 628 4666 
z
" transform="scale(0.015625)"/>
       <path id="DejaVuSans-6c" d="M 603 4863 
L 1178 4863 
L 1178 0 
L 603 0 
L 603 4863 
z
" transform="scale(0.015625)"/>
       <path id="DejaVuSans-71" d="M 947 1747 
Q 947 1113 1208 752 
Q 1469 391 1925 391 
Q 2381 391 2643 752 
Q 2906 1113 2906 1747 
Q 2906 2381 2643 2742 
Q 2381 3103 1925 3103 
Q 1469 3103 1208 2742 
Q 947 2381 947 1747 
z
M 2906 525 
Q 2725 213 2448 61 
Q 2172 -91 1784 -91 
Q 1150 -91 751 415 
Q 353 922 353 1747 
Q 353 2572 751 3078 
Q 1150 3584 1784 3584 
Q 2172 3584 2448 3432 
Q 2725 3281 2906 2969 
L 2906 3500 
L 3481 3500 
L 3481 -1331 
L 2906 -1331 
L 2906 525 
z
" transform="scale(0.015625)"/>
      </defs>
      <use xlink:href="#DejaVuSans-46"/>
      <use xlink:href="#DejaVuSans-61" x="48.394531"/>
      <use xlink:href="#DejaVuSans-6c" x="109.673828"/>
      <use xlink:href="#DejaVuSans-73" x="137.457031"/>
      <use xlink:href="#DejaVuSans-65" x="189.556641"/>
      <use xlink:href="#DejaVuSans-20" x="251.080078"/>
      <use xlink:href="#DejaVuSans-70" x="282.867188"/>
      <use xlink:href="#DejaVuSans-6f" x="346.34375"/>
      <use xlink:href="#DejaVuSans-73" x="407.525391"/>
      <use xlink:href="#DejaVuSans-69" x="459.625"/>
      <use xlink:href="#DejaVuSans-74" x="487.408203"/>
      <use xlink:href="#DejaVuSans-69" x="526.617188"/>
      <use xlink:href="#DejaVuSans-76" x="554.400391"/>
      <use xlink:href="#DejaVuSans-65" x="613.580078"/>
      <use xlink:href="#DejaVuSans-20" x="675.103516"/>
      <use xlink:href="#DejaVuSans-65" x="706.890625"/>
      <use xlink:href="#DejaVuSans-72" x="768.414062"/>
      <use xlink:href="#DejaVuSans-72" x="807.777344"/>
      <use xlink:href="#DejaVuSans-6f" x="846.640625"/>
      <use xlink:href="#DejaVuSans-72" x="907.822266"/>
      <use xlink:href="#DejaVuSans-73" x="948.935547"/>
      <use xlink:href="#DejaVuSans-20" x="1001.035156"/>
      <use xlink:href="#DejaVuSans-70" x="1032.822266"/>
      <use xlink:href="#DejaVuSans-65" x="1096.298828"/>
      <use xlink:href="#DejaVuSans-72" x="1157.822266"/>
      <use xlink:href="#DejaVuSans-20" x="1198.935547"/>
      <use xlink:href="#DejaVuSans-71" x="1230.722656"/>
      <use xlink:href="#DejaVuSans-75" x="1294.199219"/>
      <use xlink:href="#DejaVuSans-65" x="1357.578125"/>
      <use xlink:href="#DejaVuSans-72" x="1419.101562"/>
      <use xlink:href="#DejaVuSans-79" x="1460.214844"/>
     </g>
    </g>
   </g>
   <g id="line2d_37">
    <path d="M 73.832727 289.767757 
L 82.850909 263.614929 
L 91.869091 244.940744 
L 100.887273 229.0038 
L 109.905455 216.273541 
L 118.923636 204.886156 
L 127.941818 195.243321 
L 136.96 185.703396 
L 145.978182 176.57028 
L 154.996364 168.970723 
L 164.014545 161.109035 
L 173.032727 154.142711 
L 182.050909 146.812843 
L 191.069091 139.841595 
L 200.087273 132.84349 
L 209.105455 125.707114 
L 218.123636 118.273954 
L 227.141818 110.628332 
L 236.16 102.540982 
L 245.178182 94.478552 
L 254.196364 86.035058 
L 263.214545 77.119153 
L 272.232727 67.547901 
L 281.250909 57.444169 
L 290.269091 46.757262 
" clip-path="url(#pb8d8662082)" style="fill: none; stroke: #1f77b4; stroke-width: 2; stroke-linecap: square"/>
   </g>
   <g id="line2d_38">
    <path d="M 73.832727 299.297123 
L 82.850909 273.157871 
L 91.869091 253.538944 
L 100.887273 237.802297 
L 109.905455 223.905428 
L 118.923636 212.081686 
L 127.941818 201.971971 
L 136.96 192.662016 
L 145.978182 184.202492 
L 154.996364 175.971223 
L 164.014545 168.187801 
L 173.032727 161.619748 
L 182.050909 155.028352 
L 191.069091 148.542012 
L 200.087273 142.965174 
L 209.105455 137.150414 
L 218.123636 131.865162 
L 227.141818 126.364471 
L 236.16 120.937873 
L 245.178182 115.650053 
L 254.196364 110.535671 
L 263.214545 105.307772 
L 272.232727 100.135888 
L 281.250909 94.738693 
L 290.269091 89.359225 
L 299.287273 84.123414 
L 308.305455 78.828064 
L 317.323636 73.486349 
L 326.341818 68.13606 
L 335.36 62.817232 
L 344.378182 57.39172 
L 353.396364 51.887495 
L 362.414545 46.32663 
" clip-path="url(#pb8d8662082)" style="fill: none; stroke: #ff7f0e; stroke-width: 2; stroke-linecap: square"/>
   </g>
   <g id="line2d_39">
    <path d="M 73.832727 299.860436 
L 82.850909 274.586918 
L 91.869091 254.6537 
L 100.887273 238.655301 
L 109.905455 224.978009 
L 118.923636 213.195543 
L 127.941818 203.285692 
L 136.96 193.70994 
L 145.978182 185.314593 
L 154.996364 177.283341 
L 164.014545 169.501653 
L 173.032727 163.039809 
L 182.050909 156.571602 
L 191.069091 150.170773 
L 200.087273 144.560164 
L 209.105455 138.767491 
L 218.123636 133.602314 
L 227.141818 128.40665 
L 236.16 123.313157 
L 245.178182 118.189193 
L 254.196364 113.243141 
L 263.214545 108.463766 
L 272.232727 103.608505 
L 281.250909 98.867576 
L 290.269091 94.023722 
L 299.287273 89.079826 
L 308.305455 84.474696 
L 317.323636 79.701421 
L 326.341818 75.019922 
L 335.36 70.321263 
L 344.378182 65.64018 
L 353.396364 60.958733 
L 362.414545 56.261206 
L 371.432727 51.645935 
L 380.450909 46.845741 
L 389.469091 42.144292 
" clip-path="url(#pb8d8662082)" style="fill: none; stroke: #2ca02c; stroke-width: 2; stroke-linecap: square"/>
   </g>
   <g id="line2d_40">
    <path d="M 73.832727 299.860436 
L 82.850909 274.439975 
L 91.869091 254.819813 
L 100.887273 238.939562 
L 109.905455 225.299778 
L 118.923636 213.562915 
L 127.941818 203.725081 
L 136.96 194.336355 
L 145.978182 185.915649 
L 154.996364 177.996518 
L 164.014545 170.279281 
L 173.032727 163.862214 
L 182.050909 157.398272 
L 191.069091 151.17417 
L 200.087273 145.765192 
L 209.105455 140.104895 
L 218.123636 135.122504 
L 227.141818 129.945549 
L 236.16 124.892487 
L 245.178182 119.979971 
L 254.196364 115.099143 
L 263.214545 110.37405 
L 272.232727 105.550952 
L 281.250909 100.74117 
L 290.269091 95.92365 
L 299.287273 91.079561 
L 308.305455 86.441416 
L 317.323636 81.684537 
L 326.341818 76.983335 
L 335.36 72.29341 
L 344.378182 67.578235 
L 353.396364 62.83735 
L 362.414545 58.156337 
L 371.432727 53.632767 
L 380.450909 48.854862 
L 389.469091 44.180798 
" clip-path="url(#pb8d8662082)" style="fill: none; stroke: #d62728; stroke-width: 2; stroke-linecap: square"/>
   </g>
   <g id="line2d_41">
    <path d="M 73.832727 299.860436 
L 82.850909 274.293589 
L 91.869091 255.085122 
L 100.887273 240.178329 
L 109.905455 226.916977 
L 118.923636 215.595479 
L 127.941818 205.72572 
L 136.96 196.949129 
L 145.978182 188.910606 
L 154.996364 180.974671 
L 164.014545 174.05914 
L 173.032727 167.868784 
L 182.050909 161.724456 
L 191.069091 155.747333 
L 200.087273 150.502343 
L 209.105455 145.033129 
L 218.123636 140.21472 
L 227.141818 134.80407 
L 236.16 129.67842 
L 245.178182 124.658096 
L 254.196364 119.832427 
L 263.214545 114.736199 
L 272.232727 109.802302 
L 281.250909 104.666698 
L 290.269091 99.470463 
L 299.287273 94.402374 
L 308.305455 89.172734 
L 317.323636 84.007029 
L 326.341818 78.899244 
L 335.36 73.752582 
L 344.378182 68.616257 
L 353.396364 63.432218 
L 362.414545 58.209838 
L 371.432727 52.967692 
L 380.450909 48.037684 
L 389.469091 42.964438 
" clip-path="url(#pb8d8662082)" style="fill: none; stroke: #9467bd; stroke-width: 2; stroke-linecap: square"/>
   </g>
   <g id="line2d_42">
    <path d="M 73.832727 299.860436 
L 82.850909 274.439975 
L 91.869091 254.478592 
L 100.887273 238.481901 
L 109.905455 224.65443 
L 118.923636 212.996625 
L 127.941818 202.851258 
L 136.96 193.251675 
L 145.978182 184.675181 
L 154.996364 176.776358 
L 164.014545 168.88645 
L 173.032727 162.110837 
L 182.050909 155.53841 
L 191.069091 149.098297 
L 200.087273 143.229165 
L 209.105455 137.484276 
L 218.123636 132.05885 
L 227.141818 126.92687 
L 236.16 121.579694 
L 245.178182 116.424021 
L 254.196364 111.283273 
L 263.214545 106.518469 
L 272.232727 101.685692 
L 281.250909 96.707426 
L 290.269091 91.769892 
L 299.287273 86.964878 
L 308.305455 82.191145 
L 317.323636 77.441202 
L 326.341818 72.776579 
L 335.36 68.059167 
L 344.378182 63.575543 
L 353.396364 58.991034 
L 362.414545 54.438764 
L 371.432727 49.967314 
L 380.450909 45.620866 
" clip-path="url(#pb8d8662082)" style="fill: none; stroke-dasharray: 3,4.95; stroke-dashoffset: 0; stroke: #ffa500; stroke-width: 3"/>
   </g>
   <g id="line2d_43">
    <path d="M 127.941818 296.108577 
L 136.96 288.082746 
L 145.978182 277.934454 
L 154.996364 268.655481 
L 164.014545 259.754661 
L 173.032727 250.76192 
L 182.050909 242.262685 
L 191.069091 234.573264 
L 200.087273 227.088215 
L 209.105455 220.033548 
L 218.123636 212.89755 
L 227.141818 203.985906 
L 236.16 197.01459 
L 245.178182 189.212614 
L 254.196364 181.628245 
L 263.214545 174.167606 
L 272.232727 165.978962 
L 281.250909 157.398272 
L 290.269091 149.983498 
L 299.287273 142.194409 
L 308.305455 133.758425 
L 317.323636 126.12098 
L 326.341818 117.964073 
L 335.36 109.328506 
L 344.378182 100.508614 
L 353.396364 92.069577 
L 362.414545 83.350261 
L 371.432727 74.119434 
L 380.450909 64.975038 
L 389.469091 55.333688 
L 398.487273 45.445359 
" clip-path="url(#pb8d8662082)" style="fill: none; stroke-dasharray: 2,3.3; stroke-dashoffset: 0; stroke: #000000; stroke-width: 2"/>
   </g>
   <g id="patch_3">
    <path d="M 57.6 307.584 
L 57.6 41.472 
" style="fill: none; stroke: #000000; stroke-width: 0.8; stroke-linejoin: miter; stroke-linecap: square"/>
   </g>
   <g id="patch_4">
    <path d="M 414.72 307.584 
L 414.72 41.472 
" style="fill: none; stroke: #000000; stroke-width: 0.8; stroke-linejoin: miter; stroke-linecap: square"/>
   </g>
   <g id="patch_5">
    <path d="M 57.6 307.584 
L 414.72 307.584 
" style="fill: none; stroke: #000000; stroke-width: 0.8; stroke-linejoin: miter; stroke-linecap: square"/>
   </g>
   <g id="patch_6">
    <path d="M 57.6 41.472 
L 414.72 41.472 
" style="fill: none; stroke: #000000; stroke-width: 0.8; stroke-linejoin: miter; stroke-linecap: square"/>
   </g>
   <g id="legend_1">
    <g id="patch_7">
     <path d="M 64.6 153.6095 
L 162.317187 153.6095 
Q 164.317187 153.6095 164.317187 151.6095 
L 164.317187 48.472 
Q 164.317187 46.472 162.317187 46.472 
L 64.6 46.472 
Q 62.6 46.472 62.6 48.472 
L 62.6 151.6095 
Q 62.6 153.6095 64.6 153.6095 
z
" style="fill: #ffffff; opacity: 0.8; stroke: #cccccc; stroke-linejoin: miter"/>
    </g>
    <g id="line2d_44">
     <path d="M 66.6 54.570438 
L 76.6 54.570438 
L 86.6 54.570438 
" style="fill: none; stroke: #1f77b4; stroke-width: 2; stroke-linecap: square"/>
    </g>
    <g id="text_15">
     <!-- foldseek_s4 -->
     <g transform="translate(94.6 58.070438) scale(0.1 -0.1)">
      <defs>
       <path id="DejaVuSans-66" d="M 2375 4863 
L 2375 4384 
L 1825 4384 
Q 1516 4384 1395 4259 
Q 1275 4134 1275 3809 
L 1275 3500 
L 2222 3500 
L 2222 3053 
L 1275 3053 
L 1275 0 
L 697 0 
L 697 3053 
L 147 3053 
L 147 3500 
L 697 3500 
L 697 3744 
Q 697 4328 969 4595 
Q 1241 4863 1831 4863 
L 2375 4863 
z
" transform="scale(0.015625)"/>
       <path id="DejaVuSans-64" d="M 2906 2969 
L 2906 4863 
L 3481 4863 
L 3481 0 
L 2906 0 
L 2906 525 
Q 2725 213 2448 61 
Q 2172 -91 1784 -91 
Q 1150 -91 751 415 
Q 353 922 353 1747 
Q 353 2572 751 3078 
Q 1150 3584 1784 3584 
Q 2172 3584 2448 3432 
Q 2725 3281 2906 2969 
z
M 947 1747 
Q 947 1113 1208 752 
Q 1469 391 1925 391 
Q 2381 391 2643 752 
Q 2906 1113 2906 1747 
Q 2906 2381 2643 2742 
Q 2381 3103 1925 3103 
Q 1469 3103 1208 2742 
Q 947 2381 947 1747 
z
" transform="scale(0.015625)"/>
       <path id="DejaVuSans-6b" d="M 581 4863 
L 1159 4863 
L 1159 1991 
L 2875 3500 
L 3609 3500 
L 1753 1863 
L 3688 0 
L 2938 0 
L 1159 1709 
L 1159 0 
L 581 0 
L 581 4863 
z
" transform="scale(0.015625)"/>
       <path id="DejaVuSans-5f" d="M 3263 -1063 
L 3263 -1509 
L -63 -1509 
L -63 -1063 
L 3263 -1063 
z
" transform="scale(0.015625)"/>
      </defs>
      <use xlink:href="#DejaVuSans-66"/>
      <use xlink:href="#DejaVuSans-6f" x="35.205078"/>
      <use xlink:href="#DejaVuSans-6c" x="96.386719"/>
      <use xlink:href="#DejaVuSans-64" x="124.169922"/>
      <use xlink:href="#DejaVuSans-73" x="187.646484"/>
      <use xlink:href="#DejaVuSans-65" x="239.746094"/>
      <use xlink:href="#DejaVuSans-65" x="301.269531"/>
      <use xlink:href="#DejaVuSans-6b" x="362.792969"/>
      <use xlink:href="#DejaVuSans-5f" x="420.703125"/>
      <use xlink:href="#DejaVuSans-73" x="470.703125"/>
      <use xlink:href="#DejaVuSans-34" x="522.802734"/>
     </g>
    </g>
    <g id="line2d_45">
     <path d="M 66.6 69.526688 
L 76.6 69.526688 
L 86.6 69.526688 
" style="fill: none; stroke: #ff7f0e; stroke-width: 2; stroke-linecap: square"/>
    </g>
    <g id="text_16">
     <!-- foldseek_s6 -->
     <g transform="translate(94.6 73.026688) scale(0.1 -0.1)">
      <defs>
       <path id="DejaVuSans-36" d="M 2113 2584 
Q 1688 2584 1439 2293 
Q 1191 2003 1191 1497 
Q 1191 994 1439 701 
Q 1688 409 2113 409 
Q 2538 409 2786 701 
Q 3034 994 3034 1497 
Q 3034 2003 2786 2293 
Q 2538 2584 2113 2584 
z
M 3366 4563 
L 3366 3988 
Q 3128 4100 2886 4159 
Q 2644 4219 2406 4219 
Q 1781 4219 1451 3797 
Q 1122 3375 1075 2522 
Q 1259 2794 1537 2939 
Q 1816 3084 2150 3084 
Q 2853 3084 3261 2657 
Q 3669 2231 3669 1497 
Q 3669 778 3244 343 
Q 2819 -91 2113 -91 
Q 1303 -91 875 529 
Q 447 1150 447 2328 
Q 447 3434 972 4092 
Q 1497 4750 2381 4750 
Q 2619 4750 2861 4703 
Q 3103 4656 3366 4563 
z
" transform="scale(0.015625)"/>
      </defs>
      <use xlink:href="#DejaVuSans-66"/>
      <use xlink:href="#DejaVuSans-6f" x="35.205078"/>
      <use xlink:href="#DejaVuSans-6c" x="96.386719"/>
      <use xlink:href="#DejaVuSans-64" x="124.169922"/>
      <use xlink:href="#DejaVuSans-73" x="187.646484"/>
      <use xlink:href="#DejaVuSans-65" x="239.746094"/>
      <use xlink:href="#DejaVuSans-65" x="301.269531"/>
      <use xlink:href="#DejaVuSans-6b" x="362.792969"/>
      <use xlink:href="#DejaVuSans-5f" x="420.703125"/>
      <use xlink:href="#DejaVuSans-73" x="470.703125"/>
      <use xlink:href="#DejaVuSans-36" x="522.802734"/>
     </g>
    </g>
    <g id="line2d_46">
     <path d="M 66.6 84.482938 
L 76.6 84.482938 
L 86.6 84.482938 
" style="fill: none; stroke: #2ca02c; stroke-width: 2; stroke-linecap: square"/>
    </g>
    <g id="text_17">
     <!-- foldseek_s8 -->
     <g transform="translate(94.6 87.982938) scale(0.1 -0.1)">
      <defs>
       <path id="DejaVuSans-38" d="M 2034 2216 
Q 1584 2216 1326 1975 
Q 1069 1734 1069 1313 
Q 1069 891 1326 650 
Q 1584 409 2034 409 
Q 2484 409 2743 651 
Q 3003 894 3003 1313 
Q 3003 1734 2745 1975 
Q 2488 2216 2034 2216 
z
M 1403 2484 
Q 997 2584 770 2862 
Q 544 3141 544 3541 
Q 544 4100 942 4425 
Q 1341 4750 2034 4750 
Q 2731 4750 3128 4425 
Q 3525 4100 3525 3541 
Q 3525 3141 3298 2862 
Q 3072 2584 2669 2484 
Q 3125 2378 3379 2068 
Q 3634 1759 3634 1313 
Q 3634 634 3220 271 
Q 2806 -91 2034 -91 
Q 1263 -91 848 271 
Q 434 634 434 1313 
Q 434 1759 690 2068 
Q 947 2378 1403 2484 
z
M 1172 3481 
Q 1172 3119 1398 2916 
Q 1625 2713 2034 2713 
Q 2441 2713 2670 2916 
Q 2900 3119 2900 3481 
Q 2900 3844 2670 4047 
Q 2441 4250 2034 4250 
Q 1625 4250 1398 4047 
Q 1172 3844 1172 3481 
z
" transform="scale(0.015625)"/>
      </defs>
      <use xlink:href="#DejaVuSans-66"/>
      <use xlink:href="#DejaVuSans-6f" x="35.205078"/>
      <use xlink:href="#DejaVuSans-6c" x="96.386719"/>
      <use xlink:href="#DejaVuSans-64" x="124.169922"/>
      <use xlink:href="#DejaVuSans-73" x="187.646484"/>
      <use xlink:href="#DejaVuSans-65" x="239.746094"/>
      <use xlink:href="#DejaVuSans-65" x="301.269531"/>
      <use xlink:href="#DejaVuSans-6b" x="362.792969"/>
      <use xlink:href="#DejaVuSans-5f" x="420.703125"/>
      <use xlink:href="#DejaVuSans-73" x="470.703125"/>
      <use xlink:href="#DejaVuSans-38" x="522.802734"/>
     </g>
    </g>
    <g id="line2d_47">
     <path d="M 66.6 99.439188 
L 76.6 99.439188 
L 86.6 99.439188 
" style="fill: none; stroke: #d62728; stroke-width: 2; stroke-linecap: square"/>
    </g>
    <g id="text_18">
     <!-- foldseek_s12 -->
     <g transform="translate(94.6 102.939188) scale(0.1 -0.1)">
      <use xlink:href="#DejaVuSans-66"/>
      <use xlink:href="#DejaVuSans-6f" x="35.205078"/>
      <use xlink:href="#DejaVuSans-6c" x="96.386719"/>
      <use xlink:href="#DejaVuSans-64" x="124.169922"/>
      <use xlink:href="#DejaVuSans-73" x="187.646484"/>
      <use xlink:href="#DejaVuSans-65" x="239.746094"/>
      <use xlink:href="#DejaVuSans-65" x="301.269531"/>
      <use xlink:href="#DejaVuSans-6b" x="362.792969"/>
      <use xlink:href="#DejaVuSans-5f" x="420.703125"/>
      <use xlink:href="#DejaVuSans-73" x="470.703125"/>
      <use xlink:href="#DejaVuSans-31" x="522.802734"/>
      <use xlink:href="#DejaVuSans-32" x="586.425781"/>
     </g>
    </g>
    <g id="line2d_48">
     <path d="M 66.6 114.395438 
L 76.6 114.395438 
L 86.6 114.395438 
" style="fill: none; stroke: #9467bd; stroke-width: 2; stroke-linecap: square"/>
    </g>
    <g id="text_19">
     <!-- foldseek_s14 -->
     <g transform="translate(94.6 117.895438) scale(0.1 -0.1)">
      <use xlink:href="#DejaVuSans-66"/>
      <use xlink:href="#DejaVuSans-6f" x="35.205078"/>
      <use xlink:href="#DejaVuSans-6c" x="96.386719"/>
      <use xlink:href="#DejaVuSans-64" x="124.169922"/>
      <use xlink:href="#DejaVuSans-73" x="187.646484"/>
      <use xlink:href="#DejaVuSans-65" x="239.746094"/>
      <use xlink:href="#DejaVuSans-65" x="301.269531"/>
      <use xlink:href="#DejaVuSans-6b" x="362.792969"/>
      <use xlink:href="#DejaVuSans-5f" x="420.703125"/>
      <use xlink:href="#DejaVuSans-73" x="470.703125"/>
      <use xlink:href="#DejaVuSans-31" x="522.802734"/>
      <use xlink:href="#DejaVuSans-34" x="586.425781"/>
     </g>
    </g>
    <g id="line2d_49">
     <path d="M 66.6 129.351688 
L 76.6 129.351688 
L 86.6 129.351688 
" style="fill: none; stroke-dasharray: 3,4.95; stroke-dashoffset: 0; stroke: #ffa500; stroke-width: 3"/>
    </g>
    <g id="text_20">
     <!-- Foldseek -->
     <g transform="translate(94.6 132.851688) scale(0.1 -0.1)">
      <use xlink:href="#DejaVuSans-46"/>
      <use xlink:href="#DejaVuSans-6f" x="53.894531"/>
      <use xlink:href="#DejaVuSans-6c" x="115.076172"/>
      <use xlink:href="#DejaVuSans-64" x="142.859375"/>
      <use xlink:href="#DejaVuSans-73" x="206.335938"/>
      <use xlink:href="#DejaVuSans-65" x="258.435547"/>
      <use xlink:href="#DejaVuSans-65" x="319.958984"/>
      <use xlink:href="#DejaVuSans-6b" x="381.482422"/>
     </g>
    </g>
    <g id="line2d_50">
     <path d="M 66.6 144.029813 
L 76.6 144.029813 
L 86.6 144.029813 
" style="fill: none; stroke-dasharray: 2,3.3; stroke-dashoffset: 0; stroke: #000000; stroke-width: 2"/>
    </g>
    <g id="text_21">
     <!-- Reseek (fast) -->
     <g transform="translate(94.6 147.529813) scale(0.1 -0.1)">
      <defs>
       <path id="DejaVuSans-52" d="M 2841 2188 
Q 3044 2119 3236 1894 
Q 3428 1669 3622 1275 
L 4263 0 
L 3584 0 
L 2988 1197 
Q 2756 1666 2539 1819 
Q 2322 1972 1947 1972 
L 1259 1972 
L 1259 0 
L 628 0 
L 628 4666 
L 2053 4666 
Q 2853 4666 3247 4331 
Q 3641 3997 3641 3322 
Q 3641 2881 3436 2590 
Q 3231 2300 2841 2188 
z
M 1259 4147 
L 1259 2491 
L 2053 2491 
Q 2509 2491 2742 2702 
Q 2975 2913 2975 3322 
Q 2975 3731 2742 3939 
Q 2509 4147 2053 4147 
L 1259 4147 
z
" transform="scale(0.015625)"/>
      </defs>
      <use xlink:href="#DejaVuSans-52"/>
      <use xlink:href="#DejaVuSans-65" x="64.982422"/>
      <use xlink:href="#DejaVuSans-73" x="126.505859"/>
      <use xlink:href="#DejaVuSans-65" x="178.605469"/>
      <use xlink:href="#DejaVuSans-65" x="240.128906"/>
      <use xlink:href="#DejaVuSans-6b" x="301.652344"/>
      <use xlink:href="#DejaVuSans-20" x="359.5625"/>
      <use xlink:href="#DejaVuSans-28" x="391.349609"/>
      <use xlink:href="#DejaVuSans-66" x="430.363281"/>
      <use xlink:href="#DejaVuSans-61" x="465.568359"/>
      <use xlink:href="#DejaVuSans-73" x="526.847656"/>
      <use xlink:href="#DejaVuSans-74" x="578.947266"/>
      <use xlink:href="#DejaVuSans-29" x="618.15625"/>
     </g>
    </g>
   </g>
  </g>
 </g>
 <defs>
  <clipPath id="pb8d8662082">
   <rect x="57.6" y="41.472" width="357.12" height="266.112"/>
  </clipPath>
 </defs>
</svg>
