<?xml version="1.0" encoding="utf-8" standalone="no"?>
<!DOCTYPE svg PUBLIC "-//W3C//DTD SVG 1.1//EN"
  "http://www.w3.org/Graphics/SVG/1.1/DTD/svg11.dtd">
<svg xmlns:xlink="http://www.w3.org/1999/xlink" width="460.8pt" height="345.6pt" viewBox="0 0 460.8 345.6" xmlns="http://www.w3.org/2000/svg" version="1.1">
 <metadata>
  <rdf:RDF xmlns:dc="http://purl.org/dc/elements/1.1/" xmlns:cc="http://creativecommons.org/ns#" xmlns:rdf="http://www.w3.org/1999/02/22-rdf-syntax-ns#">
   <cc:Work>
    <dc:type rdf:resource="http://purl.org/dc/dcmitype/StillImage"/>
    <dc:date>2025-01-16T15:01:32.468295</dc:date>
    <dc:format>image/svg+xml</dc:format>
    <dc:creator>
     <cc:Agent>
      <dc:title>Matplotlib v3.9.2, https://matplotlib.org/</dc:title>
     </cc:Agent>
    </dc:creator>
   </cc:Work>
  </rdf:RDF>
 </metadata>
 <defs>
  <style type="text/css">*{stroke-linejoin: round; stroke-linecap: butt}</style>
 </defs>
 <g id="figure_1">
  <g id="patch_1">
   <path d="M 0 345.6 
L 460.8 345.6 
L 460.8 0 
L 0 0 
z
" style="fill: #ffffff"/>
  </g>
  <g id="axes_1">
   <g id="patch_2">
    <path d="M 57.6 307.584 
L 414.72 307.584 
L 414.72 41.472 
L 57.6 41.472 
z
" style="fill: #ffffff"/>
   </g>
   <g id="matplotlib.axis_1">
    <g id="xtick_1">
     <g id="line2d_1">
      <defs>
       <path id="m1956d67803" d="M 0 0 
L 0 3.5 
" style="stroke: #000000; stroke-width: 0.8"/>
      </defs>
      <g>
       <use xlink:href="#m1956d67803" x="87.647814" y="307.584" style="stroke: #000000; stroke-width: 0.8"/>
      </g>
     </g>
     <g id="text_1">
      <!-- 0.05 -->
      <g transform="translate(76.515002 322.182437) scale(0.1 -0.1)">
       <defs>
        <path id="DejaVuSans-30" d="M 2034 4250 
Q 1547 4250 1301 3770 
Q 1056 3291 1056 2328 
Q 1056 1369 1301 889 
Q 1547 409 2034 409 
Q 2525 409 2770 889 
Q 3016 1369 3016 2328 
Q 3016 3291 2770 3770 
Q 2525 4250 2034 4250 
z
M 2034 4750 
Q 2819 4750 3233 4129 
Q 3647 3509 3647 2328 
Q 3647 1150 3233 529 
Q 2819 -91 2034 -91 
Q 1250 -91 836 529 
Q 422 1150 422 2328 
Q 422 3509 836 4129 
Q 1250 4750 2034 4750 
z
" transform="scale(0.015625)"/>
        <path id="DejaVuSans-2e" d="M 684 794 
L 1344 794 
L 1344 0 
L 684 0 
L 684 794 
z
" transform="scale(0.015625)"/>
        <path id="DejaVuSans-35" d="M 691 4666 
L 3169 4666 
L 3169 4134 
L 1269 4134 
L 1269 2991 
Q 1406 3038 1543 3061 
Q 1681 3084 1819 3084 
Q 2600 3084 3056 2656 
Q 3513 2228 3513 1497 
Q 3513 744 3044 326 
Q 2575 -91 1722 -91 
Q 1428 -91 1123 -41 
Q 819 9 494 109 
L 494 744 
Q 775 591 1075 516 
Q 1375 441 1709 441 
Q 2250 441 2565 725 
Q 2881 1009 2881 1497 
Q 2881 1984 2565 2268 
Q 2250 2553 1709 2553 
Q 1456 2553 1204 2497 
Q 953 2441 691 2322 
L 691 4666 
z
" transform="scale(0.015625)"/>
       </defs>
       <use xlink:href="#DejaVuSans-30"/>
       <use xlink:href="#DejaVuSans-2e" x="63.623047"/>
       <use xlink:href="#DejaVuSans-30" x="95.410156"/>
       <use xlink:href="#DejaVuSans-35" x="159.033203"/>
      </g>
     </g>
    </g>
    <g id="xtick_2">
     <g id="line2d_2">
      <g>
       <use xlink:href="#m1956d67803" x="122.185532" y="307.584" style="stroke: #000000; stroke-width: 0.8"/>
      </g>
     </g>
     <g id="text_2">
      <!-- 0.10 -->
      <g transform="translate(111.052719 322.182437) scale(0.1 -0.1)">
       <defs>
        <path id="DejaVuSans-31" d="M 794 531 
L 1825 531 
L 1825 4091 
L 703 3866 
L 703 4441 
L 1819 4666 
L 2450 4666 
L 2450 531 
L 3481 531 
L 3481 0 
L 794 0 
L 794 531 
z
" transform="scale(0.015625)"/>
       </defs>
       <use xlink:href="#DejaVuSans-30"/>
       <use xlink:href="#DejaVuSans-2e" x="63.623047"/>
       <use xlink:href="#DejaVuSans-31" x="95.410156"/>
       <use xlink:href="#DejaVuSans-30" x="159.033203"/>
      </g>
     </g>
    </g>
    <g id="xtick_3">
     <g id="line2d_3">
      <g>
       <use xlink:href="#m1956d67803" x="156.72325" y="307.584" style="stroke: #000000; stroke-width: 0.8"/>
      </g>
     </g>
     <g id="text_3">
      <!-- 0.15 -->
      <g transform="translate(145.590437 322.182437) scale(0.1 -0.1)">
       <use xlink:href="#DejaVuSans-30"/>
       <use xlink:href="#DejaVuSans-2e" x="63.623047"/>
       <use xlink:href="#DejaVuSans-31" x="95.410156"/>
       <use xlink:href="#DejaVuSans-35" x="159.033203"/>
      </g>
     </g>
    </g>
    <g id="xtick_4">
     <g id="line2d_4">
      <g>
       <use xlink:href="#m1956d67803" x="191.260967" y="307.584" style="stroke: #000000; stroke-width: 0.8"/>
      </g>
     </g>
     <g id="text_4">
      <!-- 0.20 -->
      <g transform="translate(180.128155 322.182437) scale(0.1 -0.1)">
       <defs>
        <path id="DejaVuSans-32" d="M 1228 531 
L 3431 531 
L 3431 0 
L 469 0 
L 469 531 
Q 828 903 1448 1529 
Q 2069 2156 2228 2338 
Q 2531 2678 2651 2914 
Q 2772 3150 2772 3378 
Q 2772 3750 2511 3984 
Q 2250 4219 1831 4219 
Q 1534 4219 1204 4116 
Q 875 4013 500 3803 
L 500 4441 
Q 881 4594 1212 4672 
Q 1544 4750 1819 4750 
Q 2544 4750 2975 4387 
Q 3406 4025 3406 3419 
Q 3406 3131 3298 2873 
Q 3191 2616 2906 2266 
Q 2828 2175 2409 1742 
Q 1991 1309 1228 531 
z
" transform="scale(0.015625)"/>
       </defs>
       <use xlink:href="#DejaVuSans-30"/>
       <use xlink:href="#DejaVuSans-2e" x="63.623047"/>
       <use xlink:href="#DejaVuSans-32" x="95.410156"/>
       <use xlink:href="#DejaVuSans-30" x="159.033203"/>
      </g>
     </g>
    </g>
    <g id="xtick_5">
     <g id="line2d_5">
      <g>
       <use xlink:href="#m1956d67803" x="225.798685" y="307.584" style="stroke: #000000; stroke-width: 0.8"/>
      </g>
     </g>
     <g id="text_5">
      <!-- 0.25 -->
      <g transform="translate(214.665872 322.182437) scale(0.1 -0.1)">
       <use xlink:href="#DejaVuSans-30"/>
       <use xlink:href="#DejaVuSans-2e" x="63.623047"/>
       <use xlink:href="#DejaVuSans-32" x="95.410156"/>
       <use xlink:href="#DejaVuSans-35" x="159.033203"/>
      </g>
     </g>
    </g>
    <g id="xtick_6">
     <g id="line2d_6">
      <g>
       <use xlink:href="#m1956d67803" x="260.336402" y="307.584" style="stroke: #000000; stroke-width: 0.8"/>
      </g>
     </g>
     <g id="text_6">
      <!-- 0.30 -->
      <g transform="translate(249.20359 322.182437) scale(0.1 -0.1)">
       <defs>
        <path id="DejaVuSans-33" d="M 2597 2516 
Q 3050 2419 3304 2112 
Q 3559 1806 3559 1356 
Q 3559 666 3084 287 
Q 2609 -91 1734 -91 
Q 1441 -91 1130 -33 
Q 819 25 488 141 
L 488 750 
Q 750 597 1062 519 
Q 1375 441 1716 441 
Q 2309 441 2620 675 
Q 2931 909 2931 1356 
Q 2931 1769 2642 2001 
Q 2353 2234 1838 2234 
L 1294 2234 
L 1294 2753 
L 1863 2753 
Q 2328 2753 2575 2939 
Q 2822 3125 2822 3475 
Q 2822 3834 2567 4026 
Q 2313 4219 1838 4219 
Q 1578 4219 1281 4162 
Q 984 4106 628 3988 
L 628 4550 
Q 988 4650 1302 4700 
Q 1616 4750 1894 4750 
Q 2613 4750 3031 4423 
Q 3450 4097 3450 3541 
Q 3450 3153 3228 2886 
Q 3006 2619 2597 2516 
z
" transform="scale(0.015625)"/>
       </defs>
       <use xlink:href="#DejaVuSans-30"/>
       <use xlink:href="#DejaVuSans-2e" x="63.623047"/>
       <use xlink:href="#DejaVuSans-33" x="95.410156"/>
       <use xlink:href="#DejaVuSans-30" x="159.033203"/>
      </g>
     </g>
    </g>
    <g id="xtick_7">
     <g id="line2d_7">
      <g>
       <use xlink:href="#m1956d67803" x="294.87412" y="307.584" style="stroke: #000000; stroke-width: 0.8"/>
      </g>
     </g>
     <g id="text_7">
      <!-- 0.35 -->
      <g transform="translate(283.741307 322.182437) scale(0.1 -0.1)">
       <use xlink:href="#DejaVuSans-30"/>
       <use xlink:href="#DejaVuSans-2e" x="63.623047"/>
       <use xlink:href="#DejaVuSans-33" x="95.410156"/>
       <use xlink:href="#DejaVuSans-35" x="159.033203"/>
      </g>
     </g>
    </g>
    <g id="xtick_8">
     <g id="line2d_8">
      <g>
       <use xlink:href="#m1956d67803" x="329.411838" y="307.584" style="stroke: #000000; stroke-width: 0.8"/>
      </g>
     </g>
     <g id="text_8">
      <!-- 0.40 -->
      <g transform="translate(318.279025 322.182437) scale(0.1 -0.1)">
       <defs>
        <path id="DejaVuSans-34" d="M 2419 4116 
L 825 1625 
L 2419 1625 
L 2419 4116 
z
M 2253 4666 
L 3047 4666 
L 3047 1625 
L 3713 1625 
L 3713 1100 
L 3047 1100 
L 3047 0 
L 2419 0 
L 2419 1100 
L 313 1100 
L 313 1709 
L 2253 4666 
z
" transform="scale(0.015625)"/>
       </defs>
       <use xlink:href="#DejaVuSans-30"/>
       <use xlink:href="#DejaVuSans-2e" x="63.623047"/>
       <use xlink:href="#DejaVuSans-34" x="95.410156"/>
       <use xlink:href="#DejaVuSans-30" x="159.033203"/>
      </g>
     </g>
    </g>
    <g id="xtick_9">
     <g id="line2d_9">
      <g>
       <use xlink:href="#m1956d67803" x="363.949555" y="307.584" style="stroke: #000000; stroke-width: 0.8"/>
      </g>
     </g>
     <g id="text_9">
      <!-- 0.45 -->
      <g transform="translate(352.816743 322.182437) scale(0.1 -0.1)">
       <use xlink:href="#DejaVuSans-30"/>
       <use xlink:href="#DejaVuSans-2e" x="63.623047"/>
       <use xlink:href="#DejaVuSans-34" x="95.410156"/>
       <use xlink:href="#DejaVuSans-35" x="159.033203"/>
      </g>
     </g>
    </g>
    <g id="xtick_10">
     <g id="line2d_10">
      <g>
       <use xlink:href="#m1956d67803" x="398.487273" y="307.584" style="stroke: #000000; stroke-width: 0.8"/>
      </g>
     </g>
     <g id="text_10">
      <!-- 0.50 -->
      <g transform="translate(387.35446 322.182437) scale(0.1 -0.1)">
       <use xlink:href="#DejaVuSans-30"/>
       <use xlink:href="#DejaVuSans-2e" x="63.623047"/>
       <use xlink:href="#DejaVuSans-35" x="95.410156"/>
       <use xlink:href="#DejaVuSans-30" x="159.033203"/>
      </g>
     </g>
    </g>
    <g id="text_11">
     <!-- Sensitivity (true positive rate) -->
     <g transform="translate(161.431094 335.860562) scale(0.1 -0.1)">
      <defs>
       <path id="DejaVuSans-53" d="M 3425 4513 
L 3425 3897 
Q 3066 4069 2747 4153 
Q 2428 4238 2131 4238 
Q 1616 4238 1336 4038 
Q 1056 3838 1056 3469 
Q 1056 3159 1242 3001 
Q 1428 2844 1947 2747 
L 2328 2669 
Q 3034 2534 3370 2195 
Q 3706 1856 3706 1288 
Q 3706 609 3251 259 
Q 2797 -91 1919 -91 
Q 1588 -91 1214 -16 
Q 841 59 441 206 
L 441 856 
Q 825 641 1194 531 
Q 1563 422 1919 422 
Q 2459 422 2753 634 
Q 3047 847 3047 1241 
Q 3047 1584 2836 1778 
Q 2625 1972 2144 2069 
L 1759 2144 
Q 1053 2284 737 2584 
Q 422 2884 422 3419 
Q 422 4038 858 4394 
Q 1294 4750 2059 4750 
Q 2388 4750 2728 4690 
Q 3069 4631 3425 4513 
z
" transform="scale(0.015625)"/>
       <path id="DejaVuSans-65" d="M 3597 1894 
L 3597 1613 
L 953 1613 
Q 991 1019 1311 708 
Q 1631 397 2203 397 
Q 2534 397 2845 478 
Q 3156 559 3463 722 
L 3463 178 
Q 3153 47 2828 -22 
Q 2503 -91 2169 -91 
Q 1331 -91 842 396 
Q 353 884 353 1716 
Q 353 2575 817 3079 
Q 1281 3584 2069 3584 
Q 2775 3584 3186 3129 
Q 3597 2675 3597 1894 
z
M 3022 2063 
Q 3016 2534 2758 2815 
Q 2500 3097 2075 3097 
Q 1594 3097 1305 2825 
Q 1016 2553 972 2059 
L 3022 2063 
z
" transform="scale(0.015625)"/>
       <path id="DejaVuSans-6e" d="M 3513 2113 
L 3513 0 
L 2938 0 
L 2938 2094 
Q 2938 2591 2744 2837 
Q 2550 3084 2163 3084 
Q 1697 3084 1428 2787 
Q 1159 2491 1159 1978 
L 1159 0 
L 581 0 
L 581 3500 
L 1159 3500 
L 1159 2956 
Q 1366 3272 1645 3428 
Q 1925 3584 2291 3584 
Q 2894 3584 3203 3211 
Q 3513 2838 3513 2113 
z
" transform="scale(0.015625)"/>
       <path id="DejaVuSans-73" d="M 2834 3397 
L 2834 2853 
Q 2591 2978 2328 3040 
Q 2066 3103 1784 3103 
Q 1356 3103 1142 2972 
Q 928 2841 928 2578 
Q 928 2378 1081 2264 
Q 1234 2150 1697 2047 
L 1894 2003 
Q 2506 1872 2764 1633 
Q 3022 1394 3022 966 
Q 3022 478 2636 193 
Q 2250 -91 1575 -91 
Q 1294 -91 989 -36 
Q 684 19 347 128 
L 347 722 
Q 666 556 975 473 
Q 1284 391 1588 391 
Q 1994 391 2212 530 
Q 2431 669 2431 922 
Q 2431 1156 2273 1281 
Q 2116 1406 1581 1522 
L 1381 1569 
Q 847 1681 609 1914 
Q 372 2147 372 2553 
Q 372 3047 722 3315 
Q 1072 3584 1716 3584 
Q 2034 3584 2315 3537 
Q 2597 3491 2834 3397 
z
" transform="scale(0.015625)"/>
       <path id="DejaVuSans-69" d="M 603 3500 
L 1178 3500 
L 1178 0 
L 603 0 
L 603 3500 
z
M 603 4863 
L 1178 4863 
L 1178 4134 
L 603 4134 
L 603 4863 
z
" transform="scale(0.015625)"/>
       <path id="DejaVuSans-74" d="M 1172 4494 
L 1172 3500 
L 2356 3500 
L 2356 3053 
L 1172 3053 
L 1172 1153 
Q 1172 725 1289 603 
Q 1406 481 1766 481 
L 2356 481 
L 2356 0 
L 1766 0 
Q 1100 0 847 248 
Q 594 497 594 1153 
L 594 3053 
L 172 3053 
L 172 3500 
L 594 3500 
L 594 4494 
L 1172 4494 
z
" transform="scale(0.015625)"/>
       <path id="DejaVuSans-76" d="M 191 3500 
L 800 3500 
L 1894 563 
L 2988 3500 
L 3597 3500 
L 2284 0 
L 1503 0 
L 191 3500 
z
" transform="scale(0.015625)"/>
       <path id="DejaVuSans-79" d="M 2059 -325 
Q 1816 -950 1584 -1140 
Q 1353 -1331 966 -1331 
L 506 -1331 
L 506 -850 
L 844 -850 
Q 1081 -850 1212 -737 
Q 1344 -625 1503 -206 
L 1606 56 
L 191 3500 
L 800 3500 
L 1894 763 
L 2988 3500 
L 3597 3500 
L 2059 -325 
z
" transform="scale(0.015625)"/>
       <path id="DejaVuSans-20" transform="scale(0.015625)"/>
       <path id="DejaVuSans-28" d="M 1984 4856 
Q 1566 4138 1362 3434 
Q 1159 2731 1159 2009 
Q 1159 1288 1364 580 
Q 1569 -128 1984 -844 
L 1484 -844 
Q 1016 -109 783 600 
Q 550 1309 550 2009 
Q 550 2706 781 3412 
Q 1013 4119 1484 4856 
L 1984 4856 
z
" transform="scale(0.015625)"/>
       <path id="DejaVuSans-72" d="M 2631 2963 
Q 2534 3019 2420 3045 
Q 2306 3072 2169 3072 
Q 1681 3072 1420 2755 
Q 1159 2438 1159 1844 
L 1159 0 
L 581 0 
L 581 3500 
L 1159 3500 
L 1159 2956 
Q 1341 3275 1631 3429 
Q 1922 3584 2338 3584 
Q 2397 3584 2469 3576 
Q 2541 3569 2628 3553 
L 2631 2963 
z
" transform="scale(0.015625)"/>
       <path id="DejaVuSans-75" d="M 544 1381 
L 544 3500 
L 1119 3500 
L 1119 1403 
Q 1119 906 1312 657 
Q 1506 409 1894 409 
Q 2359 409 2629 706 
Q 2900 1003 2900 1516 
L 2900 3500 
L 3475 3500 
L 3475 0 
L 2900 0 
L 2900 538 
Q 2691 219 2414 64 
Q 2138 -91 1772 -91 
Q 1169 -91 856 284 
Q 544 659 544 1381 
z
M 1991 3584 
L 1991 3584 
z
" transform="scale(0.015625)"/>
       <path id="DejaVuSans-70" d="M 1159 525 
L 1159 -1331 
L 581 -1331 
L 581 3500 
L 1159 3500 
L 1159 2969 
Q 1341 3281 1617 3432 
Q 1894 3584 2278 3584 
Q 2916 3584 3314 3078 
Q 3713 2572 3713 1747 
Q 3713 922 3314 415 
Q 2916 -91 2278 -91 
Q 1894 -91 1617 61 
Q 1341 213 1159 525 
z
M 3116 1747 
Q 3116 2381 2855 2742 
Q 2594 3103 2138 3103 
Q 1681 3103 1420 2742 
Q 1159 2381 1159 1747 
Q 1159 1113 1420 752 
Q 1681 391 2138 391 
Q 2594 391 2855 752 
Q 3116 1113 3116 1747 
z
" transform="scale(0.015625)"/>
       <path id="DejaVuSans-6f" d="M 1959 3097 
Q 1497 3097 1228 2736 
Q 959 2375 959 1747 
Q 959 1119 1226 758 
Q 1494 397 1959 397 
Q 2419 397 2687 759 
Q 2956 1122 2956 1747 
Q 2956 2369 2687 2733 
Q 2419 3097 1959 3097 
z
M 1959 3584 
Q 2709 3584 3137 3096 
Q 3566 2609 3566 1747 
Q 3566 888 3137 398 
Q 2709 -91 1959 -91 
Q 1206 -91 779 398 
Q 353 888 353 1747 
Q 353 2609 779 3096 
Q 1206 3584 1959 3584 
z
" transform="scale(0.015625)"/>
       <path id="DejaVuSans-61" d="M 2194 1759 
Q 1497 1759 1228 1600 
Q 959 1441 959 1056 
Q 959 750 1161 570 
Q 1363 391 1709 391 
Q 2188 391 2477 730 
Q 2766 1069 2766 1631 
L 2766 1759 
L 2194 1759 
z
M 3341 1997 
L 3341 0 
L 2766 0 
L 2766 531 
Q 2569 213 2275 61 
Q 1981 -91 1556 -91 
Q 1019 -91 701 211 
Q 384 513 384 1019 
Q 384 1609 779 1909 
Q 1175 2209 1959 2209 
L 2766 2209 
L 2766 2266 
Q 2766 2663 2505 2880 
Q 2244 3097 1772 3097 
Q 1472 3097 1187 3025 
Q 903 2953 641 2809 
L 641 3341 
Q 956 3463 1253 3523 
Q 1550 3584 1831 3584 
Q 2591 3584 2966 3190 
Q 3341 2797 3341 1997 
z
" transform="scale(0.015625)"/>
       <path id="DejaVuSans-29" d="M 513 4856 
L 1013 4856 
Q 1481 4119 1714 3412 
Q 1947 2706 1947 2009 
Q 1947 1309 1714 600 
Q 1481 -109 1013 -844 
L 513 -844 
Q 928 -128 1133 580 
Q 1338 1288 1338 2009 
Q 1338 2731 1133 3434 
Q 928 4138 513 4856 
z
" transform="scale(0.015625)"/>
      </defs>
      <use xlink:href="#DejaVuSans-53"/>
      <use xlink:href="#DejaVuSans-65" x="63.476562"/>
      <use xlink:href="#DejaVuSans-6e" x="125"/>
      <use xlink:href="#DejaVuSans-73" x="188.378906"/>
      <use xlink:href="#DejaVuSans-69" x="240.478516"/>
      <use xlink:href="#DejaVuSans-74" x="268.261719"/>
      <use xlink:href="#DejaVuSans-69" x="307.470703"/>
      <use xlink:href="#DejaVuSans-76" x="335.253906"/>
      <use xlink:href="#DejaVuSans-69" x="394.433594"/>
      <use xlink:href="#DejaVuSans-74" x="422.216797"/>
      <use xlink:href="#DejaVuSans-79" x="461.425781"/>
      <use xlink:href="#DejaVuSans-20" x="520.605469"/>
      <use xlink:href="#DejaVuSans-28" x="552.392578"/>
      <use xlink:href="#DejaVuSans-74" x="591.40625"/>
      <use xlink:href="#DejaVuSans-72" x="630.615234"/>
      <use xlink:href="#DejaVuSans-75" x="671.728516"/>
      <use xlink:href="#DejaVuSans-65" x="735.107422"/>
      <use xlink:href="#DejaVuSans-20" x="796.630859"/>
      <use xlink:href="#DejaVuSans-70" x="828.417969"/>
      <use xlink:href="#DejaVuSans-6f" x="891.894531"/>
      <use xlink:href="#DejaVuSans-73" x="953.076172"/>
      <use xlink:href="#DejaVuSans-69" x="1005.175781"/>
      <use xlink:href="#DejaVuSans-74" x="1032.958984"/>
      <use xlink:href="#DejaVuSans-69" x="1072.167969"/>
      <use xlink:href="#DejaVuSans-76" x="1099.951172"/>
      <use xlink:href="#DejaVuSans-65" x="1159.130859"/>
      <use xlink:href="#DejaVuSans-20" x="1220.654297"/>
      <use xlink:href="#DejaVuSans-72" x="1252.441406"/>
      <use xlink:href="#DejaVuSans-61" x="1293.554688"/>
      <use xlink:href="#DejaVuSans-74" x="1354.833984"/>
      <use xlink:href="#DejaVuSans-65" x="1394.042969"/>
      <use xlink:href="#DejaVuSans-29" x="1455.566406"/>
     </g>
    </g>
   </g>
   <g id="matplotlib.axis_2">
    <g id="ytick_1">
     <g id="line2d_11">
      <defs>
       <path id="m89af71a15f" d="M 0 0 
L -3.5 0 
" style="stroke: #000000; stroke-width: 0.8"/>
      </defs>
      <g>
       <use xlink:href="#m89af71a15f" x="57.6" y="307.584" style="stroke: #000000; stroke-width: 0.8"/>
      </g>
     </g>
     <g id="text_12">
      <!-- 0.01 -->
      <g transform="translate(28.334375 311.383219) scale(0.1 -0.1)">
       <use xlink:href="#DejaVuSans-30"/>
       <use xlink:href="#DejaVuSans-2e" x="63.623047"/>
       <use xlink:href="#DejaVuSans-30" x="95.410156"/>
       <use xlink:href="#DejaVuSans-31" x="159.033203"/>
      </g>
     </g>
    </g>
    <g id="ytick_2">
     <g id="line2d_12">
      <g>
       <use xlink:href="#m89af71a15f" x="57.6" y="218.88" style="stroke: #000000; stroke-width: 0.8"/>
      </g>
     </g>
     <g id="text_13">
      <!-- 0.10 -->
      <g transform="translate(28.334375 222.679219) scale(0.1 -0.1)">
       <use xlink:href="#DejaVuSans-30"/>
       <use xlink:href="#DejaVuSans-2e" x="63.623047"/>
       <use xlink:href="#DejaVuSans-31" x="95.410156"/>
       <use xlink:href="#DejaVuSans-30" x="159.033203"/>
      </g>
     </g>
    </g>
    <g id="ytick_3">
     <g id="line2d_13">
      <g>
       <use xlink:href="#m89af71a15f" x="57.6" y="130.176" style="stroke: #000000; stroke-width: 0.8"/>
      </g>
     </g>
     <g id="text_14">
      <!-- 1.00 -->
      <g transform="translate(28.334375 133.975219) scale(0.1 -0.1)">
       <use xlink:href="#DejaVuSans-31"/>
       <use xlink:href="#DejaVuSans-2e" x="63.623047"/>
       <use xlink:href="#DejaVuSans-30" x="95.410156"/>
       <use xlink:href="#DejaVuSans-30" x="159.033203"/>
      </g>
     </g>
    </g>
    <g id="ytick_4">
     <g id="line2d_14">
      <g>
       <use xlink:href="#m89af71a15f" x="57.6" y="41.472" style="stroke: #000000; stroke-width: 0.8"/>
      </g>
     </g>
     <g id="text_15">
      <!-- 10.00 -->
      <g transform="translate(21.971875 45.271219) scale(0.1 -0.1)">
       <use xlink:href="#DejaVuSans-31"/>
       <use xlink:href="#DejaVuSans-30" x="63.623047"/>
       <use xlink:href="#DejaVuSans-2e" x="127.246094"/>
       <use xlink:href="#DejaVuSans-30" x="159.033203"/>
       <use xlink:href="#DejaVuSans-30" x="222.65625"/>
      </g>
     </g>
    </g>
    <g id="ytick_5">
     <g id="line2d_15">
      <defs>
       <path id="m674c8972f7" d="M 0 0 
L -2 0 
" style="stroke: #000000; stroke-width: 0.6"/>
      </defs>
      <g>
       <use xlink:href="#m674c8972f7" x="57.6" y="280.881435" style="stroke: #000000; stroke-width: 0.6"/>
      </g>
     </g>
    </g>
    <g id="ytick_6">
     <g id="line2d_16">
      <g>
       <use xlink:href="#m674c8972f7" x="57.6" y="265.261436" style="stroke: #000000; stroke-width: 0.6"/>
      </g>
     </g>
    </g>
    <g id="ytick_7">
     <g id="line2d_17">
      <g>
       <use xlink:href="#m674c8972f7" x="57.6" y="254.178871" style="stroke: #000000; stroke-width: 0.6"/>
      </g>
     </g>
    </g>
    <g id="ytick_8">
     <g id="line2d_18">
      <g>
       <use xlink:href="#m674c8972f7" x="57.6" y="245.582565" style="stroke: #000000; stroke-width: 0.6"/>
      </g>
     </g>
    </g>
    <g id="ytick_9">
     <g id="line2d_19">
      <g>
       <use xlink:href="#m674c8972f7" x="57.6" y="238.558871" style="stroke: #000000; stroke-width: 0.6"/>
      </g>
     </g>
    </g>
    <g id="ytick_10">
     <g id="line2d_20">
      <g>
       <use xlink:href="#m674c8972f7" x="57.6" y="232.620423" style="stroke: #000000; stroke-width: 0.6"/>
      </g>
     </g>
    </g>
    <g id="ytick_11">
     <g id="line2d_21">
      <g>
       <use xlink:href="#m674c8972f7" x="57.6" y="227.476306" style="stroke: #000000; stroke-width: 0.6"/>
      </g>
     </g>
    </g>
    <g id="ytick_12">
     <g id="line2d_22">
      <g>
       <use xlink:href="#m674c8972f7" x="57.6" y="222.938872" style="stroke: #000000; stroke-width: 0.6"/>
      </g>
     </g>
    </g>
    <g id="ytick_13">
     <g id="line2d_23">
      <g>
       <use xlink:href="#m674c8972f7" x="57.6" y="192.177435" style="stroke: #000000; stroke-width: 0.6"/>
      </g>
     </g>
    </g>
    <g id="ytick_14">
     <g id="line2d_24">
      <g>
       <use xlink:href="#m674c8972f7" x="57.6" y="176.557436" style="stroke: #000000; stroke-width: 0.6"/>
      </g>
     </g>
    </g>
    <g id="ytick_15">
     <g id="line2d_25">
      <g>
       <use xlink:href="#m674c8972f7" x="57.6" y="165.474871" style="stroke: #000000; stroke-width: 0.6"/>
      </g>
     </g>
    </g>
    <g id="ytick_16">
     <g id="line2d_26">
      <g>
       <use xlink:href="#m674c8972f7" x="57.6" y="156.878565" style="stroke: #000000; stroke-width: 0.6"/>
      </g>
     </g>
    </g>
    <g id="ytick_17">
     <g id="line2d_27">
      <g>
       <use xlink:href="#m674c8972f7" x="57.6" y="149.854871" style="stroke: #000000; stroke-width: 0.6"/>
      </g>
     </g>
    </g>
    <g id="ytick_18">
     <g id="line2d_28">
      <g>
       <use xlink:href="#m674c8972f7" x="57.6" y="143.916423" style="stroke: #000000; stroke-width: 0.6"/>
      </g>
     </g>
    </g>
    <g id="ytick_19">
     <g id="line2d_29">
      <g>
       <use xlink:href="#m674c8972f7" x="57.6" y="138.772306" style="stroke: #000000; stroke-width: 0.6"/>
      </g>
     </g>
    </g>
    <g id="ytick_20">
     <g id="line2d_30">
      <g>
       <use xlink:href="#m674c8972f7" x="57.6" y="134.234872" style="stroke: #000000; stroke-width: 0.6"/>
      </g>
     </g>
    </g>
    <g id="ytick_21">
     <g id="line2d_31">
      <g>
       <use xlink:href="#m674c8972f7" x="57.6" y="103.473435" style="stroke: #000000; stroke-width: 0.6"/>
      </g>
     </g>
    </g>
    <g id="ytick_22">
     <g id="line2d_32">
      <g>
       <use xlink:href="#m674c8972f7" x="57.6" y="87.853436" style="stroke: #000000; stroke-width: 0.6"/>
      </g>
     </g>
    </g>
    <g id="ytick_23">
     <g id="line2d_33">
      <g>
       <use xlink:href="#m674c8972f7" x="57.6" y="76.770871" style="stroke: #000000; stroke-width: 0.6"/>
      </g>
     </g>
    </g>
    <g id="ytick_24">
     <g id="line2d_34">
      <g>
       <use xlink:href="#m674c8972f7" x="57.6" y="68.174565" style="stroke: #000000; stroke-width: 0.6"/>
      </g>
     </g>
    </g>
    <g id="ytick_25">
     <g id="line2d_35">
      <g>
       <use xlink:href="#m674c8972f7" x="57.6" y="61.150871" style="stroke: #000000; stroke-width: 0.6"/>
      </g>
     </g>
    </g>
    <g id="ytick_26">
     <g id="line2d_36">
      <g>
       <use xlink:href="#m674c8972f7" x="57.6" y="55.212423" style="stroke: #000000; stroke-width: 0.6"/>
      </g>
     </g>
    </g>
    <g id="ytick_27">
     <g id="line2d_37">
      <g>
       <use xlink:href="#m674c8972f7" x="57.6" y="50.068306" style="stroke: #000000; stroke-width: 0.6"/>
      </g>
     </g>
    </g>
    <g id="ytick_28">
     <g id="line2d_38">
      <g>
       <use xlink:href="#m674c8972f7" x="57.6" y="45.530872" style="stroke: #000000; stroke-width: 0.6"/>
      </g>
     </g>
    </g>
    <g id="text_16">
     <!-- False positive errors per query -->
     <g transform="translate(15.892187 250.498312) rotate(-90) scale(0.1 -0.1)">
      <defs>
       <path id="DejaVuSans-46" d="M 628 4666 
L 3309 4666 
L 3309 4134 
L 1259 4134 
L 1259 2759 
L 3109 2759 
L 3109 2228 
L 1259 2228 
L 1259 0 
L 628 0 
L 628 4666 
z
" transform="scale(0.015625)"/>
       <path id="DejaVuSans-6c" d="M 603 4863 
L 1178 4863 
L 1178 0 
L 603 0 
L 603 4863 
z
" transform="scale(0.015625)"/>
       <path id="DejaVuSans-71" d="M 947 1747 
Q 947 1113 1208 752 
Q 1469 391 1925 391 
Q 2381 391 2643 752 
Q 2906 1113 2906 1747 
Q 2906 2381 2643 2742 
Q 2381 3103 1925 3103 
Q 1469 3103 1208 2742 
Q 947 2381 947 1747 
z
M 2906 525 
Q 2725 213 2448 61 
Q 2172 -91 1784 -91 
Q 1150 -91 751 415 
Q 353 922 353 1747 
Q 353 2572 751 3078 
Q 1150 3584 1784 3584 
Q 2172 3584 2448 3432 
Q 2725 3281 2906 2969 
L 2906 3500 
L 3481 3500 
L 3481 -1331 
L 2906 -1331 
L 2906 525 
z
" transform="scale(0.015625)"/>
      </defs>
      <use xlink:href="#DejaVuSans-46"/>
      <use xlink:href="#DejaVuSans-61" x="48.394531"/>
      <use xlink:href="#DejaVuSans-6c" x="109.673828"/>
      <use xlink:href="#DejaVuSans-73" x="137.457031"/>
      <use xlink:href="#DejaVuSans-65" x="189.556641"/>
      <use xlink:href="#DejaVuSans-20" x="251.080078"/>
      <use xlink:href="#DejaVuSans-70" x="282.867188"/>
      <use xlink:href="#DejaVuSans-6f" x="346.34375"/>
      <use xlink:href="#DejaVuSans-73" x="407.525391"/>
      <use xlink:href="#DejaVuSans-69" x="459.625"/>
      <use xlink:href="#DejaVuSans-74" x="487.408203"/>
      <use xlink:href="#DejaVuSans-69" x="526.617188"/>
      <use xlink:href="#DejaVuSans-76" x="554.400391"/>
      <use xlink:href="#DejaVuSans-65" x="613.580078"/>
      <use xlink:href="#DejaVuSans-20" x="675.103516"/>
      <use xlink:href="#DejaVuSans-65" x="706.890625"/>
      <use xlink:href="#DejaVuSans-72" x="768.414062"/>
      <use xlink:href="#DejaVuSans-72" x="807.777344"/>
      <use xlink:href="#DejaVuSans-6f" x="846.640625"/>
      <use xlink:href="#DejaVuSans-72" x="907.822266"/>
      <use xlink:href="#DejaVuSans-73" x="948.935547"/>
      <use xlink:href="#DejaVuSans-20" x="1001.035156"/>
      <use xlink:href="#DejaVuSans-70" x="1032.822266"/>
      <use xlink:href="#DejaVuSans-65" x="1096.298828"/>
      <use xlink:href="#DejaVuSans-72" x="1157.822266"/>
      <use xlink:href="#DejaVuSans-20" x="1198.935547"/>
      <use xlink:href="#DejaVuSans-71" x="1230.722656"/>
      <use xlink:href="#DejaVuSans-75" x="1294.199219"/>
      <use xlink:href="#DejaVuSans-65" x="1357.578125"/>
      <use xlink:href="#DejaVuSans-72" x="1419.101562"/>
      <use xlink:href="#DejaVuSans-79" x="1460.214844"/>
     </g>
    </g>
   </g>
   <g id="line2d_39">
    <path d="M 73.832727 300.432108 
L 80.740271 277.157242 
L 87.647814 258.776544 
L 94.555358 241.638664 
L 101.462901 224.937413 
L 108.370445 212.700161 
L 115.277988 202.246162 
L 122.185532 192.119693 
L 129.093075 182.848486 
L 136.000619 173.795278 
L 142.908162 163.760751 
L 149.815706 154.394713 
L 156.72325 146.523212 
L 163.630793 139.164346 
L 170.538337 131.986103 
L 177.44588 125.638567 
L 184.353424 119.305899 
L 191.260967 113.367451 
L 198.168511 107.811544 
L 205.076054 102.672816 
L 211.983598 97.788978 
L 218.891141 93.144591 
L 225.798685 88.828771 
L 232.706228 85.115191 
L 239.613772 81.542564 
L 246.521315 78.123404 
L 253.428859 74.973934 
L 260.336402 71.98597 
L 267.243946 69.332082 
L 274.151489 66.708115 
L 281.059033 64.342105 
L 287.966576 61.968484 
L 294.87412 59.800797 
L 301.781663 57.525898 
L 308.689207 55.56626 
L 315.59675 53.474624 
L 322.504294 51.321218 
L 329.411838 49.26297 
L 336.319381 47.116864 
L 343.226925 45.177227 
L 350.134468 42.98046 
" clip-path="url(#pc4a7043fe3)" style="fill: none; stroke: #87ceeb; stroke-width: 2; stroke-linecap: square"/>
   </g>
   <g id="line2d_40">
    <path d="M 94.555358 299.860436 
L 101.462901 274.439975 
L 108.370445 254.478592 
L 115.277988 238.481901 
L 122.185532 224.65443 
L 129.093075 212.996625 
L 136.000619 202.851258 
L 142.908162 193.251675 
L 149.815706 184.675181 
L 156.72325 176.776358 
L 163.630793 168.88645 
L 170.538337 162.110837 
L 177.44588 155.53841 
L 184.353424 149.098297 
L 191.260967 143.229165 
L 198.168511 137.484276 
L 205.076054 132.05885 
L 211.983598 126.92687 
L 218.891141 121.579694 
L 225.798685 116.424021 
L 232.706228 111.283273 
L 239.613772 106.518469 
L 246.521315 101.685692 
L 253.428859 96.707426 
L 260.336402 91.769892 
L 267.243946 86.964878 
L 274.151489 82.191145 
L 281.059033 77.441202 
L 287.966576 72.776579 
L 294.87412 68.059167 
L 301.781663 63.575543 
L 308.689207 58.991034 
L 315.59675 54.438764 
L 322.504294 49.967314 
L 329.411838 45.620866 
" clip-path="url(#pc4a7043fe3)" style="fill: none; stroke-dasharray: 3,4.95; stroke-dashoffset: 0; stroke: #ffa500; stroke-width: 3"/>
   </g>
   <g id="line2d_41">
    <path d="M 94.555358 290.651141 
L 101.462901 275.180362 
L 108.370445 261.800444 
L 115.277988 246.455306 
L 122.185532 235.832588 
L 129.093075 224.138758 
L 136.000619 214.514165 
L 142.908162 206.752339 
L 149.815706 198.167282 
L 156.72325 189.679139 
L 163.630793 182.11468 
L 170.538337 174.972498 
L 177.44588 168.270559 
L 184.353424 161.385191 
L 191.260967 154.713871 
L 198.168511 147.816637 
L 205.076054 141.671692 
L 211.983598 134.982592 
L 218.891141 128.40665 
L 225.798685 122.138468 
L 232.706228 115.808913 
L 239.613772 109.893213 
L 246.521315 104.44877 
L 253.428859 99.262694 
L 260.336402 93.738416 
L 267.243946 88.592429 
L 274.151489 83.202027 
L 281.059033 78.303375 
L 287.966576 73.345108 
L 294.87412 68.788098 
L 301.781663 64.077958 
L 308.689207 59.881475 
L 315.59675 55.777898 
L 322.504294 51.897593 
L 329.411838 48.119999 
L 336.319381 44.396315 
" clip-path="url(#pc4a7043fe3)" style="fill: none; stroke: #ff00ff; stroke-width: 2; stroke-linecap: square"/>
   </g>
   <g id="line2d_42">
    <path d="M 136.000619 300.145212 
L 142.908162 291.100547 
L 149.815706 281.444118 
L 156.72325 272.315961 
L 163.630793 259.955538 
L 170.538337 251.554414 
L 177.44588 242.326354 
L 184.353424 235.832588 
L 191.260967 228.21039 
L 198.168511 220.892519 
L 205.076054 213.462374 
L 211.983598 204.939773 
L 218.891141 197.409708 
L 225.798685 188.663659 
L 232.706228 179.50531 
L 239.613772 170.432326 
L 246.521315 161.480579 
L 253.428859 152.816611 
L 260.336402 143.757155 
L 267.243946 134.501176 
L 274.151489 124.825372 
L 281.059033 114.76201 
L 287.966576 104.945856 
L 294.87412 94.738693 
L 301.781663 83.522012 
L 308.689207 72.0626 
L 315.59675 59.283528 
L 322.504294 58.502432 
" clip-path="url(#pc4a7043fe3)" style="fill: none; stroke-dasharray: 2,3.3; stroke-dashoffset: 0; stroke: #d3d3d3; stroke-width: 2"/>
   </g>
   <g id="line2d_43">
    <path d="M 136.000619 297.152171 
L 142.908162 289.333548 
L 149.815706 279.40757 
L 156.72325 269.664272 
L 163.630793 260.258832 
L 170.538337 250.297616 
L 177.44588 242.13566 
L 184.353424 234.26189 
L 191.260967 226.623841 
L 198.168511 219.438774 
L 205.076054 211.696125 
L 211.983598 203.157408 
L 218.891141 195.264184 
L 225.798685 186.376818 
L 232.706228 178.831971 
L 239.613772 170.377597 
L 246.521315 160.486365 
L 253.428859 151.939165 
L 260.336402 143.067323 
L 267.243946 133.762653 
L 274.151489 124.993378 
L 281.059033 114.787839 
L 287.966576 104.547675 
L 294.87412 94.26563 
L 301.781663 83.00904 
L 308.689207 71.344878 
L 315.59675 58.894028 
L 322.504294 48.335767 
" clip-path="url(#pc4a7043fe3)" style="fill: none; stroke-dasharray: 2,3.3; stroke-dashoffset: 0; stroke: #000000; stroke-width: 2"/>
   </g>
   <g id="line2d_44">
    <path d="M 136.000619 301.60155 
L 142.908162 292.455084 
L 149.815706 283.408809 
L 156.72325 275.180362 
L 163.630793 263.614929 
L 170.538337 254.391335 
L 177.44588 244.872607 
L 184.353424 236.697645 
L 191.260967 231.11479 
L 198.168511 223.438627 
L 205.076054 216.890514 
L 211.983598 210.376262 
L 218.891141 202.623232 
L 225.798685 195.452461 
L 232.706228 188.488232 
L 239.613772 181.032319 
L 246.521315 173.580727 
L 253.428859 165.978962 
L 260.336402 158.587857 
L 267.243946 151.494424 
L 274.151489 144.919991 
L 281.059033 138.165546 
L 287.966576 131.297805 
L 294.87412 124.691493 
L 301.781663 118.160981 
L 308.689207 111.614968 
L 315.59675 104.607141 
L 322.504294 98.106047 
L 329.411838 91.741472 
L 336.319381 85.343107 
L 343.226925 79.185287 
L 350.134468 72.413635 
L 357.042012 65.791977 
L 363.949555 59.0822 
L 370.857099 52.44685 
L 377.764642 45.835986 
" clip-path="url(#pc4a7043fe3)" style="fill: none; stroke-dasharray: 7.4,3.2; stroke-dashoffset: 0; stroke: #d3d3d3; stroke-width: 2"/>
   </g>
   <g id="line2d_45">
    <path d="M 136.000619 299.297123 
L 142.908162 291.327232 
L 149.815706 282.313852 
L 156.72325 273.299996 
L 163.630793 262.751107 
L 170.538337 253.786013 
L 177.44588 245.829908 
L 184.353424 238.366733 
L 191.260967 230.505708 
L 198.168511 223.51676 
L 205.076054 217.037131 
L 211.983598 209.370047 
L 218.891141 201.847981 
L 225.798685 194.911039 
L 232.706228 187.742869 
L 239.613772 180.573528 
L 246.521315 173.533211 
L 253.428859 166.233503 
L 260.336402 158.395038 
L 267.243946 151.353985 
L 274.151489 144.448404 
L 281.059033 138.127643 
L 287.966576 131.025105 
L 294.87412 124.061845 
L 301.781663 117.601034 
L 308.689207 111.024646 
L 315.59675 104.094798 
L 322.504294 97.35928 
L 329.411838 91.149439 
L 336.319381 84.616111 
L 343.226925 77.904576 
L 350.134468 71.236279 
L 357.042012 64.601053 
L 363.949555 57.86635 
L 370.857099 50.964698 
L 377.764642 44.313281 
" clip-path="url(#pc4a7043fe3)" style="fill: none; stroke-dasharray: 7.4,3.2; stroke-dashoffset: 0; stroke: #000000; stroke-width: 2"/>
   </g>
   <g id="line2d_46">
    <path d="M 136.000619 301.866319 
L 142.908162 292.926167 
L 149.815706 283.594366 
L 156.72325 274.882498 
L 163.630793 263.948576 
L 170.538337 254.217413 
L 177.44588 245.482533 
L 184.353424 236.697645 
L 191.260967 231.11479 
L 198.168511 223.984514 
L 205.076054 217.44323 
L 211.983598 211.093437 
L 218.891141 204.195844 
L 225.798685 196.193527 
L 232.706228 190.114849 
L 239.613772 182.502305 
L 246.521315 175.431192 
L 253.428859 168.312005 
L 260.336402 161.63718 
L 267.243946 154.845202 
L 274.151489 147.914196 
L 281.059033 141.676884 
L 287.966576 135.254134 
L 294.87412 129.488741 
L 301.781663 122.864457 
L 308.689207 116.939668 
L 315.59675 111.1655 
L 322.504294 105.267391 
L 329.411838 99.262694 
L 336.319381 93.321779 
L 343.226925 87.41929 
L 350.134468 82.014177 
L 357.042012 76.665076 
L 363.949555 71.177928 
L 370.857099 65.75578 
L 377.764642 60.274863 
L 384.672186 54.83455 
L 391.579729 49.565972 
L 398.487273 44.321576 
" clip-path="url(#pc4a7043fe3)" style="fill: none; stroke: #d3d3d3; stroke-width: 2; stroke-linecap: square"/>
   </g>
   <g id="line2d_47">
    <path d="M 136.000619 301.866319 
L 142.908162 292.926167 
L 149.815706 283.594366 
L 156.72325 274.882498 
L 163.630793 263.948576 
L 170.538337 254.217413 
L 177.44588 245.482533 
L 184.353424 236.697645 
L 191.260967 231.11479 
L 198.168511 223.984514 
L 205.076054 217.44323 
L 211.983598 211.093437 
L 218.891141 204.195844 
L 225.798685 196.193527 
L 232.706228 190.114849 
L 239.613772 182.502305 
L 246.521315 175.431192 
L 253.428859 168.312005 
L 260.336402 161.63718 
L 267.243946 154.845202 
L 274.151489 147.914196 
L 281.059033 141.676884 
L 287.966576 135.254134 
L 294.87412 129.488741 
L 301.781663 122.864457 
L 308.689207 116.939668 
L 315.59675 111.1655 
L 322.504294 105.267391 
L 329.411838 99.262694 
L 336.319381 93.321779 
L 343.226925 87.41929 
L 350.134468 82.014177 
L 357.042012 76.665076 
L 363.949555 71.177928 
L 370.857099 65.75578 
L 377.764642 60.274863 
L 384.672186 54.83455 
L 391.579729 49.565972 
L 398.487273 44.321576 
" clip-path="url(#pc4a7043fe3)" style="fill: none; stroke: #000000; stroke-width: 2; stroke-linecap: square"/>
   </g>
   <g id="patch_3">
    <path d="M 57.6 307.584 
L 57.6 41.472 
" style="fill: none; stroke: #000000; stroke-width: 0.8; stroke-linejoin: miter; stroke-linecap: square"/>
   </g>
   <g id="patch_4">
    <path d="M 414.72 307.584 
L 414.72 41.472 
" style="fill: none; stroke: #000000; stroke-width: 0.8; stroke-linejoin: miter; stroke-linecap: square"/>
   </g>
   <g id="patch_5">
    <path d="M 57.6 307.584 
L 414.72 307.584 
" style="fill: none; stroke: #000000; stroke-width: 0.8; stroke-linejoin: miter; stroke-linecap: square"/>
   </g>
   <g id="patch_6">
    <path d="M 57.6 41.472 
L 414.72 41.472 
" style="fill: none; stroke: #000000; stroke-width: 0.8; stroke-linejoin: miter; stroke-linecap: square"/>
   </g>
   <g id="legend_1">
    <g id="patch_7">
     <path d="M 246.318437 302.584 
L 407.72 302.584 
Q 409.72 302.584 409.72 300.584 
L 409.72 169.480875 
Q 409.72 167.480875 407.72 167.480875 
L 246.318437 167.480875 
Q 244.318437 167.480875 244.318437 169.480875 
L 244.318437 300.584 
Q 244.318437 302.584 246.318437 302.584 
z
" style="fill: #ffffff; opacity: 0.8; stroke: #cccccc; stroke-linejoin: miter"/>
    </g>
    <g id="line2d_48">
     <path d="M 248.318437 175.579313 
L 258.318437 175.579313 
L 268.318437 175.579313 
" style="fill: none; stroke: #87ceeb; stroke-width: 2; stroke-linecap: square"/>
    </g>
    <g id="text_17">
     <!-- DALI -->
     <g transform="translate(276.318437 179.079313) scale(0.1 -0.1)">
      <defs>
       <path id="DejaVuSans-44" d="M 1259 4147 
L 1259 519 
L 2022 519 
Q 2988 519 3436 956 
Q 3884 1394 3884 2338 
Q 3884 3275 3436 3711 
Q 2988 4147 2022 4147 
L 1259 4147 
z
M 628 4666 
L 1925 4666 
Q 3281 4666 3915 4102 
Q 4550 3538 4550 2338 
Q 4550 1131 3912 565 
Q 3275 0 1925 0 
L 628 0 
L 628 4666 
z
" transform="scale(0.015625)"/>
       <path id="DejaVuSans-41" d="M 2188 4044 
L 1331 1722 
L 3047 1722 
L 2188 4044 
z
M 1831 4666 
L 2547 4666 
L 4325 0 
L 3669 0 
L 3244 1197 
L 1141 1197 
L 716 0 
L 50 0 
L 1831 4666 
z
" transform="scale(0.015625)"/>
       <path id="DejaVuSans-4c" d="M 628 4666 
L 1259 4666 
L 1259 531 
L 3531 531 
L 3531 0 
L 628 0 
L 628 4666 
z
" transform="scale(0.015625)"/>
       <path id="DejaVuSans-49" d="M 628 4666 
L 1259 4666 
L 1259 0 
L 628 0 
L 628 4666 
z
" transform="scale(0.015625)"/>
      </defs>
      <use xlink:href="#DejaVuSans-44"/>
      <use xlink:href="#DejaVuSans-41" x="75.251953"/>
      <use xlink:href="#DejaVuSans-4c" x="143.660156"/>
      <use xlink:href="#DejaVuSans-49" x="199.373047"/>
     </g>
    </g>
    <g id="line2d_49">
     <path d="M 248.318437 190.257438 
L 258.318437 190.257438 
L 268.318437 190.257438 
" style="fill: none; stroke-dasharray: 3,4.95; stroke-dashoffset: 0; stroke: #ffa500; stroke-width: 3"/>
    </g>
    <g id="text_18">
     <!-- Foldseek -->
     <g transform="translate(276.318437 193.757438) scale(0.1 -0.1)">
      <defs>
       <path id="DejaVuSans-64" d="M 2906 2969 
L 2906 4863 
L 3481 4863 
L 3481 0 
L 2906 0 
L 2906 525 
Q 2725 213 2448 61 
Q 2172 -91 1784 -91 
Q 1150 -91 751 415 
Q 353 922 353 1747 
Q 353 2572 751 3078 
Q 1150 3584 1784 3584 
Q 2172 3584 2448 3432 
Q 2725 3281 2906 2969 
z
M 947 1747 
Q 947 1113 1208 752 
Q 1469 391 1925 391 
Q 2381 391 2643 752 
Q 2906 1113 2906 1747 
Q 2906 2381 2643 2742 
Q 2381 3103 1925 3103 
Q 1469 3103 1208 2742 
Q 947 2381 947 1747 
z
" transform="scale(0.015625)"/>
       <path id="DejaVuSans-6b" d="M 581 4863 
L 1159 4863 
L 1159 1991 
L 2875 3500 
L 3609 3500 
L 1753 1863 
L 3688 0 
L 2938 0 
L 1159 1709 
L 1159 0 
L 581 0 
L 581 4863 
z
" transform="scale(0.015625)"/>
      </defs>
      <use xlink:href="#DejaVuSans-46"/>
      <use xlink:href="#DejaVuSans-6f" x="53.894531"/>
      <use xlink:href="#DejaVuSans-6c" x="115.076172"/>
      <use xlink:href="#DejaVuSans-64" x="142.859375"/>
      <use xlink:href="#DejaVuSans-73" x="206.335938"/>
      <use xlink:href="#DejaVuSans-65" x="258.435547"/>
      <use xlink:href="#DejaVuSans-65" x="319.958984"/>
      <use xlink:href="#DejaVuSans-6b" x="381.482422"/>
     </g>
    </g>
    <g id="line2d_50">
     <path d="M 248.318437 204.935563 
L 258.318437 204.935563 
L 268.318437 204.935563 
" style="fill: none; stroke: #ff00ff; stroke-width: 2; stroke-linecap: square"/>
    </g>
    <g id="text_19">
     <!-- TM-align -->
     <g transform="translate(276.318437 208.435563) scale(0.1 -0.1)">
      <defs>
       <path id="DejaVuSans-54" d="M -19 4666 
L 3928 4666 
L 3928 4134 
L 2272 4134 
L 2272 0 
L 1638 0 
L 1638 4134 
L -19 4134 
L -19 4666 
z
" transform="scale(0.015625)"/>
       <path id="DejaVuSans-4d" d="M 628 4666 
L 1569 4666 
L 2759 1491 
L 3956 4666 
L 4897 4666 
L 4897 0 
L 4281 0 
L 4281 4097 
L 3078 897 
L 2444 897 
L 1241 4097 
L 1241 0 
L 628 0 
L 628 4666 
z
" transform="scale(0.015625)"/>
       <path id="DejaVuSans-2d" d="M 313 2009 
L 1997 2009 
L 1997 1497 
L 313 1497 
L 313 2009 
z
" transform="scale(0.015625)"/>
       <path id="DejaVuSans-67" d="M 2906 1791 
Q 2906 2416 2648 2759 
Q 2391 3103 1925 3103 
Q 1463 3103 1205 2759 
Q 947 2416 947 1791 
Q 947 1169 1205 825 
Q 1463 481 1925 481 
Q 2391 481 2648 825 
Q 2906 1169 2906 1791 
z
M 3481 434 
Q 3481 -459 3084 -895 
Q 2688 -1331 1869 -1331 
Q 1566 -1331 1297 -1286 
Q 1028 -1241 775 -1147 
L 775 -588 
Q 1028 -725 1275 -790 
Q 1522 -856 1778 -856 
Q 2344 -856 2625 -561 
Q 2906 -266 2906 331 
L 2906 616 
Q 2728 306 2450 153 
Q 2172 0 1784 0 
Q 1141 0 747 490 
Q 353 981 353 1791 
Q 353 2603 747 3093 
Q 1141 3584 1784 3584 
Q 2172 3584 2450 3431 
Q 2728 3278 2906 2969 
L 2906 3500 
L 3481 3500 
L 3481 434 
z
" transform="scale(0.015625)"/>
      </defs>
      <use xlink:href="#DejaVuSans-54"/>
      <use xlink:href="#DejaVuSans-4d" x="61.083984"/>
      <use xlink:href="#DejaVuSans-2d" x="147.363281"/>
      <use xlink:href="#DejaVuSans-61" x="183.447266"/>
      <use xlink:href="#DejaVuSans-6c" x="244.726562"/>
      <use xlink:href="#DejaVuSans-69" x="272.509766"/>
      <use xlink:href="#DejaVuSans-67" x="300.292969"/>
      <use xlink:href="#DejaVuSans-6e" x="363.769531"/>
     </g>
    </g>
    <g id="line2d_51">
     <path d="M 248.318437 219.613688 
L 258.318437 219.613688 
L 268.318437 219.613688 
" style="fill: none; stroke-dasharray: 2,3.3; stroke-dashoffset: 0; stroke: #d3d3d3; stroke-width: 2"/>
    </g>
    <g id="text_20">
     <!-- Reseek2.1 (fast) -->
     <g transform="translate(276.318437 223.113688) scale(0.1 -0.1)">
      <defs>
       <path id="DejaVuSans-52" d="M 2841 2188 
Q 3044 2119 3236 1894 
Q 3428 1669 3622 1275 
L 4263 0 
L 3584 0 
L 2988 1197 
Q 2756 1666 2539 1819 
Q 2322 1972 1947 1972 
L 1259 1972 
L 1259 0 
L 628 0 
L 628 4666 
L 2053 4666 
Q 2853 4666 3247 4331 
Q 3641 3997 3641 3322 
Q 3641 2881 3436 2590 
Q 3231 2300 2841 2188 
z
M 1259 4147 
L 1259 2491 
L 2053 2491 
Q 2509 2491 2742 2702 
Q 2975 2913 2975 3322 
Q 2975 3731 2742 3939 
Q 2509 4147 2053 4147 
L 1259 4147 
z
" transform="scale(0.015625)"/>
       <path id="DejaVuSans-66" d="M 2375 4863 
L 2375 4384 
L 1825 4384 
Q 1516 4384 1395 4259 
Q 1275 4134 1275 3809 
L 1275 3500 
L 2222 3500 
L 2222 3053 
L 1275 3053 
L 1275 0 
L 697 0 
L 697 3053 
L 147 3053 
L 147 3500 
L 697 3500 
L 697 3744 
Q 697 4328 969 4595 
Q 1241 4863 1831 4863 
L 2375 4863 
z
" transform="scale(0.015625)"/>
      </defs>
      <use xlink:href="#DejaVuSans-52"/>
      <use xlink:href="#DejaVuSans-65" x="64.982422"/>
      <use xlink:href="#DejaVuSans-73" x="126.505859"/>
      <use xlink:href="#DejaVuSans-65" x="178.605469"/>
      <use xlink:href="#DejaVuSans-65" x="240.128906"/>
      <use xlink:href="#DejaVuSans-6b" x="301.652344"/>
      <use xlink:href="#DejaVuSans-32" x="359.5625"/>
      <use xlink:href="#DejaVuSans-2e" x="423.185547"/>
      <use xlink:href="#DejaVuSans-31" x="454.972656"/>
      <use xlink:href="#DejaVuSans-20" x="518.595703"/>
      <use xlink:href="#DejaVuSans-28" x="550.382812"/>
      <use xlink:href="#DejaVuSans-66" x="589.396484"/>
      <use xlink:href="#DejaVuSans-61" x="624.601562"/>
      <use xlink:href="#DejaVuSans-73" x="685.880859"/>
      <use xlink:href="#DejaVuSans-74" x="737.980469"/>
      <use xlink:href="#DejaVuSans-29" x="777.189453"/>
     </g>
    </g>
    <g id="line2d_52">
     <path d="M 248.318437 234.291813 
L 258.318437 234.291813 
L 268.318437 234.291813 
" style="fill: none; stroke-dasharray: 2,3.3; stroke-dashoffset: 0; stroke: #000000; stroke-width: 2"/>
    </g>
    <g id="text_21">
     <!-- Reseek (fast) -->
     <g transform="translate(276.318437 237.791813) scale(0.1 -0.1)">
      <use xlink:href="#DejaVuSans-52"/>
      <use xlink:href="#DejaVuSans-65" x="64.982422"/>
      <use xlink:href="#DejaVuSans-73" x="126.505859"/>
      <use xlink:href="#DejaVuSans-65" x="178.605469"/>
      <use xlink:href="#DejaVuSans-65" x="240.128906"/>
      <use xlink:href="#DejaVuSans-6b" x="301.652344"/>
      <use xlink:href="#DejaVuSans-20" x="359.5625"/>
      <use xlink:href="#DejaVuSans-28" x="391.349609"/>
      <use xlink:href="#DejaVuSans-66" x="430.363281"/>
      <use xlink:href="#DejaVuSans-61" x="465.568359"/>
      <use xlink:href="#DejaVuSans-73" x="526.847656"/>
      <use xlink:href="#DejaVuSans-74" x="578.947266"/>
      <use xlink:href="#DejaVuSans-29" x="618.15625"/>
     </g>
    </g>
    <g id="line2d_53">
     <path d="M 248.318437 248.969938 
L 258.318437 248.969938 
L 268.318437 248.969938 
" style="fill: none; stroke-dasharray: 7.4,3.2; stroke-dashoffset: 0; stroke: #d3d3d3; stroke-width: 2"/>
    </g>
    <g id="text_22">
     <!-- Reseek2.1 (sensitive) -->
     <g transform="translate(276.318437 252.469938) scale(0.1 -0.1)">
      <use xlink:href="#DejaVuSans-52"/>
      <use xlink:href="#DejaVuSans-65" x="64.982422"/>
      <use xlink:href="#DejaVuSans-73" x="126.505859"/>
      <use xlink:href="#DejaVuSans-65" x="178.605469"/>
      <use xlink:href="#DejaVuSans-65" x="240.128906"/>
      <use xlink:href="#DejaVuSans-6b" x="301.652344"/>
      <use xlink:href="#DejaVuSans-32" x="359.5625"/>
      <use xlink:href="#DejaVuSans-2e" x="423.185547"/>
      <use xlink:href="#DejaVuSans-31" x="454.972656"/>
      <use xlink:href="#DejaVuSans-20" x="518.595703"/>
      <use xlink:href="#DejaVuSans-28" x="550.382812"/>
      <use xlink:href="#DejaVuSans-73" x="589.396484"/>
      <use xlink:href="#DejaVuSans-65" x="641.496094"/>
      <use xlink:href="#DejaVuSans-6e" x="703.019531"/>
      <use xlink:href="#DejaVuSans-73" x="766.398438"/>
      <use xlink:href="#DejaVuSans-69" x="818.498047"/>
      <use xlink:href="#DejaVuSans-74" x="846.28125"/>
      <use xlink:href="#DejaVuSans-69" x="885.490234"/>
      <use xlink:href="#DejaVuSans-76" x="913.273438"/>
      <use xlink:href="#DejaVuSans-65" x="972.453125"/>
      <use xlink:href="#DejaVuSans-29" x="1033.976562"/>
     </g>
    </g>
    <g id="line2d_54">
     <path d="M 248.318437 263.648063 
L 258.318437 263.648063 
L 268.318437 263.648063 
" style="fill: none; stroke-dasharray: 7.4,3.2; stroke-dashoffset: 0; stroke: #000000; stroke-width: 2"/>
    </g>
    <g id="text_23">
     <!-- Reseek (sensitive) -->
     <g transform="translate(276.318437 267.148063) scale(0.1 -0.1)">
      <use xlink:href="#DejaVuSans-52"/>
      <use xlink:href="#DejaVuSans-65" x="64.982422"/>
      <use xlink:href="#DejaVuSans-73" x="126.505859"/>
      <use xlink:href="#DejaVuSans-65" x="178.605469"/>
      <use xlink:href="#DejaVuSans-65" x="240.128906"/>
      <use xlink:href="#DejaVuSans-6b" x="301.652344"/>
      <use xlink:href="#DejaVuSans-20" x="359.5625"/>
      <use xlink:href="#DejaVuSans-28" x="391.349609"/>
      <use xlink:href="#DejaVuSans-73" x="430.363281"/>
      <use xlink:href="#DejaVuSans-65" x="482.462891"/>
      <use xlink:href="#DejaVuSans-6e" x="543.986328"/>
      <use xlink:href="#DejaVuSans-73" x="607.365234"/>
      <use xlink:href="#DejaVuSans-69" x="659.464844"/>
      <use xlink:href="#DejaVuSans-74" x="687.248047"/>
      <use xlink:href="#DejaVuSans-69" x="726.457031"/>
      <use xlink:href="#DejaVuSans-76" x="754.240234"/>
      <use xlink:href="#DejaVuSans-65" x="813.419922"/>
      <use xlink:href="#DejaVuSans-29" x="874.943359"/>
     </g>
    </g>
    <g id="line2d_55">
     <path d="M 248.318437 278.326188 
L 258.318437 278.326188 
L 268.318437 278.326188 
" style="fill: none; stroke: #d3d3d3; stroke-width: 2; stroke-linecap: square"/>
    </g>
    <g id="text_24">
     <!-- Reseek2.1 (verysensitive) -->
     <g transform="translate(276.318437 281.826188) scale(0.1 -0.1)">
      <use xlink:href="#DejaVuSans-52"/>
      <use xlink:href="#DejaVuSans-65" x="64.982422"/>
      <use xlink:href="#DejaVuSans-73" x="126.505859"/>
      <use xlink:href="#DejaVuSans-65" x="178.605469"/>
      <use xlink:href="#DejaVuSans-65" x="240.128906"/>
      <use xlink:href="#DejaVuSans-6b" x="301.652344"/>
      <use xlink:href="#DejaVuSans-32" x="359.5625"/>
      <use xlink:href="#DejaVuSans-2e" x="423.185547"/>
      <use xlink:href="#DejaVuSans-31" x="454.972656"/>
      <use xlink:href="#DejaVuSans-20" x="518.595703"/>
      <use xlink:href="#DejaVuSans-28" x="550.382812"/>
      <use xlink:href="#DejaVuSans-76" x="589.396484"/>
      <use xlink:href="#DejaVuSans-65" x="648.576172"/>
      <use xlink:href="#DejaVuSans-72" x="710.099609"/>
      <use xlink:href="#DejaVuSans-79" x="751.212891"/>
      <use xlink:href="#DejaVuSans-73" x="810.392578"/>
      <use xlink:href="#DejaVuSans-65" x="862.492188"/>
      <use xlink:href="#DejaVuSans-6e" x="924.015625"/>
      <use xlink:href="#DejaVuSans-73" x="987.394531"/>
      <use xlink:href="#DejaVuSans-69" x="1039.494141"/>
      <use xlink:href="#DejaVuSans-74" x="1067.277344"/>
      <use xlink:href="#DejaVuSans-69" x="1106.486328"/>
      <use xlink:href="#DejaVuSans-76" x="1134.269531"/>
      <use xlink:href="#DejaVuSans-65" x="1193.449219"/>
      <use xlink:href="#DejaVuSans-29" x="1254.972656"/>
     </g>
    </g>
    <g id="line2d_56">
     <path d="M 248.318437 293.004312 
L 258.318437 293.004312 
L 268.318437 293.004312 
" style="fill: none; stroke: #000000; stroke-width: 2; stroke-linecap: square"/>
    </g>
    <g id="text_25">
     <!-- Reseek (verysensitive) -->
     <g transform="translate(276.318437 296.504312) scale(0.1 -0.1)">
      <use xlink:href="#DejaVuSans-52"/>
      <use xlink:href="#DejaVuSans-65" x="64.982422"/>
      <use xlink:href="#DejaVuSans-73" x="126.505859"/>
      <use xlink:href="#DejaVuSans-65" x="178.605469"/>
      <use xlink:href="#DejaVuSans-65" x="240.128906"/>
      <use xlink:href="#DejaVuSans-6b" x="301.652344"/>
      <use xlink:href="#DejaVuSans-20" x="359.5625"/>
      <use xlink:href="#DejaVuSans-28" x="391.349609"/>
      <use xlink:href="#DejaVuSans-76" x="430.363281"/>
      <use xlink:href="#DejaVuSans-65" x="489.542969"/>
      <use xlink:href="#DejaVuSans-72" x="551.066406"/>
      <use xlink:href="#DejaVuSans-79" x="592.179688"/>
      <use xlink:href="#DejaVuSans-73" x="651.359375"/>
      <use xlink:href="#DejaVuSans-65" x="703.458984"/>
      <use xlink:href="#DejaVuSans-6e" x="764.982422"/>
      <use xlink:href="#DejaVuSans-73" x="828.361328"/>
      <use xlink:href="#DejaVuSans-69" x="880.460938"/>
      <use xlink:href="#DejaVuSans-74" x="908.244141"/>
      <use xlink:href="#DejaVuSans-69" x="947.453125"/>
      <use xlink:href="#DejaVuSans-76" x="975.236328"/>
      <use xlink:href="#DejaVuSans-65" x="1034.416016"/>
      <use xlink:href="#DejaVuSans-29" x="1095.939453"/>
     </g>
    </g>
   </g>
  </g>
 </g>
 <defs>
  <clipPath id="pc4a7043fe3">
   <rect x="57.6" y="41.472" width="357.12" height="266.112"/>
  </clipPath>
 </defs>
</svg>
