<?xml version="1.0" encoding="utf-8" standalone="no"?>
<!DOCTYPE svg PUBLIC "-//W3C//DTD SVG 1.1//EN"
  "http://www.w3.org/Graphics/SVG/1.1/DTD/svg11.dtd">
<svg xmlns:xlink="http://www.w3.org/1999/xlink" width="460.8pt" height="345.6pt" viewBox="0 0 460.8 345.6" xmlns="http://www.w3.org/2000/svg" version="1.1">
 <metadata>
  <rdf:RDF xmlns:dc="http://purl.org/dc/elements/1.1/" xmlns:cc="http://creativecommons.org/ns#" xmlns:rdf="http://www.w3.org/1999/02/22-rdf-syntax-ns#">
   <cc:Work>
    <dc:type rdf:resource="http://purl.org/dc/dcmitype/StillImage"/>
    <dc:date>2024-10-18T20:47:28.329622</dc:date>
    <dc:format>image/svg+xml</dc:format>
    <dc:creator>
     <cc:Agent>
      <dc:title>Matplotlib v3.9.2, https://matplotlib.org/</dc:title>
     </cc:Agent>
    </dc:creator>
   </cc:Work>
  </rdf:RDF>
 </metadata>
 <defs>
  <style type="text/css">*{stroke-linejoin: round; stroke-linecap: butt}</style>
 </defs>
 <g id="figure_1">
  <g id="patch_1">
   <path d="M 0 345.6 
L 460.8 345.6 
L 460.8 0 
L 0 0 
z
" style="fill: #ffffff"/>
  </g>
  <g id="axes_1">
   <g id="patch_2">
    <path d="M 57.6 307.584 
L 414.72 307.584 
L 414.72 41.472 
L 57.6 41.472 
z
" style="fill: #ffffff"/>
   </g>
   <g id="matplotlib.axis_1">
    <g id="xtick_1">
     <g id="line2d_1">
      <defs>
       <path id="mb363648296" d="M 0 0 
L 0 3.5 
" style="stroke: #000000; stroke-width: 0.8"/>
      </defs>
      <g>
       <use xlink:href="#mb363648296" x="70.553388" y="307.584" style="stroke: #000000; stroke-width: 0.8"/>
      </g>
     </g>
     <g id="text_1">
      <!-- 0.0 -->
      <g transform="translate(62.601826 322.182437) scale(0.1 -0.1)">
       <defs>
        <path id="DejaVuSans-30" d="M 2034 4250 
Q 1547 4250 1301 3770 
Q 1056 3291 1056 2328 
Q 1056 1369 1301 889 
Q 1547 409 2034 409 
Q 2525 409 2770 889 
Q 3016 1369 3016 2328 
Q 3016 3291 2770 3770 
Q 2525 4250 2034 4250 
z
M 2034 4750 
Q 2819 4750 3233 4129 
Q 3647 3509 3647 2328 
Q 3647 1150 3233 529 
Q 2819 -91 2034 -91 
Q 1250 -91 836 529 
Q 422 1150 422 2328 
Q 422 3509 836 4129 
Q 1250 4750 2034 4750 
z
" transform="scale(0.015625)"/>
        <path id="DejaVuSans-2e" d="M 684 794 
L 1344 794 
L 1344 0 
L 684 0 
L 684 794 
z
" transform="scale(0.015625)"/>
       </defs>
       <use xlink:href="#DejaVuSans-30"/>
       <use xlink:href="#DejaVuSans-2e" x="63.623047"/>
       <use xlink:href="#DejaVuSans-30" x="95.410156"/>
      </g>
     </g>
    </g>
    <g id="xtick_2">
     <g id="line2d_2">
      <g>
       <use xlink:href="#mb363648296" x="136.140165" y="307.584" style="stroke: #000000; stroke-width: 0.8"/>
      </g>
     </g>
     <g id="text_2">
      <!-- 0.2 -->
      <g transform="translate(128.188603 322.182437) scale(0.1 -0.1)">
       <defs>
        <path id="DejaVuSans-32" d="M 1228 531 
L 3431 531 
L 3431 0 
L 469 0 
L 469 531 
Q 828 903 1448 1529 
Q 2069 2156 2228 2338 
Q 2531 2678 2651 2914 
Q 2772 3150 2772 3378 
Q 2772 3750 2511 3984 
Q 2250 4219 1831 4219 
Q 1534 4219 1204 4116 
Q 875 4013 500 3803 
L 500 4441 
Q 881 4594 1212 4672 
Q 1544 4750 1819 4750 
Q 2544 4750 2975 4387 
Q 3406 4025 3406 3419 
Q 3406 3131 3298 2873 
Q 3191 2616 2906 2266 
Q 2828 2175 2409 1742 
Q 1991 1309 1228 531 
z
" transform="scale(0.015625)"/>
       </defs>
       <use xlink:href="#DejaVuSans-30"/>
       <use xlink:href="#DejaVuSans-2e" x="63.623047"/>
       <use xlink:href="#DejaVuSans-32" x="95.410156"/>
      </g>
     </g>
    </g>
    <g id="xtick_3">
     <g id="line2d_3">
      <g>
       <use xlink:href="#mb363648296" x="201.726942" y="307.584" style="stroke: #000000; stroke-width: 0.8"/>
      </g>
     </g>
     <g id="text_3">
      <!-- 0.4 -->
      <g transform="translate(193.77538 322.182437) scale(0.1 -0.1)">
       <defs>
        <path id="DejaVuSans-34" d="M 2419 4116 
L 825 1625 
L 2419 1625 
L 2419 4116 
z
M 2253 4666 
L 3047 4666 
L 3047 1625 
L 3713 1625 
L 3713 1100 
L 3047 1100 
L 3047 0 
L 2419 0 
L 2419 1100 
L 313 1100 
L 313 1709 
L 2253 4666 
z
" transform="scale(0.015625)"/>
       </defs>
       <use xlink:href="#DejaVuSans-30"/>
       <use xlink:href="#DejaVuSans-2e" x="63.623047"/>
       <use xlink:href="#DejaVuSans-34" x="95.410156"/>
      </g>
     </g>
    </g>
    <g id="xtick_4">
     <g id="line2d_4">
      <g>
       <use xlink:href="#mb363648296" x="267.313719" y="307.584" style="stroke: #000000; stroke-width: 0.8"/>
      </g>
     </g>
     <g id="text_4">
      <!-- 0.6 -->
      <g transform="translate(259.362157 322.182437) scale(0.1 -0.1)">
       <defs>
        <path id="DejaVuSans-36" d="M 2113 2584 
Q 1688 2584 1439 2293 
Q 1191 2003 1191 1497 
Q 1191 994 1439 701 
Q 1688 409 2113 409 
Q 2538 409 2786 701 
Q 3034 994 3034 1497 
Q 3034 2003 2786 2293 
Q 2538 2584 2113 2584 
z
M 3366 4563 
L 3366 3988 
Q 3128 4100 2886 4159 
Q 2644 4219 2406 4219 
Q 1781 4219 1451 3797 
Q 1122 3375 1075 2522 
Q 1259 2794 1537 2939 
Q 1816 3084 2150 3084 
Q 2853 3084 3261 2657 
Q 3669 2231 3669 1497 
Q 3669 778 3244 343 
Q 2819 -91 2113 -91 
Q 1303 -91 875 529 
Q 447 1150 447 2328 
Q 447 3434 972 4092 
Q 1497 4750 2381 4750 
Q 2619 4750 2861 4703 
Q 3103 4656 3366 4563 
z
" transform="scale(0.015625)"/>
       </defs>
       <use xlink:href="#DejaVuSans-30"/>
       <use xlink:href="#DejaVuSans-2e" x="63.623047"/>
       <use xlink:href="#DejaVuSans-36" x="95.410156"/>
      </g>
     </g>
    </g>
    <g id="xtick_5">
     <g id="line2d_5">
      <g>
       <use xlink:href="#mb363648296" x="332.900496" y="307.584" style="stroke: #000000; stroke-width: 0.8"/>
      </g>
     </g>
     <g id="text_5">
      <!-- 0.8 -->
      <g transform="translate(324.948933 322.182437) scale(0.1 -0.1)">
       <defs>
        <path id="DejaVuSans-38" d="M 2034 2216 
Q 1584 2216 1326 1975 
Q 1069 1734 1069 1313 
Q 1069 891 1326 650 
Q 1584 409 2034 409 
Q 2484 409 2743 651 
Q 3003 894 3003 1313 
Q 3003 1734 2745 1975 
Q 2488 2216 2034 2216 
z
M 1403 2484 
Q 997 2584 770 2862 
Q 544 3141 544 3541 
Q 544 4100 942 4425 
Q 1341 4750 2034 4750 
Q 2731 4750 3128 4425 
Q 3525 4100 3525 3541 
Q 3525 3141 3298 2862 
Q 3072 2584 2669 2484 
Q 3125 2378 3379 2068 
Q 3634 1759 3634 1313 
Q 3634 634 3220 271 
Q 2806 -91 2034 -91 
Q 1263 -91 848 271 
Q 434 634 434 1313 
Q 434 1759 690 2068 
Q 947 2378 1403 2484 
z
M 1172 3481 
Q 1172 3119 1398 2916 
Q 1625 2713 2034 2713 
Q 2441 2713 2670 2916 
Q 2900 3119 2900 3481 
Q 2900 3844 2670 4047 
Q 2441 4250 2034 4250 
Q 1625 4250 1398 4047 
Q 1172 3844 1172 3481 
z
" transform="scale(0.015625)"/>
       </defs>
       <use xlink:href="#DejaVuSans-30"/>
       <use xlink:href="#DejaVuSans-2e" x="63.623047"/>
       <use xlink:href="#DejaVuSans-38" x="95.410156"/>
      </g>
     </g>
    </g>
    <g id="xtick_6">
     <g id="line2d_6">
      <g>
       <use xlink:href="#mb363648296" x="398.487273" y="307.584" style="stroke: #000000; stroke-width: 0.8"/>
      </g>
     </g>
     <g id="text_6">
      <!-- 1.0 -->
      <g transform="translate(390.53571 322.182437) scale(0.1 -0.1)">
       <defs>
        <path id="DejaVuSans-31" d="M 794 531 
L 1825 531 
L 1825 4091 
L 703 3866 
L 703 4441 
L 1819 4666 
L 2450 4666 
L 2450 531 
L 3481 531 
L 3481 0 
L 794 0 
L 794 531 
z
" transform="scale(0.015625)"/>
       </defs>
       <use xlink:href="#DejaVuSans-31"/>
       <use xlink:href="#DejaVuSans-2e" x="63.623047"/>
       <use xlink:href="#DejaVuSans-30" x="95.410156"/>
      </g>
     </g>
    </g>
    <g id="text_7">
     <!-- Recall -->
     <g transform="translate(221.242812 335.860562) scale(0.1 -0.1)">
      <defs>
       <path id="DejaVuSans-52" d="M 2841 2188 
Q 3044 2119 3236 1894 
Q 3428 1669 3622 1275 
L 4263 0 
L 3584 0 
L 2988 1197 
Q 2756 1666 2539 1819 
Q 2322 1972 1947 1972 
L 1259 1972 
L 1259 0 
L 628 0 
L 628 4666 
L 2053 4666 
Q 2853 4666 3247 4331 
Q 3641 3997 3641 3322 
Q 3641 2881 3436 2590 
Q 3231 2300 2841 2188 
z
M 1259 4147 
L 1259 2491 
L 2053 2491 
Q 2509 2491 2742 2702 
Q 2975 2913 2975 3322 
Q 2975 3731 2742 3939 
Q 2509 4147 2053 4147 
L 1259 4147 
z
" transform="scale(0.015625)"/>
       <path id="DejaVuSans-65" d="M 3597 1894 
L 3597 1613 
L 953 1613 
Q 991 1019 1311 708 
Q 1631 397 2203 397 
Q 2534 397 2845 478 
Q 3156 559 3463 722 
L 3463 178 
Q 3153 47 2828 -22 
Q 2503 -91 2169 -91 
Q 1331 -91 842 396 
Q 353 884 353 1716 
Q 353 2575 817 3079 
Q 1281 3584 2069 3584 
Q 2775 3584 3186 3129 
Q 3597 2675 3597 1894 
z
M 3022 2063 
Q 3016 2534 2758 2815 
Q 2500 3097 2075 3097 
Q 1594 3097 1305 2825 
Q 1016 2553 972 2059 
L 3022 2063 
z
" transform="scale(0.015625)"/>
       <path id="DejaVuSans-63" d="M 3122 3366 
L 3122 2828 
Q 2878 2963 2633 3030 
Q 2388 3097 2138 3097 
Q 1578 3097 1268 2742 
Q 959 2388 959 1747 
Q 959 1106 1268 751 
Q 1578 397 2138 397 
Q 2388 397 2633 464 
Q 2878 531 3122 666 
L 3122 134 
Q 2881 22 2623 -34 
Q 2366 -91 2075 -91 
Q 1284 -91 818 406 
Q 353 903 353 1747 
Q 353 2603 823 3093 
Q 1294 3584 2113 3584 
Q 2378 3584 2631 3529 
Q 2884 3475 3122 3366 
z
" transform="scale(0.015625)"/>
       <path id="DejaVuSans-61" d="M 2194 1759 
Q 1497 1759 1228 1600 
Q 959 1441 959 1056 
Q 959 750 1161 570 
Q 1363 391 1709 391 
Q 2188 391 2477 730 
Q 2766 1069 2766 1631 
L 2766 1759 
L 2194 1759 
z
M 3341 1997 
L 3341 0 
L 2766 0 
L 2766 531 
Q 2569 213 2275 61 
Q 1981 -91 1556 -91 
Q 1019 -91 701 211 
Q 384 513 384 1019 
Q 384 1609 779 1909 
Q 1175 2209 1959 2209 
L 2766 2209 
L 2766 2266 
Q 2766 2663 2505 2880 
Q 2244 3097 1772 3097 
Q 1472 3097 1187 3025 
Q 903 2953 641 2809 
L 641 3341 
Q 956 3463 1253 3523 
Q 1550 3584 1831 3584 
Q 2591 3584 2966 3190 
Q 3341 2797 3341 1997 
z
" transform="scale(0.015625)"/>
       <path id="DejaVuSans-6c" d="M 603 4863 
L 1178 4863 
L 1178 0 
L 603 0 
L 603 4863 
z
" transform="scale(0.015625)"/>
      </defs>
      <use xlink:href="#DejaVuSans-52"/>
      <use xlink:href="#DejaVuSans-65" x="64.982422"/>
      <use xlink:href="#DejaVuSans-63" x="126.505859"/>
      <use xlink:href="#DejaVuSans-61" x="181.486328"/>
      <use xlink:href="#DejaVuSans-6c" x="242.765625"/>
      <use xlink:href="#DejaVuSans-6c" x="270.548828"/>
     </g>
    </g>
   </g>
   <g id="matplotlib.axis_2">
    <g id="ytick_1">
     <g id="line2d_7">
      <defs>
       <path id="m95211ad350" d="M 0 0 
L -3.5 0 
" style="stroke: #000000; stroke-width: 0.8"/>
      </defs>
      <g>
       <use xlink:href="#m95211ad350" x="57.6" y="296.366688" style="stroke: #000000; stroke-width: 0.8"/>
      </g>
     </g>
     <g id="text_8">
      <!-- 0.0 -->
      <g transform="translate(34.696875 300.165907) scale(0.1 -0.1)">
       <use xlink:href="#DejaVuSans-30"/>
       <use xlink:href="#DejaVuSans-2e" x="63.623047"/>
       <use xlink:href="#DejaVuSans-30" x="95.410156"/>
      </g>
     </g>
    </g>
    <g id="ytick_2">
     <g id="line2d_8">
      <g>
       <use xlink:href="#m95211ad350" x="57.6" y="247.806951" style="stroke: #000000; stroke-width: 0.8"/>
      </g>
     </g>
     <g id="text_9">
      <!-- 0.2 -->
      <g transform="translate(34.696875 251.60617) scale(0.1 -0.1)">
       <use xlink:href="#DejaVuSans-30"/>
       <use xlink:href="#DejaVuSans-2e" x="63.623047"/>
       <use xlink:href="#DejaVuSans-32" x="95.410156"/>
      </g>
     </g>
    </g>
    <g id="ytick_3">
     <g id="line2d_9">
      <g>
       <use xlink:href="#m95211ad350" x="57.6" y="199.247213" style="stroke: #000000; stroke-width: 0.8"/>
      </g>
     </g>
     <g id="text_10">
      <!-- 0.4 -->
      <g transform="translate(34.696875 203.046432) scale(0.1 -0.1)">
       <use xlink:href="#DejaVuSans-30"/>
       <use xlink:href="#DejaVuSans-2e" x="63.623047"/>
       <use xlink:href="#DejaVuSans-34" x="95.410156"/>
      </g>
     </g>
    </g>
    <g id="ytick_4">
     <g id="line2d_10">
      <g>
       <use xlink:href="#m95211ad350" x="57.6" y="150.687475" style="stroke: #000000; stroke-width: 0.8"/>
      </g>
     </g>
     <g id="text_11">
      <!-- 0.6 -->
      <g transform="translate(34.696875 154.486694) scale(0.1 -0.1)">
       <use xlink:href="#DejaVuSans-30"/>
       <use xlink:href="#DejaVuSans-2e" x="63.623047"/>
       <use xlink:href="#DejaVuSans-36" x="95.410156"/>
      </g>
     </g>
    </g>
    <g id="ytick_5">
     <g id="line2d_11">
      <g>
       <use xlink:href="#m95211ad350" x="57.6" y="102.127738" style="stroke: #000000; stroke-width: 0.8"/>
      </g>
     </g>
     <g id="text_12">
      <!-- 0.8 -->
      <g transform="translate(34.696875 105.926956) scale(0.1 -0.1)">
       <use xlink:href="#DejaVuSans-30"/>
       <use xlink:href="#DejaVuSans-2e" x="63.623047"/>
       <use xlink:href="#DejaVuSans-38" x="95.410156"/>
      </g>
     </g>
    </g>
    <g id="ytick_6">
     <g id="line2d_12">
      <g>
       <use xlink:href="#m95211ad350" x="57.6" y="53.568" style="stroke: #000000; stroke-width: 0.8"/>
      </g>
     </g>
     <g id="text_13">
      <!-- 1.0 -->
      <g transform="translate(34.696875 57.367219) scale(0.1 -0.1)">
       <use xlink:href="#DejaVuSans-31"/>
       <use xlink:href="#DejaVuSans-2e" x="63.623047"/>
       <use xlink:href="#DejaVuSans-30" x="95.410156"/>
      </g>
     </g>
    </g>
    <g id="text_14">
     <!-- Precision -->
     <g transform="translate(28.617187 196.835031) rotate(-90) scale(0.1 -0.1)">
      <defs>
       <path id="DejaVuSans-50" d="M 1259 4147 
L 1259 2394 
L 2053 2394 
Q 2494 2394 2734 2622 
Q 2975 2850 2975 3272 
Q 2975 3691 2734 3919 
Q 2494 4147 2053 4147 
L 1259 4147 
z
M 628 4666 
L 2053 4666 
Q 2838 4666 3239 4311 
Q 3641 3956 3641 3272 
Q 3641 2581 3239 2228 
Q 2838 1875 2053 1875 
L 1259 1875 
L 1259 0 
L 628 0 
L 628 4666 
z
" transform="scale(0.015625)"/>
       <path id="DejaVuSans-72" d="M 2631 2963 
Q 2534 3019 2420 3045 
Q 2306 3072 2169 3072 
Q 1681 3072 1420 2755 
Q 1159 2438 1159 1844 
L 1159 0 
L 581 0 
L 581 3500 
L 1159 3500 
L 1159 2956 
Q 1341 3275 1631 3429 
Q 1922 3584 2338 3584 
Q 2397 3584 2469 3576 
Q 2541 3569 2628 3553 
L 2631 2963 
z
" transform="scale(0.015625)"/>
       <path id="DejaVuSans-69" d="M 603 3500 
L 1178 3500 
L 1178 0 
L 603 0 
L 603 3500 
z
M 603 4863 
L 1178 4863 
L 1178 4134 
L 603 4134 
L 603 4863 
z
" transform="scale(0.015625)"/>
       <path id="DejaVuSans-73" d="M 2834 3397 
L 2834 2853 
Q 2591 2978 2328 3040 
Q 2066 3103 1784 3103 
Q 1356 3103 1142 2972 
Q 928 2841 928 2578 
Q 928 2378 1081 2264 
Q 1234 2150 1697 2047 
L 1894 2003 
Q 2506 1872 2764 1633 
Q 3022 1394 3022 966 
Q 3022 478 2636 193 
Q 2250 -91 1575 -91 
Q 1294 -91 989 -36 
Q 684 19 347 128 
L 347 722 
Q 666 556 975 473 
Q 1284 391 1588 391 
Q 1994 391 2212 530 
Q 2431 669 2431 922 
Q 2431 1156 2273 1281 
Q 2116 1406 1581 1522 
L 1381 1569 
Q 847 1681 609 1914 
Q 372 2147 372 2553 
Q 372 3047 722 3315 
Q 1072 3584 1716 3584 
Q 2034 3584 2315 3537 
Q 2597 3491 2834 3397 
z
" transform="scale(0.015625)"/>
       <path id="DejaVuSans-6f" d="M 1959 3097 
Q 1497 3097 1228 2736 
Q 959 2375 959 1747 
Q 959 1119 1226 758 
Q 1494 397 1959 397 
Q 2419 397 2687 759 
Q 2956 1122 2956 1747 
Q 2956 2369 2687 2733 
Q 2419 3097 1959 3097 
z
M 1959 3584 
Q 2709 3584 3137 3096 
Q 3566 2609 3566 1747 
Q 3566 888 3137 398 
Q 2709 -91 1959 -91 
Q 1206 -91 779 398 
Q 353 888 353 1747 
Q 353 2609 779 3096 
Q 1206 3584 1959 3584 
z
" transform="scale(0.015625)"/>
       <path id="DejaVuSans-6e" d="M 3513 2113 
L 3513 0 
L 2938 0 
L 2938 2094 
Q 2938 2591 2744 2837 
Q 2550 3084 2163 3084 
Q 1697 3084 1428 2787 
Q 1159 2491 1159 1978 
L 1159 0 
L 581 0 
L 581 3500 
L 1159 3500 
L 1159 2956 
Q 1366 3272 1645 3428 
Q 1925 3584 2291 3584 
Q 2894 3584 3203 3211 
Q 3513 2838 3513 2113 
z
" transform="scale(0.015625)"/>
      </defs>
      <use xlink:href="#DejaVuSans-50"/>
      <use xlink:href="#DejaVuSans-72" x="58.552734"/>
      <use xlink:href="#DejaVuSans-65" x="97.416016"/>
      <use xlink:href="#DejaVuSans-63" x="158.939453"/>
      <use xlink:href="#DejaVuSans-69" x="213.919922"/>
      <use xlink:href="#DejaVuSans-73" x="241.703125"/>
      <use xlink:href="#DejaVuSans-69" x="293.802734"/>
      <use xlink:href="#DejaVuSans-6f" x="321.585938"/>
      <use xlink:href="#DejaVuSans-6e" x="382.767578"/>
     </g>
    </g>
   </g>
   <g id="line2d_13">
    <path d="M 73.832727 53.568 
L 77.112066 53.568 
L 80.391405 53.568 
L 83.670744 53.59228 
L 86.950083 53.64084 
L 90.229421 53.713679 
L 93.50876 53.762239 
L 96.788099 53.786519 
L 100.067438 53.835079 
L 103.346777 53.932198 
L 106.626116 54.029318 
L 109.905455 54.150717 
L 113.184793 54.247836 
L 116.464132 54.369236 
L 119.743471 54.490635 
L 123.02281 54.733434 
L 126.302149 54.976232 
L 129.581488 55.219031 
L 132.860826 55.534669 
L 136.140165 55.728908 
L 139.419504 56.044547 
L 142.698843 56.360185 
L 145.978182 56.700103 
L 149.257521 57.161421 
L 152.53686 57.816977 
L 155.816198 58.326854 
L 159.095537 59.12809 
L 162.374876 60.002165 
L 165.654215 60.99764 
L 168.933554 62.065954 
L 172.212893 63.328507 
L 175.492231 64.833859 
L 178.77157 66.314931 
L 182.050909 68.087362 
L 185.330248 69.811232 
L 188.609587 72.11782 
L 191.888926 74.424407 
L 195.168264 76.876674 
L 198.447603 79.717419 
L 201.726942 82.922361 
L 205.006281 86.418663 
L 208.28562 90.279162 
L 211.564959 94.066821 
L 214.844298 98.121559 
L 218.123636 102.637615 
L 221.402975 107.469309 
L 224.682314 112.713761 
L 227.961653 118.225291 
L 231.240992 123.90678 
L 234.520331 129.831068 
L 237.799669 135.901035 
L 241.079008 142.043842 
L 244.358347 148.478007 
L 247.637686 154.863613 
L 250.917025 161.224938 
L 254.196364 168.071861 
L 257.475702 174.821665 
L 260.755041 181.25583 
L 264.03438 187.835675 
L 267.313719 194.391239 
L 270.593058 200.825405 
L 273.872397 207.065331 
L 277.151736 213.086738 
L 280.431074 219.278105 
L 283.710413 225.153833 
L 286.989752 230.981002 
L 290.269091 236.274013 
L 293.54843 241.397065 
L 296.827769 246.374439 
L 300.107107 251.036173 
L 303.386446 255.479389 
L 306.665785 259.339888 
L 309.945124 263.006149 
L 313.224463 266.45389 
L 316.503802 269.440314 
L 319.78314 272.149947 
L 323.062479 274.64349 
L 326.341818 276.954933 
L 329.621157 279.026006 
L 332.900496 280.771729 
L 336.179835 282.340208 
L 339.459174 283.826136 
L 342.738512 285.137249 
L 346.017851 286.256551 
L 349.29719 287.307869 
L 352.576529 288.232932 
L 355.855868 289.048736 
L 359.135207 289.80384 
L 362.414545 290.473964 
L 365.693884 291.102813 
L 368.973223 291.66125 
L 372.252562 292.151703 
L 375.531901 292.610593 
L 378.81124 293.045202 
L 382.090579 293.440964 
L 385.369917 293.800306 
L 388.649256 294.142652 
L 391.928595 294.549097 
L 394.092959 294.927621 
" clip-path="url(#p01d5ead225)" style="fill: none; stroke-dasharray: 7.4,3.2; stroke-dashoffset: 0; stroke: #808080; stroke-width: 2"/>
   </g>
   <g id="line2d_14">
    <path d="M 73.832727 53.568 
L 77.112066 53.568 
L 80.391405 53.568 
L 83.670744 53.568 
L 86.950083 53.568 
L 90.229421 53.59228 
L 93.50876 53.665119 
L 96.788099 53.689399 
L 100.067438 53.737959 
L 103.346777 53.835079 
L 106.626116 53.932198 
L 109.905455 54.029318 
L 113.184793 54.126437 
L 116.464132 54.247836 
L 119.743471 54.369236 
L 123.02281 54.563475 
L 126.302149 54.806273 
L 129.581488 55.073352 
L 132.860826 55.34043 
L 136.140165 55.51039 
L 139.419504 55.826028 
L 142.698843 56.141666 
L 145.978182 56.505864 
L 149.257521 57.040021 
L 152.53686 57.598458 
L 155.816198 58.229735 
L 159.095537 59.006691 
L 162.374876 59.977885 
L 165.654215 61.094759 
L 168.933554 62.381592 
L 172.212893 63.814105 
L 175.492231 65.368016 
L 178.77157 67.213286 
L 182.050909 69.349915 
L 185.330248 71.656502 
L 188.609587 74.205889 
L 191.888926 77.192312 
L 195.168264 80.688614 
L 198.447603 84.500553 
L 201.726942 88.409612 
L 205.006281 92.925667 
L 208.28562 97.660242 
L 211.564959 103.60881 
L 214.844298 109.848736 
L 218.123636 116.695659 
L 221.402975 124.0039 
L 224.682314 131.822017 
L 227.961653 139.955773 
L 231.240992 149.036444 
L 232.29038 152.022868 
" clip-path="url(#p01d5ead225)" style="fill: none; stroke: #000000; stroke-width: 2; stroke-linecap: square"/>
   </g>
   <g id="line2d_15">
    <path d="M 73.832727 53.568 
L 77.112066 53.568 
L 80.391405 53.568 
L 83.670744 53.568 
L 86.950083 53.568 
L 90.229421 53.59228 
L 93.50876 53.665119 
L 96.788099 53.689399 
L 100.067438 53.737959 
L 103.346777 53.835079 
L 106.626116 53.932198 
L 109.905455 54.029318 
L 113.184793 54.150717 
L 116.464132 54.272116 
L 119.743471 54.417795 
L 123.02281 54.660594 
L 126.302149 54.879113 
L 129.581488 55.170471 
L 132.860826 55.36471 
L 136.140165 55.631789 
L 139.419504 55.947427 
L 142.698843 56.311625 
L 145.978182 56.845782 
L 149.257521 57.452779 
L 152.53686 58.181175 
L 155.816198 59.225209 
L 159.095537 60.439203 
L 162.374876 61.920275 
L 165.654215 63.595586 
L 168.933554 65.635095 
L 172.212893 68.233041 
L 175.492231 71.316584 
L 178.77157 75.662681 
L 182.050909 80.372975 
L 185.330248 85.884505 
L 188.609587 93.484104 
L 191.888926 102.904693 
L 195.168264 114.316232 
L 197.660562 125.266453 
" clip-path="url(#p01d5ead225)" style="fill: none; stroke-dasharray: 3,4.95; stroke-dashoffset: 0; stroke: #000000; stroke-width: 3"/>
   </g>
   <g id="line2d_16">
    <path d="M 73.832727 53.568 
L 77.112066 53.665119 
L 80.391405 53.737959 
L 83.670744 54.053597 
L 86.950083 54.563475 
L 90.229421 55.097632 
L 93.50876 55.534669 
L 96.788099 55.995987 
L 100.067438 56.772943 
L 103.346777 57.35566 
L 106.626116 58.229735 
L 109.905455 59.03097 
L 113.184793 59.710807 
L 116.464132 60.682002 
L 119.743471 61.798876 
L 123.02281 62.91575 
L 126.302149 64.105463 
L 129.581488 65.343736 
L 132.860826 66.824808 
L 136.140165 68.42728 
L 139.419504 70.345389 
L 142.698843 72.214939 
L 145.978182 74.545807 
L 149.257521 77.143753 
L 152.53686 79.863098 
L 155.816198 82.946641 
L 159.095537 86.078744 
L 162.374876 89.138008 
L 165.654215 92.270111 
L 168.933554 95.960651 
L 172.212893 99.602631 
L 175.492231 103.778769 
L 178.77157 107.736387 
L 182.050909 112.009644 
L 185.330248 116.064382 
L 188.609587 120.531878 
L 191.888926 124.562337 
L 195.168264 128.617075 
L 198.447603 132.550413 
L 201.726942 136.483752 
L 205.006281 140.465651 
L 208.28562 144.374709 
L 211.564959 148.113809 
L 214.844298 151.804349 
L 218.123636 155.47061 
L 221.402975 158.942631 
L 224.682314 162.414652 
L 227.961653 165.643875 
L 231.240992 168.824537 
L 234.520331 171.786681 
L 237.799669 174.651706 
L 241.079008 177.61385 
L 244.358347 180.624554 
L 247.637686 183.392459 
L 250.917025 186.136084 
L 254.196364 188.976829 
L 257.475702 191.793293 
L 260.755041 194.634038 
L 264.03438 197.256264 
L 267.313719 200.072729 
L 270.593058 202.719234 
L 273.872397 205.584259 
L 277.151736 208.376444 
L 280.431074 211.071509 
L 283.710413 213.815134 
L 286.989752 216.631599 
L 290.269091 219.496624 
L 293.54843 222.313088 
L 296.827769 225.226673 
L 300.107107 228.091697 
L 303.386446 230.859602 
L 306.665785 233.676067 
L 309.945124 236.516812 
L 313.224463 239.308997 
L 316.503802 242.125461 
L 319.78314 245.014766 
L 323.062479 247.709831 
L 326.341818 250.696255 
L 329.621157 253.56128 
L 332.900496 256.571983 
L 336.179835 259.388448 
L 339.459174 262.229193 
L 342.738512 265.118497 
L 346.017851 267.862122 
L 349.29719 270.557188 
L 352.576529 273.230401 
L 355.855868 275.835631 
L 359.135207 278.438433 
L 362.414545 280.849424 
L 365.693884 283.207 
L 368.973223 285.324204 
L 372.252562 287.19861 
L 375.531901 288.869065 
L 378.81124 290.321001 
L 382.090579 291.617546 
L 385.369917 292.756272 
L 388.649256 293.720183 
L 391.928595 294.477957 
L 395.207934 295.032267 
L 398.487273 295.488 
" clip-path="url(#p01d5ead225)" style="fill: none; stroke: #ff00ff; stroke-width: 2; stroke-linecap: square"/>
   </g>
   <g id="line2d_17">
    <path d="M 73.832727 53.568 
L 77.112066 53.59228 
L 80.391405 53.737959 
L 83.670744 53.932198 
L 86.950083 54.272116 
L 90.229421 54.781993 
L 93.50876 55.583229 
L 96.788099 56.505864 
L 100.067438 57.501339 
L 103.346777 58.618213 
L 106.626116 59.735087 
L 109.905455 60.90052 
L 113.184793 62.211633 
L 116.464132 63.522746 
L 119.743471 64.906699 
L 123.02281 66.53345 
L 126.302149 68.014522 
L 129.581488 69.641273 
L 132.860826 71.437983 
L 136.140165 73.161854 
L 139.419504 75.055684 
L 142.698843 76.973794 
L 145.978182 78.916183 
L 149.257521 81.198491 
L 152.53686 83.553638 
L 155.816198 86.103024 
L 159.095537 88.628131 
L 162.374876 91.371756 
L 165.654215 94.479579 
L 168.933554 97.781641 
L 172.212893 101.205103 
L 175.492231 104.847083 
L 178.77157 108.683302 
L 182.050909 112.665201 
L 185.330248 116.938458 
L 188.609587 121.163155 
L 191.888926 125.72777 
L 195.168264 130.438065 
L 198.447603 135.245479 
L 201.726942 140.077173 
L 205.006281 145.443024 
L 208.28562 150.736035 
L 211.564959 156.004767 
L 214.844298 161.127819 
L 218.123636 166.44511 
L 221.402975 171.641002 
L 224.682314 176.861174 
L 227.961653 181.814267 
L 231.240992 186.81592 
L 234.520331 191.841853 
L 237.799669 196.624987 
L 241.079008 201.213882 
L 244.358347 205.802778 
L 247.637686 210.124594 
L 250.917025 214.470691 
L 254.196364 218.598269 
L 257.475702 222.604447 
L 260.755041 226.416386 
L 264.03438 230.155486 
L 267.313719 233.846026 
L 270.593058 237.245208 
L 273.872397 240.401591 
L 277.151736 243.533694 
L 280.431074 246.544398 
L 283.710413 249.482262 
L 286.989752 252.250167 
L 290.269091 254.945232 
L 293.54843 257.446059 
L 296.827769 259.971165 
L 300.107107 262.350592 
L 303.386446 264.56006 
L 306.665785 266.720969 
L 309.945124 268.736198 
L 313.224463 270.751427 
L 316.503802 272.647685 
L 319.78314 274.502667 
L 323.062479 276.219253 
L 326.341818 277.836293 
L 329.621157 279.450904 
L 332.900496 280.997531 
L 336.179835 282.481031 
L 339.459174 283.928112 
L 342.738512 285.29264 
L 346.017851 286.594041 
L 349.29719 287.854166 
L 352.576529 289.04388 
L 355.855868 290.170466 
L 359.135207 291.168369 
L 362.414545 292.132279 
L 365.693884 293.025779 
L 368.973223 293.78331 
L 372.252562 294.380595 
L 374.679273 294.611982 
" clip-path="url(#p01d5ead225)" style="fill: none; stroke-dasharray: 3,4.95; stroke-dashoffset: 0; stroke: #ffa500; stroke-width: 3"/>
   </g>
   <g id="line2d_18">
    <path d="M 73.832727 54.320676 
L 77.112066 54.903393 
L 80.391405 55.947427 
L 83.670744 56.821502 
L 86.950083 57.744137 
L 90.229421 58.982411 
L 93.50876 60.657722 
L 96.788099 62.041674 
L 100.067438 63.401347 
L 103.346777 65.003818 
L 106.626116 66.679129 
L 109.905455 68.645799 
L 113.184793 71.413704 
L 116.464132 74.400127 
L 119.743471 77.143753 
L 123.02281 79.960217 
L 126.302149 83.068041 
L 129.581488 85.981625 
L 132.860826 89.210847 
L 136.140165 92.46435 
L 139.419504 95.669293 
L 142.698843 98.777116 
L 145.978182 101.884939 
L 149.257521 104.968482 
L 152.53686 107.930626 
L 155.816198 110.358613 
L 159.095537 112.81088 
L 162.374876 115.166027 
L 165.654215 117.351215 
L 168.933554 119.415004 
L 172.212893 121.163155 
L 175.492231 122.959865 
L 178.77157 124.489497 
L 182.050909 126.091968 
L 185.330248 127.475921 
L 188.609587 129.078392 
L 191.888926 130.316665 
L 195.168264 131.773458 
L 198.447603 133.351649 
L 201.726942 134.881281 
L 205.006281 136.556592 
L 208.28562 137.989104 
L 211.564959 139.858654 
L 214.844298 141.946723 
L 218.123636 144.034791 
L 221.402975 146.17142 
L 224.682314 148.332328 
L 227.961653 150.978834 
L 231.240992 153.45538 
L 234.520331 156.029047 
L 237.799669 158.578433 
L 241.079008 161.540577 
L 244.358347 164.59984 
L 247.637686 167.731943 
L 250.917025 171.325364 
L 254.196364 174.578866 
L 257.475702 178.002328 
L 260.755041 181.498629 
L 264.03438 185.213449 
L 267.313719 188.806869 
L 270.593058 192.44885 
L 273.872397 196.04227 
L 277.151736 200.072729 
L 280.431074 203.884668 
L 283.710413 207.696607 
L 286.989752 211.387147 
L 290.269091 215.247647 
L 293.54843 218.841067 
L 296.827769 222.628727 
L 300.107107 226.513506 
L 303.386446 230.106926 
L 306.665785 233.651787 
L 309.945124 237.075249 
L 313.224463 240.47443 
L 316.503802 243.800772 
L 319.78314 246.932875 
L 323.062479 250.186378 
L 326.341818 253.075682 
L 329.621157 255.916427 
L 332.900496 258.611492 
L 336.179835 261.306558 
L 339.459174 264.050183 
L 342.738512 266.47817 
L 346.017851 269.027556 
L 349.29719 271.552662 
L 352.576529 273.844682 
L 355.2 275.872051 
" clip-path="url(#p01d5ead225)" style="fill: none; stroke: #87ceeb; stroke-width: 2; stroke-linecap: square"/>
   </g>
   <g id="patch_3">
    <path d="M 57.6 307.584 
L 57.6 41.472 
" style="fill: none; stroke: #000000; stroke-width: 0.8; stroke-linejoin: miter; stroke-linecap: square"/>
   </g>
   <g id="patch_4">
    <path d="M 414.72 307.584 
L 414.72 41.472 
" style="fill: none; stroke: #000000; stroke-width: 0.8; stroke-linejoin: miter; stroke-linecap: square"/>
   </g>
   <g id="patch_5">
    <path d="M 57.6 307.584 
L 414.72 307.584 
" style="fill: none; stroke: #000000; stroke-width: 0.8; stroke-linejoin: miter; stroke-linecap: square"/>
   </g>
   <g id="patch_6">
    <path d="M 57.6 41.472 
L 414.72 41.472 
" style="fill: none; stroke: #000000; stroke-width: 0.8; stroke-linejoin: miter; stroke-linecap: square"/>
   </g>
   <g id="legend_1">
    <g id="patch_7">
     <path d="M 262.221563 137.54075 
L 407.72 137.54075 
Q 409.72 137.54075 409.72 135.54075 
L 409.72 48.472 
Q 409.72 46.472 407.72 46.472 
L 262.221563 46.472 
Q 260.221563 46.472 260.221563 48.472 
L 260.221563 135.54075 
Q 260.221563 137.54075 262.221563 137.54075 
z
" style="fill: #ffffff; opacity: 0.8; stroke: #cccccc; stroke-linejoin: miter"/>
    </g>
    <g id="line2d_19">
     <path d="M 264.221563 54.570438 
L 274.221563 54.570438 
L 284.221563 54.570438 
" style="fill: none; stroke-dasharray: 7.4,3.2; stroke-dashoffset: 0; stroke: #808080; stroke-width: 2"/>
    </g>
    <g id="text_15">
     <!-- Reseek (verysensitive) -->
     <g transform="translate(292.221563 58.070438) scale(0.1 -0.1)">
      <defs>
       <path id="DejaVuSans-6b" d="M 581 4863 
L 1159 4863 
L 1159 1991 
L 2875 3500 
L 3609 3500 
L 1753 1863 
L 3688 0 
L 2938 0 
L 1159 1709 
L 1159 0 
L 581 0 
L 581 4863 
z
" transform="scale(0.015625)"/>
       <path id="DejaVuSans-20" transform="scale(0.015625)"/>
       <path id="DejaVuSans-28" d="M 1984 4856 
Q 1566 4138 1362 3434 
Q 1159 2731 1159 2009 
Q 1159 1288 1364 580 
Q 1569 -128 1984 -844 
L 1484 -844 
Q 1016 -109 783 600 
Q 550 1309 550 2009 
Q 550 2706 781 3412 
Q 1013 4119 1484 4856 
L 1984 4856 
z
" transform="scale(0.015625)"/>
       <path id="DejaVuSans-76" d="M 191 3500 
L 800 3500 
L 1894 563 
L 2988 3500 
L 3597 3500 
L 2284 0 
L 1503 0 
L 191 3500 
z
" transform="scale(0.015625)"/>
       <path id="DejaVuSans-79" d="M 2059 -325 
Q 1816 -950 1584 -1140 
Q 1353 -1331 966 -1331 
L 506 -1331 
L 506 -850 
L 844 -850 
Q 1081 -850 1212 -737 
Q 1344 -625 1503 -206 
L 1606 56 
L 191 3500 
L 800 3500 
L 1894 763 
L 2988 3500 
L 3597 3500 
L 2059 -325 
z
" transform="scale(0.015625)"/>
       <path id="DejaVuSans-74" d="M 1172 4494 
L 1172 3500 
L 2356 3500 
L 2356 3053 
L 1172 3053 
L 1172 1153 
Q 1172 725 1289 603 
Q 1406 481 1766 481 
L 2356 481 
L 2356 0 
L 1766 0 
Q 1100 0 847 248 
Q 594 497 594 1153 
L 594 3053 
L 172 3053 
L 172 3500 
L 594 3500 
L 594 4494 
L 1172 4494 
z
" transform="scale(0.015625)"/>
       <path id="DejaVuSans-29" d="M 513 4856 
L 1013 4856 
Q 1481 4119 1714 3412 
Q 1947 2706 1947 2009 
Q 1947 1309 1714 600 
Q 1481 -109 1013 -844 
L 513 -844 
Q 928 -128 1133 580 
Q 1338 1288 1338 2009 
Q 1338 2731 1133 3434 
Q 928 4138 513 4856 
z
" transform="scale(0.015625)"/>
      </defs>
      <use xlink:href="#DejaVuSans-52"/>
      <use xlink:href="#DejaVuSans-65" x="64.982422"/>
      <use xlink:href="#DejaVuSans-73" x="126.505859"/>
      <use xlink:href="#DejaVuSans-65" x="178.605469"/>
      <use xlink:href="#DejaVuSans-65" x="240.128906"/>
      <use xlink:href="#DejaVuSans-6b" x="301.652344"/>
      <use xlink:href="#DejaVuSans-20" x="359.5625"/>
      <use xlink:href="#DejaVuSans-28" x="391.349609"/>
      <use xlink:href="#DejaVuSans-76" x="430.363281"/>
      <use xlink:href="#DejaVuSans-65" x="489.542969"/>
      <use xlink:href="#DejaVuSans-72" x="551.066406"/>
      <use xlink:href="#DejaVuSans-79" x="592.179688"/>
      <use xlink:href="#DejaVuSans-73" x="651.359375"/>
      <use xlink:href="#DejaVuSans-65" x="703.458984"/>
      <use xlink:href="#DejaVuSans-6e" x="764.982422"/>
      <use xlink:href="#DejaVuSans-73" x="828.361328"/>
      <use xlink:href="#DejaVuSans-69" x="880.460938"/>
      <use xlink:href="#DejaVuSans-74" x="908.244141"/>
      <use xlink:href="#DejaVuSans-69" x="947.453125"/>
      <use xlink:href="#DejaVuSans-76" x="975.236328"/>
      <use xlink:href="#DejaVuSans-65" x="1034.416016"/>
      <use xlink:href="#DejaVuSans-29" x="1095.939453"/>
     </g>
    </g>
    <g id="line2d_20">
     <path d="M 264.221563 69.248563 
L 274.221563 69.248563 
L 284.221563 69.248563 
" style="fill: none; stroke: #000000; stroke-width: 2; stroke-linecap: square"/>
    </g>
    <g id="text_16">
     <!-- Reseek (sensitive) -->
     <g transform="translate(292.221563 72.748563) scale(0.1 -0.1)">
      <use xlink:href="#DejaVuSans-52"/>
      <use xlink:href="#DejaVuSans-65" x="64.982422"/>
      <use xlink:href="#DejaVuSans-73" x="126.505859"/>
      <use xlink:href="#DejaVuSans-65" x="178.605469"/>
      <use xlink:href="#DejaVuSans-65" x="240.128906"/>
      <use xlink:href="#DejaVuSans-6b" x="301.652344"/>
      <use xlink:href="#DejaVuSans-20" x="359.5625"/>
      <use xlink:href="#DejaVuSans-28" x="391.349609"/>
      <use xlink:href="#DejaVuSans-73" x="430.363281"/>
      <use xlink:href="#DejaVuSans-65" x="482.462891"/>
      <use xlink:href="#DejaVuSans-6e" x="543.986328"/>
      <use xlink:href="#DejaVuSans-73" x="607.365234"/>
      <use xlink:href="#DejaVuSans-69" x="659.464844"/>
      <use xlink:href="#DejaVuSans-74" x="687.248047"/>
      <use xlink:href="#DejaVuSans-69" x="726.457031"/>
      <use xlink:href="#DejaVuSans-76" x="754.240234"/>
      <use xlink:href="#DejaVuSans-65" x="813.419922"/>
      <use xlink:href="#DejaVuSans-29" x="874.943359"/>
     </g>
    </g>
    <g id="line2d_21">
     <path d="M 264.221563 83.926688 
L 274.221563 83.926688 
L 284.221563 83.926688 
" style="fill: none; stroke-dasharray: 3,4.95; stroke-dashoffset: 0; stroke: #000000; stroke-width: 3"/>
    </g>
    <g id="text_17">
     <!-- Reseek (fast) -->
     <g transform="translate(292.221563 87.426688) scale(0.1 -0.1)">
      <defs>
       <path id="DejaVuSans-66" d="M 2375 4863 
L 2375 4384 
L 1825 4384 
Q 1516 4384 1395 4259 
Q 1275 4134 1275 3809 
L 1275 3500 
L 2222 3500 
L 2222 3053 
L 1275 3053 
L 1275 0 
L 697 0 
L 697 3053 
L 147 3053 
L 147 3500 
L 697 3500 
L 697 3744 
Q 697 4328 969 4595 
Q 1241 4863 1831 4863 
L 2375 4863 
z
" transform="scale(0.015625)"/>
      </defs>
      <use xlink:href="#DejaVuSans-52"/>
      <use xlink:href="#DejaVuSans-65" x="64.982422"/>
      <use xlink:href="#DejaVuSans-73" x="126.505859"/>
      <use xlink:href="#DejaVuSans-65" x="178.605469"/>
      <use xlink:href="#DejaVuSans-65" x="240.128906"/>
      <use xlink:href="#DejaVuSans-6b" x="301.652344"/>
      <use xlink:href="#DejaVuSans-20" x="359.5625"/>
      <use xlink:href="#DejaVuSans-28" x="391.349609"/>
      <use xlink:href="#DejaVuSans-66" x="430.363281"/>
      <use xlink:href="#DejaVuSans-61" x="465.568359"/>
      <use xlink:href="#DejaVuSans-73" x="526.847656"/>
      <use xlink:href="#DejaVuSans-74" x="578.947266"/>
      <use xlink:href="#DejaVuSans-29" x="618.15625"/>
     </g>
    </g>
    <g id="line2d_22">
     <path d="M 264.221563 98.604813 
L 274.221563 98.604813 
L 284.221563 98.604813 
" style="fill: none; stroke: #ff00ff; stroke-width: 2; stroke-linecap: square"/>
    </g>
    <g id="text_18">
     <!-- TM-align -->
     <g transform="translate(292.221563 102.104813) scale(0.1 -0.1)">
      <defs>
       <path id="DejaVuSans-54" d="M -19 4666 
L 3928 4666 
L 3928 4134 
L 2272 4134 
L 2272 0 
L 1638 0 
L 1638 4134 
L -19 4134 
L -19 4666 
z
" transform="scale(0.015625)"/>
       <path id="DejaVuSans-4d" d="M 628 4666 
L 1569 4666 
L 2759 1491 
L 3956 4666 
L 4897 4666 
L 4897 0 
L 4281 0 
L 4281 4097 
L 3078 897 
L 2444 897 
L 1241 4097 
L 1241 0 
L 628 0 
L 628 4666 
z
" transform="scale(0.015625)"/>
       <path id="DejaVuSans-2d" d="M 313 2009 
L 1997 2009 
L 1997 1497 
L 313 1497 
L 313 2009 
z
" transform="scale(0.015625)"/>
       <path id="DejaVuSans-67" d="M 2906 1791 
Q 2906 2416 2648 2759 
Q 2391 3103 1925 3103 
Q 1463 3103 1205 2759 
Q 947 2416 947 1791 
Q 947 1169 1205 825 
Q 1463 481 1925 481 
Q 2391 481 2648 825 
Q 2906 1169 2906 1791 
z
M 3481 434 
Q 3481 -459 3084 -895 
Q 2688 -1331 1869 -1331 
Q 1566 -1331 1297 -1286 
Q 1028 -1241 775 -1147 
L 775 -588 
Q 1028 -725 1275 -790 
Q 1522 -856 1778 -856 
Q 2344 -856 2625 -561 
Q 2906 -266 2906 331 
L 2906 616 
Q 2728 306 2450 153 
Q 2172 0 1784 0 
Q 1141 0 747 490 
Q 353 981 353 1791 
Q 353 2603 747 3093 
Q 1141 3584 1784 3584 
Q 2172 3584 2450 3431 
Q 2728 3278 2906 2969 
L 2906 3500 
L 3481 3500 
L 3481 434 
z
" transform="scale(0.015625)"/>
      </defs>
      <use xlink:href="#DejaVuSans-54"/>
      <use xlink:href="#DejaVuSans-4d" x="61.083984"/>
      <use xlink:href="#DejaVuSans-2d" x="147.363281"/>
      <use xlink:href="#DejaVuSans-61" x="183.447266"/>
      <use xlink:href="#DejaVuSans-6c" x="244.726562"/>
      <use xlink:href="#DejaVuSans-69" x="272.509766"/>
      <use xlink:href="#DejaVuSans-67" x="300.292969"/>
      <use xlink:href="#DejaVuSans-6e" x="363.769531"/>
     </g>
    </g>
    <g id="line2d_23">
     <path d="M 264.221563 113.282938 
L 274.221563 113.282938 
L 284.221563 113.282938 
" style="fill: none; stroke-dasharray: 3,4.95; stroke-dashoffset: 0; stroke: #ffa500; stroke-width: 3"/>
    </g>
    <g id="text_19">
     <!-- Foldseek -->
     <g transform="translate(292.221563 116.782938) scale(0.1 -0.1)">
      <defs>
       <path id="DejaVuSans-46" d="M 628 4666 
L 3309 4666 
L 3309 4134 
L 1259 4134 
L 1259 2759 
L 3109 2759 
L 3109 2228 
L 1259 2228 
L 1259 0 
L 628 0 
L 628 4666 
z
" transform="scale(0.015625)"/>
       <path id="DejaVuSans-64" d="M 2906 2969 
L 2906 4863 
L 3481 4863 
L 3481 0 
L 2906 0 
L 2906 525 
Q 2725 213 2448 61 
Q 2172 -91 1784 -91 
Q 1150 -91 751 415 
Q 353 922 353 1747 
Q 353 2572 751 3078 
Q 1150 3584 1784 3584 
Q 2172 3584 2448 3432 
Q 2725 3281 2906 2969 
z
M 947 1747 
Q 947 1113 1208 752 
Q 1469 391 1925 391 
Q 2381 391 2643 752 
Q 2906 1113 2906 1747 
Q 2906 2381 2643 2742 
Q 2381 3103 1925 3103 
Q 1469 3103 1208 2742 
Q 947 2381 947 1747 
z
" transform="scale(0.015625)"/>
      </defs>
      <use xlink:href="#DejaVuSans-46"/>
      <use xlink:href="#DejaVuSans-6f" x="53.894531"/>
      <use xlink:href="#DejaVuSans-6c" x="115.076172"/>
      <use xlink:href="#DejaVuSans-64" x="142.859375"/>
      <use xlink:href="#DejaVuSans-73" x="206.335938"/>
      <use xlink:href="#DejaVuSans-65" x="258.435547"/>
      <use xlink:href="#DejaVuSans-65" x="319.958984"/>
      <use xlink:href="#DejaVuSans-6b" x="381.482422"/>
     </g>
    </g>
    <g id="line2d_24">
     <path d="M 264.221563 127.961063 
L 274.221563 127.961063 
L 284.221563 127.961063 
" style="fill: none; stroke: #87ceeb; stroke-width: 2; stroke-linecap: square"/>
    </g>
    <g id="text_20">
     <!-- DALI -->
     <g transform="translate(292.221563 131.461063) scale(0.1 -0.1)">
      <defs>
       <path id="DejaVuSans-44" d="M 1259 4147 
L 1259 519 
L 2022 519 
Q 2988 519 3436 956 
Q 3884 1394 3884 2338 
Q 3884 3275 3436 3711 
Q 2988 4147 2022 4147 
L 1259 4147 
z
M 628 4666 
L 1925 4666 
Q 3281 4666 3915 4102 
Q 4550 3538 4550 2338 
Q 4550 1131 3912 565 
Q 3275 0 1925 0 
L 628 0 
L 628 4666 
z
" transform="scale(0.015625)"/>
       <path id="DejaVuSans-41" d="M 2188 4044 
L 1331 1722 
L 3047 1722 
L 2188 4044 
z
M 1831 4666 
L 2547 4666 
L 4325 0 
L 3669 0 
L 3244 1197 
L 1141 1197 
L 716 0 
L 50 0 
L 1831 4666 
z
" transform="scale(0.015625)"/>
       <path id="DejaVuSans-4c" d="M 628 4666 
L 1259 4666 
L 1259 531 
L 3531 531 
L 3531 0 
L 628 0 
L 628 4666 
z
" transform="scale(0.015625)"/>
       <path id="DejaVuSans-49" d="M 628 4666 
L 1259 4666 
L 1259 0 
L 628 0 
L 628 4666 
z
" transform="scale(0.015625)"/>
      </defs>
      <use xlink:href="#DejaVuSans-44"/>
      <use xlink:href="#DejaVuSans-41" x="75.251953"/>
      <use xlink:href="#DejaVuSans-4c" x="143.660156"/>
      <use xlink:href="#DejaVuSans-49" x="199.373047"/>
     </g>
    </g>
   </g>
  </g>
 </g>
 <defs>
  <clipPath id="p01d5ead225">
   <rect x="57.6" y="41.472" width="357.12" height="266.112"/>
  </clipPath>
 </defs>
</svg>
