<?xml version="1.0" encoding="utf-8" standalone="no"?>
<!DOCTYPE svg PUBLIC "-//W3C//DTD SVG 1.1//EN"
  "http://www.w3.org/Graphics/SVG/1.1/DTD/svg11.dtd">
<svg xmlns:xlink="http://www.w3.org/1999/xlink" width="460.8pt" height="345.6pt" viewBox="0 0 460.8 345.6" xmlns="http://www.w3.org/2000/svg" version="1.1">
 <metadata>
  <rdf:RDF xmlns:dc="http://purl.org/dc/elements/1.1/" xmlns:cc="http://creativecommons.org/ns#" xmlns:rdf="http://www.w3.org/1999/02/22-rdf-syntax-ns#">
   <cc:Work>
    <dc:type rdf:resource="http://purl.org/dc/dcmitype/StillImage"/>
    <dc:date>2024-10-18T20:48:18.399303</dc:date>
    <dc:format>image/svg+xml</dc:format>
    <dc:creator>
     <cc:Agent>
      <dc:title>Matplotlib v3.9.2, https://matplotlib.org/</dc:title>
     </cc:Agent>
    </dc:creator>
   </cc:Work>
  </rdf:RDF>
 </metadata>
 <defs>
  <style type="text/css">*{stroke-linejoin: round; stroke-linecap: butt}</style>
 </defs>
 <g id="figure_1">
  <g id="patch_1">
   <path d="M 0 345.6 
L 460.8 345.6 
L 460.8 0 
L 0 0 
z
" style="fill: #ffffff"/>
  </g>
  <g id="axes_1">
   <g id="patch_2">
    <path d="M 57.6 307.584 
L 414.72 307.584 
L 414.72 41.472 
L 57.6 41.472 
z
" style="fill: #ffffff"/>
   </g>
   <g id="matplotlib.axis_1">
    <g id="xtick_1">
     <g id="line2d_1">
      <defs>
       <path id="m42d2b74359" d="M 0 0 
L 0 3.5 
" style="stroke: #000000; stroke-width: 0.8"/>
      </defs>
      <g>
       <use xlink:href="#m42d2b74359" x="70.553388" y="307.584" style="stroke: #000000; stroke-width: 0.8"/>
      </g>
     </g>
     <g id="text_1">
      <!-- 0.0 -->
      <g transform="translate(62.601826 322.182437) scale(0.1 -0.1)">
       <defs>
        <path id="DejaVuSans-30" d="M 2034 4250 
Q 1547 4250 1301 3770 
Q 1056 3291 1056 2328 
Q 1056 1369 1301 889 
Q 1547 409 2034 409 
Q 2525 409 2770 889 
Q 3016 1369 3016 2328 
Q 3016 3291 2770 3770 
Q 2525 4250 2034 4250 
z
M 2034 4750 
Q 2819 4750 3233 4129 
Q 3647 3509 3647 2328 
Q 3647 1150 3233 529 
Q 2819 -91 2034 -91 
Q 1250 -91 836 529 
Q 422 1150 422 2328 
Q 422 3509 836 4129 
Q 1250 4750 2034 4750 
z
" transform="scale(0.015625)"/>
        <path id="DejaVuSans-2e" d="M 684 794 
L 1344 794 
L 1344 0 
L 684 0 
L 684 794 
z
" transform="scale(0.015625)"/>
       </defs>
       <use xlink:href="#DejaVuSans-30"/>
       <use xlink:href="#DejaVuSans-2e" x="63.623047"/>
       <use xlink:href="#DejaVuSans-30" x="95.410156"/>
      </g>
     </g>
    </g>
    <g id="xtick_2">
     <g id="line2d_2">
      <g>
       <use xlink:href="#m42d2b74359" x="136.140165" y="307.584" style="stroke: #000000; stroke-width: 0.8"/>
      </g>
     </g>
     <g id="text_2">
      <!-- 0.2 -->
      <g transform="translate(128.188603 322.182437) scale(0.1 -0.1)">
       <defs>
        <path id="DejaVuSans-32" d="M 1228 531 
L 3431 531 
L 3431 0 
L 469 0 
L 469 531 
Q 828 903 1448 1529 
Q 2069 2156 2228 2338 
Q 2531 2678 2651 2914 
Q 2772 3150 2772 3378 
Q 2772 3750 2511 3984 
Q 2250 4219 1831 4219 
Q 1534 4219 1204 4116 
Q 875 4013 500 3803 
L 500 4441 
Q 881 4594 1212 4672 
Q 1544 4750 1819 4750 
Q 2544 4750 2975 4387 
Q 3406 4025 3406 3419 
Q 3406 3131 3298 2873 
Q 3191 2616 2906 2266 
Q 2828 2175 2409 1742 
Q 1991 1309 1228 531 
z
" transform="scale(0.015625)"/>
       </defs>
       <use xlink:href="#DejaVuSans-30"/>
       <use xlink:href="#DejaVuSans-2e" x="63.623047"/>
       <use xlink:href="#DejaVuSans-32" x="95.410156"/>
      </g>
     </g>
    </g>
    <g id="xtick_3">
     <g id="line2d_3">
      <g>
       <use xlink:href="#m42d2b74359" x="201.726942" y="307.584" style="stroke: #000000; stroke-width: 0.8"/>
      </g>
     </g>
     <g id="text_3">
      <!-- 0.4 -->
      <g transform="translate(193.77538 322.182437) scale(0.1 -0.1)">
       <defs>
        <path id="DejaVuSans-34" d="M 2419 4116 
L 825 1625 
L 2419 1625 
L 2419 4116 
z
M 2253 4666 
L 3047 4666 
L 3047 1625 
L 3713 1625 
L 3713 1100 
L 3047 1100 
L 3047 0 
L 2419 0 
L 2419 1100 
L 313 1100 
L 313 1709 
L 2253 4666 
z
" transform="scale(0.015625)"/>
       </defs>
       <use xlink:href="#DejaVuSans-30"/>
       <use xlink:href="#DejaVuSans-2e" x="63.623047"/>
       <use xlink:href="#DejaVuSans-34" x="95.410156"/>
      </g>
     </g>
    </g>
    <g id="xtick_4">
     <g id="line2d_4">
      <g>
       <use xlink:href="#m42d2b74359" x="267.313719" y="307.584" style="stroke: #000000; stroke-width: 0.8"/>
      </g>
     </g>
     <g id="text_4">
      <!-- 0.6 -->
      <g transform="translate(259.362157 322.182437) scale(0.1 -0.1)">
       <defs>
        <path id="DejaVuSans-36" d="M 2113 2584 
Q 1688 2584 1439 2293 
Q 1191 2003 1191 1497 
Q 1191 994 1439 701 
Q 1688 409 2113 409 
Q 2538 409 2786 701 
Q 3034 994 3034 1497 
Q 3034 2003 2786 2293 
Q 2538 2584 2113 2584 
z
M 3366 4563 
L 3366 3988 
Q 3128 4100 2886 4159 
Q 2644 4219 2406 4219 
Q 1781 4219 1451 3797 
Q 1122 3375 1075 2522 
Q 1259 2794 1537 2939 
Q 1816 3084 2150 3084 
Q 2853 3084 3261 2657 
Q 3669 2231 3669 1497 
Q 3669 778 3244 343 
Q 2819 -91 2113 -91 
Q 1303 -91 875 529 
Q 447 1150 447 2328 
Q 447 3434 972 4092 
Q 1497 4750 2381 4750 
Q 2619 4750 2861 4703 
Q 3103 4656 3366 4563 
z
" transform="scale(0.015625)"/>
       </defs>
       <use xlink:href="#DejaVuSans-30"/>
       <use xlink:href="#DejaVuSans-2e" x="63.623047"/>
       <use xlink:href="#DejaVuSans-36" x="95.410156"/>
      </g>
     </g>
    </g>
    <g id="xtick_5">
     <g id="line2d_5">
      <g>
       <use xlink:href="#m42d2b74359" x="332.900496" y="307.584" style="stroke: #000000; stroke-width: 0.8"/>
      </g>
     </g>
     <g id="text_5">
      <!-- 0.8 -->
      <g transform="translate(324.948933 322.182437) scale(0.1 -0.1)">
       <defs>
        <path id="DejaVuSans-38" d="M 2034 2216 
Q 1584 2216 1326 1975 
Q 1069 1734 1069 1313 
Q 1069 891 1326 650 
Q 1584 409 2034 409 
Q 2484 409 2743 651 
Q 3003 894 3003 1313 
Q 3003 1734 2745 1975 
Q 2488 2216 2034 2216 
z
M 1403 2484 
Q 997 2584 770 2862 
Q 544 3141 544 3541 
Q 544 4100 942 4425 
Q 1341 4750 2034 4750 
Q 2731 4750 3128 4425 
Q 3525 4100 3525 3541 
Q 3525 3141 3298 2862 
Q 3072 2584 2669 2484 
Q 3125 2378 3379 2068 
Q 3634 1759 3634 1313 
Q 3634 634 3220 271 
Q 2806 -91 2034 -91 
Q 1263 -91 848 271 
Q 434 634 434 1313 
Q 434 1759 690 2068 
Q 947 2378 1403 2484 
z
M 1172 3481 
Q 1172 3119 1398 2916 
Q 1625 2713 2034 2713 
Q 2441 2713 2670 2916 
Q 2900 3119 2900 3481 
Q 2900 3844 2670 4047 
Q 2441 4250 2034 4250 
Q 1625 4250 1398 4047 
Q 1172 3844 1172 3481 
z
" transform="scale(0.015625)"/>
       </defs>
       <use xlink:href="#DejaVuSans-30"/>
       <use xlink:href="#DejaVuSans-2e" x="63.623047"/>
       <use xlink:href="#DejaVuSans-38" x="95.410156"/>
      </g>
     </g>
    </g>
    <g id="xtick_6">
     <g id="line2d_6">
      <g>
       <use xlink:href="#m42d2b74359" x="398.487273" y="307.584" style="stroke: #000000; stroke-width: 0.8"/>
      </g>
     </g>
     <g id="text_6">
      <!-- 1.0 -->
      <g transform="translate(390.53571 322.182437) scale(0.1 -0.1)">
       <defs>
        <path id="DejaVuSans-31" d="M 794 531 
L 1825 531 
L 1825 4091 
L 703 3866 
L 703 4441 
L 1819 4666 
L 2450 4666 
L 2450 531 
L 3481 531 
L 3481 0 
L 794 0 
L 794 531 
z
" transform="scale(0.015625)"/>
       </defs>
       <use xlink:href="#DejaVuSans-31"/>
       <use xlink:href="#DejaVuSans-2e" x="63.623047"/>
       <use xlink:href="#DejaVuSans-30" x="95.410156"/>
      </g>
     </g>
    </g>
    <g id="text_7">
     <!-- Recall -->
     <g transform="translate(221.242812 335.860562) scale(0.1 -0.1)">
      <defs>
       <path id="DejaVuSans-52" d="M 2841 2188 
Q 3044 2119 3236 1894 
Q 3428 1669 3622 1275 
L 4263 0 
L 3584 0 
L 2988 1197 
Q 2756 1666 2539 1819 
Q 2322 1972 1947 1972 
L 1259 1972 
L 1259 0 
L 628 0 
L 628 4666 
L 2053 4666 
Q 2853 4666 3247 4331 
Q 3641 3997 3641 3322 
Q 3641 2881 3436 2590 
Q 3231 2300 2841 2188 
z
M 1259 4147 
L 1259 2491 
L 2053 2491 
Q 2509 2491 2742 2702 
Q 2975 2913 2975 3322 
Q 2975 3731 2742 3939 
Q 2509 4147 2053 4147 
L 1259 4147 
z
" transform="scale(0.015625)"/>
       <path id="DejaVuSans-65" d="M 3597 1894 
L 3597 1613 
L 953 1613 
Q 991 1019 1311 708 
Q 1631 397 2203 397 
Q 2534 397 2845 478 
Q 3156 559 3463 722 
L 3463 178 
Q 3153 47 2828 -22 
Q 2503 -91 2169 -91 
Q 1331 -91 842 396 
Q 353 884 353 1716 
Q 353 2575 817 3079 
Q 1281 3584 2069 3584 
Q 2775 3584 3186 3129 
Q 3597 2675 3597 1894 
z
M 3022 2063 
Q 3016 2534 2758 2815 
Q 2500 3097 2075 3097 
Q 1594 3097 1305 2825 
Q 1016 2553 972 2059 
L 3022 2063 
z
" transform="scale(0.015625)"/>
       <path id="DejaVuSans-63" d="M 3122 3366 
L 3122 2828 
Q 2878 2963 2633 3030 
Q 2388 3097 2138 3097 
Q 1578 3097 1268 2742 
Q 959 2388 959 1747 
Q 959 1106 1268 751 
Q 1578 397 2138 397 
Q 2388 397 2633 464 
Q 2878 531 3122 666 
L 3122 134 
Q 2881 22 2623 -34 
Q 2366 -91 2075 -91 
Q 1284 -91 818 406 
Q 353 903 353 1747 
Q 353 2603 823 3093 
Q 1294 3584 2113 3584 
Q 2378 3584 2631 3529 
Q 2884 3475 3122 3366 
z
" transform="scale(0.015625)"/>
       <path id="DejaVuSans-61" d="M 2194 1759 
Q 1497 1759 1228 1600 
Q 959 1441 959 1056 
Q 959 750 1161 570 
Q 1363 391 1709 391 
Q 2188 391 2477 730 
Q 2766 1069 2766 1631 
L 2766 1759 
L 2194 1759 
z
M 3341 1997 
L 3341 0 
L 2766 0 
L 2766 531 
Q 2569 213 2275 61 
Q 1981 -91 1556 -91 
Q 1019 -91 701 211 
Q 384 513 384 1019 
Q 384 1609 779 1909 
Q 1175 2209 1959 2209 
L 2766 2209 
L 2766 2266 
Q 2766 2663 2505 2880 
Q 2244 3097 1772 3097 
Q 1472 3097 1187 3025 
Q 903 2953 641 2809 
L 641 3341 
Q 956 3463 1253 3523 
Q 1550 3584 1831 3584 
Q 2591 3584 2966 3190 
Q 3341 2797 3341 1997 
z
" transform="scale(0.015625)"/>
       <path id="DejaVuSans-6c" d="M 603 4863 
L 1178 4863 
L 1178 0 
L 603 0 
L 603 4863 
z
" transform="scale(0.015625)"/>
      </defs>
      <use xlink:href="#DejaVuSans-52"/>
      <use xlink:href="#DejaVuSans-65" x="64.982422"/>
      <use xlink:href="#DejaVuSans-63" x="126.505859"/>
      <use xlink:href="#DejaVuSans-61" x="181.486328"/>
      <use xlink:href="#DejaVuSans-6c" x="242.765625"/>
      <use xlink:href="#DejaVuSans-6c" x="270.548828"/>
     </g>
    </g>
   </g>
   <g id="matplotlib.axis_2">
    <g id="ytick_1">
     <g id="line2d_7">
      <defs>
       <path id="m89146afcbc" d="M 0 0 
L -3.5 0 
" style="stroke: #000000; stroke-width: 0.8"/>
      </defs>
      <g>
       <use xlink:href="#m89146afcbc" x="57.6" y="296.36084" style="stroke: #000000; stroke-width: 0.8"/>
      </g>
     </g>
     <g id="text_8">
      <!-- 0.0 -->
      <g transform="translate(34.696875 300.160059) scale(0.1 -0.1)">
       <use xlink:href="#DejaVuSans-30"/>
       <use xlink:href="#DejaVuSans-2e" x="63.623047"/>
       <use xlink:href="#DejaVuSans-30" x="95.410156"/>
      </g>
     </g>
    </g>
    <g id="ytick_2">
     <g id="line2d_8">
      <g>
       <use xlink:href="#m89146afcbc" x="57.6" y="247.802272" style="stroke: #000000; stroke-width: 0.8"/>
      </g>
     </g>
     <g id="text_9">
      <!-- 0.2 -->
      <g transform="translate(34.696875 251.601491) scale(0.1 -0.1)">
       <use xlink:href="#DejaVuSans-30"/>
       <use xlink:href="#DejaVuSans-2e" x="63.623047"/>
       <use xlink:href="#DejaVuSans-32" x="95.410156"/>
      </g>
     </g>
    </g>
    <g id="ytick_3">
     <g id="line2d_9">
      <g>
       <use xlink:href="#m89146afcbc" x="57.6" y="199.243704" style="stroke: #000000; stroke-width: 0.8"/>
      </g>
     </g>
     <g id="text_10">
      <!-- 0.4 -->
      <g transform="translate(34.696875 203.042923) scale(0.1 -0.1)">
       <use xlink:href="#DejaVuSans-30"/>
       <use xlink:href="#DejaVuSans-2e" x="63.623047"/>
       <use xlink:href="#DejaVuSans-34" x="95.410156"/>
      </g>
     </g>
    </g>
    <g id="ytick_4">
     <g id="line2d_10">
      <g>
       <use xlink:href="#m89146afcbc" x="57.6" y="150.685136" style="stroke: #000000; stroke-width: 0.8"/>
      </g>
     </g>
     <g id="text_11">
      <!-- 0.6 -->
      <g transform="translate(34.696875 154.484355) scale(0.1 -0.1)">
       <use xlink:href="#DejaVuSans-30"/>
       <use xlink:href="#DejaVuSans-2e" x="63.623047"/>
       <use xlink:href="#DejaVuSans-36" x="95.410156"/>
      </g>
     </g>
    </g>
    <g id="ytick_5">
     <g id="line2d_11">
      <g>
       <use xlink:href="#m89146afcbc" x="57.6" y="102.126568" style="stroke: #000000; stroke-width: 0.8"/>
      </g>
     </g>
     <g id="text_12">
      <!-- 0.8 -->
      <g transform="translate(34.696875 105.925787) scale(0.1 -0.1)">
       <use xlink:href="#DejaVuSans-30"/>
       <use xlink:href="#DejaVuSans-2e" x="63.623047"/>
       <use xlink:href="#DejaVuSans-38" x="95.410156"/>
      </g>
     </g>
    </g>
    <g id="ytick_6">
     <g id="line2d_12">
      <g>
       <use xlink:href="#m89146afcbc" x="57.6" y="53.568" style="stroke: #000000; stroke-width: 0.8"/>
      </g>
     </g>
     <g id="text_13">
      <!-- 1.0 -->
      <g transform="translate(34.696875 57.367219) scale(0.1 -0.1)">
       <use xlink:href="#DejaVuSans-31"/>
       <use xlink:href="#DejaVuSans-2e" x="63.623047"/>
       <use xlink:href="#DejaVuSans-30" x="95.410156"/>
      </g>
     </g>
    </g>
    <g id="text_14">
     <!-- Precision -->
     <g transform="translate(28.617187 196.835031) rotate(-90) scale(0.1 -0.1)">
      <defs>
       <path id="DejaVuSans-50" d="M 1259 4147 
L 1259 2394 
L 2053 2394 
Q 2494 2394 2734 2622 
Q 2975 2850 2975 3272 
Q 2975 3691 2734 3919 
Q 2494 4147 2053 4147 
L 1259 4147 
z
M 628 4666 
L 2053 4666 
Q 2838 4666 3239 4311 
Q 3641 3956 3641 3272 
Q 3641 2581 3239 2228 
Q 2838 1875 2053 1875 
L 1259 1875 
L 1259 0 
L 628 0 
L 628 4666 
z
" transform="scale(0.015625)"/>
       <path id="DejaVuSans-72" d="M 2631 2963 
Q 2534 3019 2420 3045 
Q 2306 3072 2169 3072 
Q 1681 3072 1420 2755 
Q 1159 2438 1159 1844 
L 1159 0 
L 581 0 
L 581 3500 
L 1159 3500 
L 1159 2956 
Q 1341 3275 1631 3429 
Q 1922 3584 2338 3584 
Q 2397 3584 2469 3576 
Q 2541 3569 2628 3553 
L 2631 2963 
z
" transform="scale(0.015625)"/>
       <path id="DejaVuSans-69" d="M 603 3500 
L 1178 3500 
L 1178 0 
L 603 0 
L 603 3500 
z
M 603 4863 
L 1178 4863 
L 1178 4134 
L 603 4134 
L 603 4863 
z
" transform="scale(0.015625)"/>
       <path id="DejaVuSans-73" d="M 2834 3397 
L 2834 2853 
Q 2591 2978 2328 3040 
Q 2066 3103 1784 3103 
Q 1356 3103 1142 2972 
Q 928 2841 928 2578 
Q 928 2378 1081 2264 
Q 1234 2150 1697 2047 
L 1894 2003 
Q 2506 1872 2764 1633 
Q 3022 1394 3022 966 
Q 3022 478 2636 193 
Q 2250 -91 1575 -91 
Q 1294 -91 989 -36 
Q 684 19 347 128 
L 347 722 
Q 666 556 975 473 
Q 1284 391 1588 391 
Q 1994 391 2212 530 
Q 2431 669 2431 922 
Q 2431 1156 2273 1281 
Q 2116 1406 1581 1522 
L 1381 1569 
Q 847 1681 609 1914 
Q 372 2147 372 2553 
Q 372 3047 722 3315 
Q 1072 3584 1716 3584 
Q 2034 3584 2315 3537 
Q 2597 3491 2834 3397 
z
" transform="scale(0.015625)"/>
       <path id="DejaVuSans-6f" d="M 1959 3097 
Q 1497 3097 1228 2736 
Q 959 2375 959 1747 
Q 959 1119 1226 758 
Q 1494 397 1959 397 
Q 2419 397 2687 759 
Q 2956 1122 2956 1747 
Q 2956 2369 2687 2733 
Q 2419 3097 1959 3097 
z
M 1959 3584 
Q 2709 3584 3137 3096 
Q 3566 2609 3566 1747 
Q 3566 888 3137 398 
Q 2709 -91 1959 -91 
Q 1206 -91 779 398 
Q 353 888 353 1747 
Q 353 2609 779 3096 
Q 1206 3584 1959 3584 
z
" transform="scale(0.015625)"/>
       <path id="DejaVuSans-6e" d="M 3513 2113 
L 3513 0 
L 2938 0 
L 2938 2094 
Q 2938 2591 2744 2837 
Q 2550 3084 2163 3084 
Q 1697 3084 1428 2787 
Q 1159 2491 1159 1978 
L 1159 0 
L 581 0 
L 581 3500 
L 1159 3500 
L 1159 2956 
Q 1366 3272 1645 3428 
Q 1925 3584 2291 3584 
Q 2894 3584 3203 3211 
Q 3513 2838 3513 2113 
z
" transform="scale(0.015625)"/>
      </defs>
      <use xlink:href="#DejaVuSans-50"/>
      <use xlink:href="#DejaVuSans-72" x="58.552734"/>
      <use xlink:href="#DejaVuSans-65" x="97.416016"/>
      <use xlink:href="#DejaVuSans-63" x="158.939453"/>
      <use xlink:href="#DejaVuSans-69" x="213.919922"/>
      <use xlink:href="#DejaVuSans-73" x="241.703125"/>
      <use xlink:href="#DejaVuSans-69" x="293.802734"/>
      <use xlink:href="#DejaVuSans-6f" x="321.585938"/>
      <use xlink:href="#DejaVuSans-6e" x="382.767578"/>
     </g>
    </g>
   </g>
   <g id="line2d_13">
    <path d="M 73.832727 53.568 
L 77.112066 53.568 
L 80.391405 53.568 
L 83.670744 53.592279 
L 86.950083 53.640838 
L 90.229421 53.713676 
L 93.50876 53.762234 
L 96.788099 53.786514 
L 100.067438 53.835072 
L 103.346777 53.932189 
L 106.626116 54.029306 
L 109.905455 54.150703 
L 113.184793 54.24782 
L 116.464132 54.369216 
L 119.743471 54.490613 
L 123.02281 54.733406 
L 126.302149 54.976198 
L 129.581488 55.218991 
L 132.860826 55.534622 
L 136.140165 55.728856 
L 139.419504 56.044487 
L 142.698843 56.360118 
L 145.978182 56.700028 
L 149.257521 57.161334 
L 152.53686 57.816875 
L 155.816198 58.32674 
L 159.095537 59.127956 
L 162.374876 60.00201 
L 165.654215 60.997461 
L 168.933554 62.065749 
L 172.212893 63.328272 
L 175.492231 64.833588 
L 178.77157 66.314624 
L 182.050909 68.087012 
L 185.330248 69.810841 
L 188.609587 72.117373 
L 191.888926 74.423905 
L 195.168264 76.876113 
L 198.447603 79.716789 
L 201.726942 82.921654 
L 205.006281 86.417871 
L 208.28562 90.278277 
L 211.564959 94.065846 
L 214.844298 98.120486 
L 218.123636 102.636433 
L 221.402975 107.468011 
L 224.682314 112.712336 
L 227.961653 118.223733 
L 231.240992 123.905086 
L 234.520331 129.829231 
L 237.799669 135.899052 
L 241.079008 142.041711 
L 244.358347 148.475721 
L 247.637686 154.861173 
L 250.917025 161.222345 
L 254.196364 168.069103 
L 257.475702 174.818744 
L 260.755041 181.252755 
L 264.03438 187.832441 
L 267.313719 194.387847 
L 270.593058 200.821858 
L 273.872397 207.061634 
L 277.151736 213.082896 
L 280.431074 219.274113 
L 283.710413 225.1497 
L 286.989752 230.976728 
L 290.269091 236.269612 
L 293.54843 241.392541 
L 296.827769 246.369794 
L 300.107107 251.031417 
L 303.386446 255.474526 
L 306.665785 259.334932 
L 309.945124 263.001104 
L 313.224463 266.448762 
L 316.503802 269.435114 
L 319.78314 272.144682 
L 323.062479 274.638165 
L 326.341818 276.949553 
L 329.621157 279.020576 
L 332.900496 280.766256 
L 336.179835 282.334698 
L 339.459174 283.82059 
L 342.738512 285.131671 
L 346.017851 286.250946 
L 349.29719 287.302239 
L 352.576529 288.22728 
L 355.855868 289.043064 
L 359.135207 289.79815 
L 362.414545 290.468258 
L 365.693884 291.097091 
L 368.973223 291.655515 
L 372.252562 292.145957 
L 375.531901 292.604835 
L 378.81124 293.039434 
L 382.090579 293.435187 
L 385.369917 293.79452 
L 388.649256 294.136858 
L 391.928595 294.543293 
L 394.092959 294.921807 
" clip-path="url(#p5dbeda8d71)" style="fill: none; stroke-dasharray: 7.4,3.2; stroke-dashoffset: 0; stroke: #808080; stroke-width: 2"/>
   </g>
   <g id="line2d_14">
    <path d="M 73.832727 53.568 
L 77.112066 53.665117 
L 80.391405 53.737955 
L 83.670744 54.053586 
L 86.950083 54.563451 
L 90.229421 55.097595 
L 93.50876 55.534622 
L 96.788099 55.995928 
L 100.067438 56.772865 
L 103.346777 57.355568 
L 106.626116 58.229623 
L 109.905455 59.030839 
L 113.184793 59.710659 
L 116.464132 60.68183 
L 119.743471 61.798677 
L 123.02281 62.915524 
L 126.302149 64.105209 
L 129.581488 65.343453 
L 132.860826 66.824489 
L 136.140165 68.426922 
L 139.419504 70.344985 
L 142.698843 72.21449 
L 145.978182 74.545301 
L 149.257521 77.143185 
L 152.53686 79.862465 
L 155.816198 82.945934 
L 159.095537 86.077961 
L 162.374876 89.137151 
L 165.654215 92.269179 
L 168.933554 95.95963 
L 172.212893 99.601523 
L 175.492231 103.777559 
L 178.77157 107.735083 
L 182.050909 112.008237 
L 185.330248 116.062877 
L 188.609587 120.530265 
L 191.888926 124.560626 
L 195.168264 128.615267 
L 198.447603 132.548511 
L 201.726942 136.481755 
L 205.006281 140.463558 
L 208.28562 144.372522 
L 211.564959 148.111532 
L 214.844298 151.801983 
L 218.123636 155.468155 
L 221.402975 158.940093 
L 224.682314 162.41203 
L 227.961653 165.641175 
L 231.240992 168.821761 
L 234.520331 171.783834 
L 237.799669 174.648789 
L 241.079008 177.610862 
L 244.358347 180.621493 
L 247.637686 183.389332 
L 250.917025 186.132891 
L 254.196364 188.973567 
L 257.475702 191.789964 
L 260.755041 194.63064 
L 264.03438 197.252803 
L 267.313719 200.0692 
L 270.593058 202.715642 
L 273.872397 205.580597 
L 277.151736 208.372715 
L 280.431074 211.067715 
L 283.710413 213.811275 
L 286.989752 216.627672 
L 290.269091 219.492627 
L 293.54843 222.309024 
L 296.827769 225.222538 
L 300.107107 228.087494 
L 303.386446 230.855332 
L 306.665785 233.671729 
L 309.945124 236.512405 
L 313.224463 239.304523 
L 316.503802 242.12092 
L 319.78314 245.010155 
L 323.062479 247.705155 
L 326.341818 250.691507 
L 329.621157 253.556463 
L 332.900496 256.567094 
L 336.179835 259.383491 
L 339.459174 262.224167 
L 342.738512 265.113402 
L 346.017851 267.856961 
L 349.29719 270.551961 
L 352.576529 273.225111 
L 355.855868 275.830278 
L 359.135207 278.433017 
L 362.414545 280.84395 
L 365.693884 283.201468 
L 368.973223 285.318622 
L 372.252562 287.192983 
L 375.531901 288.863397 
L 378.81124 290.315299 
L 382.090579 291.611812 
L 385.369917 292.750511 
L 388.649256 293.714398 
L 391.928595 294.472155 
L 395.207934 295.026451 
L 398.487273 295.482173 
" clip-path="url(#p5dbeda8d71)" style="fill: none; stroke: #ff00ff; stroke-width: 2; stroke-linecap: square"/>
   </g>
   <g id="line2d_15">
    <path d="M 73.832727 54.58773 
L 77.112066 55.000478 
L 80.391405 55.923091 
L 83.670744 56.28728 
L 86.950083 56.991379 
L 90.229421 57.865433 
L 93.50876 58.909442 
L 96.788099 60.099127 
L 100.067438 61.434488 
L 103.346777 62.866966 
L 106.626116 64.809309 
L 109.905455 66.654534 
L 113.184793 68.936787 
L 116.464132 71.219039 
L 119.743471 74.108274 
L 123.02281 76.244851 
L 126.302149 79.69251 
L 129.581488 82.921654 
L 132.860826 86.490709 
L 136.140165 90.472512 
L 139.419504 94.502873 
L 142.698843 98.339 
L 145.978182 102.223685 
L 149.257521 106.496839 
L 152.53686 110.89139 
L 155.816198 114.994589 
L 159.095537 119.607653 
L 162.374876 124.050762 
L 165.654215 127.984006 
L 168.933554 132.329997 
L 172.212893 136.457476 
L 175.492231 140.512116 
L 178.77157 144.833829 
L 182.050909 149.034145 
L 185.330248 152.700317 
L 188.609587 157.167705 
L 191.888926 161.028111 
L 195.168264 164.985634 
L 198.447603 169.015996 
L 201.726942 172.876402 
L 205.006281 176.421177 
L 208.28562 180.257304 
L 211.564959 184.020593 
L 214.844298 187.395414 
L 218.123636 190.988748 
L 221.402975 194.703478 
L 224.682314 197.932623 
L 227.961653 201.40456 
L 231.240992 204.730822 
L 234.520331 207.790012 
L 237.799669 210.946319 
L 241.079008 214.151185 
L 244.358347 217.186095 
L 247.637686 220.07533 
L 250.917025 222.843168 
L 254.196364 225.708124 
L 257.475702 228.524521 
L 260.755041 231.26808 
L 264.03438 233.96308 
L 267.313719 236.560964 
L 270.593058 239.013171 
L 273.872397 241.513938 
L 277.151736 243.966145 
L 280.431074 246.321236 
L 283.710413 248.749164 
L 286.989752 251.031417 
L 290.269091 253.167994 
L 293.54843 255.474526 
L 296.827769 257.611103 
L 300.107107 259.796239 
L 303.386446 261.835698 
L 306.665785 263.972275 
L 309.945124 265.938897 
L 313.224463 268.026916 
L 316.503802 270.090655 
L 319.78314 272.096124 
L 323.062479 274.101593 
L 326.341818 276.073071 
L 329.621157 278.105247 
L 332.900496 280.110715 
L 336.179835 282.315274 
L 337.163636 283.133486 
" clip-path="url(#p5dbeda8d71)" style="fill: none; stroke: #1f77b4; stroke-width: 2; stroke-linecap: square"/>
   </g>
   <g id="line2d_16">
    <path d="M 73.832727 54.005027 
L 77.112066 54.223541 
L 80.391405 55.024757 
L 83.670744 55.971649 
L 86.950083 57.476965 
L 90.229421 59.419307 
L 93.50876 62.090029 
L 96.788099 65.586246 
L 100.067438 68.548318 
L 103.346777 73.331337 
L 106.626116 77.094626 
L 109.905455 81.999042 
L 113.184793 85.4467 
L 116.464132 90.399674 
L 119.743471 94.381476 
L 123.02281 99.868595 
L 126.302149 105.064361 
L 129.581488 110.842831 
L 132.860826 116.572742 
L 136.140165 118.563643 
L 139.419504 123.031032 
L 142.698843 128.712384 
L 145.978182 130.946078 
L 149.257521 134.345178 
L 152.53686 137.938512 
L 155.816198 143.619864 
L 159.095537 146.072072 
L 162.374876 150.248109 
L 165.654215 153.890002 
L 168.933554 159.765588 
L 172.212893 162.363472 
L 175.492231 166.903698 
L 178.77157 170.375635 
L 182.050909 176.542574 
L 185.330248 180.06307 
L 188.609587 184.11771 
L 191.888926 187.638206 
L 195.168264 193.586631 
L 198.447603 198.054019 
L 201.726942 201.113209 
L 205.006281 204.997894 
L 208.28562 208.324156 
L 211.564959 211.019157 
L 214.844298 216.603392 
L 218.123636 219.662582 
L 221.402975 222.697493 
L 224.682314 225.756682 
L 227.961653 228.111773 
L 231.240992 232.870513 
L 234.520331 235.881144 
L 237.799669 238.72182 
L 241.079008 241.708172 
L 244.358347 243.869028 
L 247.637686 246.17556 
L 250.917025 250.060246 
L 254.196364 252.221102 
L 257.475702 254.454796 
L 260.755041 256.68849 
L 264.03438 258.023851 
L 267.313719 260.354662 
L 270.593058 263.48669 
L 273.872397 265.380474 
L 277.151736 267.152862 
L 280.431074 268.876691 
L 283.710413 270.139214 
L 286.989752 271.134664 
L 290.269091 273.596584 
L 293.54843 275.050913 
L 296.827769 276.400841 
L 300.107107 277.682787 
L 303.386446 278.568981 
L 306.665785 279.610562 
L 309.945124 281.290689 
L 313.224463 282.293423 
L 316.503802 283.216036 
L 319.78314 284.114369 
L 323.062479 284.670365 
L 326.341818 285.974163 
L 329.621157 286.709825 
L 332.900496 287.379933 
L 336.179835 288.001483 
L 339.459174 288.552623 
L 342.738512 289.378118 
L 346.017851 289.912262 
L 349.29719 290.366285 
L 352.576529 290.730474 
L 355.855868 291.335028 
L 359.135207 291.808475 
L 362.414545 292.16538 
L 365.693884 292.461587 
L 368.973223 292.728659 
L 372.252562 293.146263 
L 375.531901 293.432759 
L 378.81124 293.631849 
L 382.090579 293.821227 
L 385.369917 294.210667 
L 388.649256 294.4639 
L 391.928595 294.65692 
L 395.207934 295.051944 
L 398.487273 295.482173 
" clip-path="url(#p5dbeda8d71)" style="fill: none; stroke: #ff7f0e; stroke-width: 2; stroke-linecap: square"/>
   </g>
   <g id="line2d_17">
    <path d="M 73.832727 57.137055 
L 77.112066 60.827506 
L 80.391405 69.786562 
L 83.670744 82.970213 
L 86.950083 99.747198 
L 90.229421 120.651662 
L 93.50876 143.012882 
L 96.788099 165.544058 
L 100.067438 184.894647 
L 103.346777 200.821858 
L 106.626116 213.471365 
L 109.905455 223.47443 
L 113.184793 232.28781 
L 116.464132 239.158847 
L 119.743471 245.010155 
L 123.02281 249.696056 
L 126.302149 253.944931 
L 129.581488 257.70822 
L 132.860826 260.937365 
L 136.140165 263.923717 
L 139.419504 266.400204 
L 142.698843 268.779574 
L 145.978182 270.770475 
L 149.257521 272.635124 
L 152.53686 274.341958 
L 155.816198 275.781719 
L 159.095537 277.012679 
L 162.374876 278.129526 
L 165.654215 279.217238 
L 168.933554 280.171414 
L 172.212893 280.98477 
L 175.492231 281.790842 
L 178.77157 282.499797 
L 182.050909 283.186901 
L 185.330248 283.786599 
L 188.609587 284.286752 
L 191.888926 284.806329 
L 195.168264 285.257924 
L 198.447603 285.680383 
L 201.726942 286.090703 
L 205.006281 286.445181 
L 208.28562 286.780235 
L 211.564959 287.088582 
L 214.844298 287.392073 
L 218.123636 287.659145 
L 221.402975 287.931073 
L 224.682314 288.173866 
L 227.961653 288.414231 
L 231.240992 288.6376 
L 234.520331 288.860969 
L 237.799669 289.079483 
L 241.079008 289.285857 
L 244.358347 289.482519 
L 247.637686 289.688893 
L 250.917025 289.873416 
L 254.196364 290.060366 
L 257.475702 290.230321 
L 260.755041 290.397848 
L 264.03438 290.565375 
L 267.313719 290.725618 
L 270.593058 290.881006 
L 273.872397 291.038821 
L 277.151736 291.186925 
L 280.431074 291.337456 
L 283.710413 291.487988 
L 286.989752 291.631236 
L 290.269091 291.776911 
L 293.54843 291.917731 
L 296.827769 292.056123 
L 300.107107 292.194515 
L 303.386446 292.323195 
L 306.665785 292.459159 
L 309.945124 292.592695 
L 313.224463 292.723804 
L 316.503802 292.852484 
L 319.78314 292.981164 
L 323.062479 293.10256 
L 326.341818 293.228813 
L 329.621157 293.355065 
L 332.900496 293.476461 
L 336.179835 293.597858 
L 339.459174 293.716826 
L 342.738512 293.830939 
L 346.017851 293.95015 
L 349.29719 294.06232 
L 352.576529 294.170849 
L 355.855868 294.282534 
L 359.135207 294.389362 
L 362.414545 294.488907 
L 365.693884 294.58044 
L 368.973223 294.672216 
L 372.252562 294.763992 
L 375.531901 294.850426 
L 378.81124 294.933218 
L 382.090579 295.014797 
L 385.369917 295.09589 
L 388.649256 295.185966 
L 391.928595 295.286239 
L 395.207934 295.408364 
L 396.388496 295.487272 
" clip-path="url(#p5dbeda8d71)" style="fill: none; stroke: #2ca02c; stroke-width: 2; stroke-linecap: square"/>
   </g>
   <g id="line2d_18">
    <path d="M 73.832727 54.636288 
L 77.112066 54.709126 
L 80.391405 55.097595 
L 83.670744 56.214442 
L 86.950083 58.253902 
L 90.229421 63.959534 
L 93.50876 76.827554 
L 96.788099 98.023369 
L 100.067438 127.231348 
L 103.346777 158.891534 
L 106.626116 188.682216 
L 109.905455 213.010058 
L 113.184793 230.151233 
L 116.464132 244.524569 
L 119.743471 254.430517 
L 123.02281 262.054212 
L 126.302149 268.124033 
L 129.581488 272.326777 
L 132.860826 275.975953 
L 136.140165 278.556841 
L 139.419504 280.499184 
L 142.698843 282.300707 
L 145.978182 283.803595 
L 149.257521 285.187514 
L 152.53686 286.195104 
L 155.816198 286.945334 
L 159.095537 287.88737 
L 162.374876 288.477357 
L 165.654215 289.079483 
L 168.933554 289.506798 
L 172.212893 289.970533 
L 175.492231 290.315299 
L 178.77157 290.674632 
L 182.050909 290.995118 
L 185.330248 291.376303 
L 188.609587 291.604529 
L 191.888926 291.840038 
L 195.168264 292.046411 
L 198.447603 292.204227 
L 201.726942 292.410601 
L 205.006281 292.580556 
L 208.28562 292.735943 
L 211.564959 292.891331 
L 214.844298 293.022439 
L 218.123636 293.199677 
L 221.402975 293.308934 
L 224.682314 293.410907 
L 227.961653 293.52502 
L 231.240992 293.617281 
L 234.520331 293.692547 
L 237.799669 293.784808 
L 241.079008 293.898921 
L 244.358347 293.969816 
L 247.637686 294.0327 
L 250.917025 294.117677 
L 254.196364 294.185174 
L 257.475702 294.244901 
L 260.755041 294.296616 
L 264.03438 294.372367 
L 267.313719 294.424082 
L 270.593058 294.492792 
L 273.872397 294.542079 
L 277.151736 294.599864 
L 280.431074 294.654007 
L 283.710413 294.69601 
L 286.989752 294.744326 
L 290.269091 294.792884 
L 293.54843 294.832945 
L 296.827769 294.863537 
L 300.107107 294.908211 
L 303.386446 294.939774 
L 306.665785 294.97425 
L 309.945124 295.010669 
L 313.224463 295.042232 
L 316.503802 295.065298 
L 319.78314 295.091519 
L 323.062479 295.117498 
L 326.341818 295.139592 
L 329.621157 295.159016 
L 332.900496 295.175283 
L 336.179835 295.191064 
L 339.360793 295.20636 
" clip-path="url(#p5dbeda8d71)" style="fill: none; stroke: #d62728; stroke-width: 2; stroke-linecap: square"/>
   </g>
   <g id="line2d_19">
    <path d="M 73.832727 179.990232 
L 77.112066 225.999475 
L 80.391405 248.020786 
L 83.670744 259.06786 
L 86.950083 266.910069 
L 90.229421 272.108263 
L 93.50876 275.689458 
L 96.788099 278.602972 
L 100.067438 280.62058 
L 103.346777 282.269144 
L 106.626116 283.575369 
L 109.905455 284.670365 
L 113.184793 285.508 
L 116.464132 286.204816 
L 119.743471 286.755956 
L 123.02281 287.236685 
L 126.302149 287.651861 
L 129.581488 288.037902 
L 132.860826 288.360816 
L 136.140165 288.678875 
L 139.419504 288.943519 
L 142.698843 289.179028 
L 145.978182 289.402397 
L 149.257521 289.59906 
L 152.53686 289.769015 
L 155.816198 289.936542 
L 159.095537 290.089501 
L 162.374876 290.220609 
L 165.654215 290.361429 
L 168.933554 290.485254 
L 172.212893 290.613934 
L 175.492231 290.728046 
L 178.77157 290.847015 
L 182.050909 290.9587 
L 185.330248 291.072812 
L 188.609587 291.172357 
L 191.888926 291.267046 
L 195.168264 291.366592 
L 198.447603 291.456425 
L 201.726942 291.553542 
L 205.006281 291.636092 
L 208.28562 291.706502 
L 211.564959 291.798763 
L 214.844298 291.881312 
L 218.123636 291.961434 
L 221.402975 292.041556 
L 224.682314 292.121677 
L 227.961653 292.194515 
L 231.240992 292.262497 
L 234.520331 292.332907 
L 237.799669 292.403317 
L 241.079008 292.476155 
L 244.358347 292.546565 
L 247.637686 292.614547 
L 250.917025 292.682529 
L 254.196364 292.752939 
L 257.475702 292.823349 
L 260.755041 292.891331 
L 264.03438 292.959313 
L 267.313719 293.027295 
L 270.593058 293.092849 
L 273.872397 293.155975 
L 277.151736 293.219101 
L 280.431074 293.279799 
L 283.710413 293.342925 
L 286.989752 293.408479 
L 290.269091 293.476461 
L 293.54843 293.53716 
L 296.827769 293.600286 
L 300.107107 293.663412 
L 303.386446 293.721682 
L 306.665785 293.784808 
L 309.945124 293.845506 
L 313.224463 293.903777 
L 316.503802 293.962775 
L 319.78314 294.016433 
L 323.062479 294.072032 
L 326.341818 294.129088 
L 329.621157 294.18226 
L 332.900496 294.239074 
L 336.179835 294.296616 
L 339.459174 294.35173 
L 342.738512 294.406843 
L 346.017851 294.461229 
L 349.29719 294.516586 
L 352.576529 294.572671 
L 355.855868 294.625843 
L 359.135207 294.683627 
L 362.414545 294.741898 
L 365.693884 294.801139 
L 368.973223 294.858195 
L 372.252562 294.921564 
L 375.531901 294.983719 
L 378.81124 295.048302 
L 382.090579 295.118227 
L 385.369917 295.187908 
L 388.649256 295.26803 
L 391.928595 295.354221 
L 395.207934 295.454009 
L 396.388496 295.488 
" clip-path="url(#p5dbeda8d71)" style="fill: none; stroke: #9467bd; stroke-width: 2; stroke-linecap: square"/>
   </g>
   <g id="patch_3">
    <path d="M 57.6 307.584 
L 57.6 41.472 
" style="fill: none; stroke: #000000; stroke-width: 0.8; stroke-linejoin: miter; stroke-linecap: square"/>
   </g>
   <g id="patch_4">
    <path d="M 414.72 307.584 
L 414.72 41.472 
" style="fill: none; stroke: #000000; stroke-width: 0.8; stroke-linejoin: miter; stroke-linecap: square"/>
   </g>
   <g id="patch_5">
    <path d="M 57.6 307.584 
L 414.72 307.584 
" style="fill: none; stroke: #000000; stroke-width: 0.8; stroke-linejoin: miter; stroke-linecap: square"/>
   </g>
   <g id="patch_6">
    <path d="M 57.6 41.472 
L 414.72 41.472 
" style="fill: none; stroke: #000000; stroke-width: 0.8; stroke-linejoin: miter; stroke-linecap: square"/>
   </g>
   <g id="legend_1">
    <g id="patch_7">
     <path d="M 262.221563 152.218875 
L 407.72 152.218875 
Q 409.72 152.218875 409.72 150.218875 
L 409.72 48.472 
Q 409.72 46.472 407.72 46.472 
L 262.221563 46.472 
Q 260.221563 46.472 260.221563 48.472 
L 260.221563 150.218875 
Q 260.221563 152.218875 262.221563 152.218875 
z
" style="fill: #ffffff; opacity: 0.8; stroke: #cccccc; stroke-linejoin: miter"/>
    </g>
    <g id="line2d_20">
     <path d="M 264.221563 54.570438 
L 274.221563 54.570438 
L 284.221563 54.570438 
" style="fill: none; stroke-dasharray: 7.4,3.2; stroke-dashoffset: 0; stroke: #808080; stroke-width: 2"/>
    </g>
    <g id="text_15">
     <!-- Reseek (verysensitive) -->
     <g transform="translate(292.221563 58.070438) scale(0.1 -0.1)">
      <defs>
       <path id="DejaVuSans-6b" d="M 581 4863 
L 1159 4863 
L 1159 1991 
L 2875 3500 
L 3609 3500 
L 1753 1863 
L 3688 0 
L 2938 0 
L 1159 1709 
L 1159 0 
L 581 0 
L 581 4863 
z
" transform="scale(0.015625)"/>
       <path id="DejaVuSans-20" transform="scale(0.015625)"/>
       <path id="DejaVuSans-28" d="M 1984 4856 
Q 1566 4138 1362 3434 
Q 1159 2731 1159 2009 
Q 1159 1288 1364 580 
Q 1569 -128 1984 -844 
L 1484 -844 
Q 1016 -109 783 600 
Q 550 1309 550 2009 
Q 550 2706 781 3412 
Q 1013 4119 1484 4856 
L 1984 4856 
z
" transform="scale(0.015625)"/>
       <path id="DejaVuSans-76" d="M 191 3500 
L 800 3500 
L 1894 563 
L 2988 3500 
L 3597 3500 
L 2284 0 
L 1503 0 
L 191 3500 
z
" transform="scale(0.015625)"/>
       <path id="DejaVuSans-79" d="M 2059 -325 
Q 1816 -950 1584 -1140 
Q 1353 -1331 966 -1331 
L 506 -1331 
L 506 -850 
L 844 -850 
Q 1081 -850 1212 -737 
Q 1344 -625 1503 -206 
L 1606 56 
L 191 3500 
L 800 3500 
L 1894 763 
L 2988 3500 
L 3597 3500 
L 2059 -325 
z
" transform="scale(0.015625)"/>
       <path id="DejaVuSans-74" d="M 1172 4494 
L 1172 3500 
L 2356 3500 
L 2356 3053 
L 1172 3053 
L 1172 1153 
Q 1172 725 1289 603 
Q 1406 481 1766 481 
L 2356 481 
L 2356 0 
L 1766 0 
Q 1100 0 847 248 
Q 594 497 594 1153 
L 594 3053 
L 172 3053 
L 172 3500 
L 594 3500 
L 594 4494 
L 1172 4494 
z
" transform="scale(0.015625)"/>
       <path id="DejaVuSans-29" d="M 513 4856 
L 1013 4856 
Q 1481 4119 1714 3412 
Q 1947 2706 1947 2009 
Q 1947 1309 1714 600 
Q 1481 -109 1013 -844 
L 513 -844 
Q 928 -128 1133 580 
Q 1338 1288 1338 2009 
Q 1338 2731 1133 3434 
Q 928 4138 513 4856 
z
" transform="scale(0.015625)"/>
      </defs>
      <use xlink:href="#DejaVuSans-52"/>
      <use xlink:href="#DejaVuSans-65" x="64.982422"/>
      <use xlink:href="#DejaVuSans-73" x="126.505859"/>
      <use xlink:href="#DejaVuSans-65" x="178.605469"/>
      <use xlink:href="#DejaVuSans-65" x="240.128906"/>
      <use xlink:href="#DejaVuSans-6b" x="301.652344"/>
      <use xlink:href="#DejaVuSans-20" x="359.5625"/>
      <use xlink:href="#DejaVuSans-28" x="391.349609"/>
      <use xlink:href="#DejaVuSans-76" x="430.363281"/>
      <use xlink:href="#DejaVuSans-65" x="489.542969"/>
      <use xlink:href="#DejaVuSans-72" x="551.066406"/>
      <use xlink:href="#DejaVuSans-79" x="592.179688"/>
      <use xlink:href="#DejaVuSans-73" x="651.359375"/>
      <use xlink:href="#DejaVuSans-65" x="703.458984"/>
      <use xlink:href="#DejaVuSans-6e" x="764.982422"/>
      <use xlink:href="#DejaVuSans-73" x="828.361328"/>
      <use xlink:href="#DejaVuSans-69" x="880.460938"/>
      <use xlink:href="#DejaVuSans-74" x="908.244141"/>
      <use xlink:href="#DejaVuSans-69" x="947.453125"/>
      <use xlink:href="#DejaVuSans-76" x="975.236328"/>
      <use xlink:href="#DejaVuSans-65" x="1034.416016"/>
      <use xlink:href="#DejaVuSans-29" x="1095.939453"/>
     </g>
    </g>
    <g id="line2d_21">
     <path d="M 264.221563 69.248563 
L 274.221563 69.248563 
L 284.221563 69.248563 
" style="fill: none; stroke: #ff00ff; stroke-width: 2; stroke-linecap: square"/>
    </g>
    <g id="text_16">
     <!-- TM-align -->
     <g transform="translate(292.221563 72.748563) scale(0.1 -0.1)">
      <defs>
       <path id="DejaVuSans-54" d="M -19 4666 
L 3928 4666 
L 3928 4134 
L 2272 4134 
L 2272 0 
L 1638 0 
L 1638 4134 
L -19 4134 
L -19 4666 
z
" transform="scale(0.015625)"/>
       <path id="DejaVuSans-4d" d="M 628 4666 
L 1569 4666 
L 2759 1491 
L 3956 4666 
L 4897 4666 
L 4897 0 
L 4281 0 
L 4281 4097 
L 3078 897 
L 2444 897 
L 1241 4097 
L 1241 0 
L 628 0 
L 628 4666 
z
" transform="scale(0.015625)"/>
       <path id="DejaVuSans-2d" d="M 313 2009 
L 1997 2009 
L 1997 1497 
L 313 1497 
L 313 2009 
z
" transform="scale(0.015625)"/>
       <path id="DejaVuSans-67" d="M 2906 1791 
Q 2906 2416 2648 2759 
Q 2391 3103 1925 3103 
Q 1463 3103 1205 2759 
Q 947 2416 947 1791 
Q 947 1169 1205 825 
Q 1463 481 1925 481 
Q 2391 481 2648 825 
Q 2906 1169 2906 1791 
z
M 3481 434 
Q 3481 -459 3084 -895 
Q 2688 -1331 1869 -1331 
Q 1566 -1331 1297 -1286 
Q 1028 -1241 775 -1147 
L 775 -588 
Q 1028 -725 1275 -790 
Q 1522 -856 1778 -856 
Q 2344 -856 2625 -561 
Q 2906 -266 2906 331 
L 2906 616 
Q 2728 306 2450 153 
Q 2172 0 1784 0 
Q 1141 0 747 490 
Q 353 981 353 1791 
Q 353 2603 747 3093 
Q 1141 3584 1784 3584 
Q 2172 3584 2450 3431 
Q 2728 3278 2906 2969 
L 2906 3500 
L 3481 3500 
L 3481 434 
z
" transform="scale(0.015625)"/>
      </defs>
      <use xlink:href="#DejaVuSans-54"/>
      <use xlink:href="#DejaVuSans-4d" x="61.083984"/>
      <use xlink:href="#DejaVuSans-2d" x="147.363281"/>
      <use xlink:href="#DejaVuSans-61" x="183.447266"/>
      <use xlink:href="#DejaVuSans-6c" x="244.726562"/>
      <use xlink:href="#DejaVuSans-69" x="272.509766"/>
      <use xlink:href="#DejaVuSans-67" x="300.292969"/>
      <use xlink:href="#DejaVuSans-6e" x="363.769531"/>
     </g>
    </g>
    <g id="line2d_22">
     <path d="M 264.221563 83.926688 
L 274.221563 83.926688 
L 284.221563 83.926688 
" style="fill: none; stroke: #1f77b4; stroke-width: 2; stroke-linecap: square"/>
    </g>
    <g id="text_17">
     <!-- foldseekTM -->
     <g transform="translate(292.221563 87.426688) scale(0.1 -0.1)">
      <defs>
       <path id="DejaVuSans-66" d="M 2375 4863 
L 2375 4384 
L 1825 4384 
Q 1516 4384 1395 4259 
Q 1275 4134 1275 3809 
L 1275 3500 
L 2222 3500 
L 2222 3053 
L 1275 3053 
L 1275 0 
L 697 0 
L 697 3053 
L 147 3053 
L 147 3500 
L 697 3500 
L 697 3744 
Q 697 4328 969 4595 
Q 1241 4863 1831 4863 
L 2375 4863 
z
" transform="scale(0.015625)"/>
       <path id="DejaVuSans-64" d="M 2906 2969 
L 2906 4863 
L 3481 4863 
L 3481 0 
L 2906 0 
L 2906 525 
Q 2725 213 2448 61 
Q 2172 -91 1784 -91 
Q 1150 -91 751 415 
Q 353 922 353 1747 
Q 353 2572 751 3078 
Q 1150 3584 1784 3584 
Q 2172 3584 2448 3432 
Q 2725 3281 2906 2969 
z
M 947 1747 
Q 947 1113 1208 752 
Q 1469 391 1925 391 
Q 2381 391 2643 752 
Q 2906 1113 2906 1747 
Q 2906 2381 2643 2742 
Q 2381 3103 1925 3103 
Q 1469 3103 1208 2742 
Q 947 2381 947 1747 
z
" transform="scale(0.015625)"/>
      </defs>
      <use xlink:href="#DejaVuSans-66"/>
      <use xlink:href="#DejaVuSans-6f" x="35.205078"/>
      <use xlink:href="#DejaVuSans-6c" x="96.386719"/>
      <use xlink:href="#DejaVuSans-64" x="124.169922"/>
      <use xlink:href="#DejaVuSans-73" x="187.646484"/>
      <use xlink:href="#DejaVuSans-65" x="239.746094"/>
      <use xlink:href="#DejaVuSans-65" x="301.269531"/>
      <use xlink:href="#DejaVuSans-6b" x="362.792969"/>
      <use xlink:href="#DejaVuSans-54" x="420.703125"/>
      <use xlink:href="#DejaVuSans-4d" x="481.787109"/>
     </g>
    </g>
    <g id="line2d_23">
     <path d="M 264.221563 98.604813 
L 274.221563 98.604813 
L 284.221563 98.604813 
" style="fill: none; stroke: #ff7f0e; stroke-width: 2; stroke-linecap: square"/>
    </g>
    <g id="text_18">
     <!-- CE -->
     <g transform="translate(292.221563 102.104813) scale(0.1 -0.1)">
      <defs>
       <path id="DejaVuSans-43" d="M 4122 4306 
L 4122 3641 
Q 3803 3938 3442 4084 
Q 3081 4231 2675 4231 
Q 1875 4231 1450 3742 
Q 1025 3253 1025 2328 
Q 1025 1406 1450 917 
Q 1875 428 2675 428 
Q 3081 428 3442 575 
Q 3803 722 4122 1019 
L 4122 359 
Q 3791 134 3420 21 
Q 3050 -91 2638 -91 
Q 1578 -91 968 557 
Q 359 1206 359 2328 
Q 359 3453 968 4101 
Q 1578 4750 2638 4750 
Q 3056 4750 3426 4639 
Q 3797 4528 4122 4306 
z
" transform="scale(0.015625)"/>
       <path id="DejaVuSans-45" d="M 628 4666 
L 3578 4666 
L 3578 4134 
L 1259 4134 
L 1259 2753 
L 3481 2753 
L 3481 2222 
L 1259 2222 
L 1259 531 
L 3634 531 
L 3634 0 
L 628 0 
L 628 4666 
z
" transform="scale(0.015625)"/>
      </defs>
      <use xlink:href="#DejaVuSans-43"/>
      <use xlink:href="#DejaVuSans-45" x="69.824219"/>
     </g>
    </g>
    <g id="line2d_24">
     <path d="M 264.221563 113.282938 
L 274.221563 113.282938 
L 284.221563 113.282938 
" style="fill: none; stroke: #2ca02c; stroke-width: 2; stroke-linecap: square"/>
    </g>
    <g id="text_19">
     <!-- CLE-sw -->
     <g transform="translate(292.221563 116.782938) scale(0.1 -0.1)">
      <defs>
       <path id="DejaVuSans-4c" d="M 628 4666 
L 1259 4666 
L 1259 531 
L 3531 531 
L 3531 0 
L 628 0 
L 628 4666 
z
" transform="scale(0.015625)"/>
       <path id="DejaVuSans-77" d="M 269 3500 
L 844 3500 
L 1563 769 
L 2278 3500 
L 2956 3500 
L 3675 769 
L 4391 3500 
L 4966 3500 
L 4050 0 
L 3372 0 
L 2619 2869 
L 1863 0 
L 1184 0 
L 269 3500 
z
" transform="scale(0.015625)"/>
      </defs>
      <use xlink:href="#DejaVuSans-43"/>
      <use xlink:href="#DejaVuSans-4c" x="69.824219"/>
      <use xlink:href="#DejaVuSans-45" x="125.537109"/>
      <use xlink:href="#DejaVuSans-2d" x="188.720703"/>
      <use xlink:href="#DejaVuSans-73" x="224.804688"/>
      <use xlink:href="#DejaVuSans-77" x="276.904297"/>
     </g>
    </g>
    <g id="line2d_25">
     <path d="M 264.221563 127.961063 
L 274.221563 127.961063 
L 284.221563 127.961063 
" style="fill: none; stroke: #d62728; stroke-width: 2; stroke-linecap: square"/>
    </g>
    <g id="text_20">
     <!-- 3Dblast -->
     <g transform="translate(292.221563 131.461063) scale(0.1 -0.1)">
      <defs>
       <path id="DejaVuSans-33" d="M 2597 2516 
Q 3050 2419 3304 2112 
Q 3559 1806 3559 1356 
Q 3559 666 3084 287 
Q 2609 -91 1734 -91 
Q 1441 -91 1130 -33 
Q 819 25 488 141 
L 488 750 
Q 750 597 1062 519 
Q 1375 441 1716 441 
Q 2309 441 2620 675 
Q 2931 909 2931 1356 
Q 2931 1769 2642 2001 
Q 2353 2234 1838 2234 
L 1294 2234 
L 1294 2753 
L 1863 2753 
Q 2328 2753 2575 2939 
Q 2822 3125 2822 3475 
Q 2822 3834 2567 4026 
Q 2313 4219 1838 4219 
Q 1578 4219 1281 4162 
Q 984 4106 628 3988 
L 628 4550 
Q 988 4650 1302 4700 
Q 1616 4750 1894 4750 
Q 2613 4750 3031 4423 
Q 3450 4097 3450 3541 
Q 3450 3153 3228 2886 
Q 3006 2619 2597 2516 
z
" transform="scale(0.015625)"/>
       <path id="DejaVuSans-44" d="M 1259 4147 
L 1259 519 
L 2022 519 
Q 2988 519 3436 956 
Q 3884 1394 3884 2338 
Q 3884 3275 3436 3711 
Q 2988 4147 2022 4147 
L 1259 4147 
z
M 628 4666 
L 1925 4666 
Q 3281 4666 3915 4102 
Q 4550 3538 4550 2338 
Q 4550 1131 3912 565 
Q 3275 0 1925 0 
L 628 0 
L 628 4666 
z
" transform="scale(0.015625)"/>
       <path id="DejaVuSans-62" d="M 3116 1747 
Q 3116 2381 2855 2742 
Q 2594 3103 2138 3103 
Q 1681 3103 1420 2742 
Q 1159 2381 1159 1747 
Q 1159 1113 1420 752 
Q 1681 391 2138 391 
Q 2594 391 2855 752 
Q 3116 1113 3116 1747 
z
M 1159 2969 
Q 1341 3281 1617 3432 
Q 1894 3584 2278 3584 
Q 2916 3584 3314 3078 
Q 3713 2572 3713 1747 
Q 3713 922 3314 415 
Q 2916 -91 2278 -91 
Q 1894 -91 1617 61 
Q 1341 213 1159 525 
L 1159 0 
L 581 0 
L 581 4863 
L 1159 4863 
L 1159 2969 
z
" transform="scale(0.015625)"/>
      </defs>
      <use xlink:href="#DejaVuSans-33"/>
      <use xlink:href="#DejaVuSans-44" x="63.623047"/>
      <use xlink:href="#DejaVuSans-62" x="140.625"/>
      <use xlink:href="#DejaVuSans-6c" x="204.101562"/>
      <use xlink:href="#DejaVuSans-61" x="231.884766"/>
      <use xlink:href="#DejaVuSans-73" x="293.164062"/>
      <use xlink:href="#DejaVuSans-74" x="345.263672"/>
     </g>
    </g>
    <g id="line2d_26">
     <path d="M 264.221563 142.639188 
L 274.221563 142.639188 
L 284.221563 142.639188 
" style="fill: none; stroke: #9467bd; stroke-width: 2; stroke-linecap: square"/>
    </g>
    <g id="text_21">
     <!-- geometricus -->
     <g transform="translate(292.221563 146.139188) scale(0.1 -0.1)">
      <defs>
       <path id="DejaVuSans-6d" d="M 3328 2828 
Q 3544 3216 3844 3400 
Q 4144 3584 4550 3584 
Q 5097 3584 5394 3201 
Q 5691 2819 5691 2113 
L 5691 0 
L 5113 0 
L 5113 2094 
Q 5113 2597 4934 2840 
Q 4756 3084 4391 3084 
Q 3944 3084 3684 2787 
Q 3425 2491 3425 1978 
L 3425 0 
L 2847 0 
L 2847 2094 
Q 2847 2600 2669 2842 
Q 2491 3084 2119 3084 
Q 1678 3084 1418 2786 
Q 1159 2488 1159 1978 
L 1159 0 
L 581 0 
L 581 3500 
L 1159 3500 
L 1159 2956 
Q 1356 3278 1631 3431 
Q 1906 3584 2284 3584 
Q 2666 3584 2933 3390 
Q 3200 3197 3328 2828 
z
" transform="scale(0.015625)"/>
       <path id="DejaVuSans-75" d="M 544 1381 
L 544 3500 
L 1119 3500 
L 1119 1403 
Q 1119 906 1312 657 
Q 1506 409 1894 409 
Q 2359 409 2629 706 
Q 2900 1003 2900 1516 
L 2900 3500 
L 3475 3500 
L 3475 0 
L 2900 0 
L 2900 538 
Q 2691 219 2414 64 
Q 2138 -91 1772 -91 
Q 1169 -91 856 284 
Q 544 659 544 1381 
z
M 1991 3584 
L 1991 3584 
z
" transform="scale(0.015625)"/>
      </defs>
      <use xlink:href="#DejaVuSans-67"/>
      <use xlink:href="#DejaVuSans-65" x="63.476562"/>
      <use xlink:href="#DejaVuSans-6f" x="125"/>
      <use xlink:href="#DejaVuSans-6d" x="186.181641"/>
      <use xlink:href="#DejaVuSans-65" x="283.59375"/>
      <use xlink:href="#DejaVuSans-74" x="345.117188"/>
      <use xlink:href="#DejaVuSans-72" x="384.326172"/>
      <use xlink:href="#DejaVuSans-69" x="425.439453"/>
      <use xlink:href="#DejaVuSans-63" x="453.222656"/>
      <use xlink:href="#DejaVuSans-75" x="508.203125"/>
      <use xlink:href="#DejaVuSans-73" x="571.582031"/>
     </g>
    </g>
   </g>
  </g>
 </g>
 <defs>
  <clipPath id="p5dbeda8d71">
   <rect x="57.6" y="41.472" width="357.12" height="266.112"/>
  </clipPath>
 </defs>
</svg>
