<?xml version="1.0" encoding="utf-8" standalone="no"?>
<!DOCTYPE svg PUBLIC "-//W3C//DTD SVG 1.1//EN"
  "http://www.w3.org/Graphics/SVG/1.1/DTD/svg11.dtd">
<svg xmlns:xlink="http://www.w3.org/1999/xlink" width="460.8pt" height="345.6pt" viewBox="0 0 460.8 345.6" xmlns="http://www.w3.org/2000/svg" version="1.1">
 <metadata>
  <rdf:RDF xmlns:dc="http://purl.org/dc/elements/1.1/" xmlns:cc="http://creativecommons.org/ns#" xmlns:rdf="http://www.w3.org/1999/02/22-rdf-syntax-ns#">
   <cc:Work>
    <dc:type rdf:resource="http://purl.org/dc/dcmitype/StillImage"/>
    <dc:date>2024-10-18T21:02:35.306197</dc:date>
    <dc:format>image/svg+xml</dc:format>
    <dc:creator>
     <cc:Agent>
      <dc:title>Matplotlib v3.9.2, https://matplotlib.org/</dc:title>
     </cc:Agent>
    </dc:creator>
   </cc:Work>
  </rdf:RDF>
 </metadata>
 <defs>
  <style type="text/css">*{stroke-linejoin: round; stroke-linecap: butt}</style>
 </defs>
 <g id="figure_1">
  <g id="patch_1">
   <path d="M 0 345.6 
L 460.8 345.6 
L 460.8 0 
L 0 0 
z
" style="fill: #ffffff"/>
  </g>
  <g id="axes_1">
   <g id="patch_2">
    <path d="M 57.6 307.584 
L 414.72 307.584 
L 414.72 41.472 
L 57.6 41.472 
z
" style="fill: #ffffff"/>
   </g>
   <g id="matplotlib.axis_1">
    <g id="xtick_1">
     <g id="line2d_1">
      <defs>
       <path id="m8f61c50ca3" d="M 0 0 
L 0 3.5 
" style="stroke: #000000; stroke-width: 0.8"/>
      </defs>
      <g>
       <use xlink:href="#m8f61c50ca3" x="73.560582" y="307.584" style="stroke: #000000; stroke-width: 0.8"/>
      </g>
     </g>
     <g id="text_1">
      <!-- 0.0 -->
      <g transform="translate(65.609019 322.182437) scale(0.1 -0.1)">
       <defs>
        <path id="DejaVuSans-30" d="M 2034 4250 
Q 1547 4250 1301 3770 
Q 1056 3291 1056 2328 
Q 1056 1369 1301 889 
Q 1547 409 2034 409 
Q 2525 409 2770 889 
Q 3016 1369 3016 2328 
Q 3016 3291 2770 3770 
Q 2525 4250 2034 4250 
z
M 2034 4750 
Q 2819 4750 3233 4129 
Q 3647 3509 3647 2328 
Q 3647 1150 3233 529 
Q 2819 -91 2034 -91 
Q 1250 -91 836 529 
Q 422 1150 422 2328 
Q 422 3509 836 4129 
Q 1250 4750 2034 4750 
z
" transform="scale(0.015625)"/>
        <path id="DejaVuSans-2e" d="M 684 794 
L 1344 794 
L 1344 0 
L 684 0 
L 684 794 
z
" transform="scale(0.015625)"/>
       </defs>
       <use xlink:href="#DejaVuSans-30"/>
       <use xlink:href="#DejaVuSans-2e" x="63.623047"/>
       <use xlink:href="#DejaVuSans-30" x="95.410156"/>
      </g>
     </g>
    </g>
    <g id="xtick_2">
     <g id="line2d_2">
      <g>
       <use xlink:href="#m8f61c50ca3" x="146.419981" y="307.584" style="stroke: #000000; stroke-width: 0.8"/>
      </g>
     </g>
     <g id="text_2">
      <!-- 0.2 -->
      <g transform="translate(138.468418 322.182437) scale(0.1 -0.1)">
       <defs>
        <path id="DejaVuSans-32" d="M 1228 531 
L 3431 531 
L 3431 0 
L 469 0 
L 469 531 
Q 828 903 1448 1529 
Q 2069 2156 2228 2338 
Q 2531 2678 2651 2914 
Q 2772 3150 2772 3378 
Q 2772 3750 2511 3984 
Q 2250 4219 1831 4219 
Q 1534 4219 1204 4116 
Q 875 4013 500 3803 
L 500 4441 
Q 881 4594 1212 4672 
Q 1544 4750 1819 4750 
Q 2544 4750 2975 4387 
Q 3406 4025 3406 3419 
Q 3406 3131 3298 2873 
Q 3191 2616 2906 2266 
Q 2828 2175 2409 1742 
Q 1991 1309 1228 531 
z
" transform="scale(0.015625)"/>
       </defs>
       <use xlink:href="#DejaVuSans-30"/>
       <use xlink:href="#DejaVuSans-2e" x="63.623047"/>
       <use xlink:href="#DejaVuSans-32" x="95.410156"/>
      </g>
     </g>
    </g>
    <g id="xtick_3">
     <g id="line2d_3">
      <g>
       <use xlink:href="#m8f61c50ca3" x="219.27938" y="307.584" style="stroke: #000000; stroke-width: 0.8"/>
      </g>
     </g>
     <g id="text_3">
      <!-- 0.4 -->
      <g transform="translate(211.327818 322.182437) scale(0.1 -0.1)">
       <defs>
        <path id="DejaVuSans-34" d="M 2419 4116 
L 825 1625 
L 2419 1625 
L 2419 4116 
z
M 2253 4666 
L 3047 4666 
L 3047 1625 
L 3713 1625 
L 3713 1100 
L 3047 1100 
L 3047 0 
L 2419 0 
L 2419 1100 
L 313 1100 
L 313 1709 
L 2253 4666 
z
" transform="scale(0.015625)"/>
       </defs>
       <use xlink:href="#DejaVuSans-30"/>
       <use xlink:href="#DejaVuSans-2e" x="63.623047"/>
       <use xlink:href="#DejaVuSans-34" x="95.410156"/>
      </g>
     </g>
    </g>
    <g id="xtick_4">
     <g id="line2d_4">
      <g>
       <use xlink:href="#m8f61c50ca3" x="292.138779" y="307.584" style="stroke: #000000; stroke-width: 0.8"/>
      </g>
     </g>
     <g id="text_4">
      <!-- 0.6 -->
      <g transform="translate(284.187217 322.182437) scale(0.1 -0.1)">
       <defs>
        <path id="DejaVuSans-36" d="M 2113 2584 
Q 1688 2584 1439 2293 
Q 1191 2003 1191 1497 
Q 1191 994 1439 701 
Q 1688 409 2113 409 
Q 2538 409 2786 701 
Q 3034 994 3034 1497 
Q 3034 2003 2786 2293 
Q 2538 2584 2113 2584 
z
M 3366 4563 
L 3366 3988 
Q 3128 4100 2886 4159 
Q 2644 4219 2406 4219 
Q 1781 4219 1451 3797 
Q 1122 3375 1075 2522 
Q 1259 2794 1537 2939 
Q 1816 3084 2150 3084 
Q 2853 3084 3261 2657 
Q 3669 2231 3669 1497 
Q 3669 778 3244 343 
Q 2819 -91 2113 -91 
Q 1303 -91 875 529 
Q 447 1150 447 2328 
Q 447 3434 972 4092 
Q 1497 4750 2381 4750 
Q 2619 4750 2861 4703 
Q 3103 4656 3366 4563 
z
" transform="scale(0.015625)"/>
       </defs>
       <use xlink:href="#DejaVuSans-30"/>
       <use xlink:href="#DejaVuSans-2e" x="63.623047"/>
       <use xlink:href="#DejaVuSans-36" x="95.410156"/>
      </g>
     </g>
    </g>
    <g id="xtick_5">
     <g id="line2d_5">
      <g>
       <use xlink:href="#m8f61c50ca3" x="364.998178" y="307.584" style="stroke: #000000; stroke-width: 0.8"/>
      </g>
     </g>
     <g id="text_5">
      <!-- 0.8 -->
      <g transform="translate(357.046616 322.182437) scale(0.1 -0.1)">
       <defs>
        <path id="DejaVuSans-38" d="M 2034 2216 
Q 1584 2216 1326 1975 
Q 1069 1734 1069 1313 
Q 1069 891 1326 650 
Q 1584 409 2034 409 
Q 2484 409 2743 651 
Q 3003 894 3003 1313 
Q 3003 1734 2745 1975 
Q 2488 2216 2034 2216 
z
M 1403 2484 
Q 997 2584 770 2862 
Q 544 3141 544 3541 
Q 544 4100 942 4425 
Q 1341 4750 2034 4750 
Q 2731 4750 3128 4425 
Q 3525 4100 3525 3541 
Q 3525 3141 3298 2862 
Q 3072 2584 2669 2484 
Q 3125 2378 3379 2068 
Q 3634 1759 3634 1313 
Q 3634 634 3220 271 
Q 2806 -91 2034 -91 
Q 1263 -91 848 271 
Q 434 634 434 1313 
Q 434 1759 690 2068 
Q 947 2378 1403 2484 
z
M 1172 3481 
Q 1172 3119 1398 2916 
Q 1625 2713 2034 2713 
Q 2441 2713 2670 2916 
Q 2900 3119 2900 3481 
Q 2900 3844 2670 4047 
Q 2441 4250 2034 4250 
Q 1625 4250 1398 4047 
Q 1172 3844 1172 3481 
z
" transform="scale(0.015625)"/>
       </defs>
       <use xlink:href="#DejaVuSans-30"/>
       <use xlink:href="#DejaVuSans-2e" x="63.623047"/>
       <use xlink:href="#DejaVuSans-38" x="95.410156"/>
      </g>
     </g>
    </g>
    <g id="text_6">
     <!-- Recall -->
     <g transform="translate(221.242812 335.860562) scale(0.1 -0.1)">
      <defs>
       <path id="DejaVuSans-52" d="M 2841 2188 
Q 3044 2119 3236 1894 
Q 3428 1669 3622 1275 
L 4263 0 
L 3584 0 
L 2988 1197 
Q 2756 1666 2539 1819 
Q 2322 1972 1947 1972 
L 1259 1972 
L 1259 0 
L 628 0 
L 628 4666 
L 2053 4666 
Q 2853 4666 3247 4331 
Q 3641 3997 3641 3322 
Q 3641 2881 3436 2590 
Q 3231 2300 2841 2188 
z
M 1259 4147 
L 1259 2491 
L 2053 2491 
Q 2509 2491 2742 2702 
Q 2975 2913 2975 3322 
Q 2975 3731 2742 3939 
Q 2509 4147 2053 4147 
L 1259 4147 
z
" transform="scale(0.015625)"/>
       <path id="DejaVuSans-65" d="M 3597 1894 
L 3597 1613 
L 953 1613 
Q 991 1019 1311 708 
Q 1631 397 2203 397 
Q 2534 397 2845 478 
Q 3156 559 3463 722 
L 3463 178 
Q 3153 47 2828 -22 
Q 2503 -91 2169 -91 
Q 1331 -91 842 396 
Q 353 884 353 1716 
Q 353 2575 817 3079 
Q 1281 3584 2069 3584 
Q 2775 3584 3186 3129 
Q 3597 2675 3597 1894 
z
M 3022 2063 
Q 3016 2534 2758 2815 
Q 2500 3097 2075 3097 
Q 1594 3097 1305 2825 
Q 1016 2553 972 2059 
L 3022 2063 
z
" transform="scale(0.015625)"/>
       <path id="DejaVuSans-63" d="M 3122 3366 
L 3122 2828 
Q 2878 2963 2633 3030 
Q 2388 3097 2138 3097 
Q 1578 3097 1268 2742 
Q 959 2388 959 1747 
Q 959 1106 1268 751 
Q 1578 397 2138 397 
Q 2388 397 2633 464 
Q 2878 531 3122 666 
L 3122 134 
Q 2881 22 2623 -34 
Q 2366 -91 2075 -91 
Q 1284 -91 818 406 
Q 353 903 353 1747 
Q 353 2603 823 3093 
Q 1294 3584 2113 3584 
Q 2378 3584 2631 3529 
Q 2884 3475 3122 3366 
z
" transform="scale(0.015625)"/>
       <path id="DejaVuSans-61" d="M 2194 1759 
Q 1497 1759 1228 1600 
Q 959 1441 959 1056 
Q 959 750 1161 570 
Q 1363 391 1709 391 
Q 2188 391 2477 730 
Q 2766 1069 2766 1631 
L 2766 1759 
L 2194 1759 
z
M 3341 1997 
L 3341 0 
L 2766 0 
L 2766 531 
Q 2569 213 2275 61 
Q 1981 -91 1556 -91 
Q 1019 -91 701 211 
Q 384 513 384 1019 
Q 384 1609 779 1909 
Q 1175 2209 1959 2209 
L 2766 2209 
L 2766 2266 
Q 2766 2663 2505 2880 
Q 2244 3097 1772 3097 
Q 1472 3097 1187 3025 
Q 903 2953 641 2809 
L 641 3341 
Q 956 3463 1253 3523 
Q 1550 3584 1831 3584 
Q 2591 3584 2966 3190 
Q 3341 2797 3341 1997 
z
" transform="scale(0.015625)"/>
       <path id="DejaVuSans-6c" d="M 603 4863 
L 1178 4863 
L 1178 0 
L 603 0 
L 603 4863 
z
" transform="scale(0.015625)"/>
      </defs>
      <use xlink:href="#DejaVuSans-52"/>
      <use xlink:href="#DejaVuSans-65" x="64.982422"/>
      <use xlink:href="#DejaVuSans-63" x="126.505859"/>
      <use xlink:href="#DejaVuSans-61" x="181.486328"/>
      <use xlink:href="#DejaVuSans-6c" x="242.765625"/>
      <use xlink:href="#DejaVuSans-6c" x="270.548828"/>
     </g>
    </g>
   </g>
   <g id="matplotlib.axis_2">
    <g id="ytick_1">
     <g id="line2d_6">
      <defs>
       <path id="m072dd787cd" d="M 0 0 
L -3.5 0 
" style="stroke: #000000; stroke-width: 0.8"/>
      </defs>
      <g>
       <use xlink:href="#m072dd787cd" x="57.6" y="296.192609" style="stroke: #000000; stroke-width: 0.8"/>
      </g>
     </g>
     <g id="text_7">
      <!-- 0.0 -->
      <g transform="translate(34.696875 299.991827) scale(0.1 -0.1)">
       <use xlink:href="#DejaVuSans-30"/>
       <use xlink:href="#DejaVuSans-2e" x="63.623047"/>
       <use xlink:href="#DejaVuSans-30" x="95.410156"/>
      </g>
     </g>
    </g>
    <g id="ytick_2">
     <g id="line2d_7">
      <g>
       <use xlink:href="#m072dd787cd" x="57.6" y="247.667687" style="stroke: #000000; stroke-width: 0.8"/>
      </g>
     </g>
     <g id="text_8">
      <!-- 0.2 -->
      <g transform="translate(34.696875 251.466906) scale(0.1 -0.1)">
       <use xlink:href="#DejaVuSans-30"/>
       <use xlink:href="#DejaVuSans-2e" x="63.623047"/>
       <use xlink:href="#DejaVuSans-32" x="95.410156"/>
      </g>
     </g>
    </g>
    <g id="ytick_3">
     <g id="line2d_8">
      <g>
       <use xlink:href="#m072dd787cd" x="57.6" y="199.142765" style="stroke: #000000; stroke-width: 0.8"/>
      </g>
     </g>
     <g id="text_9">
      <!-- 0.4 -->
      <g transform="translate(34.696875 202.941984) scale(0.1 -0.1)">
       <use xlink:href="#DejaVuSans-30"/>
       <use xlink:href="#DejaVuSans-2e" x="63.623047"/>
       <use xlink:href="#DejaVuSans-34" x="95.410156"/>
      </g>
     </g>
    </g>
    <g id="ytick_4">
     <g id="line2d_9">
      <g>
       <use xlink:href="#m072dd787cd" x="57.6" y="150.617843" style="stroke: #000000; stroke-width: 0.8"/>
      </g>
     </g>
     <g id="text_10">
      <!-- 0.6 -->
      <g transform="translate(34.696875 154.417062) scale(0.1 -0.1)">
       <use xlink:href="#DejaVuSans-30"/>
       <use xlink:href="#DejaVuSans-2e" x="63.623047"/>
       <use xlink:href="#DejaVuSans-36" x="95.410156"/>
      </g>
     </g>
    </g>
    <g id="ytick_5">
     <g id="line2d_10">
      <g>
       <use xlink:href="#m072dd787cd" x="57.6" y="102.092922" style="stroke: #000000; stroke-width: 0.8"/>
      </g>
     </g>
     <g id="text_11">
      <!-- 0.8 -->
      <g transform="translate(34.696875 105.89214) scale(0.1 -0.1)">
       <use xlink:href="#DejaVuSans-30"/>
       <use xlink:href="#DejaVuSans-2e" x="63.623047"/>
       <use xlink:href="#DejaVuSans-38" x="95.410156"/>
      </g>
     </g>
    </g>
    <g id="ytick_6">
     <g id="line2d_11">
      <g>
       <use xlink:href="#m072dd787cd" x="57.6" y="53.568" style="stroke: #000000; stroke-width: 0.8"/>
      </g>
     </g>
     <g id="text_12">
      <!-- 1.0 -->
      <g transform="translate(34.696875 57.367219) scale(0.1 -0.1)">
       <defs>
        <path id="DejaVuSans-31" d="M 794 531 
L 1825 531 
L 1825 4091 
L 703 3866 
L 703 4441 
L 1819 4666 
L 2450 4666 
L 2450 531 
L 3481 531 
L 3481 0 
L 794 0 
L 794 531 
z
" transform="scale(0.015625)"/>
       </defs>
       <use xlink:href="#DejaVuSans-31"/>
       <use xlink:href="#DejaVuSans-2e" x="63.623047"/>
       <use xlink:href="#DejaVuSans-30" x="95.410156"/>
      </g>
     </g>
    </g>
    <g id="text_13">
     <!-- Precision -->
     <g transform="translate(28.617187 196.835031) rotate(-90) scale(0.1 -0.1)">
      <defs>
       <path id="DejaVuSans-50" d="M 1259 4147 
L 1259 2394 
L 2053 2394 
Q 2494 2394 2734 2622 
Q 2975 2850 2975 3272 
Q 2975 3691 2734 3919 
Q 2494 4147 2053 4147 
L 1259 4147 
z
M 628 4666 
L 2053 4666 
Q 2838 4666 3239 4311 
Q 3641 3956 3641 3272 
Q 3641 2581 3239 2228 
Q 2838 1875 2053 1875 
L 1259 1875 
L 1259 0 
L 628 0 
L 628 4666 
z
" transform="scale(0.015625)"/>
       <path id="DejaVuSans-72" d="M 2631 2963 
Q 2534 3019 2420 3045 
Q 2306 3072 2169 3072 
Q 1681 3072 1420 2755 
Q 1159 2438 1159 1844 
L 1159 0 
L 581 0 
L 581 3500 
L 1159 3500 
L 1159 2956 
Q 1341 3275 1631 3429 
Q 1922 3584 2338 3584 
Q 2397 3584 2469 3576 
Q 2541 3569 2628 3553 
L 2631 2963 
z
" transform="scale(0.015625)"/>
       <path id="DejaVuSans-69" d="M 603 3500 
L 1178 3500 
L 1178 0 
L 603 0 
L 603 3500 
z
M 603 4863 
L 1178 4863 
L 1178 4134 
L 603 4134 
L 603 4863 
z
" transform="scale(0.015625)"/>
       <path id="DejaVuSans-73" d="M 2834 3397 
L 2834 2853 
Q 2591 2978 2328 3040 
Q 2066 3103 1784 3103 
Q 1356 3103 1142 2972 
Q 928 2841 928 2578 
Q 928 2378 1081 2264 
Q 1234 2150 1697 2047 
L 1894 2003 
Q 2506 1872 2764 1633 
Q 3022 1394 3022 966 
Q 3022 478 2636 193 
Q 2250 -91 1575 -91 
Q 1294 -91 989 -36 
Q 684 19 347 128 
L 347 722 
Q 666 556 975 473 
Q 1284 391 1588 391 
Q 1994 391 2212 530 
Q 2431 669 2431 922 
Q 2431 1156 2273 1281 
Q 2116 1406 1581 1522 
L 1381 1569 
Q 847 1681 609 1914 
Q 372 2147 372 2553 
Q 372 3047 722 3315 
Q 1072 3584 1716 3584 
Q 2034 3584 2315 3537 
Q 2597 3491 2834 3397 
z
" transform="scale(0.015625)"/>
       <path id="DejaVuSans-6f" d="M 1959 3097 
Q 1497 3097 1228 2736 
Q 959 2375 959 1747 
Q 959 1119 1226 758 
Q 1494 397 1959 397 
Q 2419 397 2687 759 
Q 2956 1122 2956 1747 
Q 2956 2369 2687 2733 
Q 2419 3097 1959 3097 
z
M 1959 3584 
Q 2709 3584 3137 3096 
Q 3566 2609 3566 1747 
Q 3566 888 3137 398 
Q 2709 -91 1959 -91 
Q 1206 -91 779 398 
Q 353 888 353 1747 
Q 353 2609 779 3096 
Q 1206 3584 1959 3584 
z
" transform="scale(0.015625)"/>
       <path id="DejaVuSans-6e" d="M 3513 2113 
L 3513 0 
L 2938 0 
L 2938 2094 
Q 2938 2591 2744 2837 
Q 2550 3084 2163 3084 
Q 1697 3084 1428 2787 
Q 1159 2491 1159 1978 
L 1159 0 
L 581 0 
L 581 3500 
L 1159 3500 
L 1159 2956 
Q 1366 3272 1645 3428 
Q 1925 3584 2291 3584 
Q 2894 3584 3203 3211 
Q 3513 2838 3513 2113 
z
" transform="scale(0.015625)"/>
      </defs>
      <use xlink:href="#DejaVuSans-50"/>
      <use xlink:href="#DejaVuSans-72" x="58.552734"/>
      <use xlink:href="#DejaVuSans-65" x="97.416016"/>
      <use xlink:href="#DejaVuSans-63" x="158.939453"/>
      <use xlink:href="#DejaVuSans-69" x="213.919922"/>
      <use xlink:href="#DejaVuSans-73" x="241.703125"/>
      <use xlink:href="#DejaVuSans-69" x="293.802734"/>
      <use xlink:href="#DejaVuSans-6f" x="321.585938"/>
      <use xlink:href="#DejaVuSans-6e" x="382.767578"/>
     </g>
    </g>
   </g>
   <g id="line2d_12">
    <path d="M 73.832727 53.568 
L 78.169376 53.568 
L 78.665986 56.542578 
L 79.610717 58.546172 
L 80.141862 58.151907 
L 80.625758 59.112458 
L 81.209106 58.69854 
L 81.701308 59.104451 
L 83.005856 60.769826 
L 83.613139 61.221593 
L 84.615283 60.547582 
L 86.713525 59.461352 
L 87.338986 59.200045 
L 89.03865 59.148609 
L 89.916242 59.824803 
L 91.205853 59.811459 
L 96.011586 62.338637 
L 97.039778 63.131534 
L 98.087205 64.548947 
L 98.90935 67.035122 
L 99.793681 68.428515 
L 100.663513 70.531827 
L 101.818007 69.994656 
L 103.18627 69.958748 
L 104.083606 70.78076 
L 105.333837 71.520037 
L 105.905018 72.577153 
L 106.795251 73.201911 
L 107.839326 73.742964 
L 108.718812 75.241899 
L 109.695055 75.237289 
L 110.372429 76.422025 
L 111.344009 76.549403 
L 113.001925 78.307461 
L 113.661302 79.81877 
L 114.506471 79.954882 
L 115.416121 80.580611 
L 116.035061 81.382 
L 116.668938 81.615405 
L 118.07986 81.802226 
L 118.768746 82.81761 
L 119.468561 83.525346 
L 121.374562 83.602986 
L 121.961445 84.14137 
L 122.742133 84.46406 
L 123.386939 84.511129 
L 124.02373 85.122301 
L 124.84267 86.199311 
L 126.03465 87.239443 
L 126.641568 87.361969 
L 127.4412 87.801119 
L 128.793471 90.220572 
L 129.589095 90.417826 
L 130.337726 90.479452 
L 131.940633 91.222854 
L 132.81276 91.167536 
L 134.009111 91.794963 
L 134.578871 92.032492 
L 135.197083 91.9352 
L 135.68342 92.016964 
L 136.32604 93.383184 
L 136.952266 93.806806 
L 137.439331 94.946899 
L 138.034228 95.27517 
L 138.631675 96.358246 
L 139.217465 96.503579 
L 139.806898 96.523231 
L 141.08048 98.459861 
L 141.552973 98.628 
L 142.121641 99.472091 
L 142.920544 99.689725 
L 143.3424 100.434097 
L 143.72819 101.485875 
L 144.419262 101.533672 
L 144.788295 101.760283 
L 145.090297 102.147997 
L 145.740203 102.550997 
L 146.193388 103.554492 
L 146.785371 104.163965 
L 147.206134 104.963656 
L 147.747115 105.113355 
L 148.253488 106.334 
L 149.421424 106.277711 
L 150.21122 107.78999 
L 151.111762 108.766312 
L 152.119043 111.574206 
L 152.569314 112.215948 
L 153.002828 113.423976 
L 153.274958 114.737061 
L 154.199179 115.612935 
L 155.457097 116.662529 
L 156.019207 117.477991 
L 156.500079 117.86061 
L 156.85199 117.877108 
L 157.33869 118.506476 
L 157.737596 118.744249 
L 158.338321 118.934709 
L 158.638138 119.954218 
L 159.220284 120.375414 
L 159.71245 121.810538 
L 160.113905 122.450825 
L 160.463266 122.777397 
L 161.061077 123.061754 
L 161.849416 124.24843 
L 162.44832 124.608243 
L 162.832653 125.154876 
L 163.232287 125.501344 
L 163.666165 126.176811 
L 164.650131 127.176424 
L 165.451949 128.591411 
L 165.891291 129.344032 
L 166.538283 129.725681 
L 166.955403 130.374702 
L 167.434453 130.596703 
L 167.720062 131.536631 
L 168.642098 132.652462 
L 169.124791 133.787702 
L 169.573241 134.208899 
L 169.933531 134.752378 
L 170.416953 134.952058 
L 171.468314 136.776352 
L 171.98343 137.249713 
L 173.104007 138.997095 
L 173.965205 139.67887 
L 174.584146 140.206094 
L 174.995437 141.079542 
L 175.477767 141.705271 
L 176.303264 143.391027 
L 176.743334 144.785148 
L 177.667191 145.61177 
L 178.656258 146.820283 
L 180.405612 150.427626 
L 181.36007 151.016476 
L 181.760433 151.735615 
L 182.197589 152.866731 
L 182.671175 153.083395 
L 184.161514 154.981932 
L 184.537104 155.933506 
L 185.373166 157.271581 
L 185.843109 157.42589 
L 186.260958 158.735578 
L 187.161135 159.734948 
L 187.427072 160.240821 
L 187.664594 162.044007 
L 188.120694 163.064486 
L 189.335989 164.483597 
L 189.637626 165.980348 
L 190.489717 167.703711 
L 190.935252 168.276305 
L 191.338165 168.994474 
L 191.686797 171.30426 
L 192.189527 171.759909 
L 192.815025 173.365599 
L 193.13342 174.914029 
L 194.432139 176.667962 
L 194.769114 177.683104 
L 195.175305 179.415443 
L 196.101712 180.597996 
L 196.569834 181.33703 
L 197.795329 184.401622 
L 199.168 186.116735 
L 199.573463 186.698549 
L 200.075828 187.936177 
L 200.891854 189.103929 
L 201.794217 190.831659 
L 202.172722 192.031923 
L 204.330089 196.251408 
L 204.735915 197.745005 
L 205.601849 198.755536 
L 207.59929 203.024759 
L 208.013496 203.586677 
L 208.304205 204.41985 
L 208.839721 204.933244 
L 209.241176 206.187613 
L 209.942084 207.490507 
L 211.038982 209.430776 
L 211.370492 210.885068 
L 212.190525 212.357072 
L 212.908554 213.663605 
L 213.291795 214.115372 
L 213.612012 215.196022 
L 215.12603 217.889641 
L 215.932948 219.160994 
L 216.490687 220.850874 
L 217.665544 222.757904 
L 218.11618 223.297986 
L 218.891404 224.954141 
L 219.241493 225.487673 
L 219.50488 226.233501 
L 220.230195 227.825118 
L 220.688117 228.112871 
L 221.536564 229.734817 
L 222.062245 231.123357 
L 223.580999 233.359871 
L 223.873165 234.063725 
L 224.249848 234.458475 
L 224.884818 235.608516 
L 225.450571 235.968086 
L 226.078984 236.913594 
L 226.418144 237.453676 
L 226.974061 237.881666 
L 227.997007 239.296653 
L 228.769317 240.143655 
L 229.407929 241.362844 
L 230.40246 242.512642 
L 231.032694 243.643515 
L 233.275671 246.586552 
L 236.098972 250.033519 
L 236.746328 250.605143 
L 237.332846 251.48029 
L 238.020275 252.353011 
L 238.326649 252.739997 
L 238.740854 252.993297 
L 241.114613 255.339477 
L 242.239927 256.162702 
L 243.006043 257.063082 
L 243.452307 257.539112 
L 244.157222 258.37835 
L 244.729533 258.927167 
L 245.132081 259.570122 
L 245.879982 260.257235 
L 246.80894 261.186487 
L 247.3787 261.690904 
L 248.018042 262.115012 
L 248.726599 262.63714 
L 249.100368 263.088664 
L 250.639158 264.531068 
L 250.711654 264.780486 
L 251.860646 265.784709 
L 252.227858 266.194987 
L 252.898528 266.546065 
L 253.141514 266.733614 
L 253.503626 266.841339 
L 253.639508 267.012147 
L 255.180849 268.030442 
L 256.788856 269.115702 
L 257.998322 269.702611 
L 258.511617 270.1767 
L 261.180821 271.688251 
L 261.634735 271.922869 
L 262.413602 272.387786 
L 262.547663 272.528969 
L 263.055857 272.736171 
L 269.103916 275.977126 
L 269.541801 276.199273 
L 269.718485 276.276549 
L 270.306096 276.449031 
L 271.81975 277.103341 
L 273.11774 277.857904 
L 274.147608 278.24819 
L 280.15523 280.620233 
L 280.85213 280.892652 
L 283.177802 281.752732 
L 283.908582 282.033667 
L 284.87579 282.35284 
L 293.13331 284.940262 
L 293.855347 285.109031 
L 294.309625 285.245799 
L 295.65716 285.543038 
L 296.686299 285.866724 
L 297.205058 286.023629 
L 297.934745 286.166292 
L 299.076816 286.455598 
L 310.120479 288.602073 
L 310.916832 288.727874 
L 311.219563 288.788967 
L 312.678573 289.033023 
L 312.896786 289.091617 
L 314.482207 289.280719 
L 316.159795 289.526279 
L 317.513522 289.734039 
L 323.495279 290.528755 
L 325.8031 290.738674 
L 327.942981 291.01119 
L 330.395793 291.249472 
L 332.300337 291.46485 
L 339.143292 292.145096 
L 340.96077 292.309547 
L 344.541809 292.632359 
L 348.967653 292.972009 
L 356.108239 293.49438 
L 359.425527 293.724946 
L 385.718663 295.030313 
L 398.487273 295.488 
L 398.487273 295.488 
" clip-path="url(#pea0e010b5f)" style="fill: none; stroke: #87ceeb; stroke-width: 2; stroke-linecap: square"/>
   </g>
   <g id="line2d_13">
    <path d="M 81.856207 53.568 
L 85.051165 53.8657 
L 85.706754 53.849445 
L 86.571158 53.830762 
L 88.125394 53.961052 
L 89.077011 54.508656 
L 89.90932 54.461101 
L 91.018714 55.841878 
L 91.914702 55.913209 
L 93.059506 55.776854 
L 93.900412 56.175244 
L 94.809916 56.06485 
L 95.33363 57.639726 
L 96.065648 57.509437 
L 96.911655 57.596539 
L 97.96848 57.425003 
L 98.726036 57.441745 
L 99.894737 57.272635 
L 100.631965 57.173159 
L 101.421142 57.07247 
L 101.932979 57.127303 
L 102.791809 57.449751 
L 103.759528 57.327226 
L 104.588194 58.299422 
L 105.46717 58.78176 
L 106.45558 58.885361 
L 107.156014 59.615661 
L 108.048141 60.019874 
L 109.5897 61.515169 
L 110.432902 61.339266 
L 111.043464 61.334414 
L 111.928341 62.044333 
L 112.56659 62.610862 
L 113.107935 62.828011 
L 113.97059 63.087862 
L 116.585514 63.172538 
L 118.844156 63.651236 
L 123.994222 65.02619 
L 124.835384 65.564089 
L 126.105323 66.890517 
L 126.734828 68.558319 
L 128.632816 70.137077 
L 135.65719 73.577979 
L 136.560283 74.463559 
L 137.56465 76.015629 
L 138.234227 76.668046 
L 138.904898 78.128646 
L 139.814912 79.301009 
L 142.299053 79.880639 
L 143.68411 81.198818 
L 146.743112 84.28282 
L 148.336547 85.434559 
L 151.770775 89.344212 
L 157.113191 93.608097 
L 160.611899 96.78284 
L 164.620259 101.099131 
L 167.653396 102.820796 
L 168.171062 104.007958 
L 170.200196 107.549307 
L 174.446806 113.387825 
L 179.353887 119.882643 
L 191.240169 133.109566 
L 194.982956 139.520922 
L 198.926471 146.583239 
L 203.894754 155.486591 
L 210.466307 167.089385 
L 216.360268 176.995991 
L 222.562789 187.591893 
L 228.82214 197.826769 
L 235.022475 208.162578 
L 242.534643 218.536721 
L 251.178682 230.084196 
L 260.871168 241.34489 
L 270.407371 252.030563 
L 280.84448 261.674891 
L 292.695789 270.693975 
L 308.227228 278.993241 
L 332.355346 286.384024 
L 367.559915 292.353438 
" clip-path="url(#pea0e010b5f)" style="fill: none; stroke: #ff00ff; stroke-width: 2; stroke-linecap: square"/>
   </g>
   <g id="patch_3">
    <path d="M 57.6 307.584 
L 57.6 41.472 
" style="fill: none; stroke: #000000; stroke-width: 0.8; stroke-linejoin: miter; stroke-linecap: square"/>
   </g>
   <g id="patch_4">
    <path d="M 414.72 307.584 
L 414.72 41.472 
" style="fill: none; stroke: #000000; stroke-width: 0.8; stroke-linejoin: miter; stroke-linecap: square"/>
   </g>
   <g id="patch_5">
    <path d="M 57.6 307.584 
L 414.72 307.584 
" style="fill: none; stroke: #000000; stroke-width: 0.8; stroke-linejoin: miter; stroke-linecap: square"/>
   </g>
   <g id="patch_6">
    <path d="M 57.6 41.472 
L 414.72 41.472 
" style="fill: none; stroke: #000000; stroke-width: 0.8; stroke-linejoin: miter; stroke-linecap: square"/>
   </g>
   <g id="legend_1">
    <g id="patch_7">
     <path d="M 333.005938 78.82825 
L 407.72 78.82825 
Q 409.72 78.82825 409.72 76.82825 
L 409.72 48.472 
Q 409.72 46.472 407.72 46.472 
L 333.005938 46.472 
Q 331.005938 46.472 331.005938 48.472 
L 331.005938 76.82825 
Q 331.005938 78.82825 333.005938 78.82825 
z
" style="fill: #ffffff; opacity: 0.8; stroke: #cccccc; stroke-linejoin: miter"/>
    </g>
    <g id="line2d_14">
     <path d="M 335.005938 54.570437 
L 345.005938 54.570437 
L 355.005938 54.570437 
" style="fill: none; stroke: #87ceeb; stroke-width: 2; stroke-linecap: square"/>
    </g>
    <g id="text_14">
     <!-- DALI -->
     <g transform="translate(363.005938 58.070437) scale(0.1 -0.1)">
      <defs>
       <path id="DejaVuSans-44" d="M 1259 4147 
L 1259 519 
L 2022 519 
Q 2988 519 3436 956 
Q 3884 1394 3884 2338 
Q 3884 3275 3436 3711 
Q 2988 4147 2022 4147 
L 1259 4147 
z
M 628 4666 
L 1925 4666 
Q 3281 4666 3915 4102 
Q 4550 3538 4550 2338 
Q 4550 1131 3912 565 
Q 3275 0 1925 0 
L 628 0 
L 628 4666 
z
" transform="scale(0.015625)"/>
       <path id="DejaVuSans-41" d="M 2188 4044 
L 1331 1722 
L 3047 1722 
L 2188 4044 
z
M 1831 4666 
L 2547 4666 
L 4325 0 
L 3669 0 
L 3244 1197 
L 1141 1197 
L 716 0 
L 50 0 
L 1831 4666 
z
" transform="scale(0.015625)"/>
       <path id="DejaVuSans-4c" d="M 628 4666 
L 1259 4666 
L 1259 531 
L 3531 531 
L 3531 0 
L 628 0 
L 628 4666 
z
" transform="scale(0.015625)"/>
       <path id="DejaVuSans-49" d="M 628 4666 
L 1259 4666 
L 1259 0 
L 628 0 
L 628 4666 
z
" transform="scale(0.015625)"/>
      </defs>
      <use xlink:href="#DejaVuSans-44"/>
      <use xlink:href="#DejaVuSans-41" x="75.251953"/>
      <use xlink:href="#DejaVuSans-4c" x="143.660156"/>
      <use xlink:href="#DejaVuSans-49" x="199.373047"/>
     </g>
    </g>
    <g id="line2d_15">
     <path d="M 335.005938 69.248562 
L 345.005938 69.248562 
L 355.005938 69.248562 
" style="fill: none; stroke: #ff00ff; stroke-width: 2; stroke-linecap: square"/>
    </g>
    <g id="text_15">
     <!-- TM-align -->
     <g transform="translate(363.005938 72.748562) scale(0.1 -0.1)">
      <defs>
       <path id="DejaVuSans-54" d="M -19 4666 
L 3928 4666 
L 3928 4134 
L 2272 4134 
L 2272 0 
L 1638 0 
L 1638 4134 
L -19 4134 
L -19 4666 
z
" transform="scale(0.015625)"/>
       <path id="DejaVuSans-4d" d="M 628 4666 
L 1569 4666 
L 2759 1491 
L 3956 4666 
L 4897 4666 
L 4897 0 
L 4281 0 
L 4281 4097 
L 3078 897 
L 2444 897 
L 1241 4097 
L 1241 0 
L 628 0 
L 628 4666 
z
" transform="scale(0.015625)"/>
       <path id="DejaVuSans-2d" d="M 313 2009 
L 1997 2009 
L 1997 1497 
L 313 1497 
L 313 2009 
z
" transform="scale(0.015625)"/>
       <path id="DejaVuSans-67" d="M 2906 1791 
Q 2906 2416 2648 2759 
Q 2391 3103 1925 3103 
Q 1463 3103 1205 2759 
Q 947 2416 947 1791 
Q 947 1169 1205 825 
Q 1463 481 1925 481 
Q 2391 481 2648 825 
Q 2906 1169 2906 1791 
z
M 3481 434 
Q 3481 -459 3084 -895 
Q 2688 -1331 1869 -1331 
Q 1566 -1331 1297 -1286 
Q 1028 -1241 775 -1147 
L 775 -588 
Q 1028 -725 1275 -790 
Q 1522 -856 1778 -856 
Q 2344 -856 2625 -561 
Q 2906 -266 2906 331 
L 2906 616 
Q 2728 306 2450 153 
Q 2172 0 1784 0 
Q 1141 0 747 490 
Q 353 981 353 1791 
Q 353 2603 747 3093 
Q 1141 3584 1784 3584 
Q 2172 3584 2450 3431 
Q 2728 3278 2906 2969 
L 2906 3500 
L 3481 3500 
L 3481 434 
z
" transform="scale(0.015625)"/>
      </defs>
      <use xlink:href="#DejaVuSans-54"/>
      <use xlink:href="#DejaVuSans-4d" x="61.083984"/>
      <use xlink:href="#DejaVuSans-2d" x="147.363281"/>
      <use xlink:href="#DejaVuSans-61" x="183.447266"/>
      <use xlink:href="#DejaVuSans-6c" x="244.726562"/>
      <use xlink:href="#DejaVuSans-69" x="272.509766"/>
      <use xlink:href="#DejaVuSans-67" x="300.292969"/>
      <use xlink:href="#DejaVuSans-6e" x="363.769531"/>
     </g>
    </g>
   </g>
  </g>
 </g>
 <defs>
  <clipPath id="pea0e010b5f">
   <rect x="57.6" y="41.472" width="357.12" height="266.112"/>
  </clipPath>
 </defs>
</svg>
